<svg xmlns="http://www.w3.org/2000/svg" width="500" height="500"><style>.st2{fill:#ebebeb}.st4{fill:#fff}</style><path style="fill:#264de4" d="m427.1 98.7-32.2 361.5-145.1 40.2-144.6-40.2L72.9 98.7z"/><path style="fill:#2965f1" d="m367.2 437.2 27.6-309H250v341.5z"/><path class="st2" d="m146.8 262.3 4 44.4H250v-44.4zM250 172.6H138.8l4.1 44.3H250zM250 423.6v-46.1l-.2.1-49.4-13.4-3.1-35.3h-44.5l6.2 69.6 90.8 25.2z"/><path class="st4" d="M156.3.4H210v22.5h-31.3v22.5H210v22.5h-53.7V.4zM220.7.4h53.7v19.5h-31.3v3.9h31.3v44.9h-53.7V48.3H252v-3.9h-31.3V.4zM285.2.4h53.7v19.5h-31.3v3.9h31.3v44.9h-53.7V48.3h31.2v-3.9h-31.3l.1-44z"/><path style="fill:#fff" d="m304.5 306.7-5.2 57.5-49.4 13.3v46.2l90.9-25.2.7-7.5 10.4-116.8 1.1-11.9 8-89.7H49.9l200 44.3h62.5l-4.1 45.4h-58.4v44.4z"/></svg>