<svg xmlns="http://www.w3.org/2000/svg" width="500" height="500"><style>.st2{fill:#ebebeb}</style><path style="fill:#264de4" d="m448.4 25-36.1 405-162.5 45-162-45L51.6 25z"/><path style="fill:#2965f1" d="M381.3 404.2 412.2 58H250v382.6z"/><path class="st2" d="m134.4 208.3 4.5 49.7H250v-49.7zM250 107.8H125.4l4.6 49.6h120zM250 389v-51.7l-.2.1-55.4-15-3.4-39.5h-49.9l7 77.9 101.7 28.3z"/><path style="fill:#fff" d="m311.1 258-5.9 64.4-55.3 14.9v51.8l101.8-28.3.8-8.4 11.7-130.8 1.2-13.3 8.9-100.5H249.9v49.6h70l-4.6 50.9h-65.4V258z"/></svg>