<svg xmlns="http://www.w3.org/2000/svg" width="500" height="500"><path d="M168.3 495c45 0 81.7-36.5 81.7-81.7v-81.7h-81.7c-45 0-81.7 36.5-81.7 81.7s36.7 81.7 81.7 81.7z" style="fill:#0acf83"/><path d="M86.7 250c0-45 36.5-81.7 81.7-81.7H250v163.3h-81.7c-45 .1-81.6-36.5-81.6-81.6z" style="fill:#a259ff"/><path d="M86.7 86.7c0-45 36.5-81.7 81.7-81.7H250v163.3h-81.7c-45 .2-81.6-36.5-81.6-81.6z" style="fill:#f24e1e"/><path d="M250 5.1h81.7c45 0 81.7 36.5 81.7 81.7s-36.5 81.7-81.7 81.7H250V5.1z" style="fill:#ff7262"/><path d="M413.3 250c0 45-36.5 81.7-81.7 81.7S250 295.1 250 250s36.5-81.7 81.7-81.7 81.6 36.7 81.6 81.7z" style="fill:#1abcfe"/></svg>