<svg xmlns="http://www.w3.org/2000/svg" width="500" height="500"><style>.st5{fill:#fff}</style><path d="M194.1 354c30.8 0 55.9-25 55.9-55.9v-55.9h-55.9c-30.8 0-55.9 25-55.9 55.9s25.1 55.9 55.9 55.9z" style="fill:#0acf83"/><path d="M138.2 186.3c0-30.8 25-55.9 55.9-55.9H250v111.8h-55.9c-30.8 0-55.9-25-55.9-55.9z" style="fill:#a259ff"/><path d="M138.2 74.5c0-30.8 25-55.9 55.9-55.9H250v111.8h-55.9c-30.8.1-55.9-25-55.9-55.9z" style="fill:#f24e1e"/><path d="M250 18.7h55.9c30.8 0 55.9 25 55.9 55.9s-25 55.9-55.9 55.9H250V18.7z" style="fill:#ff7262"/><path d="M361.8 186.3c0 30.8-25 55.9-55.9 55.9s-55.9-25-55.9-55.9 25-55.9 55.9-55.9 55.9 25.1 55.9 55.9z" style="fill:#1abcfe"/><path class="st5" d="M77.1 465.6v-86.2h62.6v11.3H89.4V418H129v11.3H89.4v36.2H77.1zM152.4 393.1v-13.8h12.3v13.8h-12.3zm.5 72.5v-61.1h11.6v61.1h-11.6zM178.6 477.3c0-2.6.8-5.1 2.3-7.4 1.5-2.3 3.4-4.1 5.7-5.4-3.7-2.1-5.5-5.4-5.5-10s3-8.9 9.1-12.9c-4.5-3.9-6.8-9.3-6.8-16.1 0-6.3 2.4-11.7 7.1-16.1 4.7-4.4 10.6-6.6 17.6-6.6 4.9 0 9.2 1 12.8 3 3.6 2 6.3 4.6 8.1 7.8 1.4-6.1 4.8-9.1 10.1-9.1h6.3v9.6h-5.1c-2.7 0-4.6.5-5.7 1.6-1.1 1.1-1.7 3.3-2 6.7l-.2 3c-.5 6.9-2.9 12.4-7.3 16.4-4.4 4.1-10 6.1-16.9 6.1-5.3 0-9.1-.7-11.6-2.2-3.6 1.5-5.4 3.4-5.4 5.8 0 2.6 1.8 3.9 5.4 3.9h26.6c5.9 0 10.7 1.6 14.2 4.7 3.6 3.2 5.4 7.3 5.4 12.4 0 5.4-1.8 9.6-5.5 12.6s-8.3 4.5-14 4.5h-28.5c-10.8 0-16.2-4.1-16.2-12.3zm19.5 2.4h23.8c6.2 0 9.2-2.4 9.2-7.1 0-2.5-.8-4.4-2.3-5.4-1.6-1.1-3.9-1.6-6.9-1.6h-28.6c-3 1.9-4.4 4.5-4.4 7.8 0 2.4.7 4 2.2 5 1.4.9 3.8 1.3 7 1.3zm23.3-54.3c0-3.9-1.2-7.2-3.6-9.7-2.4-2.5-5.6-3.8-9.5-3.8-3.9 0-7.1 1.3-9.5 3.8-2.4 2.5-3.6 5.8-3.6 9.8 0 4.1 1.2 7.4 3.6 9.8 2.4 2.4 5.6 3.6 9.6 3.6s7.2-1.2 9.6-3.6c2.2-2.5 3.4-5.8 3.4-9.9zM257.3 465.6v-61.1h11.2v9.2c4.1-7.3 10.3-11 18.5-11 4.4 0 8.2 1.1 11.5 3.3 3.3 2.2 5.8 5.3 7.5 9.4 4-8.5 10.8-12.7 20.4-12.7 6.8 0 12 1.9 15.6 5.7 3.6 3.8 5.4 9.3 5.4 16.6v40.5h-11.6v-37.3c0-10.2-4.3-15.3-12.8-15.3-4.4 0-7.8 1.3-10 3.9-2.1 2.3-3.4 5-4.1 8.1-.7 3.1-1 7-1 11.8v28.8h-11.3v-37.3c0-10.2-4.3-15.3-12.9-15.3-4.4 0-7.6 1.3-9.9 3.9-3.4 3.9-5 10.5-5 19.8v28.8h-11.5zM363 449.8c0-7.7 3.5-13.4 10.6-17.1 7-3.8 16.3-6.1 27.8-7v-1.8c0-7.6-4.3-11.3-12.8-11.3-8 0-13.3 3.7-15.8 11.1l-11.1-3.7c1.2-4.8 4.2-8.8 8.9-12.1 4.7-3.3 10.7-5 18-5 8 0 14 1.9 18.2 5.6 4.1 3.7 6.2 9 6.2 15.8v28c0 1.4.2 2.3.7 2.8.5.5 1.4.7 2.8.7h6.3v10H414c-3.9 0-6.7-.8-8.3-2.3-1.6-1.5-2.5-3.8-3-7-5 7.3-11.7 11-20.1 11-6 0-10.8-1.6-14.4-4.7-3.4-3.4-5.2-7.7-5.2-13zm38.5-9.5V434c-17.7 1.7-26.5 6.7-26.5 14.8 0 2.8.9 5 2.8 6.6 1.8 1.6 4.5 2.4 8.1 2.4 4.4 0 8-1.5 11.1-4.6 2.9-3 4.5-7.3 4.5-12.9z"/></svg>