<svg xmlns="http://www.w3.org/2000/svg" width="500" height="500"><style>.st0{fill:#362701}</style><path class="st0" d="M407 45.1V34.2h-25c-2.9-.8-6.3-1.3-11.8-1.3-19.5.1-29.2 10.2-29.2 24.9 0 9.5 4.7 16.1 11 19.2-3.1 2.8-5.6 5.2-7.9 7.7-2.3 2.4-3.7 5-3.7 7.8 0 3.5 1.4 6.7 5.6 8.4-4.5 4.2-7 7.3-7 13 0 10.1 8.8 16 32 16 22.3 0 35.2-8.3 35.2-23 0-17-13-17.6-35.2-19.1l-12.5-.8 4.2-6.8c2.3.6 6 1.2 10.1 1.2 16.1 0 27.2-8.3 27.2-22.5 0-5.9-2.4-10-4.7-12.9l11.7-.9zm-31 60.5c6.1.4 11 .6 11 4.7 0 6.9-10.1 7.4-17.5 7.4-9 0-15.5-1.5-15.5-6.6 0-2.6 1.7-4.7 3.3-6.8l18.7 1.3zM371.1 68c-8.4 0-11.9-4.4-11.9-10.6 0-8.3 5.2-11.8 12.3-11.8 7.3 0 11.6 4 11.6 11.5 0 6.7-4.9 10.9-12 10.9zM440.9 86.1V33h-26.5L413 43.4l6.9 2.4c1.3.4 1.7 1.3 1.7 2.7v37.6c0 1.9-.3 2.3-2 2.6l-6.5.9v10.1h36.4V89.5l-6.5-.9c-2-.2-2.1-.5-2.1-2.5zM418 11.2c0 7.3 4.2 11.5 11.5 11.5 7.4 0 11.6-4.2 11.6-11.5C441.1 4 436.9 0 429.5 0h-.1C422.2 0 418 4 418 11.2zM486.2 85.4c-6.9 0-8.7-2.9-8.7-10.5V44.4h19.1V31.6h-18c-1 0-1-.4-1-1.3V12.2h-12.2c-1.4 13.9-5.9 19.6-17.1 20.8v11.4h9c1 0 1 .5 1 1.3v33.5c0 14.5 5.8 20.6 21 20.6 7.3 0 15.3-2.4 20.8-5.1l-3.5-11.3c-3.1 1.2-6.8 2-10.4 2z"/><path d="M240.9 65.9c-11.1-11.1-29.2-11.1-40.3 0L160.5 106l50.9 50.9c12.2-4.2 25.7-1 34.8 8.1 9.2 9.2 12.3 22.8 8 35l49 49.1c12.2-4.3 25.9-1.1 35 8 13.2 13.2 13.3 34.7 0 47.9-13.2 13.2-34.7 13.3-47.9 0-9.7-9.7-12.6-24.2-7.4-36.9l-45.7-45.7v120.4c3.3 1.6 6.4 3.8 9 6.4 13.2 13.2 13.2 34.7 0 48-13.3 13.2-34.7 13.2-47.9 0-13.2-13.2-13.3-34.7 0-47.9 3.2-3.2 6.9-5.7 11.1-7.4V220.4c-4.2-1.7-7.9-4.2-11.1-7.4-9.7-9.7-12.6-24.4-7.3-37.1l-50.2-50.2L8.3 258.2c-5.5 5.5-8.3 12.7-8.3 20v.4c0 7.2 2.8 14.4 8.3 20l193.2 193.2c5.5 5.5 12.8 8.3 20.1 8.3h.2c7.3 0 14.5-2.8 20.1-8.3l192.3-192.3c11.1-11.1 11.1-29.2 0-40.3L240.9 65.9z" style="fill:#f03c2e"/></svg>