<svg xmlns="http://www.w3.org/2000/svg" width="500" height="500"><style>.st0{fill-rule:evenodd;clip-rule:evenodd;fill:#da4648}</style><path class="st0" d="M249 393.5c-29.3 0-51.9-4.4-62.8-7-7.4-1.8-13.4-3.6-18-5.6l14.5 24.8 5.7 77.5c0 8.7 27.6 15.7 61.6 15.7s61.6-7 61.6-15.7l4.5-78.3 13.7-24c-4.6 1.9-10.6 3.8-18.1 5.6-10.8 2.6-33.5 7-62.7 7zm81.4-252.1c-21.5 3-50 4.7-80.3 4.7s-58.8-1.7-80.3-4.7c-10.7-1.5-19.1-3.2-25-5.2-1.4-.5-3.8-1.3-6.2-2.6l13.3 122.6c.6-2.1 1.3-4.2 2.1-6.3 1.6-4.3 3.4-8.5 5.4-12.6 2.1-4.1 4.3-8 6.7-11.7 2.4-3.7 5-7 7.7-10.1 2.7-3.1 5.5-5.7 8.4-7.9 2.9-2.2 5.8-4 8.7-5.2 2.9-1.2 5.8-1.9 8.7-1.9 3.3 0 6.5.9 9.6 2.7 3.1 1.8 6 4.7 8.7 8.8.6.9 1 1.8 1.2 2.7.2.9.2 1.8.2 2.6 0 1.9-.5 3.5-1.4 4.6-.9 1.1-2 1.7-3.3 1.7-1.2 0-2.2-.6-3.2-1.8-1-1.2-2.1-3-3.4-5.3-1.2-2.1-2.4-3.6-3.8-4.5-1.4-.9-2.9-1.4-4.6-1.4-2.5 0-5.3 1.1-8.2 3.2-2.9 2.1-5.8 4.9-8.6 8.4s-5.6 7.4-8.2 11.9c-2.6 4.5-4.9 9-6.9 13.7-2 4.7-3.6 9.3-4.8 13.8s-1.8 8.6-1.8 12.2c0 1.2.1 2.4.2 3.7.2 1.3.5 2.4.9 3.5.5 1 1.1 1.9 1.9 2.5.8.7 1.8 1 3 1 1.3 0 2.9-.5 4.6-1.4 1.7-.9 3.5-2.1 5.3-3.6 1.8-1.5 3.7-3.1 5.5-5 1.9-1.9 3.6-3.7 5.2-5.6 1.6-1.9 3-3.7 4.3-5.5 1.2-1.7 2.2-3.3 2.8-4.6l5.1-15.2c.6-1.6 1.4-2.8 2.4-3.5 1-.7 2-1 3.1-1 .5 0 1 .1 1.5.3.5.2 1 .4 1.4.8.4.4.7.8 1 1.4.2.6.4 1.3.4 2 0 2.1-.2 4-.5 5.8-.4 1.8-.8 3.6-1.4 5.3-.6 1.7-1.2 3.5-1.9 5.2-.7 1.7-1.4 3.6-2 5.5-.1.2-.4.9-.8 2s-.8 2.6-1.4 4.3c-.5 1.7-1.1 3.6-1.8 5.8-.6 2.1-1.3 4.3-2 6.5s-1.3 4.4-1.9 6.5c-.6 2.1-1.2 4.1-1.7 5.8-.5 1.7-.9 3.2-1.2 4.3-.3 1.2-.5 1.9-.6 2.1-.2.7-.5 1.5-.9 2.3-.4.8-.9 1.6-1.4 2.4-.5.8-1.1 1.4-1.8 1.9s-1.3.7-2 .7c-1.2 0-2-.4-2.5-1.2-.5-.8-.8-2.2-.8-4.3v-.9c0-.3 0-.6.1-1 0-.7.3-2 .8-3.9s1.1-4 1.8-6.4c.7-2.4 1.5-4.9 2.3-7.4.8-2.6 1.6-4.9 2.2-6.9-1.9 2.2-4 4.3-6.3 6.4-2.3 2.1-4.6 4-6.9 5.7-2.4 1.7-4.7 3.1-7.1 4.2-2.4 1.1-4.7 1.6-6.9 1.6-2.5 0-4.7-.6-6.6-1.7-.3-.2-.6-.4-1-.7l7.4 77.7c1.9 4.8 38.3 16.7 86.2 16.7 47.9 0 84.3-11.9 86.2-16.7l10.6-92.4c-.9.8-1.7 1.6-2.6 2.4-3.1 2.8-5.9 5.3-8.6 7.3-2.7 2-5.4 3.6-7.9 4.7-2.6 1.1-5.3 1.7-8.3 1.7-2.8 0-4.9-.6-6.4-1.8-1.5-1.2-2.3-2.9-2.3-5v-.5c0-.2 0-.3.1-.6.1-1.3.7-2.8 1.7-4.5 1-1.7 2.2-3.4 3.5-5.2 1.4-1.8 2.9-3.6 4.4-5.5 1.6-1.9 3-3.6 4.3-5.3 1.3-1.7 2.4-3.2 3.3-4.6.9-1.4 1.3-2.5 1.3-3.4 0-.5-.2-.9-.5-1.2-.4-.3-1-.5-1.8-.5-1.5 0-3 .4-4.5 1.1-1.5.8-3.1 1.8-4.6 3-1.5 1.3-3 2.7-4.4 4.4-1.4 1.6-2.8 3.3-4 5.1-1.3 1.8-2.4 3.5-3.4 5.3-1 1.8-1.9 3.4-2.6 4.9-.2.5-.5 1.1-.9 2-.4.9-.8 1.8-1.3 2.9l-1.5 3.3c-.5 1.1-1 2.2-1.4 3.2-.4 1-.8 1.9-1.2 2.7-.3.8-.6 1.3-.7 1.6-.2.4-.5 1.1-.9 2.2s-.9 2.3-1.4 3.8c-.5 1.4-1.1 3-1.7 4.6-.6 1.6-1.2 3.1-1.7 4.5s-1 2.7-1.4 3.7c-.4 1.1-.7 1.8-.8 2.2-.4 1.1-.8 2.2-1.3 3.2s-1.1 1.9-1.7 2.6c-.6.8-1.4 1.4-2.2 1.8-.8.5-1.7.7-2.8.7-1.3 0-2.4-.3-3.2-.9-.9-.6-1.3-1.8-1.3-3.6 0-.9.1-1.7.3-2.6.2-.9.5-1.8.8-2.7.3-.9.7-1.7 1-2.6.3-.8.7-1.6 1-2.4 2-4.3 4-8.6 6-13 2-4.3 4-8.6 5.9-12.9.4-.9.7-1.8 1.1-2.6l-.3.3c-2.4 2.3-4.7 4.3-7.1 6-2.3 1.7-4.7 3.1-7 4.2-2.3 1-4.6 1.5-6.7 1.5-1.5 0-2.7-.2-3.7-.7-1-.5-1.8-1.1-2.4-1.9-.6-.8-1-1.8-1.3-2.9-.1-.4-.1-.8-.2-1.2-.6.5-1.3 1-1.9 1.4-2.3 1.6-4.5 2.9-6.7 3.8-2.2 1-4.1 1.5-5.9 1.5-1.7 0-3.2-.6-4.3-1.7-1.1-1.2-1.6-3.1-1.6-5.9 0-2 .3-4.3.9-6.9-.9 1.7-2.1 3.4-3.5 5.1-1.4 1.7-3 3.3-4.9 4.7-1.8 1.4-3.9 2.6-6.1 3.5-2.3.9-4.7 1.3-7.4 1.3-1.2 0-2.4-.2-3.5-.5s-2.1-.8-2.9-1.6c-.8-.7-1.5-1.7-2-2.9s-.8-2.8-.8-4.6c0 0 .1-.7.2-2s.6-3.3 1.4-6c.8-2.7 2-6.3 3.6-10.6s3.9-9.6 6.9-15.8c.8-1.6 1.6-2.8 2.6-3.5 1-.7 2.1-1.1 3.2-1.1.5 0 1 .1 1.6.2.5.2 1.1.4 1.5.7.5.3.9.7 1.1 1.2.3.5.4 1.1.4 1.7 0 .4-.1.8-.2 1.2-.2.7-.6 1.7-1.2 2.9s-1.3 2.5-2.1 4.1c-.8 1.5-1.6 3.2-2.5 4.9-.9 1.8-1.7 3.6-2.5 5.5s-1.4 3.8-2 5.8-.9 3.9-.9 5.7c0 .8.2 1.5.5 2.1.4.6 1 1 1.8 1 2.4 0 4.6-.8 6.8-2.3 2.1-1.6 4.1-3.5 5.9-5.8 1.8-2.3 3.5-4.8 4.9-7.4 1.5-2.6 2.7-5.1 3.7-7.3.7-1.5 1.3-3 1.8-4.7.5-1.7 1.1-3.2 1.7-4.7.6-1.4 1.3-2.6 2.1-3.6.8-.9 1.8-1.4 3-1.4 1.3 0 2.3.5 3.1 1.5.8 1 1.1 2.2 1.1 3.6 0 .8-.2 1.8-.7 3.2s-1.1 2.9-1.9 4.7c-.7 1.7-1.6 3.6-2.4 5.6-.9 2-1.7 4-2.4 6s-1.4 4-1.9 6-.7 3.8-.7 5.5c0 1.6.8 2.3 2.4 2.3 1.1 0 2.5-.4 4.2-1.2 1.7-.8 3.4-1.9 5.3-3.3.5-.3.9-.7 1.4-1.1.5-2.1 1.1-4.1 1.8-5.8 1.3-3.4 2.6-6.7 3.9-10 1.3-3.3 2.5-6.4 3.6-9.1l16.5-41.7c.7-1.7 1.5-2.9 2.6-3.6 1.1-.7 2.2-1 3.4-1 1.1 0 2.2.4 3.1 1.1.9.7 1.4 1.9 1.4 3.6 0 .8-.2 1.6-.5 2.5-.3.9-.7 1.8-1.2 2.8-.9 2-2 4.5-3.2 7.4-1.3 2.9-2.6 6.1-4 9.6-1.4 3.4-2.9 7-4.4 10.8-1.5 3.7-3 7.4-4.4 10.9-1.4 3.5-2.8 6.9-4 10-1.3 3.2-2.3 5.9-3.2 8.2-.4 1-.8 2.1-1.2 3.5-.4 1.3-.6 2.5-.6 3.5 0 .6.1 1.2.3 1.5s.6.6 1.3.6c.8 0 1.7-.3 2.9-.8 1.1-.5 2.4-1.2 3.7-2.1a84 84 0 0 0 4.1-3c1.4-1.1 2.9-2.3 4.3-3.6 1.4-1.2 2.8-2.5 4.1-3.7 1.3-1.2 2.4-2.4 3.5-3.4.2-.2.5-.4.8-.6.6-1.8 1.2-3.6 1.7-5.4.3-.8.7-1.9 1.2-3.3s1.1-2.8 1.7-4.2c.7-1.4 1.4-2.6 2.2-3.6.8-1 1.7-1.5 2.6-1.5 1.5 0 2.5.3 3.2 1 .7.7 1 1.6 1 2.9 0 .3 0 .7-.1 1.2l-.3 1.8c-.1.6-.2 1.2-.4 1.8-.1.6-.2 1-.4 1.2 1.3-1.5 2.8-2.9 4.4-4.4 1.6-1.4 3.2-2.7 4.9-3.9 1.7-1.2 3.4-2.1 5.1-2.8 1.7-.7 3.5-1.1 5.2-1.1 1.2 0 2.4.2 3.6.5 1.2.3 2.2.8 3.2 1.5.9.7 1.7 1.5 2.3 2.5.6 1 .9 2.2.9 3.5 0 1.8-.4 3.7-1.3 5.7s-2 4-3.4 6c-1.3 2-2.8 4-4.4 5.9-1.6 1.9-3 3.7-4.4 5.2-1.4 1.6-2.5 2.9-3.4 4-.9 1.1-1.4 1.8-1.4 2.2 0 .5.2.9.5 1.3.3.3.9.5 1.6.5.6 0 1.5-.3 2.7-1 1.2-.7 2.9-1.9 5-3.6 2.2-1.7 4.9-4 8.2-6.8 2.3-2 5-4.3 8-7l14.4-133.6c-2.3 1.3-4.7 2.1-6.2 2.6-5.9 3-14.3 4.8-24.9 6.3zm-80.5-31.7c-62.4 0-112.9 7-112.9 15.6s50.5 15.6 112.9 15.6 112.9-7 112.9-15.6-50.5-15.6-112.9-15.6zm45.1 20.1c0 2-6 3.7-13.4 3.7s-13.4-1.6-13.4-3.7c0-2 6-3.7 13.4-3.7s13.4 1.7 13.4 3.7z"/><path class="st0" d="M270.9 128.2c-.1.1-.1.2-.1.3 0 1.3 4.8 2.4 10.8 2.4 6 0 10.8-1.1 10.8-2.4l14.1-57.2 56.1-59.2.1-.1c1.2-1.3-1.2-5.5-5.2-9.1s-8.3-4.8-9.7-3.4l-59.9 63-17 65.7z"/></svg>