<svg xmlns="http://www.w3.org/2000/svg" width="500" height="500"><style>.st2{fill:#ebebeb}.st3{fill:#fff}</style><path style="fill:#e44d26" d="M87.7 430 51.6 25h396.8l-36.2 405-162.4 45z"/><path style="fill:#f16529" d="m250 440.6 131.3-36.4L412.2 58H250z"/><path class="st2" d="M250 208.3h-65.8l-4.4-50.9H250v-49.6H125.4l1.3 13.3L138.9 258H250zM250 337.3l-.2.1-55.4-15-3.4-39.5h-50l7.1 77.9 101.7 28.3.2-.1z"/><path class="st3" d="M249.8 208.3V258h61.3l-5.9 64.4-55.4 14.9v51.8l101.9-28.3.7-8.4L364 221.6l1.3-13.3h-13.4zM249.8 107.8v49.6h120.1l1-11.1 2.2-25.2 1.1-13.3z"/></svg>