<svg xmlns="http://www.w3.org/2000/svg" width="500" height="500"><style>.st2{fill:#ebebeb}.st3,.st4{fill:#fff}</style><path style="fill:#e44d26" d="M105.1 459.8 72.9 98.3h354.2l-32.3 361.5-145 40.2z"/><path style="fill:#f16529" d="m250 469.3 117.2-32.5 27.6-309H250z"/><path class="st2" d="M250 261.9h-58.7l-4-45.4H250v-44.3H138.8l1.1 11.9 10.9 122.2H250zM250 377.1l-.2.1-49.4-13.4-3.1-35.3h-44.6l6.3 69.6 90.8 25.2.2-.1z"/><path class="st4" d="M105.8 0h22.5v22.3H149V0h22.5v67.4H149V44.8h-20.6v22.6h-22.5L105.8 0zM201.2 22.4h-19.8V0h62.2v22.4h-19.8v45.1h-22.5l-.1-45.1zM253.4 0h23.5l14.5 23.7L305.8 0h23.5v67.4h-22.4V34l-15.5 24h-.4l-15.5-24v33.4h-22.1V0zM340.5 0H363v45.1h31.7v22.3h-54.2V0z"/><path class="st3" d="M249.8 261.9v44.4h54.7l-5.2 57.5-49.5 13.3v46.2l91-25.2.6-7.5 10.4-116.8 1.1-11.9H341zM249.8 172.2V216.5H357l.9-9.9 2-22.5 1-11.9z"/></svg>