<svg xmlns="http://www.w3.org/2000/svg" width="500" height="500"><path d="M104.7 30.6h290.7c44.1 0 79.7 35.6 79.7 79.7v279.4c0 44.1-35.6 79.7-79.7 79.7H104.7c-44.1 0-79.7-35.6-79.7-79.7V110.4c0-44.1 35.6-79.8 79.7-79.8z" style="fill:#300"/><path d="M242.6 293.2h-69.8l-14.2 44.1c-.4 1.7-1.9 2.8-3.6 2.6h-35.3c-2.1 0-2.6-1.2-2.1-3.4L178 162.7c.5-1.9 1.1-4 1.9-6.2.7-4 1.1-8.1 1.1-12.2-.2-.9.5-1.9 1.5-2.1h48.6c1.5 0 2.3.5 2.4 1.5L302 337c.5 2.1 0 3-1.9 3h-39.2c-1.4.2-2.6-.7-3-2.1l-15.3-44.7zm-59-38.1h47.6c-1.1-4-2.6-8.6-4.3-13.5-1.7-5-3.4-10.5-5-16.1-1.9-5.9-3.6-11.4-5.4-17.3-1.8-5.9-3.6-11.3-5-16.7-1.5-5.2-2.8-10.1-4.1-14.6h-.4c-1.7 8.1-3.8 16.1-6.4 24.2-2.8 9-5.6 18.4-8.6 27.7-2.7 9.7-5.5 18.5-8.4 26.3zm160.2-80c-6.2.2-12.2-2.3-16.7-6.6-4.3-4.7-6.6-10.9-6.4-17.3-.2-6.4 2.3-12.4 6.8-16.7 4.5-4.3 10.5-6.6 16.7-6.6 7.3 0 13 2.3 17.1 6.6 4.1 4.5 6.4 10.5 6.2 16.7.2 6.4-2.1 12.6-6.6 17.3-4.4 4.5-10.7 7-17.1 6.6zm-21 162.8V193.5c0-1.9.7-2.6 2.4-2.6h37.1c1.7 0 2.4.9 2.4 2.6v144.4c0 2.1-.7 3-2.4 3h-36.6c-1.9-.1-2.9-1.2-2.9-3z" style="fill:#ff9a00"/></svg>