<svg xmlns="http://www.w3.org/2000/svg" width="500" height="500"><style>.st0{fill:#0868ac}</style><path class="st0" d="M53.6 135.1c-39.8 57.3-34.9 131.8-4.4 192.6.7 1.5 1.5 2.9 2.2 4.3.5.9.9 1.8 1.4 2.7.3.5.6 1.1.9 1.6.5 1 1.1 1.9 1.6 2.8.9 1.7 1.9 3.3 2.9 5 .5.9 1.1 1.8 1.7 2.7 1.1 1.8 2.2 3.5 3.4 5.3.5.7.9 1.5 1.4 2.2 1.6 2.4 3.2 4.7 4.9 7 0 .1.1.1.1.2.3.4.6.7.8 1.1 1.4 2 2.9 4 4.5 5.9.6.7 1.1 1.4 1.7 2.1 1.3 1.7 2.7 3.4 4.1 5.1.5.6 1 1.3 1.6 1.9 1.9 2.2 3.8 4.4 5.7 6.5l.1.1.2.2c1.9 2.1 3.9 4.1 5.8 6.1.6.6 1.2 1.3 1.9 1.9 1.5 1.5 3.1 3.1 4.7 4.6.6.6 1.3 1.2 1.9 1.8 2.1 2 4.2 3.9 6.4 5.8l.1.1c.4.3.7.6 1.1.9 1.9 1.6 3.8 3.3 5.8 4.9.8.6 1.6 1.3 2.4 1.9 1.6 1.3 3.2 2.5 4.8 3.8.9.7 1.7 1.3 2.6 2l5.4 3.9c.7.5 1.3.9 2 1.4.2.1.4.3.5.4 1.7 1.2 3.5 2.3 5.3 3.5.8.5 1.5 1 2.3 1.5 2.7 1.7 5.5 3.4 8.2 5 .8.4 1.5.9 2.3 1.3 2 1.2 4.1 2.3 6.2 3.5 1.1.6 2.3 1.2 3.4 1.8 1.5.8 2.9 1.6 4.4 2.3.3.2.7.3 1 .5l1.8.9c2.3 1.1 4.7 2.2 7 3.2.5.2 1 .4 1.5.7 2.7 1.2 5.4 2.3 8.2 3.4.7.3 1.3.5 2 .8 2.5 1 5.1 1.9 7.7 2.9.3.1.6.2 1 .3 2.8 1 5.7 1.9 8.6 2.8l2.1.6c2.9.9 5.8 1.9 8.9 2.5 192.7 35.1 248.7-115.8 248.7-115.8-47 61.2-130.4 77.4-209.5 59.4-3-.7-5.9-1.6-8.8-2.5-.7-.2-1.5-.4-2.2-.7-2.9-.9-5.7-1.8-8.5-2.8-.4-.1-.8-.3-1.2-.4-2.5-.9-5-1.8-7.5-2.8-.7-.3-1.4-.5-2.1-.8-2.7-1.1-5.4-2.2-8.1-3.4-.5-.2-1.1-.5-1.6-.7-2.3-1-4.6-2.1-6.8-3.2-.7-.3-1.3-.6-2-.9-1.8-.9-3.5-1.8-5.3-2.7-1.2-.6-2.4-1.2-3.5-1.8-2.1-1.1-4.2-2.3-6.3-3.5l-2.1-1.2c-2.8-1.6-5.5-3.3-8.2-5-.8-.5-1.5-1-2.2-1.5-2-1.3-3.9-2.6-5.9-3.9-.6-.4-1.3-.9-1.9-1.3-1.9-1.3-3.7-2.7-5.5-4-.8-.6-1.6-1.2-2.5-1.9-1.7-1.3-3.3-2.6-5-3.9-.7-.6-1.5-1.2-2.2-1.8-2.1-1.7-4.2-3.5-6.2-5.3-.2-.2-.4-.4-.7-.6-2.2-1.9-4.4-3.9-6.5-6l-1.8-1.8c-1.6-1.5-3.2-3-4.7-4.6l-1.8-1.8c-2-2-3.9-4-5.8-6.1l-.3-.3c-2-2.2-3.9-4.4-5.9-6.7l-1.5-1.8c-1.4-1.7-2.8-3.5-4.2-5.2-.5-.6-1-1.3-1.5-1.9-1.7-2.2-3.3-4.3-4.9-6.5-44.3-59.7-60.1-142.3-25-210.1"/><path class="st0" d="M177.3 86.8c-28.8 41.5-27.2 97-4.8 140.8 3.8 7.4 8 14.5 12.7 21.3 4.3 6.2 9.1 13.5 14.8 18.5 2.1 2.3 4.2 4.5 6.5 6.7l1.7 1.7c2.2 2.1 4.3 4.1 6.6 6.1.1.1.2.2.3.2l.1.1c2.5 2.2 5.1 4.3 7.7 6.4.6.4 1.2.9 1.8 1.4 2.6 2 5.3 4 8.1 5.9.1.1.2.1.2.2 1.2.8 2.5 1.6 3.7 2.4.6.4 1.1.8 1.7 1.2 2 1.3 4 2.5 6 3.7.3.2.6.3.8.5 1.7 1 3.5 2 5.3 3 .6.3 1.2.7 1.9 1 1.2.6 2.5 1.3 3.7 1.9l.6.3c2.5 1.2 5.1 2.5 7.7 3.6.6.2 1.1.5 1.7.7 2.1.9 4.2 1.8 6.3 2.6.9.3 1.8.7 2.7 1 1.9.7 3.9 1.4 5.8 2 .9.3 1.7.6 2.6.8 2.8.9 5.5 1.9 8.4 2.4 148.8 24.5 183.1-90 183.1-90-31 44.6-90.9 65.9-154.9 49.3-2.8-.7-5.6-1.6-8.4-2.4-.9-.3-1.7-.5-2.5-.8-2-.6-3.9-1.3-5.9-2-.9-.3-1.8-.7-2.7-1-2.1-.8-4.2-1.7-6.3-2.6-.6-.2-1.1-.5-1.7-.7-2.6-1.1-5.2-2.3-7.8-3.6-1.3-.6-2.6-1.3-3.9-2-.7-.4-1.5-.8-2.2-1.2-1.7-.9-3.3-1.8-4.9-2.8-.4-.2-.8-.4-1.2-.7l-6-3.6-1.8-1.2c-1.3-.8-2.6-1.7-3.9-2.6-2.7-1.9-5.4-3.9-8-5.9-.6-.5-1.2-.9-1.8-1.4-28-22.1-50.2-52.3-60.8-86.6-11.1-35.5-8.7-75.4 10.5-107.8"/><path class="st0" d="M281.3 50.8c-17 25-18.7 56-6.9 83.7 12.4 29.3 37.9 52.3 67.6 63.2 1.2.5 2.5.9 3.7 1.3.5.2 1.1.4 1.6.5 1.8.5 3.5 1.2 5.3 1.5 82.1 15.9 104.4-42.2 110.4-50.7-19.5 28.1-52.3 34.8-92.6 25.1-3.2-.8-6.7-1.9-9.7-3-3.9-1.4-7.8-3-11.6-4.8-7.1-3.4-14-7.6-20.3-12.4-36-27.3-58.4-79.4-34.9-121.9"/></svg>