<svg xmlns="http://www.w3.org/2000/svg" width="500" height="500"><style>.st1{fill:#f6f6f6}.st2{fill:#404040}</style><linearGradient id="path19_1_" gradientUnits="userSpaceOnUse" x1="232.107" y1="446.767" x2="232.107" y2="667.254" gradientTransform="translate(19.712 -306.999)"><stop offset=".15" style="stop-color:#2a4f84"/><stop offset=".388" style="stop-color:#294e82"/><stop offset="1" style="stop-color:#172e4e"/></linearGradient><path id="path19" d="M473.1 317.7c0 23.4-19.1 42.5-42.5 42.5H73.1c-23.4 0-42.5-19.1-42.5-42.5V182.3c0-23.4 19.1-42.5 42.5-42.5h357.4c23.4 0 42.5 19.1 42.5 42.5v135.4z" style="fill:url(#path19_1_)"/><path id="path21" class="st1" d="M398.3 247.1c18.7 6.5 28 17.7 28 33.6 0 10.4-3.9 18.7-11.6 24.8-7.7 6.1-18.7 9.9-33.1 9.9-14.3 0-27.6-4.2-39.8-11 .1-3.6 1.1-7.6 2.8-11.9 1.8-4.3 3.8-7.7 6.2-10.2 11.2 5.8 21 8.8 29.3 8.8 3.9 0 6.9-.7 9.1-2 2.1-1.3 3.2-3.1 3.2-5.3 0-4.2-3.2-7.3-9.7-9.4l-11.6-4.4c-17.5-6.4-26.3-16.8-26.3-31.3 0-10.6 3.7-18.9 11.1-25.1 7.4-6.2 17.3-11.5 29.8-11.5 6.2 0 13 .9 20.4 2.6 7.4 1.7 13.5 6 18.3 8.4.3 3.9-.5 8.2-2.3 12.8-1.8 4.7-4.1 8-6.7 9.9-11.8-5.3-21.6-7.9-29.5-7.9-2.8 0-4.9.6-6.4 1.9-1.5 1.3-2.2 2.8-2.2 4.8 0 3.3 2.7 6 8 7.9l13 4.6z"/><path id="path23" class="st1" d="M305 247.1c18.7 6.5 28 17.7 28 33.6 0 10.4-3.9 18.7-11.6 24.8-7.7 6.1-18.7 9.9-33.1 9.9-14.3 0-27.6-4.2-39.8-11 .1-3.6 1.1-7.6 2.8-11.9 1.8-4.3 3.8-7.7 6.2-10.2 11.2 5.8 21 8.8 29.3 8.8 3.9 0 7-.7 9.1-2 2.1-1.3 3.2-3.1 3.2-5.3 0-4.2-3.2-7.3-9.7-9.4l-11.6-4.4c-17.6-6.4-26.3-16.8-26.3-31.3 0-10.6 3.7-18.9 11.1-25.1 7.4-6.2 17.3-11.5 29.8-11.5 6.2 0 13 .9 20.4 2.6 7.4 1.7 13.5 6 18.3 8.4.3 3.9-.5 8.2-2.3 12.8-1.8 4.7-4.1 8-6.7 9.9-11.8-5.3-21.6-7.9-29.5-7.9-2.8 0-4.9.6-6.4 1.9-1.5 1.3-2.2 2.8-2.2 4.8 0 3.3 2.7 6 8 7.9l13 4.6z"/><path id="path25" class="st1" d="M236.9 248.6c0-6.4-1-12.3-3.1-17.7-2-5.4-4.9-10.1-8.7-14-3.8-3.9-8.4-7-13.8-9.2-5.4-2.2-11.5-5.6-18.2-5.6-8 0-15 3.6-21 6.4-6 2.8-10.9 6.6-14.7 11.5-3.9 4.9-6.7 10.6-8.6 17.2-1.9 6.6-2.8 13.8-2.8 21.6 0 8.1.8 15.5 2.3 22.3 1.5 6.8 4.2 12.7 7.9 17.7s8.6 8.9 14.5 11.7c6 2.8 13.4 4.9 22.2 4.9 16.3 0 30-4.7 41.3-12.6-1.1-8.1-4-14.5-8.6-19.2-5.7 2.2-10.8 3.7-15.2 4.6-4.4.9-8.3 1.4-11.6 1.4-6.7 0-11.5-1.7-14.5-5.2-2.9-3.4-4.5-7.5-4.8-13.7h54.8c1.7-5.7 2.6-13.6 2.6-22.1zm-57.7 1.4c.4-7.1 1.7-14.7 3.9-17.8 2.2-3.1 5.5-4.7 9.9-4.7 4.6 0 8 1.7 10.3 5 2.3 3.3 3.4 10.1 3.4 15.2v2.3h-27.5z"/><path id="path27_1_" class="st1" d="M484.1 263.9c-6 5.2-9.4 12.7-9.4 22.5v36.4c0 12.1-3.7 21.3-12.1 27.7-8.4 6.3-18.2 9.5-29.4 9.8h-6.6V342c5.8-1.7 8.2-3.7 10.6-5.9 4.2-3.8 7.4-10 7.4-18.6v-29.4c.2-10 .9-17.8 4.6-23.5 3.7-5.7 10.8-10.6 21.3-14.9-11.7-5.3-19.5-12.3-23.5-20.9-2.3-5.1-2.4-12-2.4-20.7v-27c0-8.9-2.9-15.2-6.5-18.7-2.3-2.3-5-4.2-11.5-5.6v-17c7.9.1 11.9 0 16.5 0 7.1-.1 13 3.8 18.2 7.8 5.6 4.4 9.6 10.4 12 17.9 1.3 4.3 1.5 8.5 1.5 12.5v31.2c0 11 3.3 19.2 8.8 24.6 3.1 3.1 7.6 5.9 15.2 8.5v14.1c-6.9 1.8-11.1 4.3-14.7 7.5z"/><path class="st2" d="m433.2 361.6-8-.1V341l1-.3c5.6-1.6 7.8-3.5 10-5.6 4.5-4.1 7-10.4 7-17.6v-29.4c.2-10.6 1-18.4 4.8-24.2 3.5-5.4 9.8-10.1 19.2-14.2-10.5-5.3-17.7-12.1-21.5-20.3-2.5-5.5-2.5-12.8-2.5-21.3v-27c0-10.2-3.8-15.5-6.1-17.8-2.3-2.3-4.9-3.9-10.8-5.2l-1.1-.2v-19.5h1.4c5.2.1 8.7 0 11.8 0h4.9c7.4 0 13.7 4.1 18.8 8.1 5.8 4.6 10 10.8 12.4 18.6 1.4 4.5 1.6 8.9 1.6 12.9v31.2c0 10.1 2.9 18.3 8.4 23.6 3.4 3.4 8.1 6 14.7 8.2l.9.3v16.1l-1 .3c-5.9 1.6-10.1 3.8-14 7.3-5.9 5.2-8.9 12.4-8.9 21.5v36.4c0 12.9-4.1 22.3-12.7 28.7-8.6 6.3-18.7 9.7-30.3 10zm-5.3-2.7h5.3c11.1-.3 20.5-3.4 28.6-9.5 7.8-5.9 11.6-14.6 11.6-26.6v-36.4c0-9.9 3.3-17.8 9.9-23.5 4-3.5 8.4-5.9 14.1-7.6v-12.1c-6.5-2.3-11.2-5-14.8-8.5-6-5.8-9.2-14.6-9.2-25.5V178c0-3.8-.2-7.9-1.5-12.1-2.2-7.2-6.1-13-11.5-17.3-5-3.9-10.6-7.6-17.2-7.6h-15.3v14.6c5.9 1.4 8.6 3.2 11.1 5.7 2.6 2.6 6.9 8.5 6.9 19.7v27c0 8.1 0 15.2 2.3 20.1 3.8 8.3 11.5 15.1 22.9 20.3l2.8 1.3-2.9 1.2c-10.3 4.2-17.2 9-20.7 14.4-3.4 5.3-4.2 12.6-4.4 22.8v29.4c0 8-2.8 15-7.9 19.6-2.2 2.1-4.7 4.2-10.1 5.9v15.9z"/><path id="path29_1_" class="st1" d="M65.2 139.8h-5.9c-7.1-.1-13 3.8-18.2 7.8-5.6 4.4-10.4 10.2-12 17.9-.9 4.5-.7 8.5-.7 12.5v31.2c0 11-4.1 19.2-9.7 24.6-3.1 3.1-9.8 5.9-17.4 8.5v14.1c6.7 1.9 13.2 4.4 16.8 7.6 6 5.2 10.3 12.7 10.3 22.5v36.4c0 12.1 2.9 21.3 11.3 27.7 8.4 6.3 18.2 9.5 29.4 9.8h7.5V342c-5.8-1.7-9.1-3.7-11.4-5.9-4.2-3.8-6.6-10-6.6-18.6v-29.4c-.2-10-1.8-17.8-5.4-23.5-3.6-5.7-10.8-10.6-21.3-14.9 11.7-5.3 19.5-12.3 23.5-20.9 2.4-5.1 3.2-12 3.2-20.7v-27c0-8.9 2.1-15.2 5.7-18.7 1.9-1.9 5.4-3.5 10.2-4.8l7.6.1v-17.9H65.2z"/><path class="st2" d="M69.1 361.6c-11.6-.3-21.8-3.7-30.2-10-8.2-6.2-11.8-15-11.8-28.7v-36.4c0-10.7-5.3-17.6-9.8-21.5-3-2.7-8.6-5.2-16.3-7.3l-1-.3v-16.1l.9-.3c8.8-3 14.3-5.6 16.9-8.2 4.2-4.1 9.3-11.5 9.3-23.6v-33c0-3.4 0-7 .7-11 1.4-7.1 5.5-13.2 12.4-18.7 5.2-4.1 11.5-8.2 19-8.1H83.3V159l-8.8-.1c-4.6 1.2-7.7 2.7-9.4 4.4-3.4 3.4-5.3 9.6-5.3 17.8v27c0 9.5-1.1 16.3-3.4 21.3-3.8 8.2-11 15-21.5 20.3 9.3 4.1 15.8 8.9 19.2 14.2 3.6 5.6 5.5 13.5 5.6 24.2v29.4c0 8 2.1 13.9 6.1 17.6 2.6 2.4 5.9 4.2 10.9 5.6l1 .3v20.5l-8.6.1zM2.7 255.3c7.7 2.2 13.2 4.7 16.4 7.6 4.9 4.3 10.7 11.8 10.7 23.5v36.4c0 12.8 3.3 21 10.8 26.6 8.1 6.1 17.5 9.2 28.6 9.5h6.1V343c-4.9-1.5-8.3-3.4-11-6-4.6-4.2-7-10.8-7-19.6V288c-.2-10.1-1.9-17.6-5.2-22.8-3.5-5.4-10.4-10.2-20.7-14.4l-2.9-1.2 2.8-1.3c11.3-5.2 19-12 22.9-20.3 2.1-4.6 3.1-11 3.1-20.1v-27c0-8.9 2.1-15.7 6-19.7 2.1-2.1 5.6-3.8 10.8-5.2H80.7v-15.2H59.1c-6.6 0-12.2 3.6-17.2 7.6-6.5 5.1-10.2 10.7-11.5 17.1-.7 3.7-.7 7.1-.7 10.4v33c0 13.1-5.5 21.1-10.1 25.5-2.8 2.8-8.2 5.5-17 8.5v12.4z"/><path id="path31" class="st1" d="M135.2 287.6h-5.7c-6.2 0-8.5-3.3-8.5-9.8v-120c0-7.2-2.1-12.3-4.8-15.2-2.7-2.9-7.3-2.9-13.9-2.9H88v144c0 10 2.3 17.3 6.3 22 4 4.7 10.8 7 20.3 7 6.6 0 14.1-.7 22.5-2.1.4-1.4.6-4.4.6-9 0-4.7-.8-9.4-2.5-14z"/></svg>