<svg xmlns="http://www.w3.org/2000/svg" width="500" height="500"><style>.st0{fill:#939fab}</style><path class="st0" d="m304 235.1-90.2 29.5-78.4 34.6-22 5.8c-5.6 5.3-11.5 10.7-17.8 16.1-7 6-13.4 11.5-18.4 15.4-5.5 4.3-13.7 12.5-17.8 17.7-6.2 7.8-11.1 16-13.2 22.3-3.7 11.5-1.9 23 5.3 33.7 9.3 13.6 27.7 27.5 49.2 37 10.9 4.9 29.5 11 43.3 14.5 23.1 5.8 67.8 12.2 92.4 13.1 4.9.2 11.6.2 11.9 0 .5-.4 4.3-7.6 8.8-16.7 15.1-30.9 26-59.8 31.9-84.5 3.5-15 6.4-34.9 8.2-58.6.4-6.6.7-28.8.3-36.3-.6-12.3-1.7-22.2-3.4-31.9-.3-1.4-.4-2.7-.2-2.8.3-.2 1.1-.4 12.2-3.7l-2.1-5.2zm-20.6 12c.8 0 3 20.9 3.5 34.1.1 2.8.1 4.6-.1 4.6-.5 0-11.5-6.4-19.3-11.4-6.8-4.3-19.8-12.9-21.8-14.5-.7-.4-.6-.5 4.9-2.5 9.5-3 32-10.3 32.8-10.3zm-45.9 15.2c.6 0 2.2.9 5.9 3.2 14 8.8 33.1 19.4 41.3 22.9 2.5 1.1 2.8.7-3 4.6-12.4 8.5-27.9 16.8-46.8 25.1-3.4 1.5-6.1 2.6-6.2 2.6-.1 0 .3-1.7.8-3.7 4.6-16.9 7.1-34.1 7.3-47.9 0-6.7 0-6.7.7-6.8-.2 0-.1 0 0 0zm-9.5 3.6c.4.4.1 15.7-.4 19.9-1.2 10-3.1 19.2-6.3 29.6-.7 2.5-1.4 4.6-1.6 4.8-.3.4-9.6-8.8-12.7-12.4-5.3-6.1-9.4-12.3-12.5-18.3-1.6-3.1-4-9.1-3.8-9.3 1.1-.7 37-14.5 37.3-14.3zm-44.5 17.5c.1 0 .1 0 .2.1s.6 1.2 1 2.5c2.2 5.9 7.1 14.6 11.3 20.2 4.6 6.1 10.7 12.7 15.7 16.9 1.6 1.3 3.1 2.6 3.4 2.8.4.4.5.4-10.6 4.6-12.9 4.9-26.9 9.8-43 15-3.8 1.3-7.6 2.5-11.5 3.7-.6.2-.4-.1 1.3-2.9 7.9-12.4 20.1-36.9 26.9-54.3 1.1-3 2.3-6 2.5-6.7.3-1 .6-1.3 1.5-1.8.6.1 1-.1 1.3-.1zm-13.7 5.6c.2.1-3.3 7.4-6.7 14.1-6.6 12.9-13.9 25.6-23.5 40.9-1.6 2.6-3.2 5.1-3.4 5.4-.4.4-.4.4-1.6-1.8-2.3-4.6-4.2-10.4-5.2-15.8-1-5.3-.8-14.6.4-20.3.9-4.2.8-4.1 2.8-5.2 8.7-4.3 36.9-17.5 37.2-17.3zm117.5 4.8v2.8c0 15.2-1.6 36-4 51.3-.4 2.6-.7 4.9-.8 4.9 0 0-1.9-.5-4.3-1.2-10.2-3.2-21.4-7.9-31.3-13.4-6.6-3.6-16.2-9.5-16-9.8.1-.1 2.9-1.6 6.3-3.4 13.3-7 26.2-14.5 37.2-21.9 4.1-2.8 10.4-7.3 11.8-8.5l1.1-.8zM118.4 314c.3 0 .2.5-.2 3-.3 1.8-.6 5-.7 7.3-.5 10 1.1 17.3 6 27.4 1.3 2.8 2.5 5.1 2.4 5.2-.4.4-45.6 13.6-59.7 17.5-4.2 1.1-7.9 2.2-8.2 2.2-.4.1-.5.1-.4-1.1 1.6-10 9.2-23.1 19.9-34.1 7.1-7.3 12.7-11.6 22.4-17.2 7-4 17.6-9.9 18.4-10.1 0-.1 0-.1.1-.1zm106.3 19c.1-.1 1.7.8 3.7 1.9 14.6 8.5 34.8 16.3 52.2 20.3l1.6.4-2.2 1.2c-9.1 5-38.8 17.5-69.3 28.9-4.4 1.6-8.8 3.3-9.6 3.6-.8.4-1.6.5-1.6.4 0-.1 1.2-2.5 2.8-5.4 8.5-16 17.1-35.4 21.4-48.9.5-1.2.9-2.3 1-2.4zm-10.9 3.6c.1.1-.4 1.5-1.1 3.1-5.9 14.4-13.7 30.1-23.6 47.6-2.5 4.5-4.6 8.1-4.7 8.1s-2.1-1.2-4.6-2.7c-14.5-8.8-27.3-19.8-35.6-30.4l-1.2-1.5 6.2-1.7c22.2-6.1 41.1-12.6 59.8-20.6 2.6-1 4.7-1.9 4.8-1.9zm67.3 23.5s.1.1 0 0c.1 1.6-3.4 15.6-6.3 25.8-2.4 8.5-4.4 15.2-8.2 27-1.6 5.2-3.1 9.4-3.1 9.4-.1 0-.4-.1-.9-.2-20.2-3.7-38.4-8.8-55.4-15.6-4.8-1.9-11.6-4.9-12-5.3-.1-.1 4-2 9.1-4.3 31-13.6 63.2-28.9 74.2-35.6 1.4-.8 2.4-1.2 2.6-1.2zm-155.4 5.3c.1.1-8.5 12.6-20.6 29.6-4.2 5.9-9.1 12.9-10.9 15.4-1.9 2.6-4.6 6.7-6.2 9.1l-2.8 4.4-3.1-2.6c-3.6-3-9.9-9.4-12.7-13-5.8-7.3-9.8-15-11.4-22-.7-3.3-.7-4.9-.1-5.1 1-.3 19.2-4.6 36.3-8.5 9.4-2.2 20.5-4.8 24.4-5.7 3.8-.8 7.1-1.6 7.1-1.6zm8.7 3.3 2.2 2.5c9.8 10.9 19.9 19.1 31.9 26.2 2.2 1.2 3.8 2.3 3.7 2.4-.4.4-42.1 15.1-61.4 21.8-10.9 3.8-19.8 6.9-19.9 6.9-.1 0-.7-.4-1.3-.9l-1.2-.9 1.9-2.8c6.4-9.3 14.5-19.4 31.9-40.5.1-.2 12.2-14.7 12.2-14.7zm54.4 38.9c.1-.1 3.1 1 6.7 2.4 8.8 3.4 15.9 5.5 25.3 7.9 11.6 2.9 28.3 5.8 38.2 6.6 1.5.1 2.3.3 2 .4-.4.3-10.5 3.6-17.8 5.9-11.7 3.7-47.5 14.2-76.7 22.6-5.4 1.6-10 2.8-10.3 2.9-.7.1-2.9-.4-2.9-.7 0-.1 1.6-2.2 3.6-4.6 9.8-11.7 19.6-24.8 27.7-37.2 2.3-3.3 4.2-6.1 4.2-6.2zm-12 .4c.1.1-4.8 7.9-13.2 21.2-3.6 5.6-7.6 12.1-9.1 14.3-1.3 2.2-3.4 5.6-4.6 7.5l-1.9 3.4-1-.3c-2.5-.7-19.7-6.7-24.3-8.6-5.6-2.2-11.5-4.9-15.9-7.3-5.5-2.9-12.3-7.3-11.7-7.4.1-.1 9.4-2.6 20.7-5.6 29.8-8.1 46.4-12.8 57.3-16.2 2-.6 3.7-1.1 3.7-1zm84.8 19.8c.4.7-10.7 31.3-14.7 41-.9 2.2-1.2 2.7-1.7 2.6-1.1-.1-17.2-2.3-26.9-3.7-16.9-2.6-45.4-7.6-52.6-9.2l-1.6-.4 10.1-2.3c21.8-4.9 32.3-7.6 42.9-10.9 13.4-4.1 26.7-9.2 40.1-15.4 2.2-.8 4-1.6 4.4-1.7zM211 25c-1.5-.2-25.7 8.5-41.3 14.8-21.1 8.6-37.4 16.8-47.5 23.8-3.7 2.6-8.5 7.3-9.2 9.2-.3.7-.4 1.5-.4 2.3l9.1 8.6 21.7 7 51.7 9.3 59.1 10.1.6-5.1c-.2 0-.4-.1-.5-.1l-7.8-1.2-1.6-2.8c-8-14.2-16.9-31.8-22.1-43.6-4-9.2-7.9-19.9-10-27.4-.9-4.5-1-4.8-1.8-4.9zm-1.1 3.5c.1.1.4 1.9.7 4.2 1.1 9.5 3.3 18.7 6.6 28.7 2.5 7.5 2.5 7.1-.4 6.2-7-1.9-38.1-7.3-60.6-10.4-3.6-.4-6.7-1-6.7-1-.3-.3 16.3-8.9 23.6-12.4 9.3-4.3 34.9-15 36.8-15.3zM144.3 59l2.6.9c14.5 4.9 50.7 11.8 70.7 13.5 2.2.2 4.1.4 4.2.4.1.1-1.9 1.1-4.3 2.2-9.7 4.9-20.3 10.8-27.7 15.4-2.2 1.3-4.1 2.5-4.4 2.5s-1.7-.3-3.2-.4l-2.7-.4-6.8-6.7c-12-11.6-21.4-20.6-25-24.1l-3.4-3.3zm-2.7 2.1 9.6 12c5.2 6.6 10.6 13.1 11.7 14.5 1.1 1.4 2.1 2.6 2 2.6-.3.2-13.9-2.5-21.1-4.1-7.4-1.7-10.5-2.5-15.1-4l-3.7-1.2v-1c.1-4.6 5.8-11.4 15.7-18.4 0 .2.9-.4.9-.4zm81.6 16.4c.3 0 .6.6 1.4 2.5 2.3 5.1 9.5 18.9 11.3 21.5.5.9 1.5 1-8.1-.6-23.1-3.7-30.5-4.9-30.5-5.1 0-.1.7-.5 1.6-1 7.1-4 14.4-9 20.8-14.4 1.6-1.3 3-2.5 3.3-2.7 0-.2.1-.3.2-.2z"/><path d="M113.5 71.9s-1.5 2.4-.1 5.9c.9 2.2 3.4 4.9 6.4 7.6 0 0 30.4 29.6 34 33.8 16.8 19.3 24.1 38.4 24.7 64.8.4 16.9-2.8 31.8-10.8 49-14.2 30.9-44.1 65.1-90.2 102.9l6.7-2.2c4.3-3.3 10.3-6.7 24.2-14.4 32.1-17.6 68.2-33.7 112.5-50.4 63.8-24 168.6-52.1 228.3-61.2l6.2-1-1-1.5c-5.5-8.5-9.2-13.7-13.7-19.3-13.1-16.2-28.9-29.4-48.3-40.2-26.7-14.9-61.2-26.6-105-35.2-8.2-1.6-26.4-4.8-41.1-7-31.2-4.9-51.3-8.2-73.6-12-7.9-1.3-19.9-3.4-27.8-5.1-4.1-.9-11.9-2.7-18.1-4.9-4.7-1.9-11.8-3.7-13.3-9.6zM131.1 89c.1-.1 1.1.4 2.6.8 2.6.9 5.9 1.9 9.9 3l9 2.4c4.1 1 7.5 1.9 7.6 1.9.4.4 7.3 22.5 9.7 31 .9 3.2 1.6 5.9 1.5 5.9-.1.1-.8-1.1-1.7-2.6-7.9-14-20.6-28.3-35.1-39.7-2-1.4-3.5-2.6-3.5-2.7zm33.5 9.2c.4 0 1.9.2 3.7.6 11.6 2.6 32.4 6.5 45.6 8.8 2.2.4 4 .7 4 .9s-.8.6-1.9 1.1c-2.2 1.1-11.3 6.5-14.3 8.6-7.6 5-14.4 10.5-19.3 15.4-1.9 1.9-3.7 3.6-3.7 3.6s-.4-1.1-.7-2.6c-2.5-9.4-7.6-23.5-12.2-33.4-.6-1.5-1.2-2.9-1.2-3 0 .1 0 0 0 0zm59 11.3c.4.1 1.1 2.5 2.5 7.6 2.5 9.9 3.7 20.9 3.3 31.2-.1 2.8-.3 5.5-.4 5.8l-.2.7-3.5-1.1c-7.3-2.3-19.1-5.8-29.3-8.6-5.8-1.6-10.5-3-10.5-3.1 0-.4 8.5-8.8 12.1-12.1 6.8-6.2 25.4-20.7 26-20.4zm4.7.6c.2-.2 28.2 4.6 40.9 7.1 9.4 1.9 23.2 4.7 24.1 5 .4.1-1 1-5.6 3-18 8.1-31.3 15.4-44.6 24.3-3.4 2.3-6.4 4.2-6.4 4.2s-.1-1.9-.1-4.3c0-13-2.6-26-7.3-37.1-.7-1-1-2.1-1-2.2zm72.4 14.4c.2.2-.7 5.7-1.5 9-2.5 10.1-9.1 25.2-17.2 39.3-1.4 2.5-2.7 4.6-2.8 4.6-.1.1-1.9-1-4.1-2.2-7.9-4.6-16.9-9-26.7-13.1-2.7-1.1-5.1-2.1-5.2-2.2-.4-.4 21.4-14.9 33.1-21.9 9.2-5.5 24.1-13.8 24.4-13.5zm5.2.8c.6 0 13 3.4 19.5 5.3 16 4.8 34.4 11.5 46.4 16.9l4.9 2.2-3.4.8c-29.3 6.7-54.3 14.5-78.5 24.4-1.9.8-3.7 1.5-3.9 1.5-.1 0 .5-1.6 1.4-3.4 7.3-15.4 12-31.6 13.1-45.3.1-1.4.3-2.4.5-2.4zm-123.4 28.3c.2-.2 9.7 2 14.8 3.4 7.8 2.2 24.3 7.7 24.3 8.1 0 .1-1.9 1.6-4 3.5-8.9 7.4-17.5 15.3-27.8 25.2-3.1 2.9-5.6 5.3-5.8 5.3-.1 0-.2-.4-.1-1 1.6-11.5 1.2-26.2-1-41.1-.3-1.7-.5-3.3-.4-3.4zm199 .2c.1.1-4.3 7.2-7.2 11.2-4.1 5.8-10.1 13.6-23.6 30.7-7.1 9-15.2 19.1-17.8 22.6-2.7 3.4-4.9 6.3-5 6.3s-1-1.2-1.9-2.7c-7.6-11.5-16.8-21.4-27.6-30.4-2-1.7-4.3-3.5-5-4.1-.7-.5-1.3-1.1-1.3-1.1 0-.2 11.6-5.2 20.4-8.7 15.4-6.3 36.3-13.8 52.1-18.6 7.9-2.8 16.7-5.3 16.9-5.2zm5.2 1.4c.3-.1 1.9.7 3.9 1.9 16.6 9.4 32.8 21.7 45.6 34.2 3.6 3.5 12.5 12.8 12.4 12.9 0 0-3.1.3-6.8.5-28.7 2.2-65.4 8.2-100.7 16.8-2.4.5-4.5 1-4.6 1s2.5-2.6 5.8-5.8c20.7-19.9 30.2-32.6 41.4-55 1.5-3.4 2.9-6.3 3-6.5-.1 0-.1 0 0 0zM235 170.7c1 .2 9.8 4.3 16.5 7.7 6.1 3.1 15.4 7.9 15.8 8.4.1.1-3.2 1.8-7.2 3.7-12.8 6.4-23.8 12.4-35.2 19.4-3.3 1.9-6 3.6-6.1 3.6-.3 0-.2-.3 1.6-3.6 6.1-11.2 11-24.5 13.9-37.5.2-1 .5-1.7.7-1.7zm-8.8 1.6c.2.2-2.1 8.6-3.5 13.1-2.8 8.6-7.5 19.5-12.1 27.7-1.1 1.9-2.7 4.7-3.6 6.3l-1.7 2.7-3.8-3.7c-4.4-4.3-8-7-12.7-9.4-1.9-1-3.3-1.8-3.3-1.9 0-.5 11.6-11.1 20.6-18.7 6.4-5.4 19.8-16.2 20.1-16.1zm54.1 22.4 3.4 2.2c7.6 4.9 16.6 11.6 23.5 17.4 3.9 3.2 11.4 10 12.9 11.6l.8.9-5.5 1.6c-31.2 8.6-55.3 16.3-83.5 26.7-3.1 1.1-5.8 2.1-6 2.1-.4 0-.7.4 6.3-6.1 18-16.6 34-34.8 45.8-52.6l2.3-3.8zm-14.3 3.5c.1.1-9.2 13.3-14.8 20.7-6.7 8.8-18.5 23.7-26.7 33.4-3.4 4-6.4 7.3-6.4 7.4-.2.1-.3-1-.3-2.5 0-8.2-2.1-17-5.8-24.5-1.6-3.1-1.9-3.9-1.5-4.2 1.3-1.1 21.1-12.4 33.7-19.2 8.4-4.6 21.7-11.2 21.8-11.1zm-86.1 21.1c.2 0 1.8.8 3.5 1.8 4.3 2.4 8.2 5 11.7 7.9.1.1-1.6 1.6-4 3.3-6.4 4.6-16.3 12.1-22 16.6-6 4.8-6.2 4.9-5.5 3.9 4.5-6.9 6.7-10.8 9.1-15.7 2.1-4.4 4.2-9.7 5.7-14.2.7-2.1 1.4-3.6 1.5-3.6zm23 18c.4-.1.7.5 2.6 3.3 3.9 5.8 6.9 13.6 7.6 19.9l.1 1.3-9.4 3.6c-16.7 6.4-32.1 12.9-42.5 17.6-2.9 1.3-8 3.8-11.4 5.5-3.4 1.7-6.1 3-6.1 2.9 0-.1 2.1-1.6 4.7-3.5 20.4-14.8 38-31 51.3-47.2 1.6-1.7 2.9-3.3 3.1-3.4zm-10.5 2.6c.3.3-7.5 9.1-12.8 14.5-13.1 13.4-26.2 23.9-42.3 34.1-2 1.3-3.9 2.5-4.1 2.6-.4.3.1-.4 7.2-8.1 4.5-4.9 7.9-8.9 11.8-13.9 2.6-3.4 3.1-3.8 6.8-6.4 10-7.4 33.1-23.1 33.4-22.8z" style="fill:#ee352c"/></svg>