<svg xmlns="http://www.w3.org/2000/svg" width="500" height="500"><style>.st1{fill:#939fab}</style><path class="st1" d="m336.921 175.875-68.45 22.362-59.518 26.288-16.671 4.381c-4.268 4.04-8.706 8.137-13.486 12.234-5.291 4.552-10.185 8.705-13.94 11.664-4.21 3.3-10.413 9.503-13.542 13.429-4.723 5.917-8.422 12.176-10.015 16.956-2.845 8.706-1.422 17.468 4.04 25.605 7.056 10.356 21.053 20.882 37.383 28.109 8.308 3.698 22.362 8.364 32.889 11.038 17.525 4.438 51.437 9.275 70.157 9.958 3.756.17 8.82.17 9.047 0 .399-.285 3.3-5.804 6.658-12.69 11.493-23.442 19.744-45.405 24.24-64.182 2.673-11.38 4.836-26.516 6.201-44.496.342-5.007.512-21.85.228-27.54-.455-9.331-1.309-16.842-2.56-24.24-.228-1.08-.285-2.047-.171-2.104.227-.171.853-.342 9.274-2.788l-1.764-3.984zm-15.647 9.161c.626 0 2.276 15.875 2.674 25.89.114 2.105.057 3.528-.057 3.528-.398 0-8.762-4.894-14.68-8.65-5.178-3.242-15.022-9.786-16.558-11.038-.512-.341-.455-.398 3.756-1.877 7.226-2.333 24.296-7.853 24.865-7.853zM286.45 196.53c.455 0 1.65.683 4.495 2.447 10.64 6.657 25.15 14.737 31.352 17.411 1.935.854 2.105.512-2.276 3.528-9.388 6.43-21.167 12.746-35.562 19.062-2.56 1.138-4.666 1.991-4.723 1.991-.114 0 .227-1.309.626-2.845 3.47-12.86 5.405-25.89 5.52-36.359.056-5.121.056-5.121.568-5.235-.114 0-.057 0 0 0zm-7.226 2.731c.284.285.114 11.892-.285 15.079-.91 7.568-2.39 14.566-4.78 22.475-.568 1.935-1.08 3.528-1.194 3.642-.228.284-7.283-6.657-9.616-9.389-4.04-4.665-7.17-9.331-9.503-13.883-1.195-2.333-3.072-6.885-2.902-7.056.797-.512 28.11-11.038 28.28-10.868zm-33.799 13.315c.057 0 .114 0 .17.057.115.114.456.91.798 1.878 1.65 4.495 5.405 11.095 8.591 15.363 3.528 4.665 8.137 9.616 11.95 12.859 1.251 1.024 2.39 1.991 2.56 2.162.284.285.398.285-8.023 3.471-9.787 3.699-20.427 7.454-32.66 11.38-2.902.967-5.804 1.878-8.763 2.845-.455.17-.285-.114 1.024-2.219 6.031-9.445 15.25-28.052 20.427-41.196.854-2.276 1.764-4.552 1.935-5.064.227-.74.455-.967 1.138-1.365.341-.057.683-.171.853-.171zm-10.356 4.267c.171.114-2.503 5.634-5.064 10.698-5.007 9.786-10.526 19.403-17.866 31.067-1.252 1.992-2.447 3.87-2.56 4.097-.285.341-.342.284-1.196-1.366-1.764-3.47-3.186-7.909-3.983-12.006-.796-4.04-.626-11.095.285-15.42.683-3.186.626-3.129 2.162-3.926 6.6-3.3 27.995-13.314 28.222-13.144zm89.22 3.642v2.162c0 11.551-1.252 27.37-3.073 38.92-.284 1.991-.569 3.698-.626 3.698 0 0-1.48-.398-3.243-.91-7.739-2.447-16.217-5.974-23.784-10.185-5.008-2.731-12.29-7.226-12.12-7.454.057-.057 2.219-1.195 4.78-2.56 10.128-5.292 19.858-10.982 28.279-16.615 3.13-2.106 7.909-5.52 8.933-6.487l.854-.569zm-128.253 15.306c.228 0 .17.398-.17 2.276-.228 1.366-.456 3.812-.57 5.52-.398 7.567.854 13.143 4.552 20.768 1.025 2.105 1.878 3.87 1.821 3.926-.341.285-34.595 10.356-45.35 13.315-3.186.853-5.974 1.65-6.201 1.707-.342.113-.399.057-.285-.854 1.195-7.624 6.999-17.525 15.079-25.89 5.405-5.576 9.673-8.819 17.013-13.03 5.291-3.015 13.371-7.51 13.997-7.68 0-.058.057-.058.114-.058zm80.684 14.453c.057-.057 1.309.626 2.788 1.48 11.096 6.429 26.459 12.346 39.603 15.42l1.195.284-1.65.91c-6.885 3.812-29.475 13.258-52.576 21.906-3.357 1.252-6.657 2.504-7.283 2.732-.626.284-1.195.398-1.195.341 0-.057.91-1.878 2.105-4.097 6.487-12.12 12.973-26.857 16.273-37.099.399-.967.683-1.82.74-1.877zm-8.25 2.674c.057.057-.342 1.138-.854 2.39-4.495 10.925-10.412 22.817-17.923 36.131-1.935 3.414-3.528 6.146-3.585 6.146-.057 0-1.593-.91-3.47-2.049-10.983-6.714-20.712-15.021-27.028-23.044l-.91-1.138 4.722-1.309c16.842-4.609 31.181-9.56 45.406-15.648 1.935-.796 3.585-1.479 3.642-1.479zm51.096 17.867s.057.057 0 0c.057 1.195-2.56 11.835-4.78 19.573-1.82 6.487-3.357 11.551-6.202 20.484-1.252 3.926-2.333 7.17-2.39 7.17a3.58 3.58 0 0 1-.682-.171c-15.363-2.788-29.133-6.657-42.05-11.835-3.641-1.423-8.819-3.756-9.103-4.04-.114-.114 3.015-1.536 6.941-3.243 23.557-10.3 47.967-21.964 56.331-27.028 1.025-.626 1.764-.91 1.935-.91zm-117.954 4.04c.114.113-6.486 9.559-15.647 22.475-3.187 4.495-6.942 9.787-8.308 11.721-1.422 1.992-3.527 5.065-4.722 6.942l-2.163 3.357-2.333-1.991c-2.73-2.276-7.51-7.113-9.616-9.844-4.438-5.52-7.454-11.38-8.648-16.728-.57-2.504-.57-3.699-.057-3.87.796-.227 14.566-3.47 27.54-6.486 7.169-1.65 15.533-3.642 18.492-4.325 2.959-.682 5.405-1.251 5.462-1.251zm6.6 2.503 1.65 1.878c7.455 8.307 15.08 14.51 24.24 19.858 1.65.91 2.902 1.764 2.788 1.82-.341.285-31.978 11.495-46.6 16.559-8.251 2.902-15.022 5.234-15.08 5.234-.056 0-.511-.284-1.024-.682l-.91-.683 1.48-2.162c4.836-7.056 10.981-14.737 24.239-30.783l9.218-11.039zm41.253 29.531c.057-.057 2.333.797 5.121 1.821 6.714 2.56 12.063 4.154 19.175 5.975 8.82 2.219 21.509 4.38 29.02 5.007 1.137.114 1.763.227 1.536.341-.342.228-7.966 2.731-13.542 4.495-8.877 2.788-36.075 10.811-58.21 17.184-4.096 1.195-7.624 2.162-7.794 2.22-.513.113-2.22-.342-2.22-.57 0-.114 1.252-1.707 2.732-3.47 7.454-8.877 14.85-18.835 20.996-28.223 1.764-2.618 3.186-4.723 3.186-4.78zm-9.104.285c.057.057-3.641 5.974-10.014 16.102-2.732 4.268-5.804 9.161-6.885 10.868-1.024 1.65-2.56 4.268-3.471 5.69l-1.48 2.618-.796-.228c-1.878-.512-14.965-5.12-18.436-6.543-4.267-1.707-8.762-3.756-12.062-5.52-4.154-2.219-9.332-5.519-8.877-5.633.114-.057 7.17-1.991 15.705-4.267 22.646-6.145 35.22-9.73 43.471-12.29 1.536-.513 2.845-.854 2.845-.797zm64.41 15.078c.285.512-8.136 23.784-11.151 31.125-.683 1.65-.91 2.048-1.31 1.991-.853-.057-13.03-1.764-20.426-2.845-12.86-1.991-34.482-5.747-39.944-6.999l-1.252-.284 7.682-1.764c16.557-3.699 24.523-5.747 32.603-8.25 10.185-3.13 20.257-7 30.442-11.722 1.65-.626 3.015-1.195 3.357-1.252zM266.365 16.385c-1.138-.17-19.516 6.486-31.352 11.266-15.988 6.543-28.393 12.746-36.074 18.094-2.845 1.992-6.43 5.576-6.999 6.999-.227.512-.284 1.138-.284 1.764l6.941 6.543 16.501 5.292 39.261 7.056 44.895 7.681.455-3.87c-.17 0-.285-.056-.399-.056l-5.917-.91-1.195-2.106c-6.088-10.754-12.803-24.125-16.786-33.116-3.072-6.998-5.974-15.078-7.567-20.825-.797-3.528-.91-3.755-1.48-3.812zm-.853 2.617c.114.057.284 1.48.512 3.187.853 7.226 2.504 14.225 5.007 21.792 1.935 5.69 1.935 5.406-.284 4.723-5.292-1.423-28.906-5.52-46.032-7.91-2.732-.34-5.065-.739-5.065-.796-.227-.227 12.348-6.77 17.924-9.388 7.056-3.187 26.515-11.323 27.938-11.608zm-49.845 23.215 1.992.683c10.982 3.699 38.521 8.99 53.714 10.242 1.707.17 3.13.285 3.186.285.057.057-1.423.853-3.243 1.707-7.34 3.698-15.42 8.193-20.996 11.664-1.65 1.024-3.13 1.878-3.358 1.878-.227 0-1.308-.228-2.446-.342l-2.049-.284-5.178-5.064c-9.103-8.82-16.216-15.648-19.004-18.265l-2.618-2.504zm-2.048 1.594 7.283 9.104c3.983 5.007 8.023 9.957 8.877 11.038.853 1.081 1.593 1.992 1.536 1.992-.228.17-10.527-1.878-16.046-3.13-5.633-1.309-7.966-1.934-11.437-3.016l-2.845-.91v-.74c.057-3.47 4.438-8.648 11.892-13.94.057.057.74-.398.74-.398zm61.964 12.404c.228 0 .455.455 1.081 1.877 1.764 3.87 7.227 14.34 8.592 16.33.399.684 1.138.74-6.145-.454-17.525-2.845-23.158-3.756-23.158-3.87 0-.057.512-.398 1.195-.796a101.315 101.315 0 0 0 15.76-10.925c1.196-.967 2.277-1.935 2.505-2.048 0-.114.113-.171.17-.114z"/><path d="M-12.5 236.8s-2 3.2-.1 7.9c1.2 2.9 4.6 6.5 8.5 10.1 0 0 40.5 39.5 45.4 45.1 22.4 25.8 32.1 51.3 33 86.4.5 22.5-3.7 42.4-14.4 65.4C41 492.9 1.1 538.5-60.4 589l9-3c5.8-4.4 13.7-9 32.3-19.2 42.8-23.5 91-45 150.1-67.2 85.1-32 225-69.5 304.6-81.6l8.3-1.3-1.3-2c-7.3-11.3-12.3-18.3-18.3-25.7-17.5-21.6-38.6-39.2-64.5-53.7-35.6-19.9-81.7-35.5-140.1-47-11-2.2-35.2-6.4-54.8-9.4-41.6-6.5-68.5-10.9-98.2-16-10.6-1.8-26.5-4.5-37.1-6.8-5.5-1.2-15.9-3.6-24.1-6.5-6.5-2.5-16-5-18-12.8zM11 259.6c.1-.1 1.5.5 3.5 1.1 3.5 1.2 7.9 2.5 13.2 4 4 1.1 8 2.2 12 3.2 5.5 1.4 10 2.6 10.1 2.6.6.6 9.8 30 12.9 41.3 1.2 4.3 2.1 7.9 2 7.9-.1.1-1.1-1.5-2.3-3.5-10.6-18.7-27.5-37.7-46.9-53-2.6-1.9-4.5-3.5-4.5-3.6zm44.7 12.3c.5 0 2.5.3 4.9.8 15.5 3.5 43.2 8.7 60.9 11.7 3 .5 5.4 1 5.4 1.2 0 .2-1.1.8-2.5 1.5-3 1.5-15.1 8.7-19.1 11.5-10.1 6.7-19.2 14-25.7 20.5-2.6 2.6-4.9 4.8-4.9 4.8s-.5-1.5-1-3.5c-3.3-12.6-10.1-31.4-16.3-44.5-1-2-1.8-3.9-1.7-4-.1.1-.1 0 0 0zm78.7 15c.5.2 1.5 3.3 3.3 10.1 3.4 13.2 4.9 27.9 4.4 41.6-.2 3.8-.4 7.4-.5 7.8l-.3.9-4.7-1.5c-9.7-3.1-25.5-7.7-39.1-11.5-7.7-2.1-14-4-14-4.2 0-.5 11.3-11.8 16.1-16.1 9.1-8.1 34-27.4 34.8-27.1zm6.3.9c.3-.3 37.6 6.2 54.6 9.5 12.6 2.5 31 6.3 32.1 6.7.5.2-1.4 1.3-7.5 4-24 10.8-41.8 20.5-59.5 32.4-4.6 3.1-8.5 5.6-8.6 5.6-.1 0-.2-2.6-.2-5.8 0-17.3-3.5-34.7-9.8-49.5-.7-1.4-1.2-2.8-1.1-2.9zm96.6 19.1c.3.3-.9 7.6-2 12-3.3 13.5-12.1 33.6-22.9 52.5-1.9 3.4-3.6 6.1-3.8 6.2-.2.1-2.6-1.3-5.5-2.9-10.5-6.2-22.5-12-35.6-17.5-3.6-1.5-6.8-2.8-6.9-3-.6-.5 28.6-19.9 44.1-29.2 12.2-7.4 32.2-18.4 32.6-18.1zm6.9 1.1c.8 0 17.4 4.5 26 7.1 21.4 6.4 45.9 15.4 61.9 22.6l6.6 3-4.6 1.1c-39.1 9-72.5 19.4-104.8 32.5-2.6 1.1-5 2-5.2 2-.2 0 .7-2.1 1.9-4.6 9.7-20.6 16-42.2 17.5-60.5.2-1.8.4-3.2.7-3.2zM79.5 345.8c.3-.3 12.9 2.7 19.7 4.6 10.4 2.9 32.4 10.3 32.4 10.8 0 .1-2.5 2.2-5.4 4.7-11.9 9.9-23.4 20.4-37.1 33.6-4.1 3.9-7.5 7.1-7.7 7.1-.2 0-.3-.5-.2-1.3 2.1-15.3 1.6-34.9-1.3-54.8-.2-2.4-.5-4.6-.4-4.7zm265.5.3c.2.2-5.8 9.6-9.6 15-5.5 7.8-13.5 18.2-31.5 40.9-9.5 12-20.3 25.5-23.8 30.1-3.6 4.5-6.6 8.4-6.7 8.4-.1 0-1.3-1.6-2.5-3.6-10.2-15.3-22.4-28.6-36.8-40.6-2.7-2.3-5.7-4.7-6.7-5.5-1-.7-1.8-1.5-1.8-1.5 0-.3 15.5-6.9 27.2-11.6 20.5-8.4 48.5-18.4 69.5-24.8 10.8-3.6 22.5-7 22.7-6.8zm7 1.8c.4-.1 2.5 1 5.2 2.5 22.1 12.6 43.7 28.9 60.8 45.6 4.8 4.7 16.7 17.1 16.5 17.2 0 0-4.2.4-9.1.7-38.3 2.9-87.3 11-134.4 22.4-3.2.7-6 1.4-6.2 1.4-.2 0 3.4-3.5 7.8-7.8 27.6-26.6 40.3-43.5 55.2-73.4 2.2-4.5 4-8.3 4.2-8.6-.1 0-.1 0 0 0zm-202.4 20.7c1.3.3 13.1 5.8 22 10.3 8.2 4.1 20.5 10.6 21.1 11.2.1.1-4.3 2.4-9.6 5-17.1 8.5-31.7 16.6-47 25.9-4.4 2.6-8 4.8-8.1 4.8-.4 0-.3-.4 2.2-4.8 8.2-14.9 14.7-32.7 18.5-50.1.2-1.3.6-2.3.9-2.3zm-11.8 2.2c.3.3-2.8 11.5-4.7 17.5-3.7 11.5-10 26-16.1 36.9-1.5 2.5-3.6 6.3-4.8 8.4l-2.3 3.6-5.1-4.9c-5.9-5.7-10.7-9.3-16.9-12.5-2.5-1.3-4.4-2.4-4.4-2.5 0-.7 15.5-14.8 27.5-25 8.5-7.3 26.5-21.7 26.8-21.5zm72.2 29.8 4.5 2.9c10.2 6.6 22.2 15.5 31.4 23.2 5.2 4.3 15.2 13.3 17.2 15.5l1.1 1.2-7.4 2.1c-41.6 11.5-73.8 21.8-111.4 35.6-4.2 1.5-7.7 2.8-8 2.8-.5 0-1 .5 8.4-8.2 24-22.1 45.3-46.5 61.1-70.2l3.1-4.9zm-19 4.7c.2.2-12.3 17.7-19.7 27.6-8.9 11.8-24.7 31.6-35.6 44.5-4.5 5.4-8.5 9.8-8.6 9.9-.3.1-.4-1.3-.4-3.4 0-11-2.8-22.7-7.7-32.7-2.1-4.2-2.5-5.2-2-5.6 1.7-1.5 28.2-16.6 44.9-25.6 11.2-6 28.9-14.9 29.1-14.7zM76.1 433.5c.3 0 2.4 1.1 4.7 2.4 5.8 3.2 11 6.7 15.6 10.5.2.2-2.2 2.1-5.3 4.4-8.6 6.2-21.7 16.1-29.4 22.2-8 6.4-8.3 6.5-7.4 5.2 6-9.2 9-14.4 12.2-21 2.8-5.9 5.6-12.9 7.6-19 .9-2.7 1.8-4.7 2-4.7zm30.7 24c.5-.1 1 .7 3.5 4.4 5.2 7.7 9.2 18.1 10.2 26.5l.2 1.8-12.5 4.8c-22.3 8.6-42.8 17.2-56.7 23.5-3.9 1.8-10.7 5.1-15.2 7.3-4.5 2.3-8.1 4-8.1 3.9 0-.1 2.8-2.2 6.3-4.7 27.2-19.7 50.7-41.4 68.4-63 1.9-2.3 3.6-4.4 3.8-4.5h.1zm-14.1 3.4c.4.4-10 12.1-17.1 19.3-17.5 17.9-34.9 31.9-56.5 45.5-2.7 1.7-5.2 3.3-5.5 3.5-.6.4.2-.5 9.6-10.8 6-6.5 10.5-11.9 15.7-18.6 3.5-4.5 4.1-5.1 9.1-8.6 13.5-9.7 44.3-30.7 44.7-30.3z" style="fill:#ee352c" transform="matrix(.569 0 0 .569 199.451 -82.735)"/><path d="M89.9 383.8c-.8 0-1.5.1-2.3.1-15.6.8-26 7.7-32.2 21-5.2 12.1-4.7 27.9.1 40 5.5 11.9 14.4 18.2 29.2 20.5 3.1.5 5.2 2.2 11.3 9.3l7.5 8.8h13.6l-9-9.1c-5-5-9-9.3-9-9.7 0-.4 1.9-1.2 4.2-1.9 7.6-2.3 13.9-8.2 18.4-17.2 3.6-7.2 4.1-9.5 4.6-18.5 1.3-26.7-12.9-43.5-36.4-43.3zm11.9 70.1c-6.6 3.2-16.2 3.8-22.4 1.5-6.5-2.4-12.7-9.1-15.6-16.7-3.1-8.3-2.7-23.7.9-30.6 5.8-11 13.4-16.1 24.5-16.1 16.5 0 25.9 10.1 27.1 29.1 1 16-4.3 27.9-14.5 32.8zm234.4-47.2c-5.7 0-10 2.3-13 6.8l-2.3 3.6v-9.3H311v56h9.8V446c0-16.4.2-18.3 2.5-22.8 3.2-6.1 8.6-9.2 13.8-7.7l3.5 1v-9.7l-4.4-.1zm-57.9-.5c-1.9 0-4 .3-6 .7-13.2 3.4-20.6 16.1-20.2 29 0 10.9 2.1 16.3 7.4 22 10.7 8.8 20.5 9.5 33.6 4.8 2.2-1 4.7-2.1 4.7-2.1v-8.8l-4.7 2.4c-10.6 4.6-18.6 4.6-25-.8-4.1-4.2-5.9-9.1-6.7-14.8h39.7V431c0-15.3-9.3-25-22.8-24.8zm-16 24.6s1.5-9.6 6.9-13.4c2.6-1.8 5.6-2.7 8.6-2.7 2.9 0 5.9 1 8.3 2.8 5 3.8 5.8 13.2 5.8 13.2l-29.6.1zM24.8 420.7C14.1 414.2 9.4 409.5 9.9 404c1.7-15.2 20.5-13.1 30.9-7.4l.1-10.2s-5.8-2.5-14-2.6c-12.7-.2-20.8 4-24.7 12.4-5.6 12.5-.6 21.9 17.4 32.4 10.1 5.9 14.6 11 14.6 16.6 0 11.5-13.9 15.5-28.2 8.3-2.9-1.5-5.4-2.7-5.6-2.7-.5 3.3-.2 11.1-.2 11.1s4.4 1.8 11 3.1c16.4 3.3 31.3-4.4 32.7-16.9 1.1-11.7-3.1-17.8-19.1-27.4zm398.6-14.6c-1.9 0-4 .3-6.1.7-13.2 3.4-20.6 16.1-20.1 29 0 10.9 2.1 16.2 7.3 21.9 10.7 8.8 20.5 9.5 33.6 4.8 2.2-1 4.7-2 4.7-2v-8.8l-4.7 2.4c-10.6 4.6-18.6 4.6-25-.8-4.1-4.2-5.9-9.1-6.7-14.8h39.7v-7.6c0-15.3-9.2-25.1-22.7-24.8zm-16.1 24.6s1.5-9.6 6.9-13.4c2.6-1.9 5.6-2.8 8.6-2.8 2.9 0 5.9 1 8.3 2.8 5 3.8 5.8 13.3 5.8 13.3l-29.6.1zm-180.5-9.9c-10.7-6.5-15.4-11.1-14.8-16.6 1.7-15.2 20.5-13.1 30.9-7.4l.1-10.2s-5.8-2.5-14-2.6c-12.7-.2-20.8 4-24.7 12.4-5.6 12.5-.6 21.9 17.4 32.4 10.1 5.9 14.6 10.9 14.6 16.5 0 11.5-13.9 15.6-28.2 8.3-2.9-1.5-5.4-2.7-5.6-2.7-.5 3.3-.2 11.1-.2 11.1s4.3 1.8 10.9 3.1c16.4 3.3 31.3-4.4 32.7-16.9 1.1-11.6-3.1-17.8-19.1-27.4zm254.5-14.2c-5.7 0-10.1 2.3-13 6.9L466 417v-9.3h-9.9v56h9.8v-17.9c0-16.4.2-18.3 2.5-22.8 3.2-6.1 8.6-9.2 13.8-7.7l3.5 1v-9.7h-4.4zm-332.9 13.9v-35.7h-9.9v79.1h41.8v-9.3h-31.8l-.1-34.1zm229.7 11.1-8.2 21.3-7.9-21.4-8-23.7h-10.2c6.6 18.7 13.8 37.7 21 56.1 3.1.1 6.3 0 9.4 0l11.1-27.8 11.3-28.3h-9.7s-4.3 11.2-8.8 23.8zm-206.8-68.4c1.6 0 2.9-.5 4-1.6s1.7-2.4 1.7-4-.6-2.9-1.7-4c-1.1-1-2.4-1.5-4-1.5s-2.9.5-4 1.6-1.6 2.4-1.6 4 .5 2.9 1.6 4c1.1 1 2.4 1.5 4 1.5zm-3.5-9c1-1 2.1-1.4 3.6-1.4 1.4 0 2.6.4 3.5 1.4 1 1 1.5 2.1 1.5 3.5s-.5 2.6-1.5 3.6-2.1 1.4-3.5 1.4-2.6-.4-3.5-1.4c-1-1-1.5-2.2-1.5-3.6s.4-2.6 1.4-3.5zm2.4 4h.6c.5 0 .9.4 1.3 1.3l.8 1.7h1.2l-1-1.9c-.4-.8-.8-1.2-1.2-1.3.6-.1 1-.3 1.3-.7.3-.3.4-.8.4-1.3 0-.6-.2-1-.6-1.3-.4-.4-1.1-.6-2.1-.6h-2v7.2h1v-3l.3-.1zm0-3.3h.9c.6 0 1.1.1 1.3.3.2.2.3.4.3.9 0 .8-.5 1.2-1.5 1.2h-1.1l.1-2.4zM6.1 357.5c0-2.5-.1-4.3-.1-5.4.3 1.3.6 2.3.8 2.9l9.5 21.3H18l9.5-21.5c.3-.6.5-1.5.8-2.7h.1c-.2 2.1-.3 4-.3 5.4v18.8h3.3v-27.9h-4.1l-8.8 19.4c-.3.8-.8 1.9-1.3 3.4h-.1c-.2-.8-.6-1.9-1.3-3.3l-8.6-19.6H2.9v27.9H6l.1-18.7c-.1.1 0 0 0 0zm32.5.1h2.8V375h-2.8v-17.4zm1.4-6.4c.6 0 1.1-.2 1.5-.6.4-.4.6-.9.6-1.5s-.2-1.1-.6-1.5c-.4-.4-.9-.6-1.5-.6s-1.1.2-1.5.6c-.4.4-.6.9-.6 1.5s.2 1.1.6 1.5c.5.4.9.6 1.5.6zm21.5 24.2v-3.1c-1.5 1.2-3.2 1.7-4.9 1.7-2.1 0-3.7-.7-4.9-2.1-1.2-1.3-1.9-3.2-1.9-5.5 0-2.4.6-4.3 2-5.8 1.3-1.4 2.9-2.1 5-2.1 1.7 0 3.3.5 4.7 1.5v-3.3c-1.3-.7-2.9-1-4.6-1-3.2 0-5.7 1-7.6 3-1.8 2-2.8 4.7-2.8 7.9 0 2.9.8 5.3 2.6 7.2 1.8 1.9 4.1 2.9 6.9 2.9 2.2 0 3.9-.4 5.5-1.3zm8-9.3c0-2.3.5-4.2 1.5-5.4.9-1.2 2-1.7 3.3-1.7 1.1 0 1.9.2 2.4.6v-3.3c-.4-.2-1.1-.3-1.9-.3-1.2 0-2.2.4-3.1 1.1-1 .8-1.7 1.9-2.2 3.4h-.1v-4.1h-3.2v20h3.2l.1-10.3zm18.4 10.6c3 0 5.4-1 7.2-2.9 1.8-1.9 2.7-4.5 2.7-7.7 0-3.3-.8-5.8-2.5-7.6-1.7-1.9-4-2.8-7-2.8s-5.4.9-7.2 2.6c-1.9 1.9-2.9 4.6-2.9 8.1 0 3 .8 5.5 2.6 7.4 1.7 2 4.1 2.9 7.1 2.9zm-4.5-16.2c1.2-1.3 2.8-1.9 4.8-1.9 2.1 0 3.6.6 4.7 1.9 1.2 1.3 1.7 3.3 1.7 5.8 0 2.4-.5 4.3-1.6 5.6-1.1 1.3-2.7 2.1-4.8 2.1-2.1 0-3.6-.7-4.9-2.1-1.2-1.3-1.8-3.2-1.8-5.6-.1-2.4.6-4.4 1.9-5.8zm28.4 14.5c1.2-1.1 1.9-2.4 1.9-4.1 0-1.5-.5-2.7-1.5-3.6-.8-.8-2-1.5-3.7-2.2-1.5-.6-2.5-1.2-3-1.7s-.8-1.2-.8-2.1c0-.8.3-1.5 1-2 .6-.5 1.5-.8 2.6-.8 1.7 0 3.2.5 4.5 1.4v-3.2c-1.3-.6-2.7-1-4.3-1-2.1 0-3.8.6-5.1 1.7-1.3 1.1-2 2.5-2 4.2 0 1.5.4 2.7 1.3 3.6.7.8 1.9 1.5 3.6 2.2 1.6.7 2.7 1.3 3.3 1.9.6.5.8 1.2.8 1.9 0 1.9-1.3 2.8-3.8 2.8-1.9 0-3.6-.6-5.2-1.9v3.4c1.4.8 3.1 1.2 4.9 1.2 2.4 0 4.2-.5 5.5-1.7zm15.2-19.2c-3 0-5.4.9-7.2 2.6-1.9 1.9-2.9 4.6-2.9 8.1 0 3 .8 5.5 2.6 7.4 1.8 1.9 4.2 2.9 7.2 2.9 3.1 0 5.4-1 7.2-2.9 1.8-1.9 2.7-4.5 2.7-7.7 0-3.3-.8-5.8-2.5-7.6-1.8-1.9-4.1-2.8-7.1-2.8zm6.3 10.5c0 2.4-.5 4.3-1.6 5.6-1.1 1.3-2.7 2.1-4.8 2.1-2.1 0-3.6-.7-4.9-2.1-1.2-1.3-1.8-3.2-1.8-5.6 0-2.6.6-4.5 1.9-5.9 1.2-1.3 2.8-1.9 4.8-1.9s3.6.6 4.7 1.9c1.1 1.4 1.6 3.3 1.7 5.9zm8.6 10h3.2V359h4.7v-2.7h-4.7v-3.1c0-2.8 1.1-4.2 3.3-4.2.8 0 1.5.2 2.1.5v-2.9c-.6-.3-1.3-.3-2.3-.3-1.7 0-3.1.5-4.3 1.6-1.3 1.3-2.1 2.9-2.1 5.2v3.3h-3.4v2.7h3.4l.1 17.2zm13.1-5.5c0 3.9 1.7 5.9 5.2 5.9 1.3 0 2.2-.2 3-.7v-2.7c-.6.4-1.3.6-2.1.6-1.1 0-1.8-.3-2.3-.8-.5-.6-.7-1.5-.7-2.9V359h5.1v-2.7h-5.1v-5.9c-1.1.4-2.2.7-3.2 1v4.9h-3.4v2.7h3.4l.1 11.8zm343.3 36.8c-1.1-1-2.4-1.5-4-1.5s-2.9.5-4 1.6-1.6 2.4-1.6 4 .5 2.9 1.6 4c1.1 1 2.4 1.5 4 1.5s2.9-.5 4-1.6 1.7-2.4 1.7-4c-.1-1.6-.6-2.9-1.7-4zm-.5 7.6c-1 1-2.1 1.4-3.5 1.4s-2.6-.4-3.5-1.4c-1-1-1.5-2.2-1.5-3.6s.4-2.6 1.4-3.5c1-1 2.1-1.4 3.6-1.4 1.4 0 2.6.4 3.5 1.4 1 1 1.5 2.1 1.5 3.5-.1 1.5-.5 2.6-1.5 3.6zm-2.9-3.3c.6-.1 1-.4 1.3-.7.3-.3.4-.8.4-1.3 0-.6-.2-1-.6-1.3-.4-.4-1.2-.6-2.1-.6h-2v7.2h1v-3h.6c.4 0 .9.4 1.3 1.3l.8 1.7h1.2l-1-1.9c-.1-.9-.5-1.3-.9-1.4zm-.7-.6h-1.1v-2.4h.9c.6 0 1.1.1 1.3.3.3.2.3.4.3.9.1.8-.5 1.2-1.4 1.2zm-178.5-55.8h.9v-7.2h2.4v-.9h-5.6v.9h2.4l-.1 7.2zm5.5-5.4c0-.7 0-1.3-.1-1.6.1.4.2.6.2.8l2.8 6.1h.4l2.8-6.2c.1-.2.1-.4.3-.8-.1.6-.1 1.2-.1 1.5v5.4h1v-8.1h-1.2l-2.5 5.6c-.1.2-.3.6-.4 1h-.1c-.1-.3-.2-.5-.4-1l-2.5-5.6h-1.3v8.1h.9l.2-5.2z" style="fill:#fff"/></svg>