<svg xmlns="http://www.w3.org/2000/svg" width="500" height="500"><style>.st0{fill:#fff}</style><path class="st0" d="M127.8 105.1c-5.3 0-8.8.7-12.5 1.5v.7h.7c2.4 4.8 6.8 8.4 9.9 12.5 2.4 4.8 4.6 9.7 7 14.7l.7-.7c4.4-3.1 6.4-7.9 6.4-15.4-1.8-2.2-2.2-4.2-3.7-6.4-2.1-3-6.1-4.5-8.5-6.9"/><path class="st0" d="M439.8 370.9c-24.4-.7-43.5 1.8-59.3 8.6-4.6 1.8-11.9 1.8-12.5 7.7 2.4 2.4 2.9 6.4 4.8 9.9 3.7 6.2 10.1 14.3 15.8 18.7 6.4 4.8 12.7 9.7 19.6 14.1 11.9 7.5 25.5 11.6 36.9 18.9 6.8 4.2 13.4 9.9 20.2 14.3 3.3 2.4 5.5 6.4 9.7 7.9v-1c-2.2-2.6-2.9-6.8-4.8-9.9-3.1-3.1-6.2-5.7-9.2-8.8-8.8-11.9-20-22.4-31.9-31-9.9-6.8-31.2-16-35.2-27.2l-.7-.7c6.8-.7 14.7-3.1 21.1-4.8 10.3-2.6 19.8-2.2 30.5-4.8 4.8-1.3 9.9-2.9 14.7-4.2v-2.9c-5.5-5.5-9.4-12.7-15.4-18-15.6-13.4-32.7-26.6-50.5-37.6-9.4-6.2-21.8-10.1-31.9-15.4-3.7-1.8-9.7-2.6-11.9-5.9-5.5-6.8-8.6-15.6-12.5-23.5-8.8-16.9-17.4-35.4-25.1-53.2-5.5-11.9-8.8-24-15.6-34.9-31.6-52.1-65.7-83.5-118.4-114.5-11.4-6.4-24.8-9.2-39.1-12.5-7.7-.2-15.4-.9-22.9-1.3-4.8-2.2-9.9-7.9-14.1-10.8C85 37.2 39.9 13.2 27 44.8c-8.3 20 12.3 39.6 19.3 49.7 5.3 7 11.9 14.9 15.6 22.9 2.2 5.3 2.9 10.8 4.8 16.3 4.8 13.4 9.4 28.6 15.8 41.1 3.3 6.4 7 13.2 11.2 18.9 2.4 3.3 6.8 4.8 7.7 10.3-4.2 6.2-4.6 15.4-7 22.9-11 34.5-6.8 77.3 8.8 102.8 4.8 7.7 16.5 24.4 32.1 18 13.8-5.5 10.8-22.9 14.7-38.2.9-3.7.2-6.2 2.2-8.6v.7c4.2 8.6 8.6 16.7 12.5 25.5 9.4 14.9 25.9 30.5 39.8 41.1 7.3 5.5 13.2 14.9 22.4 18.5v-.9h-.7c-1.8-2.6-4.6-4-7-6.2-5.5-5.5-11.6-12.3-15.8-18.5-12.7-17.1-24.2-36-34.3-55.6-4.8-9.4-9.2-20-13.2-29.4-1.8-3.7-1.8-9.2-4.8-11-4.6 6.8-11.2 12.5-14.7 20.9-5.7 13.2-6.4 29.4-8.6 46.1-1.3.2-.7 0-1.3.7-9.9-2.4-13.2-12.5-16.9-21.1-9.2-21.8-10.8-56.7-2.9-81.7 2.2-6.4 11.4-26.6 7.7-32.7-1.8-5.9-7.9-9.2-11.4-13.8-4-5.7-8.3-13.2-11-19.6-7.3-17.1-11-36-18.9-53.2C69.4 102.6 63 94.3 57.7 87c-5.9-8.4-12.3-14.1-16.9-24-1.5-3.3-3.7-8.8-1.3-12.5.7-2.4 1.8-3.3 4.4-4 4-3.3 15.4.9 19.3 2.9 11.4 4.6 20.9 8.8 30.3 15.4 4.4 3.1 8.8 8.8 14.3 10.3h6.4c9.9 2.2 20.9.7 30.1 3.3 16.3 5.3 31 12.7 44.2 21.1 40 25.5 73.2 61.5 95.4 104.6 3.7 7 5.3 13.4 8.6 20.9 6.4 14.9 14.5 30.3 20.9 45 6.4 14.3 12.5 29 21.8 41.1 4.6 6.4 22.9 9.9 31.2 13.2 6.2 2.6 15.6 5.3 21.1 8.6 10.3 6.4 20.9 13.8 30.5 20.9 5.8 3.3 21 11 21.8 17.1"/></svg>