<svg xmlns="http://www.w3.org/2000/svg" width="500" height="500"><style>.st1,.st2{fill:#fff}</style><path d="M341.8 114.7c-2.4 0-4 .3-5.7.7v.3h.3c1.1 2.2 3.1 3.8 4.5 5.7 1.1 2.2 2.1 4.4 3.2 6.7l.3-.3c2-1.4 2.9-3.6 2.9-7-.8-1-1-1.9-1.7-2.9-.9-1.4-2.7-2.1-3.8-3.2" style="fill:#fff"/><path class="st1" d="M120.2 389.6h-19.3c-.7-32.6-2.6-63.2-5.6-91.9h-.2l-29.4 91.9H51.1l-29.2-91.9h-.2c-2.2 27.5-3.5 58.2-4.1 91.9H0c1.1-41 4-79.4 8.5-115.3h23.9L60.3 359h.2l28-84.7h22.9c4.9 42 7.9 80.4 8.8 115.3M203.9 304.5c-7.9 42.6-18.2 73.6-31.1 92.9-10 14.9-21 22.3-33 22.3-3.2 0-7.1-1-11.8-2.9v-10.3c2.3.3 5 .5 8 .5 5.6 0 10.1-1.5 13.5-4.6 4.1-3.7 6.1-8 6.1-12.6 0-3.2-1.6-9.7-4.8-19.6l-21.2-65.7h19l15.2 49.2c3.4 11.2 4.8 19 4.3 23.4 8.3-22.2 14.1-46.4 17.4-72.6h18.4z"/><path class="st2" d="M460.7 389.6h-54.8V274.3h18.4v101.1h36.4z"/><path d="m391.5 392.3-21.2-10.4c1.9-1.5 3.7-3.2 5.3-5.1 9-10.6 13.5-26.2 13.5-47 0-38.1-15-57.2-44.9-57.2-14.7 0-26.1 4.8-34.3 14.5-9 10.6-13.5 26.2-13.5 46.8 0 20.3 4 35.1 11.9 44.6 7.3 8.5 18.3 12.8 33 12.8 5.5 0 10.5-.7 15.1-2l27.6 16.1 7.5-13.1zm-68.6-25.8c-4.7-7.5-7-19.6-7-36.2 0-29 8.8-43.5 26.5-43.5 9.2 0 16 3.5 20.3 10.4 4.7 7.5 7 19.5 7 35.9 0 29.3-8.8 43.9-26.5 43.9-9.2-.1-16-3.5-20.3-10.5" style="fill:#fff"/><path class="st2" d="M288.4 357.6c0 9.8-3.6 17.8-10.8 24.1-7.2 6.3-16.8 9.4-28.8 9.4-11.3 0-22.2-3.6-32.8-10.8l5-9.9c9.1 4.6 17.4 6.8 24.8 6.8 6.9 0 12.4-1.5 16.3-4.6 3.9-3.1 6.3-7.4 6.3-12.8 0-6.8-4.8-12.7-13.5-17.6-8.1-4.4-24.2-13.7-24.2-13.7-8.8-6.4-13.1-13.2-13.1-24.5 0-9.3 3.3-16.9 9.8-22.6 6.6-5.8 15-8.6 25.4-8.6 10.7 0 20.4 2.9 29.2 8.5l-4.5 9.9c-7.5-3.2-14.9-4.8-22.2-4.8-5.9 0-10.5 1.4-13.7 4.3-3.2 2.8-5.2 6.5-5.2 10.9 0 6.8 4.9 12.7 13.9 17.7 8.2 4.4 24.7 13.9 24.7 13.9 8.9 6.4 13.4 13.2 13.4 24.4"/><path d="M483.8 235.7c-11.1-.3-19.8.8-27 3.9-2.1.8-5.4.8-5.7 3.5 1.1 1.1 1.3 2.9 2.2 4.5 1.7 2.8 4.6 6.5 7.2 8.5 2.9 2.2 5.8 4.4 8.9 6.4 5.4 3.4 11.6 5.3 16.8 8.6 3.1 1.9 6.1 4.5 9.2 6.5 1.5 1.1 2.5 2.9 4.4 3.6v-.4c-1-1.2-1.3-3.1-2.2-4.5-1.4-1.4-2.8-2.6-4.2-4-4-5.4-9.1-10.2-14.5-14.1-4.5-3.1-14.2-7.3-16-12.4l-.3-.3c3.1-.3 6.7-1.4 9.6-2.2 4.7-1.2 9-1 13.9-2.2 2.2-.6 4.5-1.3 6.7-1.9v-1.3c-2.5-2.5-4.3-5.8-7-8.2-7.1-6.1-14.9-12.1-23-17.1-4.3-2.8-9.9-4.6-14.5-7-1.7-.8-4.4-1.2-5.4-2.7-2.5-3.1-3.9-7.1-5.7-10.7-4-7.7-7.9-16.1-11.4-24.2-2.5-5.4-4-10.9-7.1-15.9-14.4-23.7-29.9-38-53.9-52.1-5.2-2.9-11.3-4.2-17.8-5.7-3.5-.1-7-.4-10.4-.6-2.2-1-4.5-3.6-6.4-4.9-7.9-5-28.4-15.9-34.3-1.5-3.8 9.1 5.6 18 8.8 22.6 2.4 3.2 5.4 6.8 7.1 10.4 1 2.4 1.3 4.9 2.2 7.4 2.2 6.1 4.3 13 7.2 18.7 1.5 2.9 3.2 6 5.1 8.6 1.1 1.5 3.1 2.2 3.5 4.7-1.9 2.8-2.1 7-3.2 10.4-5 15.7-3.1 35.2 4 46.8 2.2 3.5 7.5 11.1 14.6 8.2 6.3-2.5 4.9-10.4 6.7-17.4.4-1.7.1-2.8 1-3.9v.3c1.9 3.9 3.9 7.6 5.7 11.6 4.3 6.8 11.8 13.9 18.1 18.7 3.3 2.5 6 6.8 10.2 8.4v-.4h-.3c-.8-1.2-2.1-1.8-3.2-2.8-2.5-2.5-5.3-5.6-7.2-8.4-5.8-7.8-11-16.4-15.6-25.3-2.2-4.3-4.2-9.1-6-13.4-.8-1.7-.8-4.2-2.2-5-2.1 3.1-5.1 5.7-6.7 9.5-2.6 6-2.9 13.4-3.9 21-.6.1-.3 0-.6.3-4.5-1.1-6-5.7-7.7-9.6-4.2-9.9-4.9-25.8-1.3-37.2 1-2.9 5.2-12.1 3.5-14.9-.8-2.7-3.6-4.2-5.2-6.3-1.8-2.6-3.8-6-5-8.9-3.3-7.8-5-16.4-8.6-24.2-1.7-3.6-4.6-7.4-7-10.7-2.7-3.8-5.6-6.4-7.7-10.9-.7-1.5-1.7-4-.6-5.7.3-1.1.8-1.5 2-1.8 1.8-1.5 7 .4 8.8 1.3 5.2 2.1 9.5 4 13.8 7 2 1.4 4 4 6.5 4.7h2.9c4.5 1 9.5.3 13.7 1.5 7.4 2.4 14.1 5.8 20.1 9.6 18.2 11.6 33.3 28 43.4 47.6 1.7 3.2 2.4 6.1 3.9 9.5 2.9 6.8 6.6 13.8 9.5 20.5 2.9 6.5 5.7 13.2 9.9 18.7 2.1 2.9 10.4 4.5 14.2 6 2.8 1.2 7.1 2.4 9.6 3.9 4.7 2.9 9.5 6.3 13.9 9.5 2.7 1.5 9.6 5 10 7.8" style="fill:#fff"/><path class="st2" d="M497.1 389.6h2.9v-14.1h-4.3l-3.5 9.6-3.8-9.6h-4.2v14.1h2.7v-10.7h.2l4 10.7h2.1l4-10.7v10.7zm-23.2 0h3.1v-11.7h4v-2.4h-11.2v2.4h4.2v11.7z"/></svg>