<svg xmlns="http://www.w3.org/2000/svg" width="500" height="500"><style>.st0{fill:#689f63}</style><linearGradient id="SVGID_1_" gradientUnits="userSpaceOnUse" x1="252.154" y1="490.084" x2="253.51" y2="490.084" gradientTransform="scale(-115.3065 115.3065) rotate(63.886 517.05 41.99)"><stop offset=".3" style="stop-color:#3e863d"/><stop offset=".5" style="stop-color:#55934f"/><stop offset=".8" style="stop-color:#5aad45"/></linearGradient><linearGradient id="SVGID_2_" gradientUnits="userSpaceOnUse" x1="244.921" y1="489.668" x2="245.801" y2="489.668" gradientTransform="scale(177.0637 -177.0637) rotate(36.46 868.516 -126.703)"><stop offset=".57" style="stop-color:#3e863d"/><stop offset=".72" style="stop-color:#619857"/><stop offset="1" style="stop-color:#76ac64"/></linearGradient><linearGradient id="SVGID_3_" gradientUnits="userSpaceOnUse" x1="245.948" y1="487.382" x2="246.746" y2="487.382" gradientTransform="matrix(129.8891 0 0 -129.8891 -31811.756 63533.262)"><stop offset=".16" style="stop-color:#6bbf47"/><stop offset=".38" style="stop-color:#79b461"/><stop offset=".47" style="stop-color:#75ac64"/><stop offset=".7" style="stop-color:#659e5a"/><stop offset=".9" style="stop-color:#3e863d"/></linearGradient><path class="st0" d="M247.1 403.1c-1.7 0-3.3-.4-4.7-1.3l-15.1-8.9c-2.3-1.3-1.2-1.7-.4-2 3-1.1 3.6-1.3 6.8-3.1.3-.2.8-.1 1.1.1l11.6 6.9c.4.2 1 .2 1.4 0l45.2-26.1c.4-.2.7-.7.7-1.2v-52.1c0-.5-.3-1-.7-1.2l-45.1-26c-.4-.2-1-.2-1.4 0l-45.1 26c-.4.2-.7.7-.7 1.2v52.1c0 .5.3 1 .7 1.2l12.4 7.1c6.7 3.4 10.8-.6 10.8-4.6v-51.4c0-.7.6-1.3 1.3-1.3h5.7c.7 0 1.3.6 1.3 1.3v51.5c0 9-4.9 14.1-13.4 14.1-2.6 0-4.7 0-10.4-2.8l-11.8-6.8c-2.9-1.7-4.7-4.9-4.7-8.2v-52.1c0-3.4 1.8-6.6 4.7-8.2l45.2-26.1c2.9-1.6 6.7-1.6 9.5 0l45.1 26.1c2.9 1.7 4.7 4.8 4.7 8.2v52.1c0 3.4-1.8 6.5-4.7 8.2L252 401.9c-1.6.8-3.2 1.2-4.9 1.2"/><path class="st0" d="M261.1 367.2c-19.8 0-23.9-9.1-23.9-16.7 0-.7.6-1.3 1.3-1.3h5.8c.6 0 1.2.5 1.3 1.1.9 5.9 3.5 8.9 15.5 8.9 9.5 0 13.6-2.1 13.6-7.2 0-2.9-1.2-5.1-15.9-6.5-12.4-1.2-20-3.9-20-13.8 0-9.1 7.7-14.5 20.6-14.5 14.5 0 21.6 5 22.5 15.8 0 .4-.1.7-.4 1-.2.3-.6.4-1 .4h-5.9c-.6 0-1.1-.4-1.3-1-1.4-6.3-4.8-8.3-14.1-8.3-10.4 0-11.6 3.6-11.6 6.3 0 3.3 1.4 4.2 15.4 6.1 13.9 1.8 20.5 4.4 20.5 14.2 0 9.9-8.2 15.6-22.4 15.5M316 312h1.5c1.2 0 1.5-.9 1.5-1.4 0-1.3-.9-1.3-1.4-1.3H316v2.7zm-1.8-4.3h3.4c1.2 0 3.4 0 3.4 2.6 0 1.8-1.2 2.2-1.8 2.4 1.3.1 1.4 1 1.6 2.2.1.8.2 2.1.5 2.6h-2.1c-.1-.5-.4-2.9-.4-3.1-.1-.6-.3-.8-1-.8h-1.7v3.9h-1.9v-9.8zm-4.1 4.9c0 4 3.3 7.3 7.3 7.3s7.3-3.3 7.3-7.3c0-4.1-3.3-7.3-7.3-7.3s-7.3 3.2-7.3 7.3m16 0c0 4.8-3.9 8.7-8.7 8.7-4.7 0-8.7-3.9-8.7-8.7 0-4.9 4-8.7 8.7-8.7 4.7 0 8.7 3.8 8.7 8.7"/><path d="M107.3 199.2c0-2.1-1.1-4-2.9-5l-47.9-27.5c-.8-.5-1.7-.7-2.6-.8h-.5c-.9 0-1.8.3-2.6.8L2.9 194.2c-1.8 1-2.9 3-2.9 5l.1 74.2c0 1 .5 2 1.4 2.5.9.5 2 .5 2.9 0l28.5-16.3c1.8-1.1 2.9-3 2.9-5V220c0-2.1 1.1-4 2.9-5l12.1-7c.9-.5 1.9-.8 2.9-.8s2 .3 2.9.8l12.1 7c1.8 1 2.9 2.9 2.9 5v34.7c0 2.1 1.1 4 2.9 5l28.4 16.3c.9.5 2 .5 2.9 0 .9-.5 1.4-1.5 1.4-2.5l.1-74.3zm225.9 38.7c0 .5-.3 1-.7 1.3l-16.4 9.5c-.4.3-1 .3-1.4 0l-16.4-9.5c-.5-.3-.7-.7-.7-1.3v-19c0-.5.3-1 .7-1.3l16.4-9.5c.5-.3 1-.3 1.5 0l16.4 9.5c.5.3.7.7.7 1.3l-.1 19zm4.5-140.6c-.9-.5-2-.5-2.9 0-.9.5-1.4 1.5-1.4 2.5v73.5c0 .7-.4 1.4-1 1.8-.6.4-1.4.4-2 0l-12-6.9c-1.8-1-4-1-5.8 0l-47.9 27.6c-1.8 1-2.9 2.9-2.9 5V256c0 2.1 1.1 4 2.9 5l47.9 27.7c1.8 1 4 1 5.8 0l47.9-27.7c1.8-1 2.9-2.9 2.9-5V118.2c0-2.1-1.1-4-3-5.1l-28.5-15.8zm159.4 121.1c1.8-1 2.9-2.9 2.9-5V200c0-2.1-1.1-4-2.9-5l-47.6-27.6c-1.8-1-4-1-5.8 0L395.9 195c-1.8 1-2.9 2.9-2.9 5v55.3c0 2.1 1.1 4 2.9 5l47.6 27.1c1.8 1 3.9 1 5.7 0l28.8-16c.9-.5 1.5-1.5 1.5-2.5s-.6-2-1.5-2.5l-48.2-27.6c-.9-.5-1.5-1.5-1.5-2.5V219c0-1 .5-2 1.4-2.5l15-8.6c.9-.5 2-.5 2.9 0l15 8.6c.9.5 1.4 1.5 1.4 2.5v13.6c0 1 .6 2 1.4 2.5.9.5 2 .5 2.9 0l28.8-16.7z" style="fill:#fff"/><path d="M445.9 215.8c.3-.2.8-.2 1.1 0l9.2 5.3c.3.2.6.6.6 1v10.6c0 .4-.2.8-.6 1L447 239c-.3.2-.8.2-1.1 0l-9.2-5.3c-.4-.2-.6-.6-.6-1v-10.6c0-.4.2-.8.6-1l9.2-5.3z" style="fill:#689f63"/><path d="M237.9 255.1v-55c0-2.1-1.1-4-2.9-5l-47.6-27.5c-.9-.5-1.9-.8-2.9-.8s-2 .3-2.9.8L134 195.1c-1.8 1-2.9 2.9-2.9 5v55c0 2.1 1.1 4 2.9 5l47.6 27.5c1.8 1 4 1 5.8 0l47.6-27.5c1.8-1 2.9-2.9 2.9-5z" style="fill:url(#SVGID_1_)"/><path d="M181.7 287.6c1 .6 2.2.8 3.3.8.4 0 .8-.1 1.1-.2l50.2-92c-.4-.4-.8-.8-1.3-1.1l-31.2-18-16.5-9.5c-.5-.3-1-.5-1.5-.6l-53.5 91.6c.5.6 1 1.1 1.7 1.5l40.8 23.6 6.9 3.9z" style="fill:url(#SVGID_2_)"/><path d="M184 166.9c-.8.1-1.6.3-2.3.7L134.2 195l51.2 93.3c.7-.1 1.4-.3 2-.7l47.6-27.5c1.4-.8 2.4-2.2 2.8-3.8v-.1L185.6 167c-.4-.1-.8-.1-1.2-.1h-.4z" style="fill:url(#SVGID_3_)"/></svg>