<svg xmlns="http://www.w3.org/2000/svg" width="500" height="500"><style>.st1{fill:#31a8ff}</style><path d="M104.7 30.6h290.6c44.1 0 79.7 35.6 79.7 79.7v279.3c0 44.1-35.6 79.7-79.7 79.7H104.7c-44.1 0-79.7-35.6-79.7-79.7V110.4c0-44.1 35.7-79.8 79.7-79.8z" style="fill:#001e36"/><path class="st1" d="M126.3 338.4V145.5c0-1.4.5-2.1 1.9-2.1 3.2 0 6.2 0 10.5-.2 4.5-.2 9.2-.2 14.2-.4s10.5-.2 16.3-.4c5.9-.2 11.4-.2 17.1-.2 15.4 0 28.1 1.9 38.6 5.9 9.4 3.2 18 8.5 25.1 15.4 6 6 10.7 13.3 13.7 21.4 2.8 7.8 4.3 15.9 4.3 24.4 0 16.1-3.8 29.4-11.3 40-7.5 10.5-18 18.4-30.2 22.9-12.8 4.7-26.8 6.4-42.2 6.4-4.5 0-7.5 0-9.4-.2-1.9-.2-4.5-.2-8.1-.2v60.2c.2 1.4-.7 2.4-2.1 2.6H128.4c-1.4-.2-2.1-.9-2.1-2.6zm40.9-158.8v63c2.6.2 5 .4 7.3.4h9.9c7.3 0 14.7-1.1 21.6-3.4 6-1.7 11.3-5.2 15.4-9.9 4-4.7 5.9-11.1 5.9-19.4.2-5.9-1.4-11.6-4.3-16.7-3.2-4.9-7.7-8.6-13.1-10.7-6.9-2.8-14.4-4-22.1-3.8-4.9 0-9.2 0-12.8.2-3.9-.1-6.5.1-7.8.3zM385 231.2c-5.6-3-11.6-5-18-6.4-6.9-1.5-13.9-2.4-21-2.4-3.8-.2-7.7.4-11.3 1.4-2.4.5-4.5 1.9-5.9 3.8-.9 1.5-1.5 3.4-1.5 5 0 1.7.7 3.4 1.9 4.9 1.7 2.1 4 3.8 6.4 5 4.3 2.3 8.8 4.3 13.3 6.2 10.1 3.4 19.9 8.1 28.9 13.7 6.2 4 11.3 9.2 14.9 15.6 3 6 4.5 12.6 4.3 19.4.2 8.8-2.4 17.6-7.3 24.9-5.2 7.5-12.6 13.3-21 16.7-9.2 4-20.4 6-33.9 6-8.6 0-17.1-.7-25.5-2.4-6.6-1.2-13.1-3.2-19.1-6-1.4-.7-2.3-2.1-2.1-3.6v-32.6c0-.5.2-1.4.7-1.7.5-.3 1.1-.2 1.7.2 7.3 4.3 15 7.3 23.2 9.2 7.1 1.9 14.6 2.8 22.1 2.8 7.1 0 12.2-.9 15.6-2.6 3-1.4 5-4.5 5-7.9 0-2.6-1.5-5-4.5-7.5-3-2.4-9.2-5.2-18.4-8.8-9.5-3.4-18.4-7.9-26.6-13.5-5.9-4.1-10.7-9.5-14.2-15.9-3-6-4.5-12.6-4.3-19.1 0-8.1 2.3-15.8 6.4-22.7 4.7-7.5 11.6-13.5 19.7-17.3 8.8-4.5 19.9-6.6 33.2-6.6 7.7 0 15.6.5 23.2 1.7 5.6.7 11.1 2.3 16.1 4.3.7.2 1.5.9 1.9 1.7.2.7.4 1.5.4 2.3v30.6c0 .7-.4 1.5-.9 1.9-1.7 0-2.7 0-3.4-.3z"/></svg>