<svg xmlns="http://www.w3.org/2000/svg" width="500" height="500"><style>.st2{fill:none}.st3{fill:#fff}</style><path d="M323.2 324.2c2.8-23.6 2-27.1 19.6-23.2l4.5.4c13.5.6 31.2-2.2 41.6-7 22.4-10.4 35.6-27.7 13.6-23.1-50.3 10.4-53.8-6.7-53.8-6.7 53.1-78.8 75.3-178.8 56.1-203.3C352.5-5.5 262 26 260.5 26.9l-.5.1c-9.9-2.1-21.1-3.3-33.6-3.5-22.8-.4-40 6-53.1 15.9 0 0-161.4-66.5-153.9 83.6 1.6 31.9 45.8 241.7 98.5 178.3 19.3-23.2 37.9-42.7 37.9-42.7 9.2 6.1 20.3 9.3 31.9 8.1l.9-.8c-.3 2.9-.2 5.7.4 9-13.6 15.2-9.6 17.8-36.7 23.4-27.5 5.7-11.3 15.7-.8 18.4 12.8 3.2 42.3 7.7 62.3-20.2l-.8 3.2c5.3 4.3 5 30.6 5.7 49.5.8 18.8 2 36.4 5.9 46.8 3.8 10.4 8.4 37 44 29.4 29.7-6.5 52.5-15.6 54.6-101.2" style="stroke:#000;stroke-width:37.3953"/><path d="M402.4 271.2c-50.3 10.4-53.8-6.7-53.8-6.7 53.1-78.8 75.3-178.8 56.2-203.3C352.5-5.5 262 26 260.5 26.9l-.5.1c-9.9-2.1-21.1-3.3-33.6-3.5-22.8-.4-40 6-53.1 15.9 0 0-161.4-66.5-153.9 83.6 1.6 31.9 45.8 241.7 98.5 178.3 19.3-23.2 37.9-42.7 37.9-42.7 9.2 6.1 20.3 9.3 31.9 8.1l.9-.8c-.3 2.9-.2 5.7.4 9-13.6 15.2-9.6 17.8-36.7 23.4-27.5 5.7-11.3 15.7-.8 18.4 12.8 3.2 42.3 7.7 62.3-20.2l-.8 3.2c5.3 4.3 9.1 27.7 8.4 49-.6 21.3-1 35.9 3.1 47.3 4.2 11.4 8.4 37 44 29.4 29.8-6.4 45.3-22.9 47.4-50.6 1.5-19.6 5-16.7 5.2-34.3l2.8-8.3c3.2-26.6.5-35.2 18.9-31.2l4.5.4c13.5.6 31.2-2.2 41.6-7 22.3-10.4 35.5-27.7 13.5-23.2z" style="fill:#336791"/><path class="st2" d="M52.8 42.9C32.6 57.2 23.4 83.8 25.3 122c.6 12.1 8.2 55.1 21.3 98 15.1 49.5 32.2 80.7 47 85.6 2.3.8 9.2 3.1 19.1-8.9 14.1-17 27.4-31.4 33.4-37.9-1.5-1.3-3-2.7-4.4-4.2-13.7-14.3-19.9-34.1-17.1-54.3 3-21.8 1.9-41 1.3-51.3-.2-2.8-.3-4.9-.3-6.3-.1-3.8-.9-65.1 34.6-101.1l.9-.9c-21.5-7.1-75.4-21-108.3 2.2z"/><path class="st2" d="M172.2 117.9c21.1-2.2 35.1 7.2 39.2 26.5 11.1 51.5.9 74.4-6.6 91-1.4 3.1-2.7 6-3.7 8.8l-.9 2.5c-2.2 5.9-4.3 11.4-5.4 16.3 5.5-1.4 10.1.5 12.6 1.5 6.3 2.6 11.6 8.9 13.7 16.4.4 1.2.6 2.4.8 3.7.2.6.3 1.3.3 2-1.4 51.8.6 98.6 4.7 109 6.4 16.1 16.2 30.2 43.8 24.3 26.6-5.7 36.1-15.3 40.5-41 3.4-19.5 10-74.6 10.9-86.4-1.2-23.5 11.5-28.2 18.5-30.2-.9-1.3-2.1-2.8-3.3-4.3-4-5-9.5-11.8-13.7-22.1-.6-1.6-2.7-5.3-5.1-9.5-13-23.3-40-71.7-22.5-96.6 8-11.5 23.8-16.1 47.1-13.7C340 107 332.3 89.9 318 73c-16.6-19.6-46-43.2-92-43.9-23.3-.4-42.4 6.8-56.8 21.2-22.8 23-28.9 59.3-30.5 78.8 1.1-.6 2.2-1.2 3.4-1.8 5.9-2.9 17.4-8.1 30.1-9.4z"/><path class="st2" d="M202.6 276.1c-3.4-1.4-5.2-2.2-9.3 2.4-2.7 3.1-4.7 5.6-6.5 7.8-7.6 9.7-11.1 12.9-33.7 17.6-4.7 1-7.3 1.9-8.9 2.6 1.8 1.2 4.9 2.7 8.3 3.6 16.6 4.2 39.8 4.4 55.7-17.8 1.9-2.6 1.3-6 .8-7.8-1-3.8-3.7-7.3-6.4-8.4zM189.4 240c1.2-3.2 2.6-6.3 4.1-9.6 7.2-15.9 16.1-35.7 5.8-83.3-2-9.2-6.8-14.5-14.6-16.3-17.2-3.9-41.3 9-46.5 13.6 0 1 .1 2.4.2 3.9.6 10.8 1.8 30.8-1.4 53.8-2.3 16.4 2.7 32.4 13.8 44 8.7 9.1 20.1 14.1 31.8 14.1 1.3-5.5 3.5-11.4 5.9-17.6l.9-2.6zm-8.2-88c-3.3-.5-6.6-2.5-8.9-5.5-.8-1.1-2.1-3.1-1.9-5 .1-.7.5-1.7 1.6-2.6 2.1-1.6 6.2-2.2 10.7-1.5 5.6.8 11.3 3.4 10.7 7.4-.4 3.2-5.4 7.4-10.9 7.4-.3-.1-.8-.2-1.3-.2zM342.1 190.5c-.9-7.7-1.9-15.7-1.6-23.4.3-7.9 1.3-14.4 2.2-20.7.9-5.8 1.7-11.4 1.9-17.6-14.7-1.8-31.6-1.4-38.3 8.1-13 18.5 12.4 64 23.2 83.4 2.8 5 4.8 8.6 5.7 10.8 1 2.5 2.1 4.7 3.3 6.8 7.4-15.7 5.5-31.8 3.6-47.4zm-11.8-47.6c-1.2 1.3-3.7 3.4-7.2 3.9-.4.1-.9.1-1.3.1-5.2 0-9.5-4.1-9.9-6.5-.4-3.1 4.6-5.5 9.9-6.2 5.2-.7 10.7.2 11.2 3.3.2 1.3-.9 3.4-2.7 5.4zM349.4 274.6c-.6-.4-1.2-.8-1.7-1.3-.9.3-1.7.5-2.6.8-5.8 1.6-11.2 3.1-10.5 17.8 1.5 1.2 7.9 3.3 20.6 2.7 11.5-.5 23.5-3 30.7-6.4 8.4-3.9 14.3-8.2 17.7-11.5-.1 0-.2 0-.3.1-25.6 5.2-43.7 4.5-53.9-2.2z"/><path class="st2" d="M399.5 64.5c-20.2-25.8-48.8-39.3-84.8-40.1-14.2-.3-27 1.5-36.3 3.4 21.6 9.5 37.5 23.7 48.3 36.3 19.9 23.1 29.6 48.7 30.4 57.2.1 1.3 0 2.4-.2 3.3.3 8.9-.8 16.4-1.9 23.7-.9 5.9-1.9 12-2.1 19.2-.2 6.7.6 13.9 1.6 21.5 2.2 18.5 4.7 39.4-8 60.4.2.3.4.5.6.8.5.6 1 1.3 1.5 1.9C398 174.4 415 84.3 399.5 64.5z"/><path class="st3" d="M182.8 137.3c-4.5-.6-8.6 0-10.7 1.5-1.2.9-1.5 1.9-1.6 2.6-.3 1.9 1 3.9 1.9 5 2.3 3 5.6 5.1 8.9 5.5.5.1 1 .1 1.4.1 5.5 0 10.5-4.3 10.9-7.4.5-3.9-5.2-6.6-10.8-7.3z"/><path class="st3" d="M182.5 139.3c-5.2-.7-9.7.3-10 2.4-.3 2 3.7 7.5 9 8.2 5.2.7 9.7-3.5 10-5.6.3-2-3.7-4.2-9-5zm-.7 8.5c-3.9-.5-6.9-4.4-7.2-5.8.7-.5 3.4-1.3 7.6-.7 4.3.6 6.7 2.1 7.2 2.8-.5 1.2-3.7 4.3-7.6 3.7zM333 137.4c-.4-3.1-5.9-4-11.2-3.3-5.2.7-10.3 3.1-9.9 6.2.3 2.4 4.7 6.5 9.9 6.5.4 0 .9 0 1.3-.1 3.4-.5 6-2.7 7.2-3.9 1.8-1.9 2.9-4 2.7-5.4z"/><path class="st3" d="M331.9 137.5c-.3-2-4.8-3.1-10-2.4-5.2.7-9.3 3-9 5 .3 2 4.8 6.3 10 5.6 5.3-.7 9.3-6.1 9-8.2zm-3.1 3.9c-1 1.1-3.1 2.9-6 3.3-4.7.7-8.6-3.3-8.8-4.7-.1-.9 2.6-3.1 8.1-3.8 1.1-.2 2.2-.2 3.1-.2 3.6 0 5.6 1 5.7 1.7.1.5-.5 2.1-2.1 3.7zM322.1 293v-.5c-.9 11.8-7.5 66.9-10.9 86.4-4.4 25.7-13.9 35.3-40.5 41-27.6 5.9-37.4-8.2-43.8-24.3-4.2-10.4-6.2-57.3-4.7-109 0-.7-.1-1.4-.3-2 .7 5.5-.4 10.6-3.4 14.8-2.8 3.9-5.9 7.4-9.2 10.4-.3 39.6 1.3 78.5 6.1 90.4 3.9 9.7 13.4 33.5 43.4 33.5 4.4 0 9.3-.5 14.6-1.7 31.3-6.7 44.9-20.6 50.2-51.1 2.8-16.3 7.6-55.3 9.9-76.2-1.9-.6-3.5-1.3-4.9-2.1-5.4-3-6.4-7.3-6.5-9.6zM112.8 296.7c-10 12-16.9 9.7-19.1 8.9-14.8-4.9-31.9-36.1-47-85.6-13.1-42.8-20.7-85.9-21.3-98-1.9-38.2 7.3-64.8 27.5-79.1 32.8-23.3 86.8-9.3 108.5-2.3 3.5-3.5 7.3-6.6 11.3-9.3-15.1-5.7-84.2-28.9-127 1.4-23.9 16.9-34.9 47.2-32.8 89.9.7 14.4 8.9 58.6 21.8 101 17 55.8 35.5 87.3 55 93.8 2.3.8 4.9 1.3 7.8 1.3 7.1 0 15.8-3.2 24.9-14.1 15-18.1 29.1-33.3 34.3-38.8-3.7-2-7.2-4.3-10.4-7.1-6.2 6.6-19.4 21-33.5 38z"/><path class="st3" d="M314.7 24.3c36.1.8 64.6 14.3 84.8 40.1 15.5 19.8-1.6 109.9-51 187.7 2.7 3.4 4.8 6.5 5.7 10.1.1.2.5.8 1.6 1.5 23.7-36.1 43.1-79.7 53.7-120.3 5.1-19.6 15.1-67.1-.2-86.7-22.7-29-55.9-44.5-96.2-44.9-27.7-.3-51.1 6.8-55.6 8.8 7.5 1.9 14.5 4.3 20.9 7.1 9.3-1.9 22-3.7 36.3-3.4z"/><path class="st3" d="M419.1 270.1c-1.9-5.8-8.1-7.7-18.3-5.5-30.5 6.3-41.4 1.9-44.9-.7l-2.4 3.6c-1.2 1.8-3.2 2.8-5.2 2.8-1.2 0-2.4-.3-3.5-1.1-2.9-1.9-3.6-5.8-1.7-8.7 1.9-2.8 3.7-5.5 5.4-8.3-.5-.6-1-1.2-1.5-1.9-.2-.3-.4-.5-.6-.8-.6.9-1.1 1.8-1.7 2.8-1.2 1.8-3.2 2.8-5.2 2.8-1.2 0-2.4-.3-3.5-1.1-2.9-1.9-3.6-5.8-1.7-8.6 1.6-2.4 3-4.9 4.1-7.3-1.2-2.1-2.3-4.3-3.3-6.8-.9-2.2-2.9-5.8-5.7-10.8-10.8-19.4-36.2-64.9-23.2-83.4 6.7-9.5 23.6-9.9 38.3-8.1 0-1.7 0-3.3-.1-5.1-.2-3.4 2.5-6.4 5.9-6.6 3.4-.2 6.4 2.5 6.6 5.9 0 .5 0 1 .1 1.5.2-.9.3-2 .2-3.3-.8-8.5-10.5-34.1-30.4-57.2-10.9-12.6-26.7-26.8-48.3-36.3-8.1 1.7-13.7 3.5-15.3 4-.3.1-.6.3-.9.4-3.8 1.2-6.7-.9-7.8-3.3-1.3-2.9-.2-6.3 2.5-7.9.1-.1.3-.2.6-.3-9.6-2.4-20-3.8-31.3-4-20.8-.3-38.8 4.6-53.6 14.8 1.6.6 2.5 1 2.9 1.1 3.2 1.3 4.7 4.9 3.4 8.1s-4.9 4.7-8.1 3.4c-.2-.1-3.7-1.5-9.5-3.4l-.9.9c-35.6 35.9-34.7 97.3-34.6 101.1v-.1c0-1.8.1-6.2 13-13.4 1.6-19.5 7.7-55.8 30.5-78.8 14.4-14.5 33.5-21.6 56.8-21.2 45.9.8 75.3 24.3 92 43.9 14.3 16.9 22.1 34 25.2 43.1-23.3-2.4-39.1 2.2-47.1 13.7-17.5 24.9 9.5 73.4 22.5 96.6 2.4 4.3 4.4 8 5.1 9.5 4.2 10.2 9.7 17.1 13.7 22.1 1.2 1.5 2.4 3 3.3 4.3-7 2-19.7 6.7-18.5 30.2v-.3c.3-3.4 3.3-6 6.7-5.7 3.4.3 6 3.2 5.7 6.7-.2 2.3-.6 6.4-1.2 11.7 4.8 1.5 11 2.2 17.6 2.2 13.9 0 30-3 40.1-7.6 11.1-5.5 31.5-18.4 27.8-29.6zm-33.3 18c-7.2 3.3-19.3 5.9-30.7 6.4-12.7.6-19.1-1.4-20.6-2.7-.7-14.6 4.7-16.1 10.5-17.8.9-.3 1.8-.5 2.6-.8.5.4 1.1.9 1.7 1.3 10.2 6.7 28.3 7.4 53.9 2.2.1 0 .2 0 .3-.1-3.4 3.3-9.3 7.6-17.7 11.5z"/><path class="st3" d="M328.8 286.5c-3.4-.2-6.4 2.3-6.7 5.7v.8c.1 2.3 1.1 6.6 6.4 9.7 1.4.8 3 1.5 4.9 2.1.6-5.3 1-9.4 1.2-11.7.2-3.4-2.4-6.4-5.8-6.6zM170.7 44c3.2 1.3 6.8-.2 8.1-3.4s-.2-6.8-3.4-8.1c-.3-.1-1.3-.5-2.9-1.1-4 2.7-7.8 5.8-11.3 9.3 5.9 1.9 9.4 3.2 9.5 3.3zM354.3 262.3c-.9-3.6-3.1-6.7-5.7-10.1-1.8 2.8-3.6 5.6-5.4 8.3-1.9 2.9-1.2 6.7 1.7 8.7 1.1.7 2.3 1.1 3.5 1.1 2 0 4-1 5.2-2.8l2.4-3.6c-1.2-.8-1.6-1.5-1.7-1.6zM254.4 28.8c1.1 2.4 4 4.5 7.8 3.3.3-.1.6-.2.9-.4 1.6-.6 7.2-2.3 15.3-4-6.4-2.8-13.4-5.3-20.9-7.1-.3.1-.5.2-.6.3-2.7 1.7-3.8 5.1-2.5 7.9zM216 280.3c2.8.1 5 1.9 5.8 4.4-.2-1.2-.4-2.4-.8-3.7-2.2-7.5-7.4-13.8-13.7-16.4-2.5-1-7.1-2.9-12.6-1.5-.9 3.8-1.3 7.1-.9 10.1.5 3.4-1.8 6.6-5.2 7.1-.3 0-.6.1-1 .1-3 0-5.7-2.2-6.2-5.3-.1-.6-.2-1.2-.2-1.8-1.7 2-3.1 3.8-4.3 5.4-6 7.6-7.2 9.1-26.4 13.1-5.5 1.1-19.9 4.1-20.2 14.3-.2 11.1 17.1 15.8 19.1 16.3 6.9 1.7 13.5 2.6 19.9 2.6 15.4 0 28.9-5.1 39.8-14.9.1-7.9.2-15.8.4-23.6.2-3.6 3.1-6.3 6.5-6.2zm-7.7 12c-15.9 22.3-39.1 22-55.7 17.8-3.4-.9-6.5-2.3-8.3-3.6 1.5-.7 4.2-1.7 8.9-2.6 22.6-4.6 26-7.9 33.7-17.6 1.7-2.2 3.7-4.7 6.5-7.8 4.1-4.6 5.9-3.8 9.3-2.4 2.7 1.1 5.4 4.6 6.5 8.4.4 1.7 1 5.1-.9 7.8z"/><path class="st3" d="M218.4 299.5c3-4.2 4.2-9.4 3.4-14.8-.8-2.5-3-4.3-5.8-4.4-3.4-.1-6.3 2.6-6.4 6.1-.2 7.7-.4 15.7-.4 23.6 3.3-3.1 6.4-6.6 9.2-10.5zM194.7 263.1c1.2-4.9 3.2-10.3 5.4-16.3l.9-2.5c1-2.8 2.4-5.7 3.7-8.8 7.5-16.7 17.8-39.5 6.6-91-4.2-19.3-18.1-28.7-39.2-26.5-12.7 1.3-24.3 6.4-30 9.4-1.2.6-2.4 1.2-3.4 1.8-.7 8-.6 13.1-.6 13.3.1 3.4-2.6 6.3-6.1 6.4-3.4.1-6.3-2.6-6.4-6.1v-.1c0 1.4.1 3.5.3 6.3.6 10.3 1.8 29.5-1.3 51.3-2.8 20.2 3.4 40 17.1 54.3 1.4 1.5 2.9 2.9 4.4 4.2 2.2-2.3 3.5-3.7 3.5-3.7 2.4-2.5 6.3-2.6 8.8-.2 2.5 2.4 2.6 6.3.2 8.8 0 0-.8.8-2.1 2.2 7.7 4.1 16.1 6.4 24.7 6.6 0 .2 0 .4.1.7.8-1 1.7-2 2.6-3 3.8-4.2 7.5-6.3 10.8-7.1zM150.8 246c-11-11.5-16.1-27.5-13.8-44 3.2-23 2-43 1.4-53.8-.1-1.5-.2-2.8-.2-3.9 5.2-4.6 29.3-17.5 46.5-13.6 7.8 1.8 12.6 7.1 14.6 16.3 10.3 47.5 1.4 67.3-5.8 83.3-1.5 3.3-2.9 6.4-4.1 9.6l-.9 2.5c-2.3 6.3-4.5 12.1-5.9 17.6-11.7 0-23.1-5-31.8-14z"/><path class="st3" d="M158.5 254.8c-2.5-2.4-6.4-2.3-8.8.2 0 0-1.3 1.4-3.5 3.7 3.3 2.8 6.7 5.2 10.4 7.1 1.3-1.4 2.1-2.2 2.1-2.2 2.4-2.4 2.3-6.4-.2-8.8zM132.1 148.8c3.4-.1 6.2-2.9 6.1-6.4 0-.2-.1-5.3.6-13.3-13 7.2-13 11.7-13 13.4v.2c0 3.5 2.9 6.2 6.3 6.1zM187.7 280.3c.3 0 .6 0 1-.1 3.4-.5 5.7-3.7 5.2-7.1-.4-2.9-.1-6.3.9-10.1-3.3.9-7 2.9-10.8 7.1-1 1.1-1.8 2.1-2.6 3 .1.6.1 1.2.2 1.8.4 3.2 3.1 5.4 6.1 5.4zM354.5 189c-.9-7.6-1.8-14.8-1.6-21.5.2-7.1 1.2-13.3 2.1-19.2 1.1-7.3 2.3-14.8 1.9-23.7-1 3.9-4.5 4.8-5 4.9l-2.2.1c-1.7-.3-3.4-.5-5.2-.7-.1 6.2-1 11.8-1.9 17.6-1 6.3-2 12.8-2.2 20.7-.2 7.7.7 15.7 1.6 23.4 1.9 15.6 3.8 31.6-3.6 47.5 2.6 4.7 5.5 8.3 8 11.5 12.8-21.2 10.3-42.1 8.1-60.6z"/><path class="st3" d="M334.3 245.3c-1.9 2.9-1.1 6.7 1.7 8.6 1.1.7 2.3 1.1 3.5 1.1 2 0 4-1 5.2-2.8.6-.9 1.2-1.8 1.7-2.8-2.5-3.1-5.3-6.8-8-11.5-1.1 2.6-2.5 5-4.1 7.4zM351.9 129.5c.5-.1 4-1 5-4.9 0-.5 0-1-.1-1.5-.2-3.4-3.1-6.1-6.6-5.9-3.4.2-6.1 3.1-5.9 6.6.1 1.8.1 3.4.1 5.1 1.8.2 3.5.5 5.2.7l2.3-.1z"/></svg>