<svg xmlns="http://www.w3.org/2000/svg" width="500" height="500"><style>.st1{fill:#fff}</style><path d="M467.1 294.7c-1.5-4.5-8.4-19.1-33-13.9-9.9 2-17.3 2.8-22.6 2.9 20.2-34.1 36.7-73.1 46.2-109.8 8.5-32.7 14.9-76.4-2.4-98.5C429.8 43 392.9 25.6 348.4 25c-22.9-.3-44 4.1-55.6 7.8-10-1.8-20.9-2.7-32.4-2.9-21.3-.4-40.3 4.3-56.5 13.9-9-3-23.3-7.3-39.9-10-39-6.4-70.5-1.4-93.6 14.9C42.6 68.4 29.6 102.5 32 150.3c.8 15.2 9.3 61.3 22.6 105.1 7.7 25.2 15.9 46.1 24.3 62.1 12 22.7 24.9 36.2 39.3 40.9 8.1 2.7 22.8 4.5 38.3-8.4 5.6 6.7 14.4 11.1 23.1 13.3h.1c19.4 4.8 37.6 3.6 53-3.1.1 3.1.2 6.1.2 8.4.1 3.4.2 6.8.3 9.9v.1c1 23.6 2.5 40.8 7.1 53 .3.8.6 1.7.9 2.7 2.3 7.1 6.1 18.8 15.9 28.1 6.5 6.2 17.2 12.5 33.6 12.5 4.7 0 10-.5 15.8-1.7 16.8-3.6 35.8-9.2 49.5-28.8 13-18.6 19.4-46.6 20.5-90.6.1-1.2.3-2.3.4-3.4l.3-2.4 3.1.3.8.1c17.1.7 37.9-2.8 50.8-8.8 10.3-4.6 42.9-21.8 35.2-44.9z"/><path d="M437.9 299.1c-50.8 10.5-54.4-6.8-54.4-6.8 53.6-79.6 76.1-180.6 56.8-205.4C387.5 19.6 296 51.4 294.5 52.3l-.5.1c-10-2.1-21.3-3.3-33.9-3.5-23-.4-40.4 6.1-53.6 16.1 0 0-163.1-67.2-155.5 84.5 1.6 32.2 46.3 244.2 99.5 180.1 19.5-23.4 38.3-43.1 38.3-43.1 9.3 6.2 20.5 9.4 32.2 8.2l.9-.8c-.3 2.9-.2 5.8.4 9.1-13.7 15.4-9.7 18-37.1 23.6-27.8 5.8-11.4 15.9-.8 18.6 12.9 3.2 42.7 7.8 62.9-20.4l-.8 3.2c5.4 4.3 9.2 28 8.5 49.5-.6 21.5-1 36.3 3.1 47.8 4.2 11.5 8.5 37.4 44.5 29.7 30.1-6.5 45.8-23.1 47.9-51.1 1.5-19.8 5.1-16.9 5.3-34.7l2.8-8.4c3.2-26.9.5-35.6 19.1-31.5l4.5.4c13.6.6 31.5-2.2 42-7.1 22.6-10.6 35.9-28 13.7-23.5z" style="fill:#336791"/><path class="st1" d="M227.1 171.2c.5-3.9-5.3-6.7-10.9-7.4-4.5-.6-8.7 0-10.8 1.5-1.2.9-1.5 1.9-1.6 2.6-.3 1.9 1 3.9 1.9 5.1 2.3 3 5.7 5.2 9 5.6.5.1 1 .1 1.4.1 5.6 0 10.6-4.4 11-7.5zM356.7 160.6c-5.3.7-10.4 3.1-10 6.3.3 2.4 4.7 6.6 10 6.6.4 0 .9 0 1.3-.1 3.4-.5 6.1-2.7 7.3-3.9 1.8-1.9 2.9-4 2.7-5.5-.4-3.2-6-4.1-11.3-3.4z"/><path class="st1" d="M455.1 298c-1.9-5.9-8.2-7.8-18.5-5.6-30.6 6.4-41.7 2-45.3-.7l-.2-.2C415 255.1 434.6 211 445.4 170c5.2-19.8 15.3-67.8-.2-87.6-22.9-29.3-56.5-45-97.2-45.4-28-.3-51.6 6.9-56.2 8.9-.1 0-.2.1-.3.1-9.6-2.3-20-3.7-31.2-3.9-20.9-.3-54.3 14.6-54.2 14.6-15.3-5.8-85.1-29.2-128.3 1.4-24.1 17.1-35.2 47.7-33.1 90.9.7 14.5 9 59.2 22 102 17.2 56.4 35.9 88.2 55.6 94.8 2.3.8 5 1.3 7.9 1.3 7.2 0 16-3.2 25.2-14.2 15.1-18.2 29.2-33.4 34.6-39.1 7.8 4.1 16.3 6.5 24.9 6.7v.8c-1.7 2-3.1 3.8-4.3 5.5-6.1 7.7-7.3 9.2-26.7 13.2-5.6 1.1-20.1 4.1-20.4 14.4-.2 11.2 17.3 16 19.3 16.5 7 1.7 13.6 2.6 20.1 2.6 15.6 0 29.3-5.3 40.3-15.2l.1-.1c-.3 40 1.3 79.2 6.2 91.2 3.9 9.8 13.5 33.8 43.8 33.8 4.4 0 9.4-.5 14.8-1.7 31.6-6.8 45.4-20.8 50.7-51.6 2.8-16.5 7.8-55.5 10.1-76.6 4.8 1.5 11.1 2.2 17.8 2.2 14 0 30.3-3 40.5-7.7 11-5.5 31.6-18.5 27.9-29.8zM349.6 49.7c36.5.8 65.3 14.4 85.7 40.5 15.7 20-1.6 111-51.5 189.6 0 0-1-1.1-1.5-1.8-.2-.3-.4-.5-.6-.8 12.9-21.4 10.4-42.5 8.2-61.1-.9-7.7-1.8-15-1.6-21.7.2-7.2 1.2-13.4 2.1-19.4 1.1-7.4 1.9-24.3 2-23.8.2-.9.3-2 .2-3.3-.8-8.6-10.6-34.5-30.7-57.8-11-12.7-27-27.1-48.8-36.7-.1-.1 22-4 36.5-3.7zm27.6 168c1.9 15.8 3.8 31.8-3.6 47.9v-.1s0 .1-.1.1c-1.2-2.1-2.3-4.2-3.2-6.8-.9-2.2-2.9-5.9-5.8-10.9-10.9-19.6-36.6-65.6-23.4-84.3 6.8-9.6 23.8-10 38.7-8.2-.1 6.3-1 11.8-1.9 17.7-1 6.4-2 12.9-2.2 20.9-.4 7.8.6 15.9 1.5 23.7zM145.6 324.9c-10.1 12.1-17.1 9.8-19.3 9-15-5-32.2-36.5-47.5-86.5-13.2-43.2-20.9-86.8-21.5-99-1.9-38.6 7.4-65.5 27.8-79.9 33.1-23.5 87.6-9.4 109.5-2.3 0 0-.5.8-.8 1.1-33.5 33.8-35.1 90.1-35 100.6-.1.5-.1.9-.1 1.2v.2c0 3.5-.1 3.6.1 6.4.6 10.4 1.8 29.8-1.3 51.8-2.8 20.4 3.4 40.4 17.3 54.9 1.4 1.5 2.9 2.9 4.4 4.2 0 0-19.4 21.1-33.6 38.3zm38.4-51.3c-11.1-11.6-16.3-27.8-13.9-44.5 3.2-23.2 2-43.4 1.4-54.4-.1-1.5-.2-2.8-.2-3.9 5.3-4.6 29.6-17.7 47-13.7 7.9 1.8 12.7 7.2 14.8 16.5 10.4 48 1.4 68-5.9 84.2-1.5 3.3-2.9 6.5-4.1 9.7l-.9 2.5c-2.3 6.4-4.5 12.2-6 17.8-11.9 0-23.4-5.1-32.2-14.2zm59.2 44.1c-.2.9-.5 1.8-1.1 2.7-16.1 22.5-39.5 22.2-56.3 18-3.4-.9-6.6-2.3-8.4-3.6 1.5-.7 4.2-1.7 9-2.6 22.8-4.6 26.3-8 34-17.8 1.7-2.2 3.7-4.7 6.6-7.9 4.1-4.6 6-3.8 9.4-2.4 2.7 1.1 5.5 4.6 6.6 8.5.1.5.2 1.1.3 1.8 0 .1-.1 2.3-.1 3.3zm114.1 1.3c-.1.4-.2.8-.2 1.2v.3c-.9 11.9-7.6 67.6-11 87.3-4.4 26-14 35.7-40.9 41.4-27.9 6-37.8-8.3-44.3-24.6-4.2-10.5-6.3-57.9-4.7-110.1 0-.7-.1-1.4-.3-2 0 0-.5-2.3-.9-3.6-2.2-7.6-7.5-13.9-13.8-16.6-2.5-1-7.2-2.9-12.6-1.5v-.1h-.1c1.2-5 3.2-10.4 5.5-16.4l.9-2.5c1-2.8 2.4-5.8 3.7-8.9 7.6-16.9 18-39.9 6.7-91.9-4.2-19.5-18.3-29-39.6-26.8-12.8 1.3-24.6 6.5-30.3 9.5-1.1.6-2.2 1.1-3.2 1.7 1.6-19.8 7.9-56.3 30.8-79.4 14.5-14.6 33.8-21.8 57.4-21.4 46.4.8 76.1 24.6 92.9 44.4 14.4 17.1 22.3 34.4 25.5 43.5-23.5-2.4-39.5 2.2-47.6 13.8-17.7 25.2 9.6 74.2 22.7 97.6 2.4 4.3 4.4 8.1 5.2 9.6 4.2 10.3 9.8 17.3 13.8 22.3 1.2 1.5 2.4 3 3.3 4.3-7 2.1-19.3 6.7-18.9 28.9zm64.1-2.8c-7.3 3.3-19.5 6-31 6.5-12.2.6-18.7-1.2-20.5-2.5l-.3-1.2c-.4-13.8 5-15.3 10.6-17 .9-.3 1.8-.5 2.6-.8.5.4 1.1.9 1.7 1.3 10.3 6.8 28.6 7.5 54.5 2.2.1 0 .2 0 .3-.1-3.4 3.3-9.4 7.6-17.9 11.6z"/></svg>