<svg xmlns="http://www.w3.org/2000/svg" width="500" height="500"><style>.st0{fill:#58c4dc}</style><circle class="st0" cx="250" cy="250" r="40.1"/><path class="st0" d="M250 342c-126.2 0-225-40.4-225-92s98.8-92 225-92 225 40.4 225 92c0 51.7-98.8 92-225 92zm0-164.3c-121 0-205.5 38.2-205.5 72.4s84.3 72.4 205.5 72.4c121 0 205.5-38.2 205.5-72.4S371 177.7 250 177.7z"/><path class="st0" d="M339.8 450.7c-19.9 0-44-10.9-70.2-32.2-34.7-28.2-69.9-71.6-99.3-122.5-29.3-50.7-49.4-103.1-56.5-147.2-7.5-47.3.8-80.5 23.6-93.6s55.8-3.8 92.9 26.4c34.7 28.2 69.9 71.6 99.3 122.5 63.1 109.2 77.5 215 32.9 240.8-6.7 3.9-14.4 5.8-22.7 5.8zM160.4 68.9c-4.9 0-9.4 1.1-13.1 3.3-15 8.6-20.1 35.5-14 73.7 6.7 41.8 25.9 91.7 54 140.5s61.8 90.3 94.6 117c30 24.4 55.8 33.3 70.7 24.7 29.6-17.2 20.5-109.2-40-214.1-28.2-48.7-61.8-90.4-94.6-117-22.5-18.4-42.6-28.1-57.6-28.1z"/><path class="st0" d="M160.2 450.7c-8.3 0-15.9-1.9-22.7-5.8C92.8 419 107.3 313.2 170.4 204c29.3-50.7 64.6-94.3 99.3-122.5 37.2-30.2 70.1-39.5 92.9-26.4 44.6 25.9 30.1 131.6-33 240.9-29.3 50.7-64.6 94.3-99.3 122.5-26.1 21.3-50.1 32.2-70.1 32.2zM339.6 68.9c-15 0-35.1 9.7-57.6 27.8-32.9 26.7-66.5 68.3-94.6 117-60.5 104.9-69.7 196.9-40 214.1 15 8.6 40.9-.3 70.7-24.7 32.9-26.7 66.5-68.3 94.6-117 60.5-104.9 69.6-196.9 40-214.1-3.8-1.9-8.2-3.1-13.1-3.1z"/></svg>