<svg xmlns="http://www.w3.org/2000/svg" width="500" height="500"><style>.st0{fill:#087ea4}.st1{fill:#23272f}</style><circle class="st0" cx="250" cy="198.6" r="35.7"/><path class="st0" d="M250 280.5c-112.4 0-200.4-36-200.4-81.9 0-45.9 88-81.9 200.4-81.9s200.4 36 200.4 81.9c0 46-88 81.9-200.4 81.9zm0-146.3c-107.8 0-183 34-183 64.5s75.1 64.5 183 64.5c107.8 0 183-34 183-64.5s-75.2-64.5-183-64.5z"/><path class="st0" d="M330 377.3c-17.7 0-39.2-9.7-62.5-28.7-30.9-25.1-62.3-63.8-88.4-109.1-26.1-45.2-44-91.8-50.3-131.1-6.7-42.1.7-71.7 21-83.4 20.3-11.7 49.7-3.4 82.7 23.5 30.9 25.1 62.3 63.8 88.4 109.1 56.2 97.3 69 191.5 29.3 214.5-6 3.5-12.8 5.2-20.2 5.2zm-159.8-340c-4.4 0-8.4 1-11.7 2.9-13.4 7.7-17.9 31.6-12.5 65.6 6 37.2 23.1 81.7 48.1 125.1s55 80.4 84.3 104.2c26.7 21.7 49.7 29.7 63 22 26.4-15.3 18.3-97.3-35.6-190.7-25.1-43.4-55-80.5-84.3-104.2-20-16.3-37.9-24.9-51.3-24.9z"/><path class="st0" d="M170 377.3c-7.4 0-14.2-1.7-20.2-5.2-39.8-23-26.9-117.2 29.3-214.5 26.1-45.2 57.5-84 88.4-109.1 33.1-26.9 62.4-35.2 82.7-23.5 39.8 23 26.9 117.2-29.3 214.5-26.1 45.2-57.5 84-88.4 109.1-23.3 19-44.7 28.7-62.5 28.7zm159.8-340c-13.4 0-31.3 8.6-51.3 24.8-29.3 23.8-59.2 60.8-84.3 104.2-53.9 93.4-62.1 175.4-35.6 190.7 13.4 7.7 36.4-.3 63-22 29.3-23.8 59.2-60.8 84.3-104.2 53.9-93.4 62-175.4 35.6-190.7-3.4-1.8-7.3-2.8-11.7-2.8z"/><path class="st1" d="M152.1 445.7c3.6-1 6.6-2.5 9.1-4.6 4.8-4 7.2-9.6 7.2-16.8 0-7.2-2.4-12.8-7.2-16.8-4.8-4-11.6-6-20.4-6h-31.4v73.8h9.9V447h22.8c2.5 3.6 5.1 7.7 7.8 12.1 3.2 5.3 6.2 10.6 9.1 16.2h11.7c-3-5.3-6-10.6-9.2-15.6-3.1-4.8-6.2-9.5-9.4-14zm-32.8-6.9v-28.7H140c12.1 0 18.2 4.8 18.2 14.4 0 9.5-6.1 14.3-18.2 14.3h-20.7zM218.2 424.8c-3.5-2.3-7.5-3.5-12.2-3.5h-1c-5 0-9.4 1.2-13.2 3.5-3.8 2.4-6.7 5.6-8.8 9.8-2.1 4.2-3.1 9-3.1 14.4 0 5.5 1.1 10.3 3.2 14.4s5.1 7.4 8.9 9.7c3.8 2.3 8.2 3.5 13.2 3.5h1.1c4 0 7.7-.8 11.2-2.3 3.4-1.5 6.3-3.6 8.7-6.2l-6-5.7c-1.6 1.9-3.6 3.5-6 4.6-2.4 1.1-4.9 1.7-7.5 1.7h-1.1c-5 0-9-1.8-11.8-5.4-2.3-2.8-3.6-6.4-4.1-10.8h39.5v-2.9c0-5.8-1-10.8-2.9-15-1.9-4.2-4.6-7.4-8.1-9.8zm-24.5 9.9c2.8-3.6 6.5-5.4 11-5.4h1c3 0 5.6.8 7.7 2.3 2.1 1.6 3.7 3.7 4.7 6.4.9 2.2 1.4 4.7 1.6 7.4h-30c.5-4.3 1.8-7.9 4-10.7zM264.5 421.4h-1.1c-4.7 0-8.8.9-12.4 2.8-3.6 1.9-6.5 4.6-8.7 8.1l6.5 4.7c1.5-2.4 3.4-4.3 5.8-5.6 2.4-1.3 5.4-2 8.9-2 4.4 0 7.6 1.2 9.7 3.7 2.1 2.4 3.1 6.1 3.1 10.9v1h-14.8c-6.9 0-12.3 1.4-16 4.2-3.8 2.8-5.6 6.7-5.6 11.9 0 4.6 1.5 8.4 4.6 11.2 3.1 2.8 7.4 4.2 12.9 4.2 6.6 0 12-2.1 16.1-6.3 1.1-1.2 2.2-2.4 3-3.8v9.1h9.1v-31.9c0-7.3-1.9-12.8-5.8-16.5-3.8-3.9-8.9-5.7-15.3-5.7zm7 42.9c-3 2.8-7 4.3-12.1 4.3-3.3 0-5.8-.7-7.4-2.2-1.7-1.5-2.5-3.5-2.5-6.1 0-5.7 4.1-8.5 12.4-8.5h14.4v5.1c-1.1 2.9-2.7 5.4-4.8 7.4zM324.3 429.5h1c2.8 0 5.3.7 7.4 2.1 2.2 1.4 4 3.4 5.6 5.9l7.3-4.7c-2.2-3.5-5.1-6.3-8.6-8.4-3.6-2-7.3-3-11.4-3h-1.1c-5.1 0-9.5 1.1-13.3 3.4-3.8 2.2-6.8 5.4-9 9.6-2.1 4.1-3.2 9.1-3.2 14.7s1.1 10.5 3.2 14.6c2.2 4.1 5.2 7.3 9 9.6 3.8 2.2 8.3 3.4 13.3 3.4h1.1c4.1 0 7.9-.9 11.4-2.6 3.5-1.8 6.4-4.2 8.7-7.3l-6.9-5.2c-1.6 2.1-3.6 3.8-5.9 5.1-2.3 1.3-4.8 1.9-7.6 1.9h-1c-4.8 0-8.6-1.8-11.3-5.3-2.8-3.5-4.1-8.3-4.1-14.2 0-5.9 1.4-10.6 4.1-14.2 2.7-3.6 6.5-5.4 11.3-5.4zM386.6 467.8c-1.3.2-2.7.3-4.3.3-3.5 0-5.9-.9-7.4-2.6-1.5-1.7-2.2-4.7-2.2-9.1v-26.1h17.1v-7.6h-17.1V407h-9.5v15.7h-10.3v7.6h10.3v27.3c0 6.4 1.4 11.1 4.3 14.1s7.3 4.5 13.4 4.5c1.6 0 3.3-.1 5-.3 1.7-.2 3.2-.5 4.6-.9v-7.7c-1.3.1-2.6.3-3.9.5z"/></svg>