<svg xmlns="http://www.w3.org/2000/svg" width="500" height="500"><style>.st1{fill:#fff}</style><path d="M44 25h412c10.5 0 19 8.5 19 19v412c0 10.5-8.5 19-19 19H44c-10.5 0-19-8.5-19-19V44c0-10.5 8.5-19 19-19z" style="fill:#3178c6"/><path class="st1" d="M275.1 264.4v-36.9H115v36.9h57.1v164.3h45.6V264.4zM293.3 424.4c7.4 3.8 16 6.6 26 8.5s20.6 2.8 31.7 2.8c10.8 0 21.1-1 30.9-3.1 9.7-2.1 18.3-5.5 25.6-10.2 7.4-4.8 13.1-10.9 17.5-18.5s6.4-17 6.4-28.3c0-8.1-1.3-15.3-3.7-21.4-2.4-6.1-5.9-11.6-10.6-16.4-4.6-4.8-10.2-9.1-16.6-12.9-6.5-3.8-13.7-7.4-21.8-10.7-5.9-2.4-11.3-4.8-15.9-7.1-4.7-2.3-8.7-4.6-12-7s-5.8-5-7.6-7.6c-1.8-2.7-2.7-5.7-2.7-9.1 0-3.1.8-5.9 2.4-8.4s3.9-4.6 6.8-6.4 6.5-3.1 10.7-4.1 8.9-1.4 14.1-1.4c3.8 0 7.7.3 12 .8 4.2.5 8.4 1.4 12.6 2.6s8.4 2.6 12.3 4.4c4 1.8 7.6 3.9 11.1 6.2v-41.9c-6.8-2.6-14.4-4.6-22.5-5.9s-17.5-1.9-28-1.9c-10.7 0-20.9 1.2-30.5 3.4-9.6 2.3-18 5.8-25.4 10.7s-13 11.1-17.3 18.6c-4.2 7.6-6.4 16.6-6.4 27 0 13.4 3.9 24.8 11.6 34.2 7.7 9.4 19.5 17.5 35.4 24 6.2 2.5 12 5 17.4 7.5 5.4 2.4 10 4.9 13.9 7.6 3.9 2.6 7 5.5 9.3 8.5s3.4 6.6 3.4 10.5c0 2.9-.7 5.6-2.2 8.1-1.4 2.5-3.5 4.6-6.4 6.5-2.9 1.8-6.5 3.2-10.7 4.3-4.3 1-9.3 1.5-15 1.5-9.8 0-19.4-1.7-29.1-5.1-9.6-3.4-18.5-8.5-26.6-15.4l-.1 45.1z"/></svg>