<svg xmlns="http://www.w3.org/2000/svg" width="500" height="500"><linearGradient id="a" gradientUnits="userSpaceOnUse" x1="137.508" y1="120.097" x2="400.266" y2="-236.749" gradientTransform="matrix(1 0 0 -1 0 95.89)"><stop offset="0" style="stop-color:#41d1ff"/><stop offset="1" style="stop-color:#bd34fe"/></linearGradient><linearGradient id="b" gradientUnits="userSpaceOnUse" x1="261.413" y1="65.877" x2="308.944" y2="-260.185" gradientTransform="matrix(1 0 0 -1 0 95.89)"><stop offset="0" style="stop-color:#ffea83"/><stop offset=".083" style="stop-color:#ffdd35"/><stop offset="1" style="stop-color:#ffa800"/></linearGradient><path d="M473.2 91.6 262.1 469.1c-4.4 7.8-15.6 7.8-20 .1L26.8 91.6c-4.8-8.5 2.4-18.7 12-17l211.3 37.8c1.3.2 2.7.2 4.1 0l206.9-37.7c9.6-1.7 16.9 8.4 12.1 16.9z" style="fill:url(#a)"/><path d="M350.8 25.1 194.6 55.7c-2.6.5-4.5 2.7-4.6 5.3l-9.6 162.3c-.2 3.8 3.3 6.8 7 5.9l43.5-10c4.1-.9 7.7 2.6 6.9 6.7l-12.9 63.3c-.9 4.3 3.1 7.9 7.3 6.6l26.9-8.2c4.2-1.3 8.2 2.4 7.3 6.7l-20.5 99.4c-1.3 6.2 7 9.6 10.4 4.3l2.3-3.6 127.3-254.1c2.1-4.3-1.5-9.1-6.2-8.2l-44.8 8.6c-4.2.8-7.8-3.1-6.6-7.2l29.2-101.3c1.1-4-2.5-7.9-6.7-7.1z" style="fill:url(#b)"/></svg>