<svg xmlns="http://www.w3.org/2000/svg" width="500" height="500"><defs><filter id="a" filterUnits="userSpaceOnUse" x="25" y="26.3" width="450" height="447.4"><feColorMatrix values="1 0 0 0 0 0 1 0 0 0 0 0 1 0 0 0 0 0 1 0"/></filter></defs><mask maskUnits="userSpaceOnUse" x="25" y="26.3" width="450" height="447.4" id="b"><path d="M344.2 471.8c7.1 2.8 15.2 2.6 22.3-.9l92.6-44.6c9.7-4.7 15.9-14.5 15.9-25.3V99c0-10.8-6.2-20.6-15.9-25.3l-92.6-44.6c-9.4-4.5-20.4-3.4-28.6 2.6-1.2.9-2.3 1.8-3.3 2.9L157.3 196.2l-77.2-58.6c-7.2-5.5-17.2-5-23.9 1.1l-24.8 22.5c-8.2 7.4-8.2 20.3 0 27.7l67 61.1-67 61.1c-8.2 7.4-8.1 20.3 0 27.7l24.8 22.5c6.7 6.1 16.7 6.5 23.9 1.1l77.2-58.6 177.3 161.7c2.7 2.8 6 4.9 9.6 6.3zm18.4-323.9L228.1 250l134.5 102.1V147.9z" style="fill:#fff;filter:url(#a)"/></mask><g style="mask:url(#b)"><path d="m459.1 73.7-92.7-44.6c-10.7-5.2-23.5-3-32 5.4L31.1 311.1c-8.2 7.4-8.1 20.3 0 27.7l24.8 22.5c6.7 6.1 16.7 6.5 23.9 1.1L445.1 85.3c12.3-9.3 29.9-.6 29.9 14.8V99c0-10.8-6.2-20.6-15.9-25.3z" style="fill:#0065a9"/><path d="m459.1 426.3-92.7 44.6c-10.7 5.2-23.5 3-32-5.4L31.1 188.9c-8.2-7.4-8.1-20.3 0-27.7l24.8-22.5c6.7-6.1 16.7-6.5 23.9-1.1l365.3 277.1c12.3 9.3 29.9.6 29.9-14.8v1.1c0 10.8-6.2 20.6-15.9 25.3z" style="fill:#007acc"/><path d="M366.4 470.9c-10.7 5.2-23.5 3-32-5.4 10.4 10.4 28.1 3 28.1-11.6V46.1c0-14.7-17.7-22-28.1-11.6 8.4-8.4 21.2-10.6 32-5.4L459 73.7c9.8 4.6 16 14.4 16 25.3v302c0 10.8-6.2 20.6-15.9 25.3l-92.7 44.6z" style="fill:#1f9cf0"/><g style="opacity:.25"><linearGradient id="c" gradientUnits="userSpaceOnUse" x1="249.863" y1="373.594" x2="249.863" y2="-73.814" gradientTransform="matrix(1 0 0 -1 0 399.89)"><stop offset="0" style="stop-color:#fff"/><stop offset="1" style="stop-color:#fff;stop-opacity:0"/></linearGradient><path d="M343.9 471.8c7.1 2.8 15.2 2.6 22.3-.9l92.6-44.6c9.7-4.7 15.9-14.5 15.9-25.3V99c0-10.8-6.2-20.6-15.9-25.3l-92.6-44.6c-9.4-4.5-20.4-3.4-28.6 2.6-1.2.9-2.3 1.8-3.3 2.9L157 196.2l-77.2-58.6c-7.2-5.5-17.2-5-23.9 1.1l-24.8 22.5c-8.2 7.4-8.2 20.3 0 27.7l67 61.1-67 61.1c-8.2 7.4-8.1 20.3 0 27.7l24.8 22.5c6.7 6.1 16.7 6.5 23.9 1.1l77.2-58.6 177.3 161.7c2.8 2.8 6.1 4.9 9.6 6.3zm18.5-323.9L227.9 250l134.5 102.1V147.9z" style="fill:url(#c)"/></g></g></svg>