<svg xmlns="http://www.w3.org/2000/svg" width="500" height="500"><path d="m250 25 198.9 112.5v225L250 475 51.1 362.5v-225L250 25z" style="fill:#fff"/><path d="m413.4 354.8-156.8 88.7v-69.1l97.7-53.8 59.1 34.2zm10.7-9.8V159.6l-57.3 33.1v119.2l57.3 33.1zM86 354.8l156.8 88.7v-69.1l-97.7-53.8L86 354.8zM75.3 345V159.6l57.3 33.1v119.2L75.3 345zM82 147.6l160.8-91v66.8l-103 56.7-.8.5-57-33zm335.4 0-160.8-91v66.8l103 56.6.8.5 57-32.9z" style="fill:#8ed6fb"/><path d="m242.8 358.7-96.4-53v-105l96.4 55.7v102.3zm13.8 0 96.4-53v-105l-96.4 55.7v102.3zM152.9 188.5l96.8-53.2 96.8 53.2-96.8 55.9-96.8-55.9z" style="fill:#1c78c0"/></svg>