<svg xmlns="http://www.w3.org/2000/svg" width="500" height="500" viewBox="0 0 500 500">
  <style type="text/css">
    .st0{fill:#264DE4;}
    .st1{fill:#2965F1;}
    .st2{fill:#EBEBEB;}
    .st3{fill:#FFFFFF;}
  </style>
  <g>
    <polygon class="st0" points="448.4,25 412.3,430 249.8,475 87.8,430 51.6,25 	"/>
    <polygon class="st1" points="381.3,404.2 412.2,58 250,58 250,440.6 	"/>
    <polygon class="st2" points="134.4,208.3 138.9,258 250,258 250,208.3 	"/>
    <polygon class="st2" points="250,107.8 249.9,107.8 125.4,107.8 130,157.4 250,157.4 	"/>
    <polygon class="st2" points="250,389 250,337.3 249.8,337.4 194.4,322.4 191,282.9 164.1,282.9 141.1,282.9 148.1,360.8		249.8,389.1 	"/>
    <polygon class="st3" points="311.1,258 305.2,322.4 249.9,337.3 249.9,389.1 351.7,360.8 352.5,352.4 364.2,221.6 365.4,208.3		374.3,107.8 249.9,107.8 249.9,157.4 319.9,157.4 315.3,208.3 249.9,208.3 249.9,258 	"/>
  </g>
</svg>
