<svg xmlns="http://www.w3.org/2000/svg" width="500" height="500" viewBox="0 0 500 500">
  <style type="text/css">
    .st0{fill:#264DE4;}
    .st1{fill:#2965F1;}
    .st2{fill:#EBEBEB;}
    .st3{fill:#FFFFFF;}
  </style>
  <g>
    <polygon id="polygon2989" class="st0" points="427.1,98.7 394.9,460.2 249.8,500.4 105.2,460.2 72.9,98.7 "/>
    <polygon id="polygon2991" class="st1" points="367.2,437.2 394.8,128.2 250,128.2 250,469.7 "/>
    <polygon id="polygon2993" class="st2" points="146.8,262.3 150.8,306.7 250,306.7 250,262.3 "/>
    <polygon id="polygon2995" class="st2" points="250,172.6 249.9,172.6 138.8,172.6 142.9,216.9 250,216.9 "/>
    <polygon id="polygon2997" class="st2" points="250,423.6 250,377.5 249.8,377.6 200.4,364.2 197.3,328.9 173.3,328.9 152.8,328.9
	159,398.5 249.8,423.7 "/>
    <path id="path2999" d="M156.3,0.4H210v22.5h-31.3v22.5H210v22.5h-53.7L156.3,0.4L156.3,0.4z"/>
    <path id="path3001" d="M220.7,0.4h53.7v19.5h-31.3v3.9h31.3v44.9h-53.7V48.3H252v-3.9h-31.3V0.4z"/>
    <path id="path3003" d="M285.2,0.4h53.7v19.5h-31.3v3.9h31.3v44.9h-53.7V48.3h31.2v-3.9h-31.3L285.2,0.4L285.2,0.4z"/>
    <polygon id="polygon3005" class="st3" points="304.5,306.7 299.3,364.2 249.9,377.5 249.9,423.7 340.8,398.5 341.5,391 351.9,274.2
	353,262.3 361,172.6 249.9,172.6 249.9,216.9 312.4,216.9 308.3,262.3 249.9,262.3 249.9,306.7 "/>
  </g>
</svg>

