<svg xmlns="http://www.w3.org/2000/svg" width="500" height="500" viewBox="0 0 500 500">
  <style type="text/css">
    .st0{fill:#0ACF83;}
    .st1{fill:#A259FF;}
    .st2{fill:#F24E1E;}
    .st3{fill:#FF7262;}
    .st4{fill:#1ABCFE;}
  </style>
  <g>
    <path id="path0_fill" class="st0" d="M194.1,354c30.8,0,55.9-25,55.9-55.9v-55.9h-55.9c-30.8,0-55.9,25-55.9,55.9
		S163.3,354,194.1,354z"/>
    <path id="path1_fill" class="st1" d="M138.2,186.3c0-30.8,25-55.9,55.9-55.9H250v111.8h-55.9C163.3,242.2,138.2,217.2,138.2,186.3z
		"/>
    <path id="path1_fill_1_" class="st2" d="M138.2,74.5c0-30.8,25-55.9,55.9-55.9H250v111.8h-55.9C163.3,130.5,138.2,105.4,138.2,74.5
		z"/>
    <path id="path2_fill" class="st3" d="M250,18.7h55.9c30.8,0,55.9,25,55.9,55.9s-25,55.9-55.9,55.9H250V18.7z"/>
    <path id="path3_fill" class="st4" d="M361.8,186.3c0,30.8-25,55.9-55.9,55.9s-55.9-25-55.9-55.9s25-55.9,55.9-55.9
		S361.8,155.5,361.8,186.3z"/>
  </g>
  <g>
    <path d="M77.1,465.6v-86.2h62.6v11.3H89.4V418H129v11.3H89.4v36.2H77.1z"/>
    <path d="M152.4,393.1v-13.8h12.3v13.8H152.4z M152.9,465.6v-61.1h11.6v61.1H152.9z"/>
    <path d="M178.6,477.3c0-2.6,0.8-5.1,2.3-7.4c1.5-2.3,3.4-4.1,5.7-5.4c-3.7-2.1-5.5-5.4-5.5-10c0-4.6,3-8.9,9.1-12.9
		c-4.5-3.9-6.8-9.3-6.8-16.1c0-6.3,2.4-11.7,7.1-16.1c4.7-4.4,10.6-6.6,17.6-6.6c4.9,0,9.2,1,12.8,3c3.6,2,6.3,4.6,8.1,7.8
		c1.4-6.1,4.8-9.1,10.1-9.1h6.3v9.6h-5.1c-2.7,0-4.6,0.5-5.7,1.6c-1.1,1.1-1.7,3.3-2,6.7l-0.2,3c-0.5,6.9-2.9,12.4-7.3,16.4
		c-4.4,4.1-10,6.1-16.9,6.1c-5.3,0-9.1-0.7-11.6-2.2c-3.6,1.5-5.4,3.4-5.4,5.8c0,2.6,1.8,3.9,5.4,3.9h26.6c5.9,0,10.7,1.6,14.2,4.7
		c3.6,3.2,5.4,7.3,5.4,12.4c0,5.4-1.8,9.6-5.5,12.6c-3.7,3-8.3,4.5-14,4.5h-28.5C184,489.6,178.6,485.5,178.6,477.3z M198.1,479.7
		h23.8c6.2,0,9.2-2.4,9.2-7.1c0-2.5-0.8-4.4-2.3-5.4c-1.6-1.1-3.9-1.6-6.9-1.6h-28.6c-3,1.9-4.4,4.5-4.4,7.8c0,2.4,0.7,4,2.2,5
		C192.5,479.3,194.9,479.7,198.1,479.7z M221.4,425.4c0-3.9-1.2-7.2-3.6-9.7c-2.4-2.5-5.6-3.8-9.5-3.8c-3.9,0-7.1,1.3-9.5,3.8
		c-2.4,2.5-3.6,5.8-3.6,9.8c0,4.1,1.2,7.4,3.6,9.8c2.4,2.4,5.6,3.6,9.6,3.6c4,0,7.2-1.2,9.6-3.6
		C220.2,432.8,221.4,429.5,221.4,425.4z"/>
    <path d="M257.3,465.6v-61.1h11.2v9.2c4.1-7.3,10.3-11,18.5-11c4.4,0,8.2,1.1,11.5,3.3c3.3,2.2,5.8,5.3,7.5,9.4
		c4-8.5,10.8-12.7,20.4-12.7c6.8,0,12,1.9,15.6,5.7c3.6,3.8,5.4,9.3,5.4,16.6v40.5h-11.6v-37.3c0-10.2-4.3-15.3-12.8-15.3
		c-4.4,0-7.8,1.3-10,3.9c-2.1,2.3-3.4,5-4.1,8.1c-0.7,3.1-1,7-1,11.8v28.8h-11.3v-37.3c0-10.2-4.3-15.3-12.9-15.3
		c-4.4,0-7.6,1.3-9.9,3.9c-3.4,3.9-5,10.5-5,19.8v28.8H257.3z"/>
    <path d="M363,449.8c0-7.7,3.5-13.4,10.6-17.1c7-3.8,16.3-6.1,27.8-7v-1.8c0-7.6-4.3-11.3-12.8-11.3c-8,0-13.3,3.7-15.8,11.1
		l-11.1-3.7c1.2-4.8,4.2-8.8,8.9-12.1c4.7-3.3,10.7-5,18-5c8,0,14,1.9,18.2,5.6c4.1,3.7,6.2,9,6.2,15.8v28c0,1.4,0.2,2.3,0.7,2.8
		c0.5,0.5,1.4,0.7,2.8,0.7h6.3v10H414c-3.9,0-6.7-0.8-8.3-2.3c-1.6-1.5-2.5-3.8-3-7c-5,7.3-11.7,11-20.1,11c-6,0-10.8-1.6-14.4-4.7
		C364.8,459.4,363,455.1,363,449.8z M401.5,440.3V434c-17.7,1.7-26.5,6.7-26.5,14.8c0,2.8,0.9,5,2.8,6.6c1.8,1.6,4.5,2.4,8.1,2.4
		c4.4,0,8-1.5,11.1-4.6C399.9,450.2,401.5,445.9,401.5,440.3z"/>
  </g>
</svg>
