<svg xmlns="http://www.w3.org/2000/svg" width="500" height="500" viewBox="0 0 500 500">
  <style type="text/css">
    .st0{fill:#0ACF83;}
    .st1{fill:#A259FF;}
    .st2{fill:#F24E1E;}
    .st3{fill:#FF7262;}
    .st4{fill:#1ABCFE;}
  </style>
  <g>
    <path class="st0" d="M168.3,495c45,0,81.7-36.5,81.7-81.7v-81.7h-81.7c-45,0-81.7,36.5-81.7,81.7S123.3,495,168.3,495z"/>
    <path class="st1" d="M86.7,250c0-45,36.5-81.7,81.7-81.7H250v163.3h-81.7C123.3,331.7,86.7,295.1,86.7,250z"/>
    <path class="st2" d="M86.7,86.7c0-45,36.5-81.7,81.7-81.7H250v163.3h-81.7C123.3,168.5,86.7,131.8,86.7,86.7z"/>
    <path class="st3" d="M250,5.1h81.7c45,0,81.7,36.5,81.7,81.7s-36.5,81.7-81.7,81.7H250V5.1z"/>
    <path class="st4" d="M413.3,250c0,45-36.5,81.7-81.7,81.7S250,295.1,250,250s36.5-81.7,81.7-81.7S413.3,205,413.3,250z"/>
  </g>
</svg>
