<svg xmlns="http://www.w3.org/2000/svg" width="500" height="500" viewBox="0 0 500 500">
  <style type="text/css">
    .st0{fill:#ffffff;}
    .st1{fill:#ffffff;}
  </style>
  <g>
    <path class="st0" d="M407,45.1V34.2H382c-2.9-0.8-6.3-1.3-11.8-1.3C350.7,33,341,43.1,341,57.8c0,9.5,4.7,16.1,11,19.2
			c-3.1,2.8-5.6,5.2-7.9,7.7c-2.3,2.4-3.7,5-3.7,7.8c0,3.5,1.4,6.7,5.6,8.4c-4.5,4.2-7,7.3-7,13c0,10.1,8.8,16,32,16
			c22.3,0,35.2-8.3,35.2-23c0-17-13-17.6-35.2-19.1l-12.5-0.8l4.2-6.8c2.3,0.6,6,1.2,10.1,1.2c16.1,0,27.2-8.3,27.2-22.5
			c0-5.9-2.4-10-4.7-12.9l0,0L407,45.1z M376,105.6c6.1,0.4,11,0.6,11,4.7c0,6.9-10.1,7.4-17.5,7.4c-9,0-15.5-1.5-15.5-6.6
			c0-2.6,1.7-4.7,3.3-6.8L376,105.6z M371.1,68c-8.4,0-11.9-4.4-11.9-10.6c0-8.3,5.2-11.8,12.3-11.8c7.3,0,11.6,4,11.6,11.5
			C383.1,63.8,378.2,68,371.1,68z"/>
    <g>
      <path class="st0" d="M440.9,86.1V33h-26.5L413,43.4l6.9,2.4c1.3,0.4,1.7,1.3,1.7,2.7v37.6c0,1.9-0.3,2.3-2,2.6l-6.5,0.9v10.1l0,0
				h36.4V89.5l-6.5-0.9C441,88.4,440.9,88.1,440.9,86.1z"/>
      <path class="st0" d="M418,11.2c0,7.3,4.2,11.5,11.5,11.5c7.4,0,11.6-4.2,11.6-11.5C441.1,4,436.9,0,429.5,0h-0.1
				C422.2,0,418,4,418,11.2z"/>
    </g>
    <path class="st0" d="M486.2,85.4c-6.9,0-8.7-2.9-8.7-10.5V44.4h19.1V31.6h-18c-1,0-1-0.4-1-1.3V12.2h-12.2
				c-1.4,13.9-5.9,19.6-17.1,20.8v11.4h9c1,0,1,0.5,1,1.3v33.5c0,14.5,5.8,20.6,21,20.6c7.3,0,15.3-2.4,20.8-5.1l-3.5-11.3
				C493.5,84.6,489.8,85.4,486.2,85.4z"/>
  </g>
  <path class="st1" d="M240.9,65.9c-11.1-11.1-29.2-11.1-40.3,0c0,0,0,0,0,0L160.5,106l50.9,50.9c12.2-4.2,25.7-1,34.8,8.1
	c9.2,9.2,12.3,22.8,8,35l49,49.1c12.2-4.3,25.9-1.1,35,8c13.2,13.2,13.3,34.7,0,47.9c0,0,0,0,0,0c-13.2,13.2-34.7,13.3-47.9,0
	c0,0,0,0,0,0c-9.7-9.7-12.6-24.2-7.4-36.9l-45.7-45.7v120.4c3.3,1.6,6.4,3.8,9,6.4c13.2,13.2,13.2,34.7,0,48
	c-13.3,13.2-34.7,13.2-47.9,0c-13.2-13.2-13.3-34.7,0-47.9c0,0,0,0,0,0c3.2-3.2,6.9-5.7,11.1-7.4V220.4c-4.2-1.7-7.9-4.2-11.1-7.4
	c-9.7-9.7-12.6-24.4-7.3-37.1l-50.2-50.2L8.3,258.2c-5.5,5.5-8.3,12.7-8.3,20v0.4c0,7.2,2.8,14.4,8.3,20c0,0,0,0,0,0l193.2,193.2
	c5.5,5.5,12.8,8.3,20.1,8.3h0.2c7.3,0,14.5-2.8,20.1-8.3c0,0,0,0,0,0l192.3-192.3c11.1-11.1,11.1-29.2,0-40.3L240.9,65.9z"/>
</svg>
