<svg xmlns="http://www.w3.org/2000/svg" width="500" height="500" viewBox="0 0 500 500">
  <style type="text/css">
    .st0{fill:#F03C2E;}
  </style>
  <path class="st0" d="M271.7,14.2c-12.3-12.3-32.3-12.3-44.6,0l0,0l-44.4,44.4l56.4,56.4c13.5-4.7,28.5-1.1,38.5,9	c10.2,10.2,13.6,25.2,8.9,38.8l54.3,54.4c13.5-4.8,28.7-1.2,38.8,8.9c14.6,14.6,14.7,38.4,0,53l0,0c-14.6,14.6-38.4,14.7-53,0l0,0	c-10.7-10.7-14-26.8-8.2-40.9l-50.6-50.6v133.3c3.7,1.8,7.1,4.2,10,7.1c14.6,14.6,14.6,38.4,0,53.1c-14.7,14.6-38.4,14.6-53,0	c-14.6-14.6-14.7-38.4,0-53l0,0c3.5-3.5,7.6-6.3,12.3-8.2V185.3c-4.7-1.9-8.7-4.7-12.3-8.2c-10.7-10.7-14-27-8.1-41.1l-55.6-55.6	L14.2,227.1C8.1,233.2,5,241.2,5,249.3v0.4c0,8,3.1,15.9,9.2,22.1l0,0l213.9,213.9c6.1,6.1,14.2,9.2,22.3,9.2h0.2	c8.1,0,16.1-3.1,22.3-9.2l0,0l212.9-212.9c12.3-12.3,12.3-32.3,0-44.6L271.7,14.2z"/>
</svg>
