<svg xmlns="http://www.w3.org/2000/svg" width="500" height="500" viewBox="0 0 500 500">
  <style type="text/css">
    .st0{fill-rule:evenodd;clip-rule:evenodd;fill:#DA4648;}
  </style>
  <g>
    <path class="st0"
          d="M249,393.5c-29.3,0-51.9-4.4-62.8-7c-7.4-1.8-13.4-3.6-18-5.6				l14.5,24.8l5.7,77.5c0,8.7,27.6,15.7,61.6,15.7s61.6-7,61.6-15.7l4.5-78.3l13.7-24c-4.6,1.9-10.6,3.8-18.1,5.6				C300.9,389.1,278.2,393.5,249,393.5z M330.4,141.4c-21.5,3-50,4.7-80.3,4.7s-58.8-1.7-80.3-4.7c-10.7-1.5-19.1-3.2-25-5.2				c-1.4-0.5-3.8-1.3-6.2-2.6l13.3,122.6c0.6-2.1,1.3-4.2,2.1-6.3c1.6-4.3,3.4-8.5,5.4-12.6c2.1-4.1,4.3-8,6.7-11.7				c2.4-3.7,5-7,7.7-10.1c2.7-3.1,5.5-5.7,8.4-7.9c2.9-2.2,5.8-4,8.7-5.2c2.9-1.2,5.8-1.9,8.7-1.9c3.3,0,6.5,0.9,9.6,2.7				c3.1,1.8,6,4.7,8.7,8.8c0.6,0.9,1,1.8,1.2,2.7c0.2,0.9,0.2,1.8,0.2,2.6c0,1.9-0.5,3.5-1.4,4.6c-0.9,1.1-2,1.7-3.3,1.7				c-1.2,0-2.2-0.6-3.2-1.8c-1-1.2-2.1-3-3.4-5.3c-1.2-2.1-2.4-3.6-3.8-4.5c-1.4-0.9-2.9-1.4-4.6-1.4c-2.5,0-5.3,1.1-8.2,3.2				c-2.9,2.1-5.8,4.9-8.6,8.4c-2.8,3.5-5.6,7.4-8.2,11.9c-2.6,4.5-4.9,9-6.9,13.7c-2,4.7-3.6,9.3-4.8,13.8s-1.8,8.6-1.8,12.2				c0,1.2,0.1,2.4,0.2,3.7c0.2,1.3,0.5,2.4,0.9,3.5c0.5,1,1.1,1.9,1.9,2.5c0.8,0.7,1.8,1,3,1c1.3,0,2.9-0.5,4.6-1.4				c1.7-0.9,3.5-2.1,5.3-3.6c1.8-1.5,3.7-3.1,5.5-5c1.9-1.9,3.6-3.7,5.2-5.6c1.6-1.9,3-3.7,4.3-5.5c1.2-1.7,2.2-3.3,2.8-4.6				l5.1-15.2c0.6-1.6,1.4-2.8,2.4-3.5c1-0.7,2-1,3.1-1c0.5,0,1,0.1,1.5,0.3c0.5,0.2,1,0.4,1.4,0.8c0.4,0.4,0.7,0.8,1,1.4				c0.2,0.6,0.4,1.3,0.4,2c0,2.1-0.2,4-0.5,5.8c-0.4,1.8-0.8,3.6-1.4,5.3c-0.6,1.7-1.2,3.5-1.9,5.2c-0.7,1.7-1.4,3.6-2,5.5				c-0.1,0.2-0.4,0.9-0.8,2c-0.4,1.1-0.8,2.6-1.4,4.3c-0.5,1.7-1.1,3.6-1.8,5.8c-0.6,2.1-1.3,4.3-2,6.5c-0.7,2.2-1.3,4.4-1.9,6.5				c-0.6,2.1-1.2,4.1-1.7,5.8c-0.5,1.7-0.9,3.2-1.2,4.3c-0.3,1.2-0.5,1.9-0.6,2.1c-0.2,0.7-0.5,1.5-0.9,2.3				c-0.4,0.8-0.9,1.6-1.4,2.4c-0.5,0.8-1.1,1.4-1.8,1.9c-0.7,0.5-1.3,0.7-2,0.7c-1.2,0-2-0.4-2.5-1.2c-0.5-0.8-0.8-2.2-0.8-4.3v-0.9				c0-0.3,0-0.6,0.1-1c0-0.7,0.3-2,0.8-3.9c0.5-1.9,1.1-4,1.8-6.4c0.7-2.4,1.5-4.9,2.3-7.4c0.8-2.6,1.6-4.9,2.2-6.9				c-1.9,2.2-4,4.3-6.3,6.4c-2.3,2.1-4.6,4-6.9,5.7c-2.4,1.7-4.7,3.1-7.1,4.2c-2.4,1.1-4.7,1.6-6.9,1.6c-2.5,0-4.7-0.6-6.6-1.7				c-0.3-0.2-0.6-0.4-1-0.7l7.4,77.7c1.9,4.8,38.3,16.7,86.2,16.7c47.9,0,84.3-11.9,86.2-16.7l10.6-92.4c-0.9,0.8-1.7,1.6-2.6,2.4				c-3.1,2.8-5.9,5.3-8.6,7.3c-2.7,2-5.4,3.6-7.9,4.7c-2.6,1.1-5.3,1.7-8.3,1.7c-2.8,0-4.9-0.6-6.4-1.8c-1.5-1.2-2.3-2.9-2.3-5v-0.5				c0-0.2,0-0.3,0.1-0.6c0.1-1.3,0.7-2.8,1.7-4.5c1-1.7,2.2-3.4,3.5-5.2c1.4-1.8,2.9-3.6,4.4-5.5c1.6-1.9,3-3.6,4.3-5.3				c1.3-1.7,2.4-3.2,3.3-4.6c0.9-1.4,1.3-2.5,1.3-3.4c0-0.5-0.2-0.9-0.5-1.2c-0.4-0.3-1-0.5-1.8-0.5c-1.5,0-3,0.4-4.5,1.1				c-1.5,0.8-3.1,1.8-4.6,3c-1.5,1.3-3,2.7-4.4,4.4c-1.4,1.6-2.8,3.3-4,5.1c-1.3,1.8-2.4,3.5-3.4,5.3c-1,1.8-1.9,3.4-2.6,4.9				c-0.2,0.5-0.5,1.1-0.9,2c-0.4,0.9-0.8,1.8-1.3,2.9c-0.5,1.1-1,2.2-1.5,3.3c-0.5,1.1-1,2.2-1.4,3.2c-0.4,1-0.8,1.9-1.2,2.7				c-0.3,0.8-0.6,1.3-0.7,1.6c-0.2,0.4-0.5,1.1-0.9,2.2c-0.4,1.1-0.9,2.3-1.4,3.8c-0.5,1.4-1.1,3-1.7,4.6c-0.6,1.6-1.2,3.1-1.7,4.5				c-0.5,1.4-1,2.7-1.4,3.7c-0.4,1.1-0.7,1.8-0.8,2.2c-0.4,1.1-0.8,2.2-1.3,3.2c-0.5,1-1.1,1.9-1.7,2.6c-0.6,0.8-1.4,1.4-2.2,1.8				c-0.8,0.5-1.7,0.7-2.8,0.7c-1.3,0-2.4-0.3-3.2-0.9c-0.9-0.6-1.3-1.8-1.3-3.6c0-0.9,0.1-1.7,0.3-2.6c0.2-0.9,0.5-1.8,0.8-2.7				c0.3-0.9,0.7-1.7,1-2.6c0.3-0.8,0.7-1.6,1-2.4c2-4.3,4-8.6,6-13c2-4.3,4-8.6,5.9-12.9c0.4-0.9,0.7-1.8,1.1-2.6				c-0.1,0.1-0.2,0.2-0.3,0.3c-2.4,2.3-4.7,4.3-7.1,6c-2.3,1.7-4.7,3.1-7,4.2c-2.3,1-4.6,1.5-6.7,1.5c-1.5,0-2.7-0.2-3.7-0.7				c-1-0.5-1.8-1.1-2.4-1.9c-0.6-0.8-1-1.8-1.3-2.9c-0.1-0.4-0.1-0.8-0.2-1.2c-0.6,0.5-1.3,1-1.9,1.4c-2.3,1.6-4.5,2.9-6.7,3.8				c-2.2,1-4.1,1.5-5.9,1.5c-1.7,0-3.2-0.6-4.3-1.7c-1.1-1.2-1.6-3.1-1.6-5.9c0-2,0.3-4.3,0.9-6.9c-0.9,1.7-2.1,3.4-3.5,5.1				c-1.4,1.7-3,3.3-4.9,4.7c-1.8,1.4-3.9,2.6-6.1,3.5c-2.3,0.9-4.7,1.3-7.4,1.3c-1.2,0-2.4-0.2-3.5-0.5c-1.1-0.3-2.1-0.8-2.9-1.6				c-0.8-0.7-1.5-1.7-2-2.9c-0.5-1.2-0.8-2.8-0.8-4.6c0,0,0.1-0.7,0.2-2c0.1-1.3,0.6-3.3,1.4-6c0.8-2.7,2-6.3,3.6-10.6				c1.6-4.3,3.9-9.6,6.9-15.8c0.8-1.6,1.6-2.8,2.6-3.5c1-0.7,2.1-1.1,3.2-1.1c0.5,0,1,0.1,1.6,0.2c0.5,0.2,1.1,0.4,1.5,0.7				c0.5,0.3,0.9,0.7,1.1,1.2c0.3,0.5,0.4,1.1,0.4,1.7c0,0.4-0.1,0.8-0.2,1.2c-0.2,0.7-0.6,1.7-1.2,2.9c-0.6,1.2-1.3,2.5-2.1,4.1				c-0.8,1.5-1.6,3.2-2.5,4.9c-0.9,1.8-1.7,3.6-2.5,5.5s-1.4,3.8-2,5.8s-0.9,3.9-0.9,5.7c0,0.8,0.2,1.5,0.5,2.1c0.4,0.6,1,1,1.8,1				c2.4,0,4.6-0.8,6.8-2.3c2.1-1.6,4.1-3.5,5.9-5.8c1.8-2.3,3.5-4.8,4.9-7.4c1.5-2.6,2.7-5.1,3.7-7.3c0.7-1.5,1.3-3,1.8-4.7				c0.5-1.7,1.1-3.2,1.7-4.7c0.6-1.4,1.3-2.6,2.1-3.6c0.8-0.9,1.8-1.4,3-1.4c1.3,0,2.3,0.5,3.1,1.5c0.8,1,1.1,2.2,1.1,3.6				c0,0.8-0.2,1.8-0.7,3.2s-1.1,2.9-1.9,4.7c-0.7,1.7-1.6,3.6-2.4,5.6c-0.9,2-1.7,4-2.4,6c-0.7,2-1.4,4-1.9,6				c-0.5,2-0.7,3.8-0.7,5.5c0,1.6,0.8,2.3,2.4,2.3c1.1,0,2.5-0.4,4.2-1.2c1.7-0.8,3.4-1.9,5.3-3.3c0.5-0.3,0.9-0.7,1.4-1.1				c0.5-2.1,1.1-4.1,1.8-5.8c1.3-3.4,2.6-6.7,3.9-10c1.3-3.3,2.5-6.4,3.6-9.1l16.5-41.7c0.7-1.7,1.5-2.9,2.6-3.6				c1.1-0.7,2.2-1,3.4-1c1.1,0,2.2,0.4,3.1,1.1c0.9,0.7,1.4,1.9,1.4,3.6c0,0.8-0.2,1.6-0.5,2.5c-0.3,0.9-0.7,1.8-1.2,2.8				c-0.9,2-2,4.5-3.2,7.4c-1.3,2.9-2.6,6.1-4,9.6c-1.4,3.4-2.9,7-4.4,10.8c-1.5,3.7-3,7.4-4.4,10.9c-1.4,3.5-2.8,6.9-4,10				c-1.3,3.2-2.3,5.9-3.2,8.2c-0.4,1-0.8,2.1-1.2,3.5c-0.4,1.3-0.6,2.5-0.6,3.5c0,0.6,0.1,1.2,0.3,1.5s0.6,0.6,1.3,0.6				c0.8,0,1.7-0.3,2.9-0.8c1.1-0.5,2.4-1.2,3.7-2.1c1.3-0.9,2.7-1.9,4.1-3c1.4-1.1,2.9-2.3,4.3-3.6c1.4-1.2,2.8-2.5,4.1-3.7				c1.3-1.2,2.4-2.4,3.5-3.4c0.2-0.2,0.5-0.4,0.8-0.6c0.6-1.8,1.2-3.6,1.7-5.4c0.3-0.8,0.7-1.9,1.2-3.3c0.5-1.4,1.1-2.8,1.7-4.2				c0.7-1.4,1.4-2.6,2.2-3.6c0.8-1,1.7-1.5,2.6-1.5c1.5,0,2.5,0.3,3.2,1c0.7,0.7,1,1.6,1,2.9c0,0.3,0,0.7-0.1,1.2				c-0.1,0.6-0.2,1.2-0.3,1.8c-0.1,0.6-0.2,1.2-0.4,1.8c-0.1,0.6-0.2,1-0.4,1.2c1.3-1.5,2.8-2.9,4.4-4.4c1.6-1.4,3.2-2.7,4.9-3.9				c1.7-1.2,3.4-2.1,5.1-2.8c1.7-0.7,3.5-1.1,5.2-1.1c1.2,0,2.4,0.2,3.6,0.5c1.2,0.3,2.2,0.8,3.2,1.5c0.9,0.7,1.7,1.5,2.3,2.5				c0.6,1,0.9,2.2,0.9,3.5c0,1.8-0.4,3.7-1.3,5.7c-0.9,2-2,4-3.4,6c-1.3,2-2.8,4-4.4,5.9c-1.6,1.9-3,3.7-4.4,5.2				c-1.4,1.6-2.5,2.9-3.4,4c-0.9,1.1-1.4,1.8-1.4,2.2c0,0.5,0.2,0.9,0.5,1.3c0.3,0.3,0.9,0.5,1.6,0.5c0.6,0,1.5-0.3,2.7-1				c1.2-0.7,2.9-1.9,5-3.6c2.2-1.7,4.9-4,8.2-6.8c2.3-2,5-4.3,8-7l14.4-133.6c-2.3,1.3-4.7,2.1-6.2,2.6				C349.4,138.1,341,139.9,330.4,141.4z M249.9,109.7c-62.4,0-112.9,7-112.9,15.6s50.5,15.6,112.9,15.6s112.9-7,112.9-15.6				S312.3,109.7,249.9,109.7z M295,129.8c0,2-6,3.7-13.4,3.7c-7.4,0-13.4-1.6-13.4-3.7c0-2,6-3.7,13.4-3.7				C289,126.1,295,127.8,295,129.8z"/>
    <path class="st0" d="M270.9,128.2c-0.1,0.1-0.1,0.2-0.1,0.3c0,1.3,4.8,2.4,10.8,2.4				c6,0,10.8-1.1,10.8-2.4l14.1-57.2l56.1-59.2c0,0,0,0,0.1-0.1c1.2-1.3-1.2-5.5-5.2-9.1s-8.3-4.8-9.7-3.4c0,0,0,0,0,0l-59.9,63				L270.9,128.2z"/>
  </g>
</svg>
