<svg xmlns="http://www.w3.org/2000/svg" width="500" height="500" viewBox="0 0 500 500">
  <style type="text/css">
    .st0{fill:#E44D26;}
    .st1{fill:#F16529;}
    .st2{fill:#EBEBEB;}
    .st3{fill:#FFFFFF;}
    .st4{fill:#FFFFFF;}
  </style>
  <g>
    <polygon class="st0" points="105.1,459.8 72.9,98.3 427.1,98.3 394.8,459.8 249.8,500 	"/>
    <polygon class="st1" points="250,469.3 367.2,436.8 394.8,127.8 250,127.8 	"/>
    <polygon class="st2" points="250,261.9 191.3,261.9 187.3,216.5 250,216.5 250,172.2 249.8,172.2 138.8,172.2 139.9,184.1
		150.8,306.3 250,306.3 	"/>
    <polygon class="st2" points="250,377.1 249.8,377.2 200.4,363.8 197.3,328.5 173.3,328.5 152.7,328.5 159,398.1 249.8,423.3
		250,423.2 	"/>
    <path class="st4" d="M105.8,0h22.5v22.3H149V0h22.5v67.4H149V44.8h-20.6v22.6h-22.5L105.8,0L105.8,0z"/>
    <path class="st4" d="M201.2,22.4h-19.8V0h62.2v22.4h-19.8v45.1h-22.5L201.2,22.4L201.2,22.4z"/>
    <path class="st4" d="M253.4,0h23.5l14.5,23.7L305.8,0h23.5v67.4h-22.4V34l-15.5,24H291l-15.5-24v33.4h-22.1V0z"/>
    <path class="st4" d="M340.5,0h22.5v45.1h31.7v22.3h-54.2V0z"/>
    <polygon class="st3" points="249.8,261.9 249.8,306.3 304.5,306.3 299.3,363.8 249.8,377.1 249.8,423.3 340.8,398.1 341.4,390.6
		351.8,273.8 352.9,261.9 341,261.9 	"/>
    <polygon class="st3" points="249.8,172.2 249.8,199.7 249.8,216.4 249.8,216.5 356.8,216.5 356.8,216.5 357,216.5 357.9,206.6
		359.9,184.1 360.9,172.2 	"/>
  </g>
</svg>
