<svg xmlns="http://www.w3.org/2000/svg" width="500" height="500" viewBox="0 0 500 500">
  <style type="text/css">
    .st0{fill:#E44D26;}
    .st1{fill:#F16529;}
    .st2{fill:#EBEBEB;}
    .st3{fill:#FFFFFF;}
  </style>
  <g>
    <polygon class="st0" points="87.7,430 51.6,25 448.4,25 412.2,430 249.8,475 	"/>
    <polygon class="st1" points="250,440.6 381.3,404.2 412.2,58 250,58 	"/>
    <polygon class="st2" points="250,208.3 184.2,208.3 179.8,157.4 250,157.4 250,107.8 249.8,107.8 125.4,107.8 126.7,121.1		138.9,258 250,258 	"/>
    <polygon class="st2" points="250,337.3 249.8,337.4 194.4,322.4 191,282.9 164.1,282.9 141,282.9 148.1,360.8 249.8,389.1 250,389			"/>
    <polygon class="st3" points="249.8,208.3 249.8,258 311.1,258 305.2,322.4 249.8,337.3 249.8,389.1 351.7,360.8 352.4,352.4		364,221.6 365.3,208.3 351.9,208.3 	"/>
    <polygon class="st3" points="249.8,107.8 249.8,138.6 249.8,157.3 249.8,157.4 369.6,157.4 369.6,157.4 369.9,157.4 370.9,146.3		373.1,121.1 374.2,107.8 	"/>
  </g>
</svg>
