<svg xmlns="http://www.w3.org/2000/svg" width="500" height="500" viewBox="0 0 500 500">
  <style type="text/css">
    .st0{fill:#330000;}
    .st1{fill:#FF9A00;}
  </style>
  <g>
    <path class="st0" d="M104.7,30.6h290.7c44.1,0,79.7,35.6,79.7,79.7v279.4c0,44.1-35.6,79.7-79.7,79.7H104.7		c-44.1,0-79.7-35.6-79.7-79.7V110.4C25,66.3,60.6,30.6,104.7,30.6z"/>
    <path class="st1" d="M242.6,293.2h-69.8l-14.2,44.1c-0.4,1.7-1.9,2.8-3.6,2.6h-35.3c-2.1,0-2.6-1.2-2.1-3.4L178,162.7		c0.5-1.9,1.1-4,1.9-6.2c0.7-4,1.1-8.1,1.1-12.2c-0.2-0.9,0.5-1.9,1.5-2.1h48.6c1.5,0,2.3,0.5,2.4,1.5L302,337c0.5,2.1,0,3-1.9,3		h-39.2c-1.4,0.2-2.6-0.7-3-2.1L242.6,293.2z M183.6,255.1h47.6c-1.1-4-2.6-8.6-4.3-13.5c-1.7-5-3.4-10.5-5-16.1		c-1.9-5.9-3.6-11.4-5.4-17.3c-1.8-5.9-3.6-11.3-5-16.7c-1.5-5.2-2.8-10.1-4.1-14.6h-0.4c-1.7,8.1-3.8,16.1-6.4,24.2		c-2.8,9-5.6,18.4-8.6,27.7C189.3,238.5,186.5,247.3,183.6,255.1z M343.8,175.1c-6.2,0.2-12.2-2.3-16.7-6.6		c-4.3-4.7-6.6-10.9-6.4-17.3c-0.2-6.4,2.3-12.4,6.8-16.7c4.5-4.3,10.5-6.6,16.7-6.6c7.3,0,13,2.3,17.1,6.6		c4.1,4.5,6.4,10.5,6.2,16.7c0.2,6.4-2.1,12.6-6.6,17.3C356.5,173,350.2,175.5,343.8,175.1L343.8,175.1z M322.8,337.9V193.5		c0-1.9,0.7-2.6,2.4-2.6h37.1c1.7,0,2.4,0.9,2.4,2.6v144.4c0,2.1-0.7,3-2.4,3h-36.6C323.8,340.8,322.8,339.7,322.8,337.9z"/>
  </g>
</svg>
