<svg xmlns="http://www.w3.org/2000/svg" width="500" height="500" viewBox="0 0 500 500">
  <style type="text/css">
    .st0{fill:#78cff5;}
  </style>
  <g>
    <path class="st0"
          d="M53.6,135.1c-39.8,57.3-34.9,131.8-4.4,192.6c0.7,1.5,1.5,2.9,2.2,4.3c0.5,0.9,0.9,1.8,1.4,2.7		c0.3,0.5,0.6,1.1,0.9,1.6c0.5,1,1.1,1.9,1.6,2.8c0.9,1.7,1.9,3.3,2.9,5c0.5,0.9,1.1,1.8,1.7,2.7c1.1,1.8,2.2,3.5,3.4,5.3		c0.5,0.7,0.9,1.5,1.4,2.2c1.6,2.4,3.2,4.7,4.9,7c0,0.1,0.1,0.1,0.1,0.2c0.3,0.4,0.6,0.7,0.8,1.1c1.4,2,2.9,4,4.5,5.9		c0.6,0.7,1.1,1.4,1.7,2.1c1.3,1.7,2.7,3.4,4.1,5.1c0.5,0.6,1,1.3,1.6,1.9c1.9,2.2,3.8,4.4,5.7,6.5c0,0,0.1,0.1,0.1,0.1		c0.1,0.1,0.2,0.2,0.2,0.2c1.9,2.1,3.9,4.1,5.8,6.1c0.6,0.6,1.2,1.3,1.9,1.9c1.5,1.5,3.1,3.1,4.7,4.6c0.6,0.6,1.3,1.2,1.9,1.8		c2.1,2,4.2,3.9,6.4,5.8c0,0,0.1,0.1,0.1,0.1c0.4,0.3,0.7,0.6,1.1,0.9c1.9,1.6,3.8,3.3,5.8,4.9c0.8,0.6,1.6,1.3,2.4,1.9		c1.6,1.3,3.2,2.5,4.8,3.8c0.9,0.7,1.7,1.3,2.6,2c1.8,1.3,3.6,2.6,5.4,3.9c0.7,0.5,1.3,0.9,2,1.4c0.2,0.1,0.4,0.3,0.5,0.4		c1.7,1.2,3.5,2.3,5.3,3.5c0.8,0.5,1.5,1,2.3,1.5c2.7,1.7,5.5,3.4,8.2,5c0.8,0.4,1.5,0.9,2.3,1.3c2,1.2,4.1,2.3,6.2,3.5		c1.1,0.6,2.3,1.2,3.4,1.8c1.5,0.8,2.9,1.6,4.4,2.3c0.3,0.2,0.7,0.3,1,0.5c0.6,0.3,1.2,0.6,1.8,0.9c2.3,1.1,4.7,2.2,7,3.2		c0.5,0.2,1,0.4,1.5,0.7c2.7,1.2,5.4,2.3,8.2,3.4c0.7,0.3,1.3,0.5,2,0.8c2.5,1,5.1,1.9,7.7,2.9c0.3,0.1,0.6,0.2,1,0.3		c2.8,1,5.7,1.9,8.6,2.8c0.7,0.2,1.4,0.4,2.1,0.6c2.9,0.9,5.8,1.9,8.9,2.5c192.7,35.1,248.7-115.8,248.7-115.8		c-47,61.2-130.4,77.4-209.5,59.4c-3-0.7-5.9-1.6-8.8-2.5c-0.7-0.2-1.5-0.4-2.2-0.7c-2.9-0.9-5.7-1.8-8.5-2.8		c-0.4-0.1-0.8-0.3-1.2-0.4c-2.5-0.9-5-1.8-7.5-2.8c-0.7-0.3-1.4-0.5-2.1-0.8c-2.7-1.1-5.4-2.2-8.1-3.4c-0.5-0.2-1.1-0.5-1.6-0.7		c-2.3-1-4.6-2.1-6.8-3.2c-0.7-0.3-1.3-0.6-2-0.9c-1.8-0.9-3.5-1.8-5.3-2.7c-1.2-0.6-2.4-1.2-3.5-1.8c-2.1-1.1-4.2-2.3-6.3-3.5		c-0.7-0.4-1.4-0.8-2.1-1.2c-2.8-1.6-5.5-3.3-8.2-5c-0.8-0.5-1.5-1-2.2-1.5c-2-1.3-3.9-2.6-5.9-3.9c-0.6-0.4-1.3-0.9-1.9-1.3		c-1.9-1.3-3.7-2.7-5.5-4c-0.8-0.6-1.6-1.2-2.5-1.9c-1.7-1.3-3.3-2.6-5-3.9c-0.7-0.6-1.5-1.2-2.2-1.8c-2.1-1.7-4.2-3.5-6.2-5.3		c-0.2-0.2-0.4-0.4-0.7-0.6c-2.2-1.9-4.4-3.9-6.5-6c-0.6-0.6-1.2-1.2-1.8-1.8c-1.6-1.5-3.2-3-4.7-4.6c-0.6-0.6-1.2-1.2-1.8-1.8		c-2-2-3.9-4-5.8-6.1c-0.1-0.1-0.2-0.2-0.3-0.3c-2-2.2-3.9-4.4-5.9-6.7c-0.5-0.6-1-1.2-1.5-1.8c-1.4-1.7-2.8-3.5-4.2-5.2		c-0.5-0.6-1-1.3-1.5-1.9c-1.7-2.2-3.3-4.3-4.9-6.5C65.4,246,49.6,163.4,84.7,95.6"/>
    <path class="st0"
          d="M177.3,86.8c-28.8,41.5-27.2,97-4.8,140.8c3.8,7.4,8,14.5,12.7,21.3c4.3,6.2,9.1,13.5,14.8,18.5		c2.1,2.3,4.2,4.5,6.5,6.7c0.6,0.6,1.1,1.1,1.7,1.7c2.2,2.1,4.3,4.1,6.6,6.1c0.1,0.1,0.2,0.2,0.3,0.2c0,0,0,0,0.1,0.1		c2.5,2.2,5.1,4.3,7.7,6.4c0.6,0.4,1.2,0.9,1.8,1.4c2.6,2,5.3,4,8.1,5.9c0.1,0.1,0.2,0.1,0.2,0.2c1.2,0.8,2.5,1.6,3.7,2.4		c0.6,0.4,1.1,0.8,1.7,1.2c2,1.3,4,2.5,6,3.7c0.3,0.2,0.6,0.3,0.8,0.5c1.7,1,3.5,2,5.3,3c0.6,0.3,1.2,0.7,1.9,1		c1.2,0.6,2.5,1.3,3.7,1.9c0.2,0.1,0.4,0.2,0.6,0.3c2.5,1.2,5.1,2.5,7.7,3.6c0.6,0.2,1.1,0.5,1.7,0.7c2.1,0.9,4.2,1.8,6.3,2.6		c0.9,0.3,1.8,0.7,2.7,1c1.9,0.7,3.9,1.4,5.8,2c0.9,0.3,1.7,0.6,2.6,0.8c2.8,0.9,5.5,1.9,8.4,2.4C440.7,347.7,475,233.2,475,233.2		c-31,44.6-90.9,65.9-154.9,49.3c-2.8-0.7-5.6-1.6-8.4-2.4c-0.9-0.3-1.7-0.5-2.5-0.8c-2-0.6-3.9-1.3-5.9-2c-0.9-0.3-1.8-0.7-2.7-1		c-2.1-0.8-4.2-1.7-6.3-2.6c-0.6-0.2-1.1-0.5-1.7-0.7c-2.6-1.1-5.2-2.3-7.8-3.6c-1.3-0.6-2.6-1.3-3.9-2c-0.7-0.4-1.5-0.8-2.2-1.2		c-1.7-0.9-3.3-1.8-4.9-2.8c-0.4-0.2-0.8-0.4-1.2-0.7c-2-1.2-4-2.4-6-3.6c-0.6-0.4-1.2-0.8-1.8-1.2c-1.3-0.8-2.6-1.7-3.9-2.6		c-2.7-1.9-5.4-3.9-8-5.9c-0.6-0.5-1.2-0.9-1.8-1.4c-28-22.1-50.2-52.3-60.8-86.6c-11.1-35.5-8.7-75.4,10.5-107.8"/>
    <path class="st0" d="M281.3,50.8c-17,25-18.7,56-6.9,83.7c12.4,29.3,37.9,52.3,67.6,63.2c1.2,0.5,2.5,0.9,3.7,1.3		c0.5,0.2,1.1,0.4,1.6,0.5c1.8,0.5,3.5,1.2,5.3,1.5c82.1,15.9,104.4-42.2,110.4-50.7c-19.5,28.1-52.3,34.8-92.6,25.1		c-3.2-0.8-6.7-1.9-9.7-3c-3.9-1.4-7.8-3-11.6-4.8c-7.1-3.4-14-7.6-20.3-12.4c-36-27.3-58.4-79.4-34.9-121.9"/>
  </g>
</svg>
