<svg xmlns="http://www.w3.org/2000/svg" width="500" height="500" viewBox="0 0 500 500">
  <style type="text/css">
    .st0{fill:#F7DF1E;}
  </style>
  <g>
    <rect x="25" y="25" class="st0" width="450" height="450"/>
    <path d="M327.3,376.6c9.1,14.8,20.9,25.7,41.7,25.7c17.5,0,28.7-8.8,28.7-20.9c0-14.5-11.5-19.6-30.8-28.1l-10.6-4.5		c-30.5-13-50.8-29.3-50.8-63.7c0-31.7,24.2-55.9,61.9-55.9c26.9,0,46.2,9.4,60.1,33.9l-32.9,21.1c-7.3-13-15.1-18.1-27.2-18.1		c-12.4,0-20.2,7.9-20.2,18.1c0,12.7,7.9,17.8,26,25.7l10.6,4.5c35.9,15.4,56.2,31.1,56.2,66.4c0,38.1-29.9,58.9-70.1,58.9		c-39.3,0-64.6-18.7-77.1-43.2L327.3,376.6z M177.9,380.2c6.6,11.8,12.7,21.8,27.2,21.8c13.9,0,22.7-5.4,22.7-26.6V231.6h42.3V376		c0,43.8-25.7,63.7-63.1,63.7c-33.9,0-53.5-17.5-63.4-38.6L177.9,380.2z"/>
  </g>
</svg>
