<svg xmlns="http://www.w3.org/2000/svg" width="500" height="500" viewBox="0 0 500 500">
  <style type="text/css">
    .st0{fill:url(#path19_1_);}
    .st1{fill:#F6F6F6;}
    .st2{fill:#404040;}
  </style>
  <g>
    <linearGradient id="path19_1_" gradientUnits="userSpaceOnUse" x1="232.1068" y1="446.7668" x2="232.1068" y2="667.2543" gradientTransform="matrix(1 0 0 1 19.7117 -306.9987)">
      <stop offset="0.1497" style="stop-color:#2A4F84"/>
      <stop offset="0.3884" style="stop-color:#294E82"/>
      <stop offset="1" style="stop-color:#172E4E"/>
    </linearGradient>
    <path id="path19" class="st0" d="M473.1,317.7c0,23.4-19.1,42.5-42.5,42.5H73.1c-23.4,0-42.5-19.1-42.5-42.5V182.3
		c0-23.4,19.1-42.5,42.5-42.5h357.4c23.4,0,42.5,19.1,42.5,42.5V317.7z"/>
    <path id="path21" class="st1" d="M398.3,247.1c18.7,6.5,28,17.7,28,33.6c0,10.4-3.9,18.7-11.6,24.8c-7.7,6.1-18.7,9.9-33.1,9.9
		c-14.3,0-27.6-4.2-39.8-11c0.1-3.6,1.1-7.6,2.8-11.9c1.8-4.3,3.8-7.7,6.2-10.2c11.2,5.8,21,8.8,29.3,8.8c3.9,0,6.9-0.7,9.1-2
		c2.1-1.3,3.2-3.1,3.2-5.3c0-4.2-3.2-7.3-9.7-9.4l-11.6-4.4c-17.5-6.4-26.3-16.8-26.3-31.3c0-10.6,3.7-18.9,11.1-25.1
		c7.4-6.2,17.3-11.5,29.8-11.5c6.2,0,13,0.9,20.4,2.6c7.4,1.7,13.5,6,18.3,8.4c0.3,3.9-0.5,8.2-2.3,12.8c-1.8,4.7-4.1,8-6.7,9.9
		c-11.8-5.3-21.6-7.9-29.5-7.9c-2.8,0-4.9,0.6-6.4,1.9c-1.5,1.3-2.2,2.8-2.2,4.8c0,3.3,2.7,6,8,7.9L398.3,247.1L398.3,247.1z"/>
    <path id="path23" class="st1" d="M305,247.1c18.7,6.5,28,17.7,28,33.6c0,10.4-3.9,18.7-11.6,24.8c-7.7,6.1-18.7,9.9-33.1,9.9
		c-14.3,0-27.6-4.2-39.8-11c0.1-3.6,1.1-7.6,2.8-11.9c1.8-4.3,3.8-7.7,6.2-10.2c11.2,5.8,21,8.8,29.3,8.8c3.9,0,7-0.7,9.1-2
		c2.1-1.3,3.2-3.1,3.2-5.3c0-4.2-3.2-7.3-9.7-9.4l-11.6-4.4c-17.6-6.4-26.3-16.8-26.3-31.3c0-10.6,3.7-18.9,11.1-25.1
		c7.4-6.2,17.3-11.5,29.8-11.5c6.2,0,13,0.9,20.4,2.6c7.4,1.7,13.5,6,18.3,8.4c0.3,3.9-0.5,8.2-2.3,12.8c-1.8,4.7-4.1,8-6.7,9.9
		c-11.8-5.3-21.6-7.9-29.5-7.9c-2.8,0-4.9,0.6-6.4,1.9c-1.5,1.3-2.2,2.8-2.2,4.8c0,3.3,2.7,6,8,7.9L305,247.1L305,247.1z"/>
    <path id="path25" class="st1" d="M236.9,248.6c0-6.4-1-12.3-3.1-17.7c-2-5.4-4.9-10.1-8.7-14c-3.8-3.9-8.4-7-13.8-9.2
		c-5.4-2.2-11.5-5.6-18.2-5.6c-8,0-15,3.6-21,6.4c-6,2.8-10.9,6.6-14.7,11.5c-3.9,4.9-6.7,10.6-8.6,17.2c-1.9,6.6-2.8,13.8-2.8,21.6
		c0,8.1,0.8,15.5,2.3,22.3c1.5,6.8,4.2,12.7,7.9,17.7c3.7,5,8.6,8.9,14.5,11.7c6,2.8,13.4,4.9,22.2,4.9c16.3,0,30-4.7,41.3-12.6
		c-1.1-8.1-4-14.5-8.6-19.2c-5.7,2.2-10.8,3.7-15.2,4.6c-4.4,0.9-8.3,1.4-11.6,1.4c-6.7,0-11.5-1.7-14.5-5.2
		c-2.9-3.4-4.5-7.5-4.8-13.7h54.8C236,265,236.9,257.1,236.9,248.6z M179.2,250c0.4-7.1,1.7-14.7,3.9-17.8c2.2-3.1,5.5-4.7,9.9-4.7
		c4.6,0,8,1.7,10.3,5c2.3,3.3,3.4,10.1,3.4,15.2l0,2.3H179.2L179.2,250L179.2,250z"/>
    <g>
      <path id="path27_1_" class="st1" d="M484.1,263.9c-6,5.2-9.4,12.7-9.4,22.5v36.4c0,12.1-3.7,21.3-12.1,27.7
			c-8.4,6.3-18.2,9.5-29.4,9.8l-6.6,0V342c5.8-1.7,8.2-3.7,10.6-5.9c4.2-3.8,7.4-10,7.4-18.6v-29.4c0.2-10,0.9-17.8,4.6-23.5
			c3.7-5.7,10.8-10.6,21.3-14.9c-11.7-5.3-19.5-12.3-23.5-20.9c-2.3-5.1-2.4-12-2.4-20.7v-27c0-8.9-2.9-15.2-6.5-18.7
			c-2.3-2.3-5-4.2-11.5-5.6v-17c7.9,0.1,11.9,0,16.5,0c7.1-0.1,13,3.8,18.2,7.8c5.6,4.4,9.6,10.4,12,17.9c1.3,4.3,1.5,8.5,1.5,12.5
			v31.2c0,11,3.3,19.2,8.8,24.6c3.1,3.1,7.6,5.9,15.2,8.5v14.1C491.9,258.2,487.7,260.7,484.1,263.9L484.1,263.9z"/>
      <path class="st2" d="M433.2,361.6l-8-0.1V341l1-0.3c5.6-1.6,7.8-3.5,10-5.6c4.5-4.1,7-10.4,7-17.6v-29.4c0.2-10.6,1-18.4,4.8-24.2
			c3.5-5.4,9.8-10.1,19.2-14.2c-10.5-5.3-17.7-12.1-21.5-20.3c-2.5-5.5-2.5-12.8-2.5-21.3v-27c0-10.2-3.8-15.5-6.1-17.8
			c-2.3-2.3-4.9-3.9-10.8-5.2l-1.1-0.2v-19.5l1.4,0c5.2,0.1,8.7,0,11.8,0c1.6,0,3.1,0,4.7,0c0.1,0,0.1,0,0.2,0
			c7.4,0,13.7,4.1,18.8,8.1c5.8,4.6,10,10.8,12.4,18.6c1.4,4.5,1.6,8.9,1.6,12.9v31.2c0,10.1,2.9,18.3,8.4,23.6
			c3.4,3.4,8.1,6,14.7,8.2l0.9,0.3v16.1l-1,0.3c-5.9,1.6-10.1,3.8-14,7.3l0,0c-5.9,5.2-8.9,12.4-8.9,21.5v36.4
			c0,12.9-4.1,22.3-12.7,28.7C454.9,357.9,444.8,361.3,433.2,361.6z M427.9,358.9l5.3,0c11.1-0.3,20.5-3.4,28.6-9.5
			c7.8-5.9,11.6-14.6,11.6-26.6v-36.4c0-9.9,3.3-17.8,9.9-23.5c4-3.5,8.4-5.9,14.1-7.6v-12.1c-6.5-2.3-11.2-5-14.8-8.5
			c-6-5.8-9.2-14.6-9.2-25.5V178c0-3.8-0.2-7.9-1.5-12.1c-2.2-7.2-6.1-13-11.5-17.3c-5-3.9-10.6-7.6-17.2-7.6c-0.2,0-0.5,0-0.7,0
			c-1.4,0-2.7,0-4.1,0c-2.8,0-6,0-10.5,0v14.6c5.9,1.4,8.6,3.2,11.1,5.7c2.6,2.6,6.9,8.5,6.9,19.7v27c0,8.1,0,15.2,2.3,20.1
			c3.8,8.3,11.5,15.1,22.9,20.3l2.8,1.3l-2.9,1.2c-10.3,4.2-17.2,9-20.7,14.4c-3.4,5.3-4.2,12.6-4.4,22.8v29.4c0,8-2.8,15-7.9,19.6
			c-2.2,2.1-4.7,4.2-10.1,5.9V358.9z"/>
    </g>
    <g>
      <path id="path29_1_" class="st1" d="M65.2,139.8L65.2,139.8c-2.3,0-4.3,0-5.9,0c-7.1-0.1-13,3.8-18.2,7.8
			c-5.6,4.4-10.4,10.2-12,17.9c-0.9,4.5-0.7,8.5-0.7,12.5v31.2c0,11-4.1,19.2-9.7,24.6c-3.1,3.1-9.8,5.9-17.4,8.5v14.1
			c6.7,1.9,13.2,4.4,16.8,7.6c6,5.2,10.3,12.7,10.3,22.5v36.4c0,12.1,2.9,21.3,11.3,27.7c8.4,6.3,18.2,9.5,29.4,9.8l7.5,0V342
			c-5.8-1.7-9.1-3.7-11.4-5.9c-4.2-3.8-6.6-10-6.6-18.6v-29.4c-0.2-10-1.8-17.8-5.4-23.5c-3.6-5.7-10.8-10.6-21.3-14.9
			c11.7-5.3,19.5-12.3,23.5-20.9c2.4-5.1,3.2-12,3.2-20.7v-27c0-8.9,2.1-15.2,5.7-18.7c1.9-1.9,5.4-3.5,10.2-4.8l7.6,0.1
			c0-6.5,0-10.6,0-17.9L65.2,139.8L65.2,139.8L65.2,139.8L65.2,139.8z"/>
      <path class="st2" d="M69.1,361.6c-11.6-0.3-21.8-3.7-30.2-10c-8.2-6.2-11.8-15-11.8-28.7v-36.4c0-10.7-5.3-17.6-9.8-21.5
			c-3-2.7-8.6-5.2-16.3-7.3l-1-0.3v-16.1l0.9-0.3c8.8-3,14.3-5.6,16.9-8.2c4.2-4.1,9.3-11.5,9.3-23.6V178c0-0.6,0-1.2,0-1.8
			c0-3.4,0-7,0.7-11c1.4-7.1,5.5-13.2,12.4-18.7c5.2-4.1,11.5-8.2,19-8.1c1.4,0,3.2,0,5.2,0l0,0h18.9V159l-8.8-0.1
			c-4.6,1.2-7.7,2.7-9.4,4.4c-3.4,3.4-5.3,9.6-5.3,17.8v27c0,9.5-1.1,16.3-3.4,21.3c-3.8,8.2-11,15-21.5,20.3
			c9.3,4.1,15.8,8.9,19.2,14.2c3.6,5.6,5.5,13.5,5.6,24.2v29.4c0,8,2.1,13.9,6.1,17.6c2.6,2.4,5.9,4.2,10.9,5.6l1,0.3v20.5
			L69.1,361.6z M2.7,255.3c7.7,2.2,13.2,4.7,16.4,7.6c4.9,4.3,10.7,11.8,10.7,23.5v36.4c0,12.8,3.3,21,10.8,26.6
			c8.1,6.1,17.5,9.2,28.6,9.5l6.1,0V343c-4.9-1.5-8.3-3.4-11-6c-4.6-4.2-7-10.8-7-19.6v-29.4c-0.2-10.1-1.9-17.6-5.2-22.8
			c-3.5-5.4-10.4-10.2-20.7-14.4l-2.9-1.2l2.8-1.3c11.3-5.2,19-12,22.9-20.3c2.1-4.6,3.1-11,3.1-20.1v-27c0-8.9,2.1-15.7,6-19.7
			c2.1-2.1,5.6-3.8,10.8-5.2l0.2,0l6.4,0v-15.2H66.5v0l-1.3,0c-2.3,0-4.3,0-5.9,0c-0.1,0-0.1,0-0.2,0c-6.6,0-12.2,3.6-17.2,7.6
			c-6.5,5.1-10.2,10.7-11.5,17.1c-0.7,3.7-0.7,7.1-0.7,10.4c0,0.6,0,1.2,0,1.8v31.2c0,13.1-5.5,21.1-10.1,25.5
			c-2.8,2.8-8.2,5.5-17,8.5V255.3z"/>
    </g>
    <path id="path31" class="st1" d="M135.2,287.6h-5.7c-6.2,0-8.5-3.3-8.5-9.8v-120c0-7.2-2.1-12.3-4.8-15.2
		c-2.7-2.9-7.3-2.9-13.9-2.9H89.5l-1.5,0v0.1l0,17.9v126c0,10,2.3,17.3,6.3,22c4,4.7,10.8,7,20.3,7c6.6,0,14.1-0.7,22.5-2.1
		c0.4-1.4,0.6-4.4,0.6-9C137.7,296.9,136.9,292.2,135.2,287.6L135.2,287.6z"/>
  </g>
</svg>
