<svg xmlns="http://www.w3.org/2000/svg" width="500" height="500" viewBox="0 0 500 500">
  <style type="text/css">
    .st0{fill:#003545;}
  </style>
  <g>
    <path class="st0" d="M90.6,382.5l18.2,70.3H95.1L83,402.2l-22.8,50.6H48.6l-22.7-50.3l-12.5,50.3H0l18-70.3h11.9l24.5,54.4
		l24.4-54.4L90.6,382.5z"/>
    <path class="st0" d="M160.6,409.7v-8.2h13.2v51.3h-13.2v-8.3c-3.5,5.9-10.7,9.3-19.5,9.3c-18.3,0-28.5-12.9-28.5-27.8
		c0-14.3,9.7-25.8,26.6-25.8C148.8,400.4,156.8,403.6,160.6,409.7z M126.7,426.8c0,9.4,5.9,17.5,17.4,17.5
		c11.1,0,17.1-7.9,17.1-17.2c0-9.3-6.2-17.3-17.7-17.3C132.5,409.8,126.7,417.7,126.7,426.8L126.7,426.8z"/>
    <path class="st0" d="M203.7,452.8h-13.2v-51.3h13.2V413c3.1-7.5,10.4-12.5,18.5-12.6c2.8,0,5.6,0.4,8.3,1.4l-2.8,9.7
		c-2.3-0.6-4.6-0.9-7-1c-9.6,0-16.9,7.2-16.9,17.7V452.8z"/>
    <path class="st0" d="M237.1,387.9c-0.1-3.7,2.8-6.8,6.5-6.9c0.2,0,0.4,0,0.6,0c3.9-0.1,7.1,2.9,7.2,6.8c0,0.1,0,0.2,0,0.4
		c0.1,3.7-2.9,6.8-6.6,6.8c-0.2,0-0.4,0-0.7,0c-3.8,0.2-6.9-2.8-7.1-6.5C237.1,388.3,237.1,388.1,237.1,387.9z M237.7,401.5h13.2
		V439c0,2.3,0.5,4,2.4,4c0.9,0,1.7-0.1,2.5-0.3l2,9.7c-2.8,1.1-5.8,1.6-8.8,1.6c-5.6,0-11.5-1.6-11.5-14.2L237.7,401.5z"/>
    <path class="st0" d="M310.1,409.7v-8.2h13.3v51.3h-13.2v-8.3c-3.5,5.9-10.7,9.3-19.5,9.3c-18.3,0-28.5-12.9-28.5-27.8
		c0-14.3,9.7-25.8,26.6-25.8C298.3,400.4,306.3,403.6,310.1,409.7z M276.2,426.8c0,9.4,5.9,17.5,17.4,17.5
		c11.1,0,17.1-7.9,17.1-17.2c0-9.3-6.2-17.3-17.7-17.3C282,409.8,276.2,417.7,276.2,426.8L276.2,426.8z"/>
    <path class="st0" d="M343.7,382.5h31.7c26.7,0,40,14.7,39.8,35.1c0.2,21.2-14.5,35.1-37.5,35.1h-34.1V382.5z M352.4,388.7v57.9
		h24.2c21.2,0,29.3-14.3,29.3-29.2c0-16.8-10.1-28.7-29.3-28.7L352.4,388.7z"/>
    <path class="st0" d="M469.3,452.8H429v-70.3h36.4c13.9,0,27.2,2.6,27,18.2c0,11-6.8,14-14,15.2c10.2,0.9,16.4,7.4,16.4,17.9
		C494.8,449.6,480.9,452.8,469.3,452.8z M466.3,413.2c13.9,0,17-5.4,17-12.2c0-10.2-6.2-12.6-17-12.6h-28.9v24.7L466.3,413.2z
		 M466.7,419.1h-29.3v27.7H468c8.6,0,17.6-2.8,17.6-13.6C485.6,420.8,475.2,419.1,466.7,419.1L466.7,419.1z"/>
    <path class="st0" d="M497.8,47.6c-1.3-1.1-2.9-1.6-4.6-1.5c-4.6,0-10.5,3.1-13.7,4.8l-1.3,0.6c-5.3,2.6-11.1,4-17.1,4.3
		c-6.1,0.2-11.3,0.5-18.1,1.3c-40.3,4.1-58.3,35.1-75.7,65c-9.4,16.3-19.2,33.2-32.5,46.1c-2.8,2.7-5.7,5.2-8.8,7.5
		c-13.8,10.3-31.2,17.6-44.7,22.8c-13,5-27.2,9.4-40.9,13.8c-12.6,4-24.4,7.7-35.3,11.7c-4.9,1.8-9.1,3.2-12.8,4.5
		c-9.9,3.2-17.1,5.7-27.6,12.9c-4.1,2.8-8.2,5.8-11,8.1c-8.3,6.6-15.7,14.4-21.9,23c-5.3,8-11.5,15.4-18.4,22
		c-2.2,2.2-6.1,3.2-12,3.2c-6.9,0-15.2-1.4-24-2.9c-9.1-1.6-18.5-3.1-26.6-3.1c-6.6,0-11.6,1.1-15.3,3.2c0,0-6.3,3.7-9,8.4l2.6,1.2
		c4.1,2.2,7.8,4.9,11.2,8.1c3.5,3.2,7.4,6,11.6,8.3c1.3,0.5,2.6,1.3,3.6,2.3c-1.1,1.6-2.7,3.7-4.4,5.9C42,341,36.5,348.7,39.7,352.9
		c1.5,0.8,3.2,1.2,4.8,1.1c20.3,0,31.2-5.3,45-12c4-1.9,8.1-3.9,12.9-6c8.1-3.5,16.7-9.1,26-15c12.1-7.9,24.7-15.9,36.9-19.8
		c10.1-3.1,20.5-4.5,31-4.4c12.9,0,26.5,1.7,39.6,3.4c9.8,1.3,19.9,2.5,29.8,3.1c3.9,0.2,7.4,0.3,10.9,0.3c4.6,0,9.3-0.2,13.9-0.7
		l1.1-0.4c7-4.3,10.2-13.5,13.4-22.3c2-5.7,3.7-10.8,6.5-14.1c0.2-0.2,0.3-0.3,0.5-0.4c0.3-0.1,0.6-0.1,0.8,0.1c0,0,0,0.1,0,0.3
		c-1.6,34.7-15.6,56.7-29.7,76.3l-9.4,10.1c0,0,13.2,0,20.7-2.9c27.4-8.2,48.1-26.3,63.2-55.1c3.7-7.4,7-15,10-22.7
		c0.3-0.6,2.6-1.8,2.4,1.5c-0.1,1-0.1,2.1-0.2,3.2l0,0c0,0.7,0,1.4-0.1,2.1c-0.4,4.8-1.5,15.1-1.5,15.1l8.5-4.5
		c20.4-12.9,36.2-39,48.1-79.5c5-16.9,8.6-33.6,11.8-48.4c3.8-17.7,7.1-33,10.9-38.9c6-9.3,15-15.5,23.8-21.6
		c1.2-0.8,2.4-1.6,3.6-2.5c11.1-7.8,22-16.7,24.5-33.4v-0.4C501,52.2,499.5,49,497.8,47.6z"/>
  </g>
</svg>
