<svg xmlns="http://www.w3.org/2000/svg" width="500" height="500" viewBox="0 0 500 500">
  <style type="text/css">
    .st0{fill:url(#SVGID_1_);}
    .st1{fill:url(#SVGID_2_);}
    .st2{fill:url(#SVGID_3_);}
    .st3{fill:#ffffff;}
  </style>
  <g>
    <g transform="matrix(.569 0 0 .569 199.451 -82.735)">
      <linearGradient id="SVGID_1_" gradientUnits="userSpaceOnUse" x1="-28653.7754" y1="25023.666" x2="-28002.6094" y2="24638.9023" gradientTransform="matrix(3.800003e-02 0 0 3.800003e-02 1074.5044 -235.5424)">
        <stop offset="0" style="stop-color:#909CA9"/>
        <stop offset="1" style="stop-color:#EDEDEE"/>
      </linearGradient>
      <path class="st0"
            d="M241.6,454.5l-120.3,39.3L16.7,540l-29.3,7.7c-7.5,7.1-15.3,14.3-23.7,21.5c-9.3,8-17.9,15.3-24.5,20.5			c-7.4,5.8-18.3,16.7-23.8,23.6c-8.3,10.4-14.8,21.4-17.6,29.8c-5,15.3-2.5,30.7,7.1,45c12.4,18.2,37,36.7,65.7,49.4			c14.6,6.5,39.3,14.7,57.8,19.4c30.8,7.8,90.4,16.3,123.3,17.5c6.6,0.3,15.5,0.3,15.9,0c0.7-0.5,5.8-10.2,11.7-22.3			c20.2-41.2,34.7-79.8,42.6-112.8c4.7-20,8.5-46.6,10.9-78.2c0.6-8.8,0.9-38.4,0.4-48.4c-0.8-16.4-2.3-29.6-4.5-42.6			c-0.4-1.9-0.5-3.6-0.3-3.7c0.4-0.3,1.5-0.6,16.3-4.9L241.6,454.5L241.6,454.5L241.6,454.5L241.6,454.5z M214.1,470.6			c1.1,0,4,27.9,4.7,45.5c0.2,3.7,0.1,6.2-0.1,6.2c-0.7,0-15.4-8.6-25.8-15.2c-9.1-5.7-26.4-17.2-29.1-19.4			c-0.9-0.6-0.8-0.7,6.6-3.3C183.1,480.3,213.1,470.6,214.1,470.6z M152.9,490.8c0.8,0,2.9,1.2,7.9,4.3			c18.7,11.7,44.2,25.9,55.1,30.6c3.4,1.5,3.7,0.9-4,6.2c-16.5,11.3-37.2,22.4-62.5,33.5c-4.5,2-8.2,3.5-8.3,3.5			c-0.2,0,0.4-2.3,1.1-5c6.1-22.6,9.5-45.5,9.7-63.9C152,491,152,491,152.9,490.8C152.7,490.8,152.8,490.8,152.9,490.8L152.9,490.8z			 M140.2,495.6c0.5,0.5,0.2,20.9-0.5,26.5c-1.6,13.3-4.2,25.6-8.4,39.5c-1,3.4-1.9,6.2-2.1,6.4c-0.4,0.5-12.8-11.7-16.9-16.5			c-7.1-8.2-12.6-16.4-16.7-24.4c-2.1-4.1-5.4-12.1-5.1-12.4C91.9,513.8,139.9,495.3,140.2,495.6L140.2,495.6z M80.8,519			c0.1,0,0.2,0,0.3,0.1c0.2,0.2,0.8,1.6,1.4,3.3c2.9,7.9,9.5,19.5,15.1,27c6.2,8.2,14.3,16.9,21,22.6c2.2,1.8,4.2,3.5,4.5,3.8			c0.5,0.5,0.7,0.5-14.1,6.1c-17.2,6.5-35.9,13.1-57.4,20c-5.1,1.7-10.2,3.3-15.4,5c-0.8,0.3-0.5-0.2,1.8-3.9			c10.6-16.6,26.8-49.3,35.9-72.4c1.5-4,3.1-8,3.4-8.9c0.4-1.3,0.8-1.7,2-2.4C79.9,519.2,80.5,519,80.8,519L80.8,519z M62.6,526.5			c0.3,0.2-4.4,9.9-8.9,18.8c-8.8,17.2-18.5,34.1-31.4,54.6c-2.2,3.5-4.3,6.8-4.5,7.2c-0.5,0.6-0.6,0.5-2.1-2.4			c-3.1-6.1-5.6-13.9-7-21.1c-1.4-7.1-1.1-19.5,0.5-27.1c1.2-5.6,1.1-5.5,3.8-6.9C24.6,543.8,62.2,526.2,62.6,526.5L62.6,526.5z			 M219.4,532.9v3.8c0,20.3-2.2,48.1-5.4,68.4c-0.5,3.5-1,6.5-1.1,6.5c0,0-2.6-0.7-5.7-1.6c-13.6-4.3-28.5-10.5-41.8-17.9			c-8.8-4.8-21.6-12.7-21.3-13.1c0.1-0.1,3.9-2.1,8.4-4.5c17.8-9.3,34.9-19.3,49.7-29.2c5.5-3.7,13.9-9.7,15.7-11.4L219.4,532.9			L219.4,532.9z M-6,559.8c0.4,0,0.3,0.7-0.3,4c-0.4,2.4-0.8,6.7-1,9.7c-0.7,13.3,1.5,23.1,8,36.5c1.8,3.7,3.3,6.8,3.2,6.9			c-0.6,0.5-60.8,18.2-79.7,23.4c-5.6,1.5-10.5,2.9-10.9,3c-0.6,0.2-0.7,0.1-0.5-1.5c2.1-13.4,12.3-30.8,26.5-45.5			c9.5-9.8,17-15.5,29.9-22.9c9.3-5.3,23.5-13.2,24.6-13.5C-6.2,559.8-6.1,559.8-6,559.8L-6,559.8z M135.8,585.2			c0.1-0.1,2.3,1.1,4.9,2.6c19.5,11.3,46.5,21.7,69.6,27.1l2.1,0.5l-2.9,1.6c-12.1,6.7-51.8,23.3-92.4,38.5			c-5.9,2.2-11.7,4.4-12.8,4.8c-1.1,0.5-2.1,0.7-2.1,0.6c0-0.1,1.6-3.3,3.7-7.2c11.4-21.3,22.8-47.2,28.6-65.2			C135.2,586.8,135.7,585.3,135.8,585.2L135.8,585.2z M121.3,589.9c0.1,0.1-0.6,2-1.5,4.2c-7.9,19.2-18.3,40.1-31.5,63.5			c-3.4,6-6.2,10.8-6.3,10.8c-0.1,0-2.8-1.6-6.1-3.6c-19.3-11.8-36.4-26.4-47.5-40.5l-1.6-2l8.3-2.3c29.6-8.1,54.8-16.8,79.8-27.5			C118.3,591.1,121.2,589.9,121.3,589.9z M211.1,621.3C211.1,621.3,211.2,621.4,211.1,621.3c0.1,2.1-4.5,20.8-8.4,34.4			c-3.2,11.4-5.9,20.3-10.9,36c-2.2,6.9-4.1,12.6-4.2,12.6c-0.1,0-0.6-0.1-1.2-0.3c-27-4.9-51.2-11.7-73.9-20.8			c-6.4-2.5-15.5-6.6-16-7.1c-0.2-0.2,5.3-2.7,12.2-5.7c41.4-18.1,84.3-38.6,99-47.5C209.5,621.8,210.8,621.3,211.1,621.3			L211.1,621.3z M3.8,628.4c0.2,0.2-11.4,16.8-27.5,39.5c-5.6,7.9-12.2,17.2-14.6,20.6c-2.5,3.5-6.2,8.9-8.3,12.2l-3.8,5.9l-4.1-3.5			c-4.8-4-13.2-12.5-16.9-17.3c-7.8-9.7-13.1-20-15.2-29.4c-1-4.4-1-6.5-0.1-6.8c1.4-0.4,25.6-6.1,48.4-11.4			c12.6-2.9,27.3-6.4,32.5-7.6C-0.6,629.4,3.7,628.4,3.8,628.4L3.8,628.4z M15.4,632.8l2.9,3.3c13.1,14.6,26.5,25.5,42.6,34.9			c2.9,1.6,5.1,3.1,4.9,3.2c-0.6,0.5-56.2,20.2-81.9,29.1c-14.5,5.1-26.4,9.2-26.5,9.2c-0.1,0-0.9-0.5-1.8-1.2l-1.6-1.2l2.6-3.8			c8.5-12.4,19.3-25.9,42.6-54.1L15.4,632.8L15.4,632.8z M87.9,684.7c0.1-0.1,4.1,1.4,9,3.2c11.8,4.5,21.2,7.3,33.7,10.5			c15.5,3.9,37.8,7.7,51,8.8c2,0.2,3.1,0.4,2.7,0.6c-0.6,0.4-14,4.8-23.8,7.9c-15.6,4.9-63.4,19-102.3,30.2			c-7.2,2.1-13.4,3.8-13.7,3.9c-0.9,0.2-3.9-0.6-3.9-1c0-0.2,2.2-3,4.8-6.1c13.1-15.6,26.1-33.1,36.9-49.6			C85.4,688.5,87.9,684.8,87.9,684.7L87.9,684.7z M71.9,685.2c0.1,0.1-6.4,10.5-17.6,28.3c-4.8,7.5-10.2,16.1-12.1,19.1			c-1.8,2.9-4.5,7.5-6.1,10l-2.6,4.6l-1.4-0.4c-3.3-0.9-26.3-9-32.4-11.5c-7.5-3-15.4-6.6-21.2-9.7c-7.3-3.9-16.4-9.7-15.6-9.9			c0.2-0.1,12.6-3.5,27.6-7.5c39.8-10.8,61.9-17.1,76.4-21.6C69.6,685.7,71.9,685.1,71.9,685.2L71.9,685.2z M185.1,711.7			L185.1,711.7c0.5,0.9-14.3,41.8-19.6,54.7c-1.2,2.9-1.6,3.6-2.3,3.5c-1.5-0.1-22.9-3.1-35.9-5c-22.6-3.5-60.6-10.1-70.2-12.3			l-2.2-0.5l13.5-3.1c29.1-6.5,43.1-10.1,57.3-14.5c17.9-5.5,35.6-12.3,53.5-20.6C182.1,712.8,184.5,711.8,185.1,711.7L185.1,711.7z			"/>

      <linearGradient id="SVGID_2_" gradientUnits="userSpaceOnUse" x1="-28628.0879" y1="12279.0068" x2="-28104.1445" y2="12279.0068" gradientTransform="matrix(3.800003e-02 0 0 3.800003e-02 1074.5044 -235.5424)">
        <stop offset="0" style="stop-color:#939FAB"/>
        <stop offset="1" style="stop-color:#DCDEE1"/>
      </linearGradient>
      <path class="st1"
            d="M117.6,174.2c-2-0.3-34.3,11.4-55.1,19.8c-28.1,11.5-49.9,22.4-63.4,31.8c-5,3.5-11.3,9.8-12.3,12.3			c-0.4,0.9-0.5,2-0.5,3.1l12.2,11.5l29,9.3l69,12.4l78.9,13.5l0.8-6.8c-0.3,0-0.5-0.1-0.7-0.1l-10.4-1.6l-2.1-3.7			c-10.7-18.9-22.5-42.4-29.5-58.2c-5.4-12.3-10.5-26.5-13.3-36.6C118.8,174.7,118.6,174.3,117.6,174.2L117.6,174.2L117.6,174.2			L117.6,174.2z M116.1,178.8L116.1,178.8c0.2,0.1,0.5,2.6,0.9,5.6c1.5,12.7,4.4,25,8.8,38.3c3.4,10,3.4,9.5-0.5,8.3			c-9.3-2.5-50.8-9.7-80.9-13.9c-4.8-0.6-8.9-1.3-8.9-1.4c-0.4-0.4,21.7-11.9,31.5-16.5C79.4,193.6,113.6,179.3,116.1,178.8z			 M28.5,219.6l3.5,1.2c19.3,6.5,67.7,15.8,94.4,18c3,0.3,5.5,0.5,5.6,0.5c0.1,0.1-2.5,1.5-5.7,3c-12.9,6.5-27.1,14.4-36.9,20.5			c-2.9,1.8-5.5,3.3-5.9,3.3c-0.4,0-2.3-0.4-4.3-0.6l-3.6-0.5l-9.1-8.9c-16-15.5-28.5-27.5-33.4-32.1L28.5,219.6z M24.9,222.4			l12.8,16c7,8.8,14.1,17.5,15.6,19.4c1.5,1.9,2.8,3.5,2.7,3.5c-0.4,0.3-18.5-3.3-28.2-5.5c-9.9-2.3-14-3.4-20.1-5.3l-5-1.6v-1.3			c0.1-6.1,7.8-15.2,20.9-24.5C23.7,223.2,24.9,222.4,24.9,222.4z M133.8,244.2c0.4,0,0.8,0.8,1.9,3.3c3.1,6.8,12.7,25.2,15.1,28.7			c0.7,1.2,2,1.3-10.8-0.8c-30.8-5-40.7-6.6-40.7-6.8c0-0.1,0.9-0.7,2.1-1.4c9.5-5.3,19.2-12,27.7-19.2c2.1-1.7,4-3.4,4.4-3.6			C133.5,244.2,133.7,244.1,133.8,244.2z"/>
      <radialGradient id="SVGID_3_" cx="-3488.4092" cy="-28605.6895" r="695.6382" gradientTransform="matrix(-3.649111e-02 -5.481365e-03 1.108591e-02 -7.298223e-02 353.0253 -1715.4635)" gradientUnits="userSpaceOnUse">
        <stop offset="0" style="stop-color:#EE352C"/>
        <stop offset="1" style="stop-color:#A91D22"/>
      </radialGradient>
      <path class="st2"
            d="M-12.5,236.8c0,0-2,3.2-0.1,7.9c1.2,2.9,4.6,6.5,8.5,10.1c0,0,40.5,39.5,45.4,45.1			c22.4,25.8,32.1,51.3,33,86.4c0.5,22.5-3.7,42.4-14.4,65.4C41,492.9,1.1,538.5-60.4,589l9-3c5.8-4.4,13.7-9,32.3-19.2			c42.8-23.5,91-45,150.1-67.2c85.1-32,225-69.5,304.6-81.6l8.3-1.3l-1.3-2c-7.3-11.3-12.3-18.3-18.3-25.7			c-17.5-21.6-38.6-39.2-64.5-53.7c-35.6-19.9-81.7-35.5-140.1-47c-11-2.2-35.2-6.4-54.8-9.4c-41.6-6.5-68.5-10.9-98.2-16			c-10.6-1.8-26.5-4.5-37.1-6.8c-5.5-1.2-15.9-3.6-24.1-6.5C-1,247.1-10.5,244.6-12.5,236.8L-12.5,236.8z M11,259.6			c0.1-0.1,1.5,0.5,3.5,1.1c3.5,1.2,7.9,2.5,13.2,4c4,1.1,8,2.2,12,3.2c5.5,1.4,10,2.6,10.1,2.6c0.6,0.6,9.8,30,12.9,41.3			c1.2,4.3,2.1,7.9,2,7.9c-0.1,0.1-1.1-1.5-2.3-3.5c-10.6-18.7-27.5-37.7-46.9-53C12.9,261.3,11,259.7,11,259.6z M55.7,271.9			c0.5,0,2.5,0.3,4.9,0.8c15.5,3.5,43.2,8.7,60.9,11.7c3,0.5,5.4,1,5.4,1.2c0,0.2-1.1,0.8-2.5,1.5c-3,1.5-15.1,8.7-19.1,11.5			c-10.1,6.7-19.2,14-25.7,20.5c-2.6,2.6-4.9,4.8-4.9,4.8s-0.5-1.5-1-3.5c-3.3-12.6-10.1-31.4-16.3-44.5			C56.4,273.9,55.6,272,55.7,271.9C55.6,272,55.6,271.9,55.7,271.9L55.7,271.9z M134.4,286.9c0.5,0.2,1.5,3.3,3.3,10.1			c3.4,13.2,4.9,27.9,4.4,41.6c-0.2,3.8-0.4,7.4-0.5,7.8l-0.3,0.9l-4.7-1.5c-9.7-3.1-25.5-7.7-39.1-11.5c-7.7-2.1-14-4-14-4.2			c0-0.5,11.3-11.8,16.1-16.1C108.7,305.9,133.6,286.6,134.4,286.9L134.4,286.9z M140.7,287.8c0.3-0.3,37.6,6.2,54.6,9.5			c12.6,2.5,31,6.3,32.1,6.7c0.5,0.2-1.4,1.3-7.5,4c-24,10.8-41.8,20.5-59.5,32.4c-4.6,3.1-8.5,5.6-8.6,5.6c-0.1,0-0.2-2.6-0.2-5.8			c0-17.3-3.5-34.7-9.8-49.5C141.1,289.3,140.6,287.9,140.7,287.8z M237.3,306.9c0.3,0.3-0.9,7.6-2,12			c-3.3,13.5-12.1,33.6-22.9,52.5c-1.9,3.4-3.6,6.1-3.8,6.2c-0.2,0.1-2.6-1.3-5.5-2.9c-10.5-6.2-22.5-12-35.6-17.5			c-3.6-1.5-6.8-2.8-6.9-3c-0.6-0.5,28.6-19.9,44.1-29.2C216.9,317.6,236.9,306.6,237.3,306.9z M244.2,308c0.8,0,17.4,4.5,26,7.1			c21.4,6.4,45.9,15.4,61.9,22.6l6.6,3l-4.6,1.1c-39.1,9-72.5,19.4-104.8,32.5c-2.6,1.1-5,2-5.2,2c-0.2,0,0.7-2.1,1.9-4.6			c9.7-20.6,16-42.2,17.5-60.5C243.7,309.4,243.9,308,244.2,308L244.2,308z M79.5,345.8c0.3-0.3,12.9,2.7,19.7,4.6			c10.4,2.9,32.4,10.3,32.4,10.8c0,0.1-2.5,2.2-5.4,4.7c-11.9,9.9-23.4,20.4-37.1,33.6c-4.1,3.9-7.5,7.1-7.7,7.1			c-0.2,0-0.3-0.5-0.2-1.3c2.1-15.3,1.6-34.9-1.3-54.8C79.7,348.1,79.4,345.9,79.5,345.8z M345,346.1c0.2,0.2-5.8,9.6-9.6,15			c-5.5,7.8-13.5,18.2-31.5,40.9c-9.5,12-20.3,25.5-23.8,30.1c-3.6,4.5-6.6,8.4-6.7,8.4c-0.1,0-1.3-1.6-2.5-3.6			c-10.2-15.3-22.4-28.6-36.8-40.6c-2.7-2.3-5.7-4.7-6.7-5.5c-1-0.7-1.8-1.5-1.8-1.5c0-0.3,15.5-6.9,27.2-11.6			c20.5-8.4,48.5-18.4,69.5-24.8C333.1,349.3,344.8,345.9,345,346.1L345,346.1z M352,347.9c0.4-0.1,2.5,1,5.2,2.5			c22.1,12.6,43.7,28.9,60.8,45.6c4.8,4.7,16.7,17.1,16.5,17.2c0,0-4.2,0.4-9.1,0.7c-38.3,2.9-87.3,11-134.4,22.4			c-3.2,0.7-6,1.4-6.2,1.4c-0.2,0,3.4-3.5,7.8-7.8c27.6-26.6,40.3-43.5,55.2-73.4C350,352,351.8,348.2,352,347.9			C351.9,347.9,351.9,347.9,352,347.9L352,347.9z M149.6,368.6c1.3,0.3,13.1,5.8,22,10.3c8.2,4.1,20.5,10.6,21.1,11.2			c0.1,0.1-4.3,2.4-9.6,5c-17.1,8.5-31.7,16.6-47,25.9c-4.4,2.6-8,4.8-8.1,4.8c-0.4,0-0.3-0.4,2.2-4.8c8.2-14.9,14.7-32.7,18.5-50.1			C148.9,369.6,149.3,368.6,149.6,368.6L149.6,368.6z M137.8,370.8c0.3,0.3-2.8,11.5-4.7,17.5c-3.7,11.5-10,26-16.1,36.9			c-1.5,2.5-3.6,6.3-4.8,8.4l-2.3,3.6l-5.1-4.9c-5.9-5.7-10.7-9.3-16.9-12.5c-2.5-1.3-4.4-2.4-4.4-2.5c0-0.7,15.5-14.8,27.5-25			C119.5,385,137.5,370.6,137.8,370.8L137.8,370.8z M210,400.6l4.5,2.9c10.2,6.6,22.2,15.5,31.4,23.2c5.2,4.3,15.2,13.3,17.2,15.5			l1.1,1.2l-7.4,2.1c-41.6,11.5-73.8,21.8-111.4,35.6c-4.2,1.5-7.7,2.8-8,2.8c-0.5,0-1,0.5,8.4-8.2c24-22.1,45.3-46.5,61.1-70.2			L210,400.6L210,400.6z M191,405.3c0.2,0.2-12.3,17.7-19.7,27.6c-8.9,11.8-24.7,31.6-35.6,44.5c-4.5,5.4-8.5,9.8-8.6,9.9			c-0.3,0.1-0.4-1.3-0.4-3.4c0-11-2.8-22.7-7.7-32.7c-2.1-4.2-2.5-5.2-2-5.6c1.7-1.5,28.2-16.6,44.9-25.6			C173.1,414,190.8,405.1,191,405.3L191,405.3z M76.1,433.5c0.3,0,2.4,1.1,4.7,2.4c5.8,3.2,11,6.7,15.6,10.5			c0.2,0.2-2.2,2.1-5.3,4.4c-8.6,6.2-21.7,16.1-29.4,22.2c-8,6.4-8.3,6.5-7.4,5.2c6-9.2,9-14.4,12.2-21c2.8-5.9,5.6-12.9,7.6-19			C75,435.5,75.9,433.5,76.1,433.5L76.1,433.5z M106.8,457.5c0.5-0.1,1,0.7,3.5,4.4c5.2,7.7,9.2,18.1,10.2,26.5l0.2,1.8l-12.5,4.8			c-22.3,8.6-42.8,17.2-56.7,23.5c-3.9,1.8-10.7,5.1-15.2,7.3c-4.5,2.3-8.1,4-8.1,3.9c0-0.1,2.8-2.2,6.3-4.7			c27.2-19.7,50.7-41.4,68.4-63c1.9-2.3,3.6-4.4,3.8-4.5L106.8,457.5L106.8,457.5z M92.7,460.9c0.4,0.4-10,12.1-17.1,19.3			c-17.5,17.9-34.9,31.9-56.5,45.5c-2.7,1.7-5.2,3.3-5.5,3.5c-0.6,0.4,0.2-0.5,9.6-10.8c6-6.5,10.5-11.9,15.7-18.6			c3.5-4.5,4.1-5.1,9.1-8.6C61.5,481.5,92.3,460.5,92.7,460.9z"/>
    </g>
    <path class="st3"
          d="M89.9,383.8c-0.8,0-1.5,0.1-2.3,0.1c-15.6,0.8-26,7.7-32.2,21c-5.2,12.1-4.7,27.9,0.1,40		c5.5,11.9,14.4,18.2,29.2,20.5c3.1,0.5,5.2,2.2,11.3,9.3l7.5,8.8h13.6l-9-9.1c-5-5-9-9.3-9-9.7c0-0.4,1.9-1.2,4.2-1.9		c7.6-2.3,13.9-8.2,18.4-17.2c3.6-7.2,4.1-9.5,4.6-18.5C127.6,400.4,113.4,383.6,89.9,383.8L89.9,383.8L89.9,383.8z M101.8,453.9		c-6.6,3.2-16.2,3.8-22.4,1.5c-6.5-2.4-12.7-9.1-15.6-16.7c-3.1-8.3-2.7-23.7,0.9-30.6c5.8-11,13.4-16.1,24.5-16.1		c16.5,0,25.9,10.1,27.1,29.1C117.3,437.1,112,449,101.8,453.9L101.8,453.9z M336.2,406.7c-5.7,0-10,2.3-13,6.8l-2.3,3.6v-9.3h-9.9		v56h9.8V446c0-16.4,0.2-18.3,2.5-22.8c3.2-6.1,8.6-9.2,13.8-7.7l3.5,1v-9.7L336.2,406.7L336.2,406.7L336.2,406.7z M278.3,406.2		c-1.9,0-4,0.3-6,0.7c-13.2,3.4-20.6,16.1-20.2,29c0,10.9,2.1,16.3,7.4,22c10.7,8.8,20.5,9.5,33.6,4.8c2.2-1,4.7-2.1,4.7-2.1v-8.8		l-4.7,2.4c-10.6,4.6-18.6,4.6-25-0.8c-4.1-4.2-5.9-9.1-6.7-14.8h39.7v-7.6C301.1,415.7,291.8,406,278.3,406.2L278.3,406.2		L278.3,406.2z M262.3,430.8c0,0,1.5-9.6,6.9-13.4c2.6-1.8,5.6-2.7,8.6-2.7c2.9,0,5.9,1,8.3,2.8c5,3.8,5.8,13.2,5.8,13.2		L262.3,430.8L262.3,430.8L262.3,430.8L262.3,430.8z M24.8,420.7C14.1,414.2,9.4,409.5,9.9,404c1.7-15.2,20.5-13.1,30.9-7.4		l0.1-10.2c0,0-5.8-2.5-14-2.6c-12.7-0.2-20.8,4-24.7,12.4c-5.6,12.5-0.6,21.9,17.4,32.4c10.1,5.9,14.6,11,14.6,16.6		c0,11.5-13.9,15.5-28.2,8.3c-2.9-1.5-5.4-2.7-5.6-2.7c-0.5,3.3-0.2,11.1-0.2,11.1s4.4,1.8,11,3.1c16.4,3.3,31.3-4.4,32.7-16.9		C45,436.4,40.8,430.3,24.8,420.7C24.8,420.7,24.8,420.7,24.8,420.7z M423.4,406.1c-1.9,0-4,0.3-6.1,0.7		c-13.2,3.4-20.6,16.1-20.1,29c0,10.9,2.1,16.2,7.3,21.9c10.7,8.8,20.5,9.5,33.6,4.8c2.2-1,4.7-2,4.7-2v-8.8l-4.7,2.4		c-10.6,4.6-18.6,4.6-25-0.8c-4.1-4.2-5.9-9.1-6.7-14.8h39.7v-7.6C446.1,415.6,436.9,405.8,423.4,406.1L423.4,406.1L423.4,406.1z		 M407.3,430.7c0,0,1.5-9.6,6.9-13.4c2.6-1.9,5.6-2.8,8.6-2.8c2.9,0,5.9,1,8.3,2.8c5,3.8,5.8,13.3,5.8,13.3L407.3,430.7L407.3,430.7		L407.3,430.7z M226.8,420.8c-10.7-6.5-15.4-11.1-14.8-16.6c1.7-15.2,20.5-13.1,30.9-7.4l0.1-10.2c0,0-5.8-2.5-14-2.6		c-12.7-0.2-20.8,4-24.7,12.4c-5.6,12.5-0.6,21.9,17.4,32.4c10.1,5.9,14.6,10.9,14.6,16.5c0,11.5-13.9,15.6-28.2,8.3		c-2.9-1.5-5.4-2.7-5.6-2.7c-0.5,3.3-0.2,11.1-0.2,11.1s4.3,1.8,10.9,3.1c16.4,3.3,31.3-4.4,32.7-16.9		C247,436.6,242.8,430.4,226.8,420.8L226.8,420.8L226.8,420.8z M481.3,406.6c-5.7,0-10.1,2.3-13,6.9L466,417v-9.3h-9.9v56h9.8v-17.9		c0-16.4,0.2-18.3,2.5-22.8c3.2-6.1,8.6-9.2,13.8-7.7l3.5,1v-9.7L481.3,406.6L481.3,406.6z M148.4,420.5v-35.7h-9.9v79.1h41.8v-9.3		h-31.8L148.4,420.5L148.4,420.5z M378.1,431.6l-8.2,21.3l-7.9-21.4l-8-23.7h-10.2c6.6,18.7,13.8,37.7,21,56.1c3.1,0.1,6.3,0,9.4,0		l11.1-27.8l11.3-28.3h-9.7C386.9,407.8,382.6,419,378.1,431.6L378.1,431.6L378.1,431.6z M171.3,363.2c1.6,0,2.9-0.5,4-1.6		c1.1-1.1,1.7-2.4,1.7-4c0-1.6-0.6-2.9-1.7-4c-1.1-1-2.4-1.5-4-1.5c-1.6,0-2.9,0.5-4,1.6c-1.1,1.1-1.6,2.4-1.6,4		c0,1.6,0.5,2.9,1.6,4C168.4,362.7,169.7,363.2,171.3,363.2L171.3,363.2L171.3,363.2z M167.8,354.2c1-1,2.1-1.4,3.6-1.4		c1.4,0,2.6,0.4,3.5,1.4c1,1,1.5,2.1,1.5,3.5c0,1.4-0.5,2.6-1.5,3.6c-1,1-2.1,1.4-3.5,1.4c-1.4,0-2.6-0.4-3.5-1.4		c-1-1-1.5-2.2-1.5-3.6C166.4,356.3,166.8,355.1,167.8,354.2z M170.2,358.2h0.6c0.5,0,0.9,0.4,1.3,1.3l0.8,1.7h1.2l-1-1.9		c-0.4-0.8-0.8-1.2-1.2-1.3c0.6-0.1,1-0.3,1.3-0.7c0.3-0.3,0.4-0.8,0.4-1.3c0-0.6-0.2-1-0.6-1.3c-0.4-0.4-1.1-0.6-2.1-0.6h-2v7.2h1		v-3L170.2,358.2L170.2,358.2z M170.2,354.9h0.9c0.6,0,1.1,0.1,1.3,0.3c0.2,0.2,0.3,0.4,0.3,0.9c0,0.8-0.5,1.2-1.5,1.2h-1.1		L170.2,354.9L170.2,354.9L170.2,354.9z M6.1,357.5c0-2.5-0.1-4.3-0.1-5.4H6c0.3,1.3,0.6,2.3,0.8,2.9l9.5,21.3H18l9.5-21.5		c0.3-0.6,0.5-1.5,0.8-2.7h0.1c-0.2,2.1-0.3,4-0.3,5.4v18.8h3.3v-27.9h-4.1l-8.8,19.4c-0.3,0.8-0.8,1.9-1.3,3.4h-0.1		c-0.2-0.8-0.6-1.9-1.3-3.3l-8.6-19.6H2.9v27.9H6L6.1,357.5C6,357.6,6.1,357.5,6.1,357.5z M38.6,357.6h2.8V375h-2.8V357.6z		 M40,351.2c0.6,0,1.1-0.2,1.5-0.6c0.4-0.4,0.6-0.9,0.6-1.5c0-0.6-0.2-1.1-0.6-1.5c-0.4-0.4-0.9-0.6-1.5-0.6c-0.6,0-1.1,0.2-1.5,0.6		c-0.4,0.4-0.6,0.9-0.6,1.5c0,0.6,0.2,1.1,0.6,1.5C39,351,39.4,351.2,40,351.2C40,351.2,40,351.2,40,351.2z M61.5,375.4v-3.1		c-1.5,1.2-3.2,1.7-4.9,1.7c-2.1,0-3.7-0.7-4.9-2.1c-1.2-1.3-1.9-3.2-1.9-5.5c0-2.4,0.6-4.3,2-5.8c1.3-1.4,2.9-2.1,5-2.1		c1.7,0,3.3,0.5,4.7,1.5v-3.3c-1.3-0.7-2.9-1-4.6-1c-3.2,0-5.7,1-7.6,3c-1.8,2-2.8,4.7-2.8,7.9c0,2.9,0.8,5.3,2.6,7.2		c1.8,1.9,4.1,2.9,6.9,2.9C58.2,376.7,59.9,376.3,61.5,375.4z M69.5,366.1c0-2.3,0.5-4.2,1.5-5.4c0.9-1.2,2-1.7,3.3-1.7		c1.1,0,1.9,0.2,2.4,0.6v-3.3c-0.4-0.2-1.1-0.3-1.9-0.3c-1.2,0-2.2,0.4-3.1,1.1c-1,0.8-1.7,1.9-2.2,3.4h-0.1v-4.1h-3.2v20h3.2		L69.5,366.1L69.5,366.1z M87.9,376.7c3,0,5.4-1,7.2-2.9c1.8-1.9,2.7-4.5,2.7-7.7c0-3.3-0.8-5.8-2.5-7.6c-1.7-1.9-4-2.8-7-2.8		s-5.4,0.9-7.2,2.6c-1.9,1.9-2.9,4.6-2.9,8.1c0,3,0.8,5.5,2.6,7.4C82.5,375.8,84.9,376.7,87.9,376.7L87.9,376.7L87.9,376.7z		 M83.4,360.5c1.2-1.3,2.8-1.9,4.8-1.9c2.1,0,3.6,0.6,4.7,1.9c1.2,1.3,1.7,3.3,1.7,5.8c0,2.4-0.5,4.3-1.6,5.6		c-1.1,1.3-2.7,2.1-4.8,2.1c-2.1,0-3.6-0.7-4.9-2.1c-1.2-1.3-1.8-3.2-1.8-5.6C81.4,363.9,82.1,361.9,83.4,360.5z M111.8,375		c1.2-1.1,1.9-2.4,1.9-4.1c0-1.5-0.5-2.7-1.5-3.6c-0.8-0.8-2-1.5-3.7-2.2c-1.5-0.6-2.5-1.2-3-1.7c-0.5-0.5-0.8-1.2-0.8-2.1		c0-0.8,0.3-1.5,1-2c0.6-0.5,1.5-0.8,2.6-0.8c1.7,0,3.2,0.5,4.5,1.4v-3.2c-1.3-0.6-2.7-1-4.3-1c-2.1,0-3.8,0.6-5.1,1.7		c-1.3,1.1-2,2.5-2,4.2c0,1.5,0.4,2.7,1.3,3.6c0.7,0.8,1.9,1.5,3.6,2.2c1.6,0.7,2.7,1.3,3.3,1.9c0.6,0.5,0.8,1.2,0.8,1.9		c0,1.9-1.3,2.8-3.8,2.8c-1.9,0-3.6-0.6-5.2-1.9v3.4c1.4,0.8,3.1,1.2,4.9,1.2C108.7,376.7,110.5,376.2,111.8,375L111.8,375		L111.8,375z M127,355.8c-3,0-5.4,0.9-7.2,2.6c-1.9,1.9-2.9,4.6-2.9,8.1c0,3,0.8,5.5,2.6,7.4c1.8,1.9,4.2,2.9,7.2,2.9		c3.1,0,5.4-1,7.2-2.9c1.8-1.9,2.7-4.5,2.7-7.7c0-3.3-0.8-5.8-2.5-7.6C132.3,356.7,130,355.8,127,355.8L127,355.8L127,355.8z		 M133.3,366.3c0,2.4-0.5,4.3-1.6,5.6c-1.1,1.3-2.7,2.1-4.8,2.1c-2.1,0-3.6-0.7-4.9-2.1c-1.2-1.3-1.8-3.2-1.8-5.6		c0-2.6,0.6-4.5,1.9-5.9c1.2-1.3,2.8-1.9,4.8-1.9c2,0,3.6,0.6,4.7,1.9C132.7,361.8,133.2,363.7,133.3,366.3L133.3,366.3L133.3,366.3		z M141.9,376.3h3.2V359h4.7v-2.7h-4.7v-3.1c0-2.8,1.1-4.2,3.3-4.2c0.8,0,1.5,0.2,2.1,0.5v-2.9c-0.6-0.3-1.3-0.3-2.3-0.3		c-1.7,0-3.1,0.5-4.3,1.6c-1.3,1.3-2.1,2.9-2.1,5.2v3.3h-3.4v2.7h3.4L141.9,376.3L141.9,376.3z M155,370.8c0,3.9,1.7,5.9,5.2,5.9		c1.3,0,2.2-0.2,3-0.7v-2.7c-0.6,0.4-1.3,0.6-2.1,0.6c-1.1,0-1.8-0.3-2.3-0.8c-0.5-0.6-0.7-1.5-0.7-2.9V359h5.1v-2.7h-5.1v-5.9		c-1.1,0.4-2.2,0.7-3.2,1v4.9h-3.4v2.7h3.4L155,370.8L155,370.8z M498.3,407.6c-1.1-1-2.4-1.5-4-1.5c-1.6,0-2.9,0.5-4,1.6		c-1.1,1.1-1.6,2.4-1.6,4c0,1.6,0.5,2.9,1.6,4c1.1,1,2.4,1.5,4,1.5c1.6,0,2.9-0.5,4-1.6c1.1-1.1,1.7-2.4,1.7-4		C499.9,410,499.4,408.7,498.3,407.6L498.3,407.6z M497.8,415.2c-1,1-2.1,1.4-3.5,1.4c-1.4,0-2.6-0.4-3.5-1.4c-1-1-1.5-2.2-1.5-3.6		c0-1.4,0.4-2.6,1.4-3.5c1-1,2.1-1.4,3.6-1.4c1.4,0,2.6,0.4,3.5,1.4c1,1,1.5,2.1,1.5,3.5C499.2,413.1,498.8,414.2,497.8,415.2z		 M494.9,411.9c0.6-0.1,1-0.4,1.3-0.7c0.3-0.3,0.4-0.8,0.4-1.3c0-0.6-0.2-1-0.6-1.3c-0.4-0.4-1.2-0.6-2.1-0.6h-2v7.2h1v-3h0.6		c0.4,0,0.9,0.4,1.3,1.3l0.8,1.7h1.2l-1-1.9C495.7,412.4,495.3,412,494.9,411.9L494.9,411.9L494.9,411.9z M494.2,411.3h-1.1v-2.4		h0.9c0.6,0,1.1,0.1,1.3,0.3c0.3,0.2,0.3,0.4,0.3,0.9C495.7,410.9,495.1,411.3,494.2,411.3L494.2,411.3L494.2,411.3z M315.7,355.5		h0.9v-7.2h2.4v-0.9h-5.6v0.9h2.4L315.7,355.5L315.7,355.5z M321.2,350.1c0-0.7,0-1.3-0.1-1.6c0.1,0.4,0.2,0.6,0.2,0.8l2.8,6.1h0.4		l2.8-6.2c0.1-0.2,0.1-0.4,0.3-0.8c-0.1,0.6-0.1,1.2-0.1,1.5v5.4h1v-8.1h-1.2l-2.5,5.6c-0.1,0.2-0.3,0.6-0.4,1h-0.1		c-0.1-0.3-0.2-0.5-0.4-1l-2.5-5.6h-1.3v8.1h0.9L321.2,350.1L321.2,350.1L321.2,350.1z"/>
  </g>
</svg>
