<svg xmlns="http://www.w3.org/2000/svg" width="500" height="500" viewBox="0 0 500 500">
  <style type="text/css">
    .st0{fill:#939FAB;}
    .st1{fill:#EE352C;}
  </style>
  <g>
    <path class="st0"
          d="M304,235.1l-90.2,29.5l-78.4,34.6l-22,5.8c-5.6,5.3-11.5,10.7-17.8,16.1c-7,6-13.4,11.5-18.4,15.4		c-5.5,4.3-13.7,12.5-17.8,17.7c-6.2,7.8-11.1,16-13.2,22.3c-3.7,11.5-1.9,23,5.3,33.7c9.3,13.6,27.7,27.5,49.2,37		c10.9,4.9,29.5,11,43.3,14.5c23.1,5.8,67.8,12.2,92.4,13.1c4.9,0.2,11.6,0.2,11.9,0c0.5-0.4,4.3-7.6,8.8-16.7		c15.1-30.9,26-59.8,31.9-84.5c3.5-15,6.4-34.9,8.2-58.6c0.4-6.6,0.7-28.8,0.3-36.3c-0.6-12.3-1.7-22.2-3.4-31.9		c-0.3-1.4-0.4-2.7-0.2-2.8c0.3-0.2,1.1-0.4,12.2-3.7L304,235.1L304,235.1z M283.4,247.1c0.8,0,3,20.9,3.5,34.1		c0.1,2.8,0.1,4.6-0.1,4.6c-0.5,0-11.5-6.4-19.3-11.4c-6.8-4.3-19.8-12.9-21.8-14.5c-0.7-0.4-0.6-0.5,4.9-2.5		C260.1,254.4,282.6,247.1,283.4,247.1z M237.5,262.3c0.6,0,2.2,0.9,5.9,3.2c14,8.8,33.1,19.4,41.3,22.9c2.5,1.1,2.8,0.7-3,4.6		c-12.4,8.5-27.9,16.8-46.8,25.1c-3.4,1.5-6.1,2.6-6.2,2.6c-0.1,0,0.3-1.7,0.8-3.7c4.6-16.9,7.1-34.1,7.3-47.9		C236.8,262.4,236.8,262.4,237.5,262.3C237.3,262.3,237.4,262.3,237.5,262.3z M228,265.9c0.4,0.4,0.1,15.7-0.4,19.9		c-1.2,10-3.1,19.2-6.3,29.6c-0.7,2.5-1.4,4.6-1.6,4.8c-0.3,0.4-9.6-8.8-12.7-12.4c-5.3-6.1-9.4-12.3-12.5-18.3		c-1.6-3.1-4-9.1-3.8-9.3C191.8,279.5,227.7,265.7,228,265.9L228,265.9z M183.5,283.4c0.1,0,0.1,0,0.2,0.1c0.1,0.1,0.6,1.2,1,2.5		c2.2,5.9,7.1,14.6,11.3,20.2c4.6,6.1,10.7,12.7,15.7,16.9c1.6,1.3,3.1,2.6,3.4,2.8c0.4,0.4,0.5,0.4-10.6,4.6		c-12.9,4.9-26.9,9.8-43,15c-3.8,1.3-7.6,2.5-11.5,3.7c-0.6,0.2-0.4-0.1,1.3-2.9c7.9-12.4,20.1-36.9,26.9-54.3c1.1-3,2.3-6,2.5-6.7		c0.3-1,0.6-1.3,1.5-1.8C182.8,283.6,183.2,283.4,183.5,283.4L183.5,283.4z M169.8,289c0.2,0.1-3.3,7.4-6.7,14.1		c-6.6,12.9-13.9,25.6-23.5,40.9c-1.6,2.6-3.2,5.1-3.4,5.4c-0.4,0.4-0.4,0.4-1.6-1.8c-2.3-4.6-4.2-10.4-5.2-15.8		c-1-5.3-0.8-14.6,0.4-20.3c0.9-4.2,0.8-4.1,2.8-5.2C141.3,302,169.5,288.8,169.8,289z M287.3,293.8v2.8c0,15.2-1.6,36-4,51.3		c-0.4,2.6-0.7,4.9-0.8,4.9c0,0-1.9-0.5-4.3-1.2c-10.2-3.2-21.4-7.9-31.3-13.4c-6.6-3.6-16.2-9.5-16-9.8c0.1-0.1,2.9-1.6,6.3-3.4		c13.3-7,26.2-14.5,37.2-21.9c4.1-2.8,10.4-7.3,11.8-8.5C286.2,294.6,287.3,293.8,287.3,293.8z M118.4,314c0.3,0,0.2,0.5-0.2,3		c-0.3,1.8-0.6,5-0.7,7.3c-0.5,10,1.1,17.3,6,27.4c1.3,2.8,2.5,5.1,2.4,5.2c-0.4,0.4-45.6,13.6-59.7,17.5c-4.2,1.1-7.9,2.2-8.2,2.2		c-0.4,0.1-0.5,0.1-0.4-1.1c1.6-10,9.2-23.1,19.9-34.1c7.1-7.3,12.7-11.6,22.4-17.2c7-4,17.6-9.9,18.4-10.1		C118.3,314,118.3,314,118.4,314L118.4,314z M224.7,333c0.1-0.1,1.7,0.8,3.7,1.9c14.6,8.5,34.8,16.3,52.2,20.3l1.6,0.4l-2.2,1.2		c-9.1,5-38.8,17.5-69.3,28.9c-4.4,1.6-8.8,3.3-9.6,3.6c-0.8,0.4-1.6,0.5-1.6,0.4c0-0.1,1.2-2.5,2.8-5.4c8.5-16,17.1-35.4,21.4-48.9		C224.2,334.2,224.6,333.1,224.7,333L224.7,333z M213.8,336.6c0.1,0.1-0.4,1.5-1.1,3.1c-5.9,14.4-13.7,30.1-23.6,47.6		c-2.5,4.5-4.6,8.1-4.7,8.1s-2.1-1.2-4.6-2.7c-14.5-8.8-27.3-19.8-35.6-30.4l-1.2-1.5l6.2-1.7c22.2-6.1,41.1-12.6,59.8-20.6		C211.6,337.5,213.7,336.6,213.8,336.6L213.8,336.6z M281.1,360.1C281.1,360.1,281.2,360.2,281.1,360.1c0.1,1.6-3.4,15.6-6.3,25.8		c-2.4,8.5-4.4,15.2-8.2,27c-1.6,5.2-3.1,9.4-3.1,9.4c-0.1,0-0.4-0.1-0.9-0.2c-20.2-3.7-38.4-8.8-55.4-15.6		c-4.8-1.9-11.6-4.9-12-5.3c-0.1-0.1,4-2,9.1-4.3c31-13.6,63.2-28.9,74.2-35.6C279.9,360.5,280.9,360.1,281.1,360.1L281.1,360.1z		 M125.7,365.4c0.1,0.1-8.5,12.6-20.6,29.6c-4.2,5.9-9.1,12.9-10.9,15.4c-1.9,2.6-4.6,6.7-6.2,9.1l-2.8,4.4l-3.1-2.6		c-3.6-3-9.9-9.4-12.7-13c-5.8-7.3-9.8-15-11.4-22c-0.7-3.3-0.7-4.9-0.1-5.1c1-0.3,19.2-4.6,36.3-8.5c9.4-2.2,20.5-4.8,24.4-5.7		C122.4,366.2,125.7,365.4,125.7,365.4z M134.4,368.7l2.2,2.5c9.8,10.9,19.9,19.1,31.9,26.2c2.2,1.2,3.8,2.3,3.7,2.4		c-0.4,0.4-42.1,15.1-61.4,21.8c-10.9,3.8-19.8,6.9-19.9,6.9c-0.1,0-0.7-0.4-1.3-0.9l-1.2-0.9l1.9-2.8c6.4-9.3,14.5-19.4,31.9-40.5		C122.3,383.2,134.4,368.7,134.4,368.7z M188.8,407.6c0.1-0.1,3.1,1,6.7,2.4c8.8,3.4,15.9,5.5,25.3,7.9c11.6,2.9,28.3,5.8,38.2,6.6		c1.5,0.1,2.3,0.3,2,0.4c-0.4,0.3-10.5,3.6-17.8,5.9c-11.7,3.7-47.5,14.2-76.7,22.6c-5.4,1.6-10,2.8-10.3,2.9		c-0.7,0.1-2.9-0.4-2.9-0.7c0-0.1,1.6-2.2,3.6-4.6c9.8-11.7,19.6-24.8,27.7-37.2C186.9,410.5,188.8,407.7,188.8,407.6L188.8,407.6z		 M176.8,408c0.1,0.1-4.8,7.9-13.2,21.2c-3.6,5.6-7.6,12.1-9.1,14.3c-1.3,2.2-3.4,5.6-4.6,7.5l-1.9,3.4l-1-0.3		c-2.5-0.7-19.7-6.7-24.3-8.6c-5.6-2.2-11.5-4.9-15.9-7.3c-5.5-2.9-12.3-7.3-11.7-7.4c0.1-0.1,9.4-2.6,20.7-5.6		c29.8-8.1,46.4-12.8,57.3-16.2C175.1,408.4,176.8,407.9,176.8,408L176.8,408z M261.6,427.8c0.4,0.7-10.7,31.3-14.7,41		c-0.9,2.2-1.2,2.7-1.7,2.6c-1.1-0.1-17.2-2.3-26.9-3.7c-16.9-2.6-45.4-7.6-52.6-9.2l-1.6-0.4l10.1-2.3c21.8-4.9,32.3-7.6,42.9-10.9		c13.4-4.1,26.7-9.2,40.1-15.4C259.4,428.7,261.2,427.9,261.6,427.8L261.6,427.8z"/>
    <path class="st0"
          d="M211,25c-1.5-0.2-25.7,8.5-41.3,14.8c-21.1,8.6-37.4,16.8-47.5,23.8c-3.7,2.6-8.5,7.3-9.2,9.2		c-0.3,0.7-0.4,1.5-0.4,2.3l9.1,8.6l21.7,7l51.7,9.3l59.1,10.1l0.6-5.1c-0.2,0-0.4-0.1-0.5-0.1l-7.8-1.2l-1.6-2.8		c-8-14.2-16.9-31.8-22.1-43.6c-4-9.2-7.9-19.9-10-27.4C211.9,25.4,211.8,25.1,211,25z M209.9,28.5c0.1,0.1,0.4,1.9,0.7,4.2		c1.1,9.5,3.3,18.7,6.6,28.7c2.5,7.5,2.5,7.1-0.4,6.2c-7-1.9-38.1-7.3-60.6-10.4c-3.6-0.4-6.7-1-6.7-1c-0.3-0.3,16.3-8.9,23.6-12.4		C182.4,39.5,208,28.8,209.9,28.5L209.9,28.5z M144.3,59l2.6,0.9c14.5,4.9,50.7,11.8,70.7,13.5c2.2,0.2,4.1,0.4,4.2,0.4		c0.1,0.1-1.9,1.1-4.3,2.2c-9.7,4.9-20.3,10.8-27.7,15.4c-2.2,1.3-4.1,2.5-4.4,2.5s-1.7-0.3-3.2-0.4l-2.7-0.4l-6.8-6.7		c-12-11.6-21.4-20.6-25-24.1L144.3,59L144.3,59z M141.6,61.1l9.6,12c5.2,6.6,10.6,13.1,11.7,14.5c1.1,1.4,2.1,2.6,2,2.6		c-0.3,0.2-13.9-2.5-21.1-4.1c-7.4-1.7-10.5-2.5-15.1-4l-3.7-1.2v-1c0.1-4.6,5.8-11.4,15.7-18.4C140.7,61.7,141.6,61.1,141.6,61.1z		 M223.2,77.5c0.3,0,0.6,0.6,1.4,2.5c2.3,5.1,9.5,18.9,11.3,21.5c0.5,0.9,1.5,1-8.1-0.6c-23.1-3.7-30.5-4.9-30.5-5.1		c0-0.1,0.7-0.5,1.6-1c7.1-4,14.4-9,20.8-14.4c1.6-1.3,3-2.5,3.3-2.7C223,77.5,223.1,77.4,223.2,77.5L223.2,77.5z"/>
    <path class="st1"
          d="M113.5,71.9c0,0-1.5,2.4-0.1,5.9c0.9,2.2,3.4,4.9,6.4,7.6c0,0,30.4,29.6,34,33.8		c16.8,19.3,24.1,38.4,24.7,64.8c0.4,16.9-2.8,31.8-10.8,49c-14.2,30.9-44.1,65.1-90.2,102.9l6.7-2.2c4.3-3.3,10.3-6.7,24.2-14.4		c32.1-17.6,68.2-33.7,112.5-50.4c63.8-24,168.6-52.1,228.3-61.2l6.2-1l-1-1.5c-5.5-8.5-9.2-13.7-13.7-19.3		c-13.1-16.2-28.9-29.4-48.3-40.2c-26.7-14.9-61.2-26.6-105-35.2c-8.2-1.6-26.4-4.8-41.1-7c-31.2-4.9-51.3-8.2-73.6-12		c-7.9-1.3-19.9-3.4-27.8-5.1c-4.1-0.9-11.9-2.7-18.1-4.9C122.1,79.6,115,77.8,113.5,71.9L113.5,71.9z M131.1,89		c0.1-0.1,1.1,0.4,2.6,0.8c2.6,0.9,5.9,1.9,9.9,3c3,0.8,6,1.6,9,2.4c4.1,1,7.5,1.9,7.6,1.9c0.4,0.4,7.3,22.5,9.7,31		c0.9,3.2,1.6,5.9,1.5,5.9c-0.1,0.1-0.8-1.1-1.7-2.6c-7.9-14-20.6-28.3-35.1-39.7C132.6,90.3,131.1,89.1,131.1,89z M164.6,98.2		c0.4,0,1.9,0.2,3.7,0.6c11.6,2.6,32.4,6.5,45.6,8.8c2.2,0.4,4,0.7,4,0.9s-0.8,0.6-1.9,1.1c-2.2,1.1-11.3,6.5-14.3,8.6		c-7.6,5-14.4,10.5-19.3,15.4c-1.9,1.9-3.7,3.6-3.7,3.6s-0.4-1.1-0.7-2.6c-2.5-9.4-7.6-23.5-12.2-33.4		C165.2,99.7,164.6,98.3,164.6,98.2C164.6,98.3,164.6,98.2,164.6,98.2z M223.6,109.5c0.4,0.1,1.1,2.5,2.5,7.6		c2.5,9.9,3.7,20.9,3.3,31.2c-0.1,2.8-0.3,5.5-0.4,5.8l-0.2,0.7l-3.5-1.1c-7.3-2.3-19.1-5.8-29.3-8.6c-5.8-1.6-10.5-3-10.5-3.1		c0-0.4,8.5-8.8,12.1-12.1C204.4,123.7,223,109.2,223.6,109.5L223.6,109.5z M228.3,110.1c0.2-0.2,28.2,4.6,40.9,7.1		c9.4,1.9,23.2,4.7,24.1,5c0.4,0.1-1,1-5.6,3c-18,8.1-31.3,15.4-44.6,24.3c-3.4,2.3-6.4,4.2-6.4,4.2s-0.1-1.9-0.1-4.3		c0-13-2.6-26-7.3-37.1C228.6,111.3,228.3,110.2,228.3,110.1L228.3,110.1z M300.7,124.5c0.2,0.2-0.7,5.7-1.5,9		c-2.5,10.1-9.1,25.2-17.2,39.3c-1.4,2.5-2.7,4.6-2.8,4.6c-0.1,0.1-1.9-1-4.1-2.2c-7.9-4.6-16.9-9-26.7-13.1		c-2.7-1.1-5.1-2.1-5.2-2.2c-0.4-0.4,21.4-14.9,33.1-21.9C285.5,132.5,300.4,124.2,300.7,124.5L300.7,124.5z M305.9,125.3		c0.6,0,13,3.4,19.5,5.3c16,4.8,34.4,11.5,46.4,16.9l4.9,2.2l-3.4,0.8c-29.3,6.7-54.3,14.5-78.5,24.4c-1.9,0.8-3.7,1.5-3.9,1.5		c-0.1,0,0.5-1.6,1.4-3.4c7.3-15.4,12-31.6,13.1-45.3C305.5,126.3,305.7,125.3,305.9,125.3z M182.5,153.6c0.2-0.2,9.7,2,14.8,3.4		c7.8,2.2,24.3,7.7,24.3,8.1c0,0.1-1.9,1.6-4,3.5c-8.9,7.4-17.5,15.3-27.8,25.2c-3.1,2.9-5.6,5.3-5.8,5.3c-0.1,0-0.2-0.4-0.1-1		c1.6-11.5,1.2-26.2-1-41.1C182.6,155.3,182.4,153.7,182.5,153.6L182.5,153.6z M381.5,153.8c0.1,0.1-4.3,7.2-7.2,11.2		c-4.1,5.8-10.1,13.6-23.6,30.7c-7.1,9-15.2,19.1-17.8,22.6c-2.7,3.4-4.9,6.3-5,6.3s-1-1.2-1.9-2.7c-7.6-11.5-16.8-21.4-27.6-30.4		c-2-1.7-4.3-3.5-5-4.1c-0.7-0.5-1.3-1.1-1.3-1.1c0-0.2,11.6-5.2,20.4-8.7c15.4-6.3,36.3-13.8,52.1-18.6		C372.5,156.2,381.3,153.7,381.5,153.8z M386.7,155.2c0.3-0.1,1.9,0.7,3.9,1.9c16.6,9.4,32.8,21.7,45.6,34.2		c3.6,3.5,12.5,12.8,12.4,12.9c0,0-3.1,0.3-6.8,0.5c-28.7,2.2-65.4,8.2-100.7,16.8c-2.4,0.5-4.5,1-4.6,1s2.5-2.6,5.8-5.8		c20.7-19.9,30.2-32.6,41.4-55C385.2,158.3,386.6,155.4,386.7,155.2C386.6,155.2,386.6,155.2,386.7,155.2L386.7,155.2z M235,170.7		c1,0.2,9.8,4.3,16.5,7.7c6.1,3.1,15.4,7.9,15.8,8.4c0.1,0.1-3.2,1.8-7.2,3.7c-12.8,6.4-23.8,12.4-35.2,19.4c-3.3,1.9-6,3.6-6.1,3.6		c-0.3,0-0.2-0.3,1.6-3.6c6.1-11.2,11-24.5,13.9-37.5C234.5,171.4,234.8,170.7,235,170.7z M226.2,172.3c0.2,0.2-2.1,8.6-3.5,13.1		c-2.8,8.6-7.5,19.5-12.1,27.7c-1.1,1.9-2.7,4.7-3.6,6.3l-1.7,2.7l-3.8-3.7c-4.4-4.3-8-7-12.7-9.4c-1.9-1-3.3-1.8-3.3-1.9		c0-0.5,11.6-11.1,20.6-18.7C212.5,183,225.9,172.2,226.2,172.3z M280.3,194.7l3.4,2.2c7.6,4.9,16.6,11.6,23.5,17.4		c3.9,3.2,11.4,10,12.9,11.6l0.8,0.9l-5.5,1.6c-31.2,8.6-55.3,16.3-83.5,26.7c-3.1,1.1-5.8,2.1-6,2.1c-0.4,0-0.7,0.4,6.3-6.1		c18-16.6,34-34.8,45.8-52.6L280.3,194.7L280.3,194.7z M266,198.2c0.1,0.1-9.2,13.3-14.8,20.7c-6.7,8.8-18.5,23.7-26.7,33.4		c-3.4,4-6.4,7.3-6.4,7.4c-0.2,0.1-0.3-1-0.3-2.5c0-8.2-2.1-17-5.8-24.5c-1.6-3.1-1.9-3.9-1.5-4.2c1.3-1.1,21.1-12.4,33.7-19.2		C252.6,204.7,265.9,198.1,266,198.2L266,198.2z M179.9,219.3c0.2,0,1.8,0.8,3.5,1.8c4.3,2.4,8.2,5,11.7,7.9c0.1,0.1-1.6,1.6-4,3.3		c-6.4,4.6-16.3,12.1-22,16.6c-6,4.8-6.2,4.9-5.5,3.9c4.5-6.9,6.7-10.8,9.1-15.7c2.1-4.4,4.2-9.7,5.7-14.2		C179.1,220.8,179.8,219.3,179.9,219.3z M202.9,237.3c0.4-0.1,0.7,0.5,2.6,3.3c3.9,5.8,6.9,13.6,7.6,19.9l0.1,1.3l-9.4,3.6		c-16.7,6.4-32.1,12.9-42.5,17.6c-2.9,1.3-8,3.8-11.4,5.5c-3.4,1.7-6.1,3-6.1,2.9c0-0.1,2.1-1.6,4.7-3.5c20.4-14.8,38-31,51.3-47.2		C201.4,239,202.7,237.4,202.9,237.3C202.9,237.3,202.9,237.3,202.9,237.3z M192.4,239.9c0.3,0.3-7.5,9.1-12.8,14.5		c-13.1,13.4-26.2,23.9-42.3,34.1c-2,1.3-3.9,2.5-4.1,2.6c-0.4,0.3,0.1-0.4,7.2-8.1c4.5-4.9,7.9-8.9,11.8-13.9		c2.6-3.4,3.1-3.8,6.8-6.4C169,255.3,192.1,239.6,192.4,239.9L192.4,239.9z"/>
  </g>
</svg>
