<svg xmlns="http://www.w3.org/2000/svg" width="500" height="500" viewBox="0 0 500 500">
  <style>
    .st1{fill:#939fab}
    .st2{fill:#ee352c}
    .st3{fill:#ffffff}
  </style>
  <g transform="matrix(.569 0 0 .569 199.451 -82.735)">
    <path class="st1"
          d="m241.6 454.5-120.3 39.3L16.7 540l-29.3 7.7c-7.5 7.1-15.3 14.3-23.7 21.5-9.3 8-17.9 15.3-24.5 20.5-7.4 5.8-18.3 16.7-23.8 23.6-8.3 10.4-14.8 21.4-17.6 29.8-5 15.3-2.5 30.7 7.1 45 12.4 18.2 37 36.7 65.7 49.4 14.6 6.5 39.3 14.7 57.8 19.4 30.8 7.8 90.4 16.3 123.3 17.5 6.6.3 15.5.3 15.9 0 .7-.5 5.8-10.2 11.7-22.3 20.2-41.2 34.7-79.8 42.6-112.8 4.7-20 8.5-46.6 10.9-78.2.6-8.8.9-38.4.4-48.4-.8-16.4-2.3-29.6-4.5-42.6-.4-1.9-.5-3.6-.3-3.7.4-.3 1.5-.6 16.3-4.9l-3.1-7zm-27.5 16.1c1.1 0 4 27.9 4.7 45.5.2 3.7.1 6.2-.1 6.2-.7 0-15.4-8.6-25.8-15.2-9.1-5.7-26.4-17.2-29.1-19.4-.9-.6-.8-.7 6.6-3.3 12.7-4.1 42.7-13.8 43.7-13.8zm-61.2 20.2c.8 0 2.9 1.2 7.9 4.3 18.7 11.7 44.2 25.9 55.1 30.6 3.4 1.5 3.7.9-4 6.2-16.5 11.3-37.2 22.4-62.5 33.5-4.5 2-8.2 3.5-8.3 3.5-.2 0 .4-2.3 1.1-5 6.1-22.6 9.5-45.5 9.7-63.9.1-9 .1-9 1-9.2-.2 0-.1 0 0 0zm-12.7 4.8c.5.5.2 20.9-.5 26.5-1.6 13.3-4.2 25.6-8.4 39.5-1 3.4-1.9 6.2-2.1 6.4-.4.5-12.8-11.7-16.9-16.5-7.1-8.2-12.6-16.4-16.7-24.4-2.1-4.1-5.4-12.1-5.1-12.4 1.4-.9 49.4-19.4 49.7-19.1zM80.8 519c.1 0 .2 0 .3.1.2.2.8 1.6 1.4 3.3 2.9 7.9 9.5 19.5 15.1 27 6.2 8.2 14.3 16.9 21 22.6 2.2 1.8 4.2 3.5 4.5 3.8.5.5.7.5-14.1 6.1-17.2 6.5-35.9 13.1-57.4 20-5.1 1.7-10.2 3.3-15.4 5-.8.3-.5-.2 1.8-3.9 10.6-16.6 26.8-49.3 35.9-72.4 1.5-4 3.1-8 3.4-8.9.4-1.3.8-1.7 2-2.4.6-.1 1.2-.3 1.5-.3zm-18.2 7.5c.3.2-4.4 9.9-8.9 18.8-8.8 17.2-18.5 34.1-31.4 54.6-2.2 3.5-4.3 6.8-4.5 7.2-.5.6-.6.5-2.1-2.4-3.1-6.1-5.6-13.9-7-21.1-1.4-7.1-1.1-19.5.5-27.1 1.2-5.6 1.1-5.5 3.8-6.9 11.6-5.8 49.2-23.4 49.6-23.1zm156.8 6.4v3.8c0 20.3-2.2 48.1-5.4 68.4-.5 3.5-1 6.5-1.1 6.5 0 0-2.6-.7-5.7-1.6-13.6-4.3-28.5-10.5-41.8-17.9-8.8-4.8-21.6-12.7-21.3-13.1.1-.1 3.9-2.1 8.4-4.5 17.8-9.3 34.9-19.3 49.7-29.2 5.5-3.7 13.9-9.7 15.7-11.4l1.5-1zM-6 559.8c.4 0 .3.7-.3 4-.4 2.4-.8 6.7-1 9.7-.7 13.3 1.5 23.1 8 36.5 1.8 3.7 3.3 6.8 3.2 6.9-.6.5-60.8 18.2-79.7 23.4-5.6 1.5-10.5 2.9-10.9 3-.6.2-.7.1-.5-1.5 2.1-13.4 12.3-30.8 26.5-45.5 9.5-9.8 17-15.5 29.9-22.9 9.3-5.3 23.5-13.2 24.6-13.5 0-.1.1-.1.2-.1zm141.8 25.4c.1-.1 2.3 1.1 4.9 2.6 19.5 11.3 46.5 21.7 69.6 27.1l2.1.5-2.9 1.6c-12.1 6.7-51.8 23.3-92.4 38.5-5.9 2.2-11.7 4.4-12.8 4.8-1.1.5-2.1.7-2.1.6 0-.1 1.6-3.3 3.7-7.2 11.4-21.3 22.8-47.2 28.6-65.2.7-1.7 1.2-3.2 1.3-3.3zm-14.5 4.7c.1.1-.6 2-1.5 4.2-7.9 19.2-18.3 40.1-31.5 63.5-3.4 6-6.2 10.8-6.3 10.8-.1 0-2.8-1.6-6.1-3.6-19.3-11.8-36.4-26.4-47.5-40.5l-1.6-2 8.3-2.3c29.6-8.1 54.8-16.8 79.8-27.5 3.4-1.4 6.3-2.6 6.4-2.6zm89.8 31.4s.1.1 0 0c.1 2.1-4.5 20.8-8.4 34.4-3.2 11.4-5.9 20.3-10.9 36-2.2 6.9-4.1 12.6-4.2 12.6-.1 0-.6-.1-1.2-.3-27-4.9-51.2-11.7-73.9-20.8-6.4-2.5-15.5-6.6-16-7.1-.2-.2 5.3-2.7 12.2-5.7 41.4-18.1 84.3-38.6 99-47.5 1.8-1.1 3.1-1.6 3.4-1.6zM3.8 628.4c.2.2-11.4 16.8-27.5 39.5-5.6 7.9-12.2 17.2-14.6 20.6-2.5 3.5-6.2 8.9-8.3 12.2l-3.8 5.9-4.1-3.5c-4.8-4-13.2-12.5-16.9-17.3-7.8-9.7-13.1-20-15.2-29.4-1-4.4-1-6.5-.1-6.8 1.4-.4 25.6-6.1 48.4-11.4 12.6-2.9 27.3-6.4 32.5-7.6 5.2-1.2 9.5-2.2 9.6-2.2zm11.6 4.4 2.9 3.3c13.1 14.6 26.5 25.5 42.6 34.9 2.9 1.6 5.1 3.1 4.9 3.2-.6.5-56.2 20.2-81.9 29.1-14.5 5.1-26.4 9.2-26.5 9.2-.1 0-.9-.5-1.8-1.2l-1.6-1.2 2.6-3.8c8.5-12.4 19.3-25.9 42.6-54.1l16.2-19.4zm72.5 51.9c.1-.1 4.1 1.4 9 3.2 11.8 4.5 21.2 7.3 33.7 10.5 15.5 3.9 37.8 7.7 51 8.8 2 .2 3.1.4 2.7.6-.6.4-14 4.8-23.8 7.9-15.6 4.9-63.4 19-102.3 30.2-7.2 2.1-13.4 3.8-13.7 3.9-.9.2-3.9-.6-3.9-1 0-.2 2.2-3 4.8-6.1 13.1-15.6 26.1-33.1 36.9-49.6 3.1-4.6 5.6-8.3 5.6-8.4zm-16 .5c.1.1-6.4 10.5-17.6 28.3-4.8 7.5-10.2 16.1-12.1 19.1-1.8 2.9-4.5 7.5-6.1 10l-2.6 4.6-1.4-.4c-3.3-.9-26.3-9-32.4-11.5-7.5-3-15.4-6.6-21.2-9.7-7.3-3.9-16.4-9.7-15.6-9.9.2-.1 12.6-3.5 27.6-7.5 39.8-10.8 61.9-17.1 76.4-21.6 2.7-.9 5-1.5 5-1.4zm113.2 26.5c.5.9-14.3 41.8-19.6 54.7-1.2 2.9-1.6 3.6-2.3 3.5-1.5-.1-22.9-3.1-35.9-5-22.6-3.5-60.6-10.1-70.2-12.3l-2.2-.5 13.5-3.1c29.1-6.5 43.1-10.1 57.3-14.5 17.9-5.5 35.6-12.3 53.5-20.6 2.9-1.1 5.3-2.1 5.9-2.2z"/>
    <path class="st1"
          d="M117.6 174.2c-2-.3-34.3 11.4-55.1 19.8-28.1 11.5-49.9 22.4-63.4 31.8-5 3.5-11.3 9.8-12.3 12.3-.4.9-.5 2-.5 3.1l12.2 11.5 29 9.3 69 12.4 78.9 13.5.8-6.8c-.3 0-.5-.1-.7-.1l-10.4-1.6-2.1-3.7c-10.7-18.9-22.5-42.4-29.5-58.2-5.4-12.3-10.5-26.5-13.3-36.6-1.4-6.2-1.6-6.6-2.6-6.7zm-1.5 4.6c.2.1.5 2.6.9 5.6 1.5 12.7 4.4 25 8.8 38.3 3.4 10 3.4 9.5-.5 8.3-9.3-2.5-50.8-9.7-80.9-13.9-4.8-.6-8.9-1.3-8.9-1.4-.4-.4 21.7-11.9 31.5-16.5 12.4-5.6 46.6-19.9 49.1-20.4zm-87.6 40.8 3.5 1.2c19.3 6.5 67.7 15.8 94.4 18 3 .3 5.5.5 5.6.5.1.1-2.5 1.5-5.7 3-12.9 6.5-27.1 14.4-36.9 20.5-2.9 1.8-5.5 3.3-5.9 3.3-.4 0-2.3-.4-4.3-.6l-3.6-.5-9.1-8.9c-16-15.5-28.5-27.5-33.4-32.1l-4.6-4.4zm-3.6 2.8 12.8 16c7 8.8 14.1 17.5 15.6 19.4 1.5 1.9 2.8 3.5 2.7 3.5-.4.3-18.5-3.3-28.2-5.5-9.9-2.3-14-3.4-20.1-5.3l-5-1.6v-1.3c.1-6.1 7.8-15.2 20.9-24.5.1.1 1.3-.7 1.3-.7zm108.9 21.8c.4 0 .8.8 1.9 3.3 3.1 6.8 12.7 25.2 15.1 28.7.7 1.2 2 1.3-10.8-.8-30.8-5-40.7-6.6-40.7-6.8 0-.1.9-.7 2.1-1.4 9.5-5.3 19.2-12 27.7-19.2 2.1-1.7 4-3.4 4.4-3.6 0-.2.2-.3.3-.2z"/>
    <path class="st2"
          d="M-12.5 236.8s-2 3.2-.1 7.9c1.2 2.9 4.6 6.5 8.5 10.1 0 0 40.5 39.5 45.4 45.1 22.4 25.8 32.1 51.3 33 86.4.5 22.5-3.7 42.4-14.4 65.4C41 492.9 1.1 538.5-60.4 589l9-3c5.8-4.4 13.7-9 32.3-19.2 42.8-23.5 91-45 150.1-67.2 85.1-32 225-69.5 304.6-81.6l8.3-1.3-1.3-2c-7.3-11.3-12.3-18.3-18.3-25.7-17.5-21.6-38.6-39.2-64.5-53.7-35.6-19.9-81.7-35.5-140.1-47-11-2.2-35.2-6.4-54.8-9.4-41.6-6.5-68.5-10.9-98.2-16-10.6-1.8-26.5-4.5-37.1-6.8-5.5-1.2-15.9-3.6-24.1-6.5-6.5-2.5-16-5-18-12.8zM11 259.6c.1-.1 1.5.5 3.5 1.1 3.5 1.2 7.9 2.5 13.2 4 4 1.1 8 2.2 12 3.2 5.5 1.4 10 2.6 10.1 2.6.6.6 9.8 30 12.9 41.3 1.2 4.3 2.1 7.9 2 7.9-.1.1-1.1-1.5-2.3-3.5-10.6-18.7-27.5-37.7-46.9-53-2.6-1.9-4.5-3.5-4.5-3.6zm44.7 12.3c.5 0 2.5.3 4.9.8 15.5 3.5 43.2 8.7 60.9 11.7 3 .5 5.4 1 5.4 1.2 0 .2-1.1.8-2.5 1.5-3 1.5-15.1 8.7-19.1 11.5-10.1 6.7-19.2 14-25.7 20.5-2.6 2.6-4.9 4.8-4.9 4.8s-.5-1.5-1-3.5c-3.3-12.6-10.1-31.4-16.3-44.5-1-2-1.8-3.9-1.7-4-.1.1-.1 0 0 0zm78.7 15c.5.2 1.5 3.3 3.3 10.1 3.4 13.2 4.9 27.9 4.4 41.6-.2 3.8-.4 7.4-.5 7.8l-.3.9-4.7-1.5c-9.7-3.1-25.5-7.7-39.1-11.5-7.7-2.1-14-4-14-4.2 0-.5 11.3-11.8 16.1-16.1 9.1-8.1 34-27.4 34.8-27.1zm6.3.9c.3-.3 37.6 6.2 54.6 9.5 12.6 2.5 31 6.3 32.1 6.7.5.2-1.4 1.3-7.5 4-24 10.8-41.8 20.5-59.5 32.4-4.6 3.1-8.5 5.6-8.6 5.6-.1 0-.2-2.6-.2-5.8 0-17.3-3.5-34.7-9.8-49.5-.7-1.4-1.2-2.8-1.1-2.9zm96.6 19.1c.3.3-.9 7.6-2 12-3.3 13.5-12.1 33.6-22.9 52.5-1.9 3.4-3.6 6.1-3.8 6.2-.2.1-2.6-1.3-5.5-2.9-10.5-6.2-22.5-12-35.6-17.5-3.6-1.5-6.8-2.8-6.9-3-.6-.5 28.6-19.9 44.1-29.2 12.2-7.4 32.2-18.4 32.6-18.1zm6.9 1.1c.8 0 17.4 4.5 26 7.1 21.4 6.4 45.9 15.4 61.9 22.6l6.6 3-4.6 1.1c-39.1 9-72.5 19.4-104.8 32.5-2.6 1.1-5 2-5.2 2-.2 0 .7-2.1 1.9-4.6 9.7-20.6 16-42.2 17.5-60.5.2-1.8.4-3.2.7-3.2zM79.5 345.8c.3-.3 12.9 2.7 19.7 4.6 10.4 2.9 32.4 10.3 32.4 10.8 0 .1-2.5 2.2-5.4 4.7-11.9 9.9-23.4 20.4-37.1 33.6-4.1 3.9-7.5 7.1-7.7 7.1-.2 0-.3-.5-.2-1.3 2.1-15.3 1.6-34.9-1.3-54.8-.2-2.4-.5-4.6-.4-4.7zm265.5.3c.2.2-5.8 9.6-9.6 15-5.5 7.8-13.5 18.2-31.5 40.9-9.5 12-20.3 25.5-23.8 30.1-3.6 4.5-6.6 8.4-6.7 8.4-.1 0-1.3-1.6-2.5-3.6-10.2-15.3-22.4-28.6-36.8-40.6-2.7-2.3-5.7-4.7-6.7-5.5-1-.7-1.8-1.5-1.8-1.5 0-.3 15.5-6.9 27.2-11.6 20.5-8.4 48.5-18.4 69.5-24.8 10.8-3.6 22.5-7 22.7-6.8zm7 1.8c.4-.1 2.5 1 5.2 2.5 22.1 12.6 43.7 28.9 60.8 45.6 4.8 4.7 16.7 17.1 16.5 17.2 0 0-4.2.4-9.1.7-38.3 2.9-87.3 11-134.4 22.4-3.2.7-6 1.4-6.2 1.4-.2 0 3.4-3.5 7.8-7.8 27.6-26.6 40.3-43.5 55.2-73.4 2.2-4.5 4-8.3 4.2-8.6-.1 0-.1 0 0 0zm-202.4 20.7c1.3.3 13.1 5.8 22 10.3 8.2 4.1 20.5 10.6 21.1 11.2.1.1-4.3 2.4-9.6 5-17.1 8.5-31.7 16.6-47 25.9-4.4 2.6-8 4.8-8.1 4.8-.4 0-.3-.4 2.2-4.8 8.2-14.9 14.7-32.7 18.5-50.1.2-1.3.6-2.3.9-2.3zm-11.8 2.2c.3.3-2.8 11.5-4.7 17.5-3.7 11.5-10 26-16.1 36.9-1.5 2.5-3.6 6.3-4.8 8.4l-2.3 3.6-5.1-4.9c-5.9-5.7-10.7-9.3-16.9-12.5-2.5-1.3-4.4-2.4-4.4-2.5 0-.7 15.5-14.8 27.5-25 8.5-7.3 26.5-21.7 26.8-21.5zm72.2 29.8 4.5 2.9c10.2 6.6 22.2 15.5 31.4 23.2 5.2 4.3 15.2 13.3 17.2 15.5l1.1 1.2-7.4 2.1c-41.6 11.5-73.8 21.8-111.4 35.6-4.2 1.5-7.7 2.8-8 2.8-.5 0-1 .5 8.4-8.2 24-22.1 45.3-46.5 61.1-70.2l3.1-4.9zm-19 4.7c.2.2-12.3 17.7-19.7 27.6-8.9 11.8-24.7 31.6-35.6 44.5-4.5 5.4-8.5 9.8-8.6 9.9-.3.1-.4-1.3-.4-3.4 0-11-2.8-22.7-7.7-32.7-2.1-4.2-2.5-5.2-2-5.6 1.7-1.5 28.2-16.6 44.9-25.6 11.2-6 28.9-14.9 29.1-14.7zM76.1 433.5c.3 0 2.4 1.1 4.7 2.4 5.8 3.2 11 6.7 15.6 10.5.2.2-2.2 2.1-5.3 4.4-8.6 6.2-21.7 16.1-29.4 22.2-8 6.4-8.3 6.5-7.4 5.2 6-9.2 9-14.4 12.2-21 2.8-5.9 5.6-12.9 7.6-19 .9-2.7 1.8-4.7 2-4.7zm30.7 24c.5-.1 1 .7 3.5 4.4 5.2 7.7 9.2 18.1 10.2 26.5l.2 1.8-12.5 4.8c-22.3 8.6-42.8 17.2-56.7 23.5-3.9 1.8-10.7 5.1-15.2 7.3-4.5 2.3-8.1 4-8.1 3.9 0-.1 2.8-2.2 6.3-4.7 27.2-19.7 50.7-41.4 68.4-63 1.9-2.3 3.6-4.4 3.8-4.5h.1zm-14.1 3.4c.4.4-10 12.1-17.1 19.3-17.5 17.9-34.9 31.9-56.5 45.5-2.7 1.7-5.2 3.3-5.5 3.5-.6.4.2-.5 9.6-10.8 6-6.5 10.5-11.9 15.7-18.6 3.5-4.5 4.1-5.1 9.1-8.6 13.5-9.7 44.3-30.7 44.7-30.3z"/>
  </g>
  <path class="st3"
        d="M89.9 383.8c-.8 0-1.5.1-2.3.1-15.6.8-26 7.7-32.2 21-5.2 12.1-4.7 27.9.1 40 5.5 11.9 14.4 18.2 29.2 20.5 3.1.5 5.2 2.2 11.3 9.3l7.5 8.8h13.6l-9-9.1c-5-5-9-9.3-9-9.7 0-.4 1.9-1.2 4.2-1.9 7.6-2.3 13.9-8.2 18.4-17.2 3.6-7.2 4.1-9.5 4.6-18.5 1.3-26.7-12.9-43.5-36.4-43.3zm11.9 70.1c-6.6 3.2-16.2 3.8-22.4 1.5-6.5-2.4-12.7-9.1-15.6-16.7-3.1-8.3-2.7-23.7.9-30.6 5.8-11 13.4-16.1 24.5-16.1 16.5 0 25.9 10.1 27.1 29.1 1 16-4.3 27.9-14.5 32.8zm234.4-47.2c-5.7 0-10 2.3-13 6.8l-2.3 3.6v-9.3H311v56h9.8V446c0-16.4.2-18.3 2.5-22.8 3.2-6.1 8.6-9.2 13.8-7.7l3.5 1v-9.7l-4.4-.1zm-57.9-.5c-1.9 0-4 .3-6 .7-13.2 3.4-20.6 16.1-20.2 29 0 10.9 2.1 16.3 7.4 22 10.7 8.8 20.5 9.5 33.6 4.8 2.2-1 4.7-2.1 4.7-2.1v-8.8l-4.7 2.4c-10.6 4.6-18.6 4.6-25-.8-4.1-4.2-5.9-9.1-6.7-14.8h39.7V431c0-15.3-9.3-25-22.8-24.8zm-16 24.6s1.5-9.6 6.9-13.4c2.6-1.8 5.6-2.7 8.6-2.7 2.9 0 5.9 1 8.3 2.8 5 3.8 5.8 13.2 5.8 13.2l-29.6.1zM24.8 420.7C14.1 414.2 9.4 409.5 9.9 404c1.7-15.2 20.5-13.1 30.9-7.4l.1-10.2s-5.8-2.5-14-2.6c-12.7-.2-20.8 4-24.7 12.4-5.6 12.5-.6 21.9 17.4 32.4 10.1 5.9 14.6 11 14.6 16.6 0 11.5-13.9 15.5-28.2 8.3-2.9-1.5-5.4-2.7-5.6-2.7-.5 3.3-.2 11.1-.2 11.1s4.4 1.8 11 3.1c16.4 3.3 31.3-4.4 32.7-16.9 1.1-11.7-3.1-17.8-19.1-27.4zm398.6-14.6c-1.9 0-4 .3-6.1.7-13.2 3.4-20.6 16.1-20.1 29 0 10.9 2.1 16.2 7.3 21.9 10.7 8.8 20.5 9.5 33.6 4.8 2.2-1 4.7-2 4.7-2v-8.8l-4.7 2.4c-10.6 4.6-18.6 4.6-25-.8-4.1-4.2-5.9-9.1-6.7-14.8h39.7v-7.6c0-15.3-9.2-25.1-22.7-24.8zm-16.1 24.6s1.5-9.6 6.9-13.4c2.6-1.9 5.6-2.8 8.6-2.8 2.9 0 5.9 1 8.3 2.8 5 3.8 5.8 13.3 5.8 13.3l-29.6.1zm-180.5-9.9c-10.7-6.5-15.4-11.1-14.8-16.6 1.7-15.2 20.5-13.1 30.9-7.4l.1-10.2s-5.8-2.5-14-2.6c-12.7-.2-20.8 4-24.7 12.4-5.6 12.5-.6 21.9 17.4 32.4 10.1 5.9 14.6 10.9 14.6 16.5 0 11.5-13.9 15.6-28.2 8.3-2.9-1.5-5.4-2.7-5.6-2.7-.5 3.3-.2 11.1-.2 11.1s4.3 1.8 10.9 3.1c16.4 3.3 31.3-4.4 32.7-16.9 1.1-11.6-3.1-17.8-19.1-27.4zm254.5-14.2c-5.7 0-10.1 2.3-13 6.9L466 417v-9.3h-9.9v56h9.8v-17.9c0-16.4.2-18.3 2.5-22.8 3.2-6.1 8.6-9.2 13.8-7.7l3.5 1v-9.7h-4.4zm-332.9 13.9v-35.7h-9.9v79.1h41.8v-9.3h-31.8l-.1-34.1zm229.7 11.1-8.2 21.3-7.9-21.4-8-23.7h-10.2c6.6 18.7 13.8 37.7 21 56.1 3.1.1 6.3 0 9.4 0l11.1-27.8 11.3-28.3h-9.7s-4.3 11.2-8.8 23.8zm-206.8-68.4c1.6 0 2.9-.5 4-1.6s1.7-2.4 1.7-4-.6-2.9-1.7-4c-1.1-1-2.4-1.5-4-1.5s-2.9.5-4 1.6-1.6 2.4-1.6 4 .5 2.9 1.6 4c1.1 1 2.4 1.5 4 1.5zm-3.5-9c1-1 2.1-1.4 3.6-1.4 1.4 0 2.6.4 3.5 1.4 1 1 1.5 2.1 1.5 3.5s-.5 2.6-1.5 3.6-2.1 1.4-3.5 1.4-2.6-.4-3.5-1.4c-1-1-1.5-2.2-1.5-3.6s.4-2.6 1.4-3.5zm2.4 4h.6c.5 0 .9.4 1.3 1.3l.8 1.7h1.2l-1-1.9c-.4-.8-.8-1.2-1.2-1.3.6-.1 1-.3 1.3-.7.3-.3.4-.8.4-1.3 0-.6-.2-1-.6-1.3-.4-.4-1.1-.6-2.1-.6h-2v7.2h1v-3l.3-.1zm0-3.3h.9c.6 0 1.1.1 1.3.3.2.2.3.4.3.9 0 .8-.5 1.2-1.5 1.2h-1.1l.1-2.4zM6.1 357.5c0-2.5-.1-4.3-.1-5.4.3 1.3.6 2.3.8 2.9l9.5 21.3H18l9.5-21.5c.3-.6.5-1.5.8-2.7h.1c-.2 2.1-.3 4-.3 5.4v18.8h3.3v-27.9h-4.1l-8.8 19.4c-.3.8-.8 1.9-1.3 3.4h-.1c-.2-.8-.6-1.9-1.3-3.3l-8.6-19.6H2.9v27.9H6l.1-18.7c-.1.1 0 0 0 0zm32.5.1h2.8V375h-2.8v-17.4zm1.4-6.4c.6 0 1.1-.2 1.5-.6.4-.4.6-.9.6-1.5s-.2-1.1-.6-1.5c-.4-.4-.9-.6-1.5-.6s-1.1.2-1.5.6c-.4.4-.6.9-.6 1.5s.2 1.1.6 1.5c.5.4.9.6 1.5.6zm21.5 24.2v-3.1c-1.5 1.2-3.2 1.7-4.9 1.7-2.1 0-3.7-.7-4.9-2.1-1.2-1.3-1.9-3.2-1.9-5.5 0-2.4.6-4.3 2-5.8 1.3-1.4 2.9-2.1 5-2.1 1.7 0 3.3.5 4.7 1.5v-3.3c-1.3-.7-2.9-1-4.6-1-3.2 0-5.7 1-7.6 3-1.8 2-2.8 4.7-2.8 7.9 0 2.9.8 5.3 2.6 7.2 1.8 1.9 4.1 2.9 6.9 2.9 2.2 0 3.9-.4 5.5-1.3zm8-9.3c0-2.3.5-4.2 1.5-5.4.9-1.2 2-1.7 3.3-1.7 1.1 0 1.9.2 2.4.6v-3.3c-.4-.2-1.1-.3-1.9-.3-1.2 0-2.2.4-3.1 1.1-1 .8-1.7 1.9-2.2 3.4h-.1v-4.1h-3.2v20h3.2l.1-10.3zm18.4 10.6c3 0 5.4-1 7.2-2.9 1.8-1.9 2.7-4.5 2.7-7.7 0-3.3-.8-5.8-2.5-7.6-1.7-1.9-4-2.8-7-2.8s-5.4.9-7.2 2.6c-1.9 1.9-2.9 4.6-2.9 8.1 0 3 .8 5.5 2.6 7.4 1.7 2 4.1 2.9 7.1 2.9zm-4.5-16.2c1.2-1.3 2.8-1.9 4.8-1.9 2.1 0 3.6.6 4.7 1.9 1.2 1.3 1.7 3.3 1.7 5.8 0 2.4-.5 4.3-1.6 5.6-1.1 1.3-2.7 2.1-4.8 2.1-2.1 0-3.6-.7-4.9-2.1-1.2-1.3-1.8-3.2-1.8-5.6-.1-2.4.6-4.4 1.9-5.8zm28.4 14.5c1.2-1.1 1.9-2.4 1.9-4.1 0-1.5-.5-2.7-1.5-3.6-.8-.8-2-1.5-3.7-2.2-1.5-.6-2.5-1.2-3-1.7s-.8-1.2-.8-2.1c0-.8.3-1.5 1-2 .6-.5 1.5-.8 2.6-.8 1.7 0 3.2.5 4.5 1.4v-3.2c-1.3-.6-2.7-1-4.3-1-2.1 0-3.8.6-5.1 1.7-1.3 1.1-2 2.5-2 4.2 0 1.5.4 2.7 1.3 3.6.7.8 1.9 1.5 3.6 2.2 1.6.7 2.7 1.3 3.3 1.9.6.5.8 1.2.8 1.9 0 1.9-1.3 2.8-3.8 2.8-1.9 0-3.6-.6-5.2-1.9v3.4c1.4.8 3.1 1.2 4.9 1.2 2.4 0 4.2-.5 5.5-1.7zm15.2-19.2c-3 0-5.4.9-7.2 2.6-1.9 1.9-2.9 4.6-2.9 8.1 0 3 .8 5.5 2.6 7.4 1.8 1.9 4.2 2.9 7.2 2.9 3.1 0 5.4-1 7.2-2.9 1.8-1.9 2.7-4.5 2.7-7.7 0-3.3-.8-5.8-2.5-7.6-1.8-1.9-4.1-2.8-7.1-2.8zm6.3 10.5c0 2.4-.5 4.3-1.6 5.6-1.1 1.3-2.7 2.1-4.8 2.1-2.1 0-3.6-.7-4.9-2.1-1.2-1.3-1.8-3.2-1.8-5.6 0-2.6.6-4.5 1.9-5.9 1.2-1.3 2.8-1.9 4.8-1.9s3.6.6 4.7 1.9c1.1 1.4 1.6 3.3 1.7 5.9zm8.6 10h3.2V359h4.7v-2.7h-4.7v-3.1c0-2.8 1.1-4.2 3.3-4.2.8 0 1.5.2 2.1.5v-2.9c-.6-.3-1.3-.3-2.3-.3-1.7 0-3.1.5-4.3 1.6-1.3 1.3-2.1 2.9-2.1 5.2v3.3h-3.4v2.7h3.4l.1 17.2zm13.1-5.5c0 3.9 1.7 5.9 5.2 5.9 1.3 0 2.2-.2 3-.7v-2.7c-.6.4-1.3.6-2.1.6-1.1 0-1.8-.3-2.3-.8-.5-.6-.7-1.5-.7-2.9V359h5.1v-2.7h-5.1v-5.9c-1.1.4-2.2.7-3.2 1v4.9h-3.4v2.7h3.4l.1 11.8zm343.3 36.8c-1.1-1-2.4-1.5-4-1.5s-2.9.5-4 1.6-1.6 2.4-1.6 4 .5 2.9 1.6 4c1.1 1 2.4 1.5 4 1.5s2.9-.5 4-1.6 1.7-2.4 1.7-4c-.1-1.6-.6-2.9-1.7-4zm-.5 7.6c-1 1-2.1 1.4-3.5 1.4s-2.6-.4-3.5-1.4c-1-1-1.5-2.2-1.5-3.6s.4-2.6 1.4-3.5c1-1 2.1-1.4 3.6-1.4 1.4 0 2.6.4 3.5 1.4 1 1 1.5 2.1 1.5 3.5-.1 1.5-.5 2.6-1.5 3.6zm-2.9-3.3c.6-.1 1-.4 1.3-.7.3-.3.4-.8.4-1.3 0-.6-.2-1-.6-1.3-.4-.4-1.2-.6-2.1-.6h-2v7.2h1v-3h.6c.4 0 .9.4 1.3 1.3l.8 1.7h1.2l-1-1.9c-.1-.9-.5-1.3-.9-1.4zm-.7-.6h-1.1v-2.4h.9c.6 0 1.1.1 1.3.3.3.2.3.4.3.9.1.8-.5 1.2-1.4 1.2zm-178.5-55.8h.9v-7.2h2.4v-.9h-5.6v.9h2.4l-.1 7.2zm5.5-5.4c0-.7 0-1.3-.1-1.6.1.4.2.6.2.8l2.8 6.1h.4l2.8-6.2c.1-.2.1-.4.3-.8-.1.6-.1 1.2-.1 1.5v5.4h1v-8.1h-1.2l-2.5 5.6c-.1.2-.3.6-.4 1h-.1c-.1-.3-.2-.5-.4-1l-2.5-5.6h-1.3v8.1h.9l.2-5.2z"/>
</svg>
