<svg xmlns="http://www.w3.org/2000/svg" width="500" height="500" viewBox="0 0 500 500">
  <style type="text/css">
    .st0{fill:#ffffff;}
  </style>
  <g>
    <path class="st0" d="M127.8,105.1c-5.3,0-8.8,0.7-12.5,1.5v0.7h0.7c2.4,4.8,6.8,8.4,9.9,12.5c2.4,4.8,4.6,9.7,7,14.7		c0.2-0.2,0.7-0.7,0.7-0.7c4.4-3.1,6.4-7.9,6.4-15.4c-1.8-2.2-2.2-4.2-3.7-6.4C134.2,109,130.2,107.5,127.8,105.1"/>
    <path class="st0"
          d="M439.8,370.9c-24.4-0.7-43.5,1.8-59.3,8.6c-4.6,1.8-11.9,1.8-12.5,7.7c2.4,2.4,2.9,6.4,4.8,9.9		c3.7,6.2,10.1,14.3,15.8,18.7c6.4,4.8,12.7,9.7,19.6,14.1c11.9,7.5,25.5,11.6,36.9,18.9c6.8,4.2,13.4,9.9,20.2,14.3		c3.3,2.4,5.5,6.4,9.7,7.9V470c-2.2-2.6-2.9-6.8-4.8-9.9c-3.1-3.1-6.2-5.7-9.2-8.8c-8.8-11.9-20-22.4-31.9-31		c-9.9-6.8-31.2-16-35.2-27.2c0,0-0.2-0.2-0.7-0.7c6.8-0.7,14.7-3.1,21.1-4.8c10.3-2.6,19.8-2.2,30.5-4.8c4.8-1.3,9.9-2.9,14.7-4.2		v-2.9c-5.5-5.5-9.4-12.7-15.4-18c-15.6-13.4-32.7-26.6-50.5-37.6c-9.4-6.2-21.8-10.1-31.9-15.4c-3.7-1.8-9.7-2.6-11.9-5.9		c-5.5-6.8-8.6-15.6-12.5-23.5c-8.8-16.9-17.4-35.4-25.1-53.2c-5.5-11.9-8.8-24-15.6-34.9c-31.6-52.1-65.7-83.5-118.4-114.5		c-11.4-6.4-24.8-9.2-39.1-12.5c-7.7-0.2-15.4-0.9-22.9-1.3c-4.8-2.2-9.9-7.9-14.1-10.8C85,37.2,39.9,13.2,27,44.8		c-8.3,20,12.3,39.6,19.3,49.7c5.3,7,11.9,14.9,15.6,22.9c2.2,5.3,2.9,10.8,4.8,16.3c4.8,13.4,9.4,28.6,15.8,41.1		c3.3,6.4,7,13.2,11.2,18.9c2.4,3.3,6.8,4.8,7.7,10.3c-4.2,6.2-4.6,15.4-7,22.9c-11,34.5-6.8,77.3,8.8,102.8		c4.8,7.7,16.5,24.4,32.1,18c13.8-5.5,10.8-22.9,14.7-38.2c0.9-3.7,0.2-6.2,2.2-8.6v0.7c4.2,8.6,8.6,16.7,12.5,25.5		c9.4,14.9,25.9,30.5,39.8,41.1c7.3,5.5,13.2,14.9,22.4,18.5v-0.9h-0.7c-1.8-2.6-4.6-4-7-6.2c-5.5-5.5-11.6-12.3-15.8-18.5		c-12.7-17.1-24.2-36-34.3-55.6c-4.8-9.4-9.2-20-13.2-29.4c-1.8-3.7-1.8-9.2-4.8-11c-4.6,6.8-11.2,12.5-14.7,20.9		c-5.7,13.2-6.4,29.4-8.6,46.1c-1.3,0.2-0.7,0-1.3,0.7c-9.9-2.4-13.2-12.5-16.9-21.1c-9.2-21.8-10.8-56.7-2.9-81.7		c2.2-6.4,11.4-26.6,7.7-32.7c-1.8-5.9-7.9-9.2-11.4-13.8c-4-5.7-8.3-13.2-11-19.6c-7.3-17.1-11-36-18.9-53.2		C69.4,102.6,63,94.3,57.7,87c-5.9-8.4-12.3-14.1-16.9-24c-1.5-3.3-3.7-8.8-1.3-12.5c0.7-2.4,1.8-3.3,4.4-4c4-3.3,15.4,0.9,19.3,2.9		c11.4,4.6,20.9,8.8,30.3,15.4c4.4,3.1,8.8,8.8,14.3,10.3h6.4c9.9,2.2,20.9,0.7,30.1,3.3c16.3,5.3,31,12.7,44.2,21.1		c40,25.5,73.2,61.5,95.4,104.6c3.7,7,5.3,13.4,8.6,20.9c6.4,14.9,14.5,30.3,20.9,45c6.4,14.3,12.5,29,21.8,41.1		c4.6,6.4,22.9,9.9,31.2,13.2c6.2,2.6,15.6,5.3,21.1,8.6c10.3,6.4,20.9,13.8,30.5,20.9C423.8,357.1,439,364.8,439.8,370.9"/>
  </g>
</svg>
