<svg xmlns="http://www.w3.org/2000/svg" width="500" height="500" viewBox="0 0 500 500">
  <style type="text/css">
    .st0{fill:#689F63;}
    .st1{fill:#FFFFFF;}
    .st2{fill:#689F63;}
    .st3{fill:url(#SVGID_1_);}
    .st4{fill:url(#SVGID_2_);}
    .st5{fill:url(#SVGID_3_);}
  </style>
  <linearGradient id="SVGID_1_" gradientUnits="userSpaceOnUse" x1="252.1544" y1="490.0836" x2="253.51" y2="490.0836" gradientTransform="matrix(-50.7531 103.536 103.536 50.7531 -37724.7813 -50822.793)">
    <stop offset="0.3" style="stop-color:#3E863D"/>
    <stop offset="0.5" style="stop-color:#55934F"/>
    <stop offset="0.8" style="stop-color:#5AAD45"/>
  </linearGradient>
  <linearGradient id="SVGID_2_" gradientUnits="userSpaceOnUse" x1="244.9209" y1="489.6678" x2="245.8007" y2="489.6678" gradientTransform="matrix(142.4074 -105.2221 -105.2221 -142.4074 16767.5664 95778.1094)">
    <stop offset="0.57" style="stop-color:#3E863D"/>
    <stop offset="0.72" style="stop-color:#619857"/>
    <stop offset="1" style="stop-color:#76AC64"/>
  </linearGradient>
  <linearGradient id="SVGID_3_" gradientUnits="userSpaceOnUse" x1="245.9478" y1="487.3825" x2="246.7456" y2="487.3825" gradientTransform="matrix(129.8891 0 0 -129.8891 -31811.7559 63533.2617)">
    <stop offset="0.16" style="stop-color:#6BBF47"/>
    <stop offset="0.38" style="stop-color:#79B461"/>
    <stop offset="0.47" style="stop-color:#75AC64"/>
    <stop offset="0.7" style="stop-color:#659E5A"/>
    <stop offset="0.9" style="stop-color:#3E863D"/>
  </linearGradient>
  <g>
    <path class="st0" d="M247.1,403.1c-1.7,0-3.3-0.4-4.7-1.3l-15.1-8.9c-2.3-1.3-1.2-1.7-0.4-2c3-1.1,3.6-1.3,6.8-3.1		c0.3-0.2,0.8-0.1,1.1,0.1l11.6,6.9c0.4,0.2,1,0.2,1.4,0l45.2-26.1c0.4-0.2,0.7-0.7,0.7-1.2v-52.1c0-0.5-0.3-1-0.7-1.2l-45.1-26		c-0.4-0.2-1-0.2-1.4,0l-45.1,26c-0.4,0.2-0.7,0.7-0.7,1.2v52.1c0,0.5,0.3,1,0.7,1.2l12.4,7.1c6.7,3.4,10.8-0.6,10.8-4.6v-51.4		c0-0.7,0.6-1.3,1.3-1.3h5.7c0.7,0,1.3,0.6,1.3,1.3v51.5c0,9-4.9,14.1-13.4,14.1c-2.6,0-4.7,0-10.4-2.8l-11.8-6.8		c-2.9-1.7-4.7-4.9-4.7-8.2v-52.1c0-3.4,1.8-6.6,4.7-8.2l45.2-26.1c2.9-1.6,6.7-1.6,9.5,0l45.1,26.1c2.9,1.7,4.7,4.8,4.7,8.2v52.1		c0,3.4-1.8,6.5-4.7,8.2l-45.1,26.1C250.4,402.7,248.8,403.1,247.1,403.1"/>
    <path class="st0" d="M261.1,367.2c-19.8,0-23.9-9.1-23.9-16.7c0-0.7,0.6-1.3,1.3-1.3h5.8c0.6,0,1.2,0.5,1.3,1.1		c0.9,5.9,3.5,8.9,15.5,8.9c9.5,0,13.6-2.1,13.6-7.2c0-2.9-1.2-5.1-15.9-6.5c-12.4-1.2-20-3.9-20-13.8c0-9.1,7.7-14.5,20.6-14.5		c14.5,0,21.6,5,22.5,15.8c0,0.4-0.1,0.7-0.4,1c-0.2,0.3-0.6,0.4-1,0.4h-5.9c-0.6,0-1.1-0.4-1.3-1c-1.4-6.3-4.8-8.3-14.1-8.3		c-10.4,0-11.6,3.6-11.6,6.3c0,3.3,1.4,4.2,15.4,6.1c13.9,1.8,20.5,4.4,20.5,14.2C283.5,361.6,275.3,367.3,261.1,367.2 M316,312h1.5		c1.2,0,1.5-0.9,1.5-1.4c0-1.3-0.9-1.3-1.4-1.3H316L316,312z M314.2,307.7h3.4c1.2,0,3.4,0,3.4,2.6c0,1.8-1.2,2.2-1.8,2.4		c1.3,0.1,1.4,1,1.6,2.2c0.1,0.8,0.2,2.1,0.5,2.6h-2.1c-0.1-0.5-0.4-2.9-0.4-3.1c-0.1-0.6-0.3-0.8-1-0.8h-1.7v3.9h-1.9V307.7z		 M310.1,312.6c0,4,3.3,7.3,7.3,7.3c4,0,7.3-3.3,7.3-7.3c0-4.1-3.3-7.3-7.3-7.3C313.4,305.3,310.1,308.5,310.1,312.6 M326.1,312.6		c0,4.8-3.9,8.7-8.7,8.7c-4.7,0-8.7-3.9-8.7-8.7c0-4.9,4-8.7,8.7-8.7C322.1,303.9,326.1,307.7,326.1,312.6"/>
    <path class="st1"
          d="M107.3,199.2c0-2.1-1.1-4-2.9-5l-47.9-27.5c-0.8-0.5-1.7-0.7-2.6-0.8h-0.5c-0.9,0-1.8,0.3-2.6,0.8L2.9,194.2		c-1.8,1-2.9,3-2.9,5l0.1,74.2c0,1,0.5,2,1.4,2.5c0.9,0.5,2,0.5,2.9,0l28.5-16.3c1.8-1.1,2.9-3,2.9-5V220c0-2.1,1.1-4,2.9-5l12.1-7		c0.9-0.5,1.9-0.8,2.9-0.8c1,0,2,0.3,2.9,0.8l12.1,7c1.8,1,2.9,2.9,2.9,5v34.7c0,2.1,1.1,4,2.9,5l28.4,16.3c0.9,0.5,2,0.5,2.9,0		c0.9-0.5,1.4-1.5,1.4-2.5L107.3,199.2z M333.2,237.9c0,0.5-0.3,1-0.7,1.3l-16.4,9.5c-0.4,0.3-1,0.3-1.4,0l-16.4-9.5		c-0.5-0.3-0.7-0.7-0.7-1.3v-19c0-0.5,0.3-1,0.7-1.3l16.4-9.5c0.5-0.3,1-0.3,1.5,0l16.4,9.5c0.5,0.3,0.7,0.7,0.7,1.3L333.2,237.9z		 M337.7,97.3c-0.9-0.5-2-0.5-2.9,0c-0.9,0.5-1.4,1.5-1.4,2.5v73.5c0,0.7-0.4,1.4-1,1.8c-0.6,0.4-1.4,0.4-2,0l-12-6.9		c-1.8-1-4-1-5.8,0l-47.9,27.6c-1.8,1-2.9,2.9-2.9,5V256c0,2.1,1.1,4,2.9,5l47.9,27.7c1.8,1,4,1,5.8,0l47.9-27.7		c1.8-1,2.9-2.9,2.9-5V118.2c0-2.1-1.1-4-3-5.1L337.7,97.3z M497.1,218.4c1.8-1,2.9-2.9,2.9-5V200c0-2.1-1.1-4-2.9-5l-47.6-27.6		c-1.8-1-4-1-5.8,0L395.9,195c-1.8,1-2.9,2.9-2.9,5v55.3c0,2.1,1.1,4,2.9,5l47.6,27.1c1.8,1,3.9,1,5.7,0l28.8-16		c0.9-0.5,1.5-1.5,1.5-2.5s-0.6-2-1.5-2.5l-48.2-27.6c-0.9-0.5-1.5-1.5-1.5-2.5v-17.3c0-1,0.5-2,1.4-2.5l15-8.6c0.9-0.5,2-0.5,2.9,0		l15,8.6c0.9,0.5,1.4,1.5,1.4,2.5v13.6c0,1,0.6,2,1.4,2.5c0.9,0.5,2,0.5,2.9,0L497.1,218.4z"/>
    <path class="st2" d="M445.9,215.8c0.3-0.2,0.8-0.2,1.1,0l9.2,5.3c0.3,0.2,0.6,0.6,0.6,1v10.6c0,0.4-0.2,0.8-0.6,1l-9.2,5.3		c-0.3,0.2-0.8,0.2-1.1,0l-9.2-5.3c-0.4-0.2-0.6-0.6-0.6-1v-10.6c0-0.4,0.2-0.8,0.6-1L445.9,215.8z"/>
    <g>
      <path class="st3" d="M237.9,255.1v-55c0-2.1-1.1-4-2.9-5l-47.6-27.5c-0.9-0.5-1.9-0.8-2.9-0.8c-1,0-2,0.3-2.9,0.8h0L134,195.1		c-1.8,1-2.9,2.9-2.9,5v55c0,2.1,1.1,4,2.9,5l47.6,27.5c1.8,1,4,1,5.8,0l47.6-27.5C236.8,259.1,237.9,257.2,237.9,255.1z"/>
      <path class="st4" d="M181.7,287.6c1,0.6,2.2,0.8,3.3,0.8c0.4,0,0.8-0.1,1.1-0.2l50.2-92c-0.4-0.4-0.8-0.8-1.3-1.1l-31.2-18		l-16.5-9.5c-0.5-0.3-1-0.5-1.5-0.6l-53.5,91.6c0.5,0.6,1,1.1,1.7,1.5l40.8,23.6L181.7,287.6z"/>
      <path class="st5" d="M184,166.9c-0.8,0.1-1.6,0.3-2.3,0.7L134.2,195l51.2,93.3c0.7-0.1,1.4-0.3,2-0.7l47.6-27.5			c1.4-0.8,2.4-2.2,2.8-3.8v-0.1L185.6,167c-0.4-0.1-0.8-0.1-1.2-0.1C184.3,166.9,184.2,166.9,184,166.9L184,166.9z"/>
    </g>
  </g>
</svg>
