<svg xmlns="http://www.w3.org/2000/svg" width="500" height="500" viewBox="0 0 500 500">
  <style type="text/css">
    .st0{fill:#001E36;}
    .st1{fill:#31A8FF;}
  </style>
  <g>
    <path class="st0" d="M104.7,30.6h290.6c44.1,0,79.7,35.6,79.7,79.7v279.3c0,44.1-35.6,79.7-79.7,79.7H104.7		c-44.1,0-79.7-35.6-79.7-79.7V110.4C25,66.3,60.7,30.6,104.7,30.6z"/>
    <path class="st1" d="M126.3,338.4V145.5c0-1.4,0.5-2.1,1.9-2.1c3.2,0,6.2,0,10.5-0.2c4.5-0.2,9.2-0.2,14.2-0.4s10.5-0.2,16.3-0.4		c5.9-0.2,11.4-0.2,17.1-0.2c15.4,0,28.1,1.9,38.6,5.9c9.4,3.2,18,8.5,25.1,15.4c6,6,10.7,13.3,13.7,21.4c2.8,7.8,4.3,15.9,4.3,24.4		c0,16.1-3.8,29.4-11.3,40c-7.5,10.5-18,18.4-30.2,22.9c-12.8,4.7-26.8,6.4-42.2,6.4c-4.5,0-7.5,0-9.4-0.2c-1.9-0.2-4.5-0.2-8.1-0.2		v60.2c0.2,1.4-0.7,2.4-2.1,2.6c-0.2,0-0.4,0-0.7,0h-35.6C127,340.8,126.3,340.1,126.3,338.4z M167.2,179.6v63		c2.6,0.2,5,0.4,7.3,0.4h9.9c7.3,0,14.7-1.1,21.6-3.4c6-1.7,11.3-5.2,15.4-9.9c4-4.7,5.9-11.1,5.9-19.4c0.2-5.9-1.4-11.6-4.3-16.7		c-3.2-4.9-7.7-8.6-13.1-10.7c-6.9-2.8-14.4-4-22.1-3.8c-4.9,0-9.2,0-12.8,0.2C171.1,179.2,168.5,179.4,167.2,179.6L167.2,179.6z"/>
    <path class="st1" d="M385,231.2c-5.6-3-11.6-5-18-6.4c-6.9-1.5-13.9-2.4-21-2.4c-3.8-0.2-7.7,0.4-11.3,1.4		c-2.4,0.5-4.5,1.9-5.9,3.8c-0.9,1.5-1.5,3.4-1.5,5c0,1.7,0.7,3.4,1.9,4.9c1.7,2.1,4,3.8,6.4,5c4.3,2.3,8.8,4.3,13.3,6.2		c10.1,3.4,19.9,8.1,28.9,13.7c6.2,4,11.3,9.2,14.9,15.6c3,6,4.5,12.6,4.3,19.4c0.2,8.8-2.4,17.6-7.3,24.9		c-5.2,7.5-12.6,13.3-21,16.7c-9.2,4-20.4,6-33.9,6c-8.6,0-17.1-0.7-25.5-2.4c-6.6-1.2-13.1-3.2-19.1-6c-1.4-0.7-2.3-2.1-2.1-3.6		v-32.6c0-0.5,0.2-1.4,0.7-1.7c0.5-0.3,1.1-0.2,1.7,0.2c7.3,4.3,15,7.3,23.2,9.2c7.1,1.9,14.6,2.8,22.1,2.8c7.1,0,12.2-0.9,15.6-2.6		c3-1.4,5-4.5,5-7.9c0-2.6-1.5-5-4.5-7.5c-3-2.4-9.2-5.2-18.4-8.8c-9.5-3.4-18.4-7.9-26.6-13.5c-5.9-4.1-10.7-9.5-14.2-15.9		c-3-6-4.5-12.6-4.3-19.1c0-8.1,2.3-15.8,6.4-22.7c4.7-7.5,11.6-13.5,19.7-17.3c8.8-4.5,19.9-6.6,33.2-6.6c7.7,0,15.6,0.5,23.2,1.7		c5.6,0.7,11.1,2.3,16.1,4.3c0.7,0.2,1.5,0.9,1.9,1.7c0.2,0.7,0.4,1.5,0.4,2.3v30.6c0,0.7-0.4,1.5-0.9,1.9		C386.7,231.5,385.7,231.5,385,231.2z"/>
  </g>
</svg>
