<svg xmlns="http://www.w3.org/2000/svg" width="500" height="500" viewBox="0 0 500 500">
  <style type="text/css">
    .st1{fill:url(#path3462_1_);}
    .st2{fill:#777BB3;}
    .st3{fill:#FFFFFF;}
    .st4{fill:#000000;}
  </style>
  <g>
    <radialGradient id="path3462_1_" cx="307.1728" cy="478.2932" r="0.7234" gradientTransform="matrix(453.8224 0 0 -453.8224 -139251.7813 217224.8594)" gradientUnits="userSpaceOnUse">
      <stop offset="0" style="stop-color:#AEB2D5"/>
      <stop offset="0.3" style="stop-color:#AEB2D5"/>
      <stop offset="0.75" style="stop-color:#484C89"/>
      <stop offset="1" style="stop-color:#484C89"/>
    </radialGradient>
    <path class="st1" d="M0,250c0,72.6,111.9,131.5,250,131.5l0,0c138.1,0,250-58.9,250-131.5l0,0	c0-72.6-111.9-131.5-250-131.5l0,0C111.9,118.5,0,177.4,0,250"/>
  </g>
  <ellipse class="st2" cx="250" cy="250" rx="240.2" ry="121.7"/>
  <g>
    <g>
      <path class="st4" d="M135.8,265.1c10.9,0,19.1-2,24.2-6c5.1-3.9,8.6-10.7,10.5-20.2c1.7-8.9,1.1-15.1-1.9-18.4
			c-3.1-3.4-9.7-5.1-19.8-5.1h-17.4l-9.7,49.7H135.8z M78.8,326.4c-0.8,0-1.6-0.4-2.1-1c-0.5-0.6-0.7-1.4-0.6-2.2l25.6-131.8
			c0.2-1.3,1.4-2.2,2.7-2.2h55.2c17.4,0,30.3,4.7,38.4,14c8.2,9.3,10.7,22.4,7.5,38.8c-1.3,6.7-3.5,12.9-6.6,18.5
			c-3.1,5.6-7.2,10.7-12.2,15.3c-6,5.6-12.8,9.7-20.1,12c-7.2,2.4-16.5,3.6-27.6,3.6h-22.4l-6.4,32.8c-0.2,1.3-1.4,2.2-2.7,2.2H78.8
			z"/>
      <path class="st3" d="M133.6,218.1h15.2c12.1,0,16.4,2.7,17.8,4.2c2.4,2.6,2.8,8.2,1.3,16.1
			c-1.7,8.8-4.9,15.1-9.5,18.6c-4.7,3.6-12.3,5.4-22.6,5.4h-10.9L133.6,218.1z M159.6,186.4h-55.2c-2.6,0-4.8,1.8-5.3,4.4
			L73.5,322.6c-0.3,1.6,0.1,3.2,1.1,4.5c1,1.3,2.6,2,4.2,2h28.7c2.6,0,4.8-1.8,5.3-4.4l6-30.6h20.1c11.4,0,21-1.2,28.5-3.7
			c7.7-2.5,14.8-6.8,21.1-12.6c5.2-4.8,9.5-10.2,12.7-16c3.2-5.8,5.6-12.3,6.9-19.3c3.4-17.3,0.6-31.1-8.1-41.1
			C191.4,191.5,177.8,186.4,159.6,186.4 M118.4,267.8h17.5c11.6,0,20.2-2.2,25.9-6.5c5.7-4.4,9.5-11.6,11.5-21.8
			c1.9-9.8,1-16.7-2.6-20.7c-3.6-4-10.9-6-21.8-6h-19.7L118.4,267.8 M159.6,191.9c16.6,0,28.7,4.4,36.3,13.1
			c7.6,8.7,9.9,20.9,6.9,36.5c-1.3,6.4-3.4,12.3-6.3,17.6c-3,5.3-6.9,10.2-11.7,14.6c-5.7,5.4-12.1,9.2-19.1,11.5
			c-7,2.3-15.9,3.4-26.8,3.4h-24.6l-6.8,35H78.8l25.6-131.8H159.6"/>
    </g>
    <g>
      <path class="st4" d="M271.3,291.3c-0.8,0-1.6-0.4-2.1-1c-0.5-0.6-0.7-1.4-0.6-2.2l11.3-58.3c1.1-5.5,0.8-9.5-0.7-11.2
			c-1-1-3.8-2.8-12.3-2.8h-20.5l-14.2,73.3c-0.2,1.3-1.4,2.2-2.7,2.2H201c-0.8,0-1.6-0.4-2.1-1c-0.5-0.6-0.7-1.4-0.6-2.2L224,156.3
			c0.2-1.3,1.4-2.2,2.7-2.2h28.5c0.8,0,1.6,0.4,2.1,1c0.5,0.6,0.7,1.4,0.6,2.2l-6.2,31.8h22.1c16.8,0,28.2,3,34.9,9.1
			c6.8,6.2,8.9,16.2,6.3,29.6l-11.9,61.3c-0.2,1.3-1.4,2.2-2.7,2.2H271.3z"/>
      <path class="st3" d="M255.1,151.4h-28.5c-2.6,0-4.8,1.8-5.3,4.4l-25.6,131.8c-0.3,1.6,0.1,3.2,1.1,4.5
			c1,1.3,2.6,2,4.2,2h28.5c2.6,0,4.8-1.8,5.3-4.4l13.8-71.1h18.3c8.5,0,10.2,1.8,10.3,1.9c0.5,0.6,1.2,3.1,0.1,8.8L266,287.6
			c-0.3,1.6,0.1,3.2,1.1,4.5c1,1.3,2.6,2,4.2,2h28.9c2.6,0,4.8-1.8,5.3-4.4l11.9-61.3c2.8-14.4,0.4-25.2-7.1-32.1
			c-7.2-6.6-19.2-9.8-36.7-9.8h-18.8l5.6-28.6c0.3-1.6-0.1-3.2-1.1-4.5C258.3,152.1,256.7,151.4,255.1,151.4 M255.1,156.8l-6.8,35
			h25.4c16,0,27,2.8,33,8.4c6.1,5.6,7.9,14.6,5.5,27.1l-11.9,61.3h-28.9l11.3-58.3c1.3-6.6,0.8-11.2-1.4-13.6
			c-2.2-2.4-7-3.6-14.3-3.6h-22.8l-14.7,75.5H201l25.6-131.8H255.1"/>
    </g>
    <g>
      <path class="st4" d="M359.9,265.1c10.9,0,19.1-2,24.2-6c5.1-3.9,8.6-10.7,10.5-20.2c1.7-8.9,1.1-15.1-1.9-18.4
			c-3.1-3.4-9.7-5.1-19.8-5.1h-17.4l-9.7,49.7H359.9z M302.9,326.4c-0.8,0-1.6-0.4-2.1-1c-0.5-0.6-0.7-1.4-0.6-2.2l25.6-131.8
			c0.2-1.3,1.4-2.2,2.7-2.2h55.2c17.4,0,30.3,4.7,38.4,14c8.2,9.3,10.7,22.4,7.5,38.8c-1.3,6.7-3.5,12.9-6.6,18.5
			c-3.1,5.6-7.2,10.7-12.2,15.3c-6,5.6-12.8,9.7-20.1,12c-7.2,2.4-16.5,3.6-27.6,3.6h-22.4l-6.4,32.8c-0.2,1.3-1.4,2.2-2.7,2.2
			H302.9z"/>
      <path class="st3" d="M357.6,218.1h15.2c12.1,0,16.4,2.7,17.8,4.2c2.4,2.6,2.8,8.2,1.3,16.1
			c-1.7,8.8-4.9,15.1-9.5,18.6c-4.7,3.6-12.3,5.4-22.6,5.4H349L357.6,218.1z M383.7,186.4h-55.2c-2.6,0-4.8,1.8-5.3,4.4l-25.6,131.8
			c-0.3,1.6,0.1,3.2,1.1,4.5c1,1.3,2.6,2,4.2,2h28.7c2.6,0,4.8-1.8,5.3-4.4l6-30.6H363c11.4,0,21-1.2,28.5-3.7
			c7.7-2.5,14.8-6.8,21.1-12.6c5.2-4.8,9.5-10.2,12.7-16c3.2-5.8,5.6-12.3,6.9-19.3c3.4-17.3,0.6-31.1-8.1-41.1
			C415.5,191.5,401.9,186.4,383.7,186.4 M342.4,267.8h17.5c11.6,0,20.2-2.2,25.9-6.5c5.7-4.4,9.5-11.6,11.5-21.8
			c1.9-9.8,1-16.7-2.6-20.7c-3.6-4-10.9-6-21.8-6h-19.7L342.4,267.8 M383.7,191.9c16.6,0,28.7,4.4,36.3,13.1
			c7.6,8.7,9.9,20.9,6.9,36.5c-1.3,6.4-3.4,12.3-6.3,17.6c-3,5.3-6.9,10.2-11.7,14.6c-5.7,5.4-12.1,9.2-19.1,11.5
			c-7,2.3-15.9,3.4-26.8,3.4h-24.6l-6.8,35h-28.7l25.6-131.8H383.7"/>
    </g>
  </g>
</svg>
