<svg xmlns="http://www.w3.org/2000/svg" width="500" height="500" viewBox="0 0 500 500">
  <style type="text/css">
    .st0{fill:#D249FC;}
    .st1{fill:url(#SVGID_1_);}
    .st2{fill:url(#SVGID_2_);}
    .st3{fill:#FFFFFF;}
    .st4{fill:#FFFFFF;}
  </style>
  <g>
    <path class="st0" d="M434.1,137.1l0-83.5c0-15.8-12.8-28.6-28.6-28.6h-80.9c-8.4,0-16.3,3.7-21.7,10l-230,268.3		c-4.4,5.2-6.9,11.8-6.9,18.6v83.5c0,15.8,12.8,28.6,28.6,28.6h80.9c8.4,0,16.3-3.7,21.7-10l230-268.3		C431.6,150.6,434.1,144,434.1,137.1C434.1,137.1,434.1,137.1,434.1,137.1z"/>
    <linearGradient id="SVGID_1_" gradientUnits="userSpaceOnUse" x1="421.4051" y1="401.9342" x2="44.3581" y2="227.1192" gradientTransform="matrix(1 0 0 -1 0 421.8898)">
      <stop offset="0.16" style="stop-color:#D249FC"/>
      <stop offset="0.55" style="stop-color:#FF2D90"/>
    </linearGradient>
    <path class="st1" d="M434.1,127.1V53.6c0-15.8-12.8-28.6-28.6-28.6h-92.1c-1.4,0-2.7,0.1-4,0.3L49.6,62.4		C35.5,64.4,25,76.5,25,90.7v110.2c0,15.8,12.8,28.6,28.6,28.6l130.3,0c3.1,0,6.1-0.5,9-1.5l221.5-73.8		C426.2,150.3,434.1,139.4,434.1,127.1C434.1,127.1,434.1,127.1,434.1,127.1z"/>
    <linearGradient id="SVGID_2_" gradientUnits="userSpaceOnUse" x1="53.0041" y1="367.1893" x2="465.7591" y2="-45.5697" gradientTransform="matrix(1 0 0 -1 0 421.8898)">
      <stop offset="0.3" style="stop-color:#FF2D90"/>
      <stop offset="0.7" style="stop-color:#7256FF"/>
    </linearGradient>
    <path class="st2" d="M475,446.4V207.5c0-11.5-6.8-21.8-17.4-26.3L194,68.2c-3.6-1.5-7.4-2.3-11.3-2.3H53.6		C37.8,65.9,25,78.7,25,94.6v126.3c0,5.7,1.7,11.2,4.8,15.9l150.5,225.5c5.3,8,14.2,12.7,23.8,12.7l242.2,0		C462.2,475,475,462.2,475,446.4z"/>
    <path d="M390.6,109.4H109.4v281.2h281.2V109.4z"/>
    <path class="st3" d="M188.8,146.8h-44.3V250h20.1v-39h23.6c7.4,0,13.8-1.3,19.4-4c5.6-2.7,9.9-6.5,12.9-11.3		c3-4.9,4.6-10.6,4.6-16.9c0-6.3-1.5-11.9-4.5-16.7c-2.9-4.8-7.2-8.5-12.7-11.2C202.4,148.2,196,146.8,188.8,146.8z M196.3,192.5		c-2.5,1.2-5.5,1.8-8.8,1.8h-22.8v-30.7h22.8c3.4,0,6.3,0.6,8.8,1.9c2.6,1.2,4.5,3,5.9,5.3c1.4,2.3,2.1,5,2.1,8.1s-0.7,5.8-2.1,8.2		C200.8,189.4,198.8,191.2,196.3,192.5z"/>
    <path class="st4" d="M251,247.7c6,2.7,12.8,4.1,20.4,4.1c7.6,0,14.4-1.3,20.5-4c6-2.7,10.8-6.5,14.1-11.3		c3.4-4.9,5.1-10.4,5.1-16.6c0-5-1.1-9.6-3.2-13.9c-2.2-4.3-5.2-7.8-9.2-10.7c-3.9-2.8-8.5-4.7-13.6-5.7l-20.5-3.8		c-3.2-0.6-5.8-1.9-7.6-3.8c-1.8-2-2.7-4.4-2.7-7.2c0-2.5,0.7-4.6,2.2-6.5c1.5-1.9,3.5-3.4,6.2-4.5c2.7-1.1,5.6-1.6,8.9-1.6		c3.3,0,6.3,0.6,9,1.7c2.7,1.1,4.7,2.6,6.2,4.6c1.5,2,2.3,4.2,2.3,6.8h20.1c0-5.9-1.7-11.1-5-15.6c-3.2-4.6-7.7-8.1-13.5-10.7		c-5.7-2.6-12.2-3.8-19.3-3.8c-7.1,0-13.5,1.3-19.2,3.9c-5.7,2.6-10.1,6.2-13.3,10.9c-3.2,4.7-4.8,10-4.8,16c0,4.9,1,9.3,2.9,13.3		c2,3.9,4.8,7.2,8.4,9.9c3.7,2.6,8,4.4,13,5.3l21.1,4.1c3.5,0.7,6.2,2.2,8.2,4.4c2,2.2,3,5,3,8.3c0,2.7-0.8,5-2.4,7.1		c-1.6,2.1-3.9,3.7-6.8,4.9c-2.8,1.1-6.1,1.7-9.7,1.7c-3.8,0-7.3-0.6-10.3-1.9c-3-1.3-5.4-3-7.1-5.3c-1.7-2.3-2.6-4.9-2.6-7.9h-20.2		c0.1,6.3,1.9,11.9,5.3,16.8C240.2,241.2,245,245,251,247.7z"/>
    <path class="st4" d="M144.5,334.4H257v21.1H144.5C144.5,355.5,144.5,334.4,144.5,334.4z"/>
  </g>
</svg>
