<svg xmlns="http://www.w3.org/2000/svg" width="500" height="500" viewBox="0 0 500 500">
  <style type="text/css">
    .st0{fill:#336791;}
    .st1{fill:#FFFFFF;}
  </style>
  <g>
    <path d="M467.1,294.7c-1.5-4.5-8.4-19.1-33-13.9c-9.9,2-17.3,2.8-22.6,2.9c20.2-34.1,36.7-73.1,46.2-109.8		c8.5-32.7,14.9-76.4-2.4-98.5C429.8,43,392.9,25.6,348.4,25c-22.9-0.3-44,4.1-55.6,7.8c-10-1.8-20.9-2.7-32.4-2.9		c-21.3-0.4-40.3,4.3-56.5,13.9c-9-3-23.3-7.3-39.9-10c-39-6.4-70.5-1.4-93.6,14.9C42.6,68.4,29.6,102.5,32,150.3		c0.8,15.2,9.3,61.3,22.6,105.1c7.7,25.2,15.9,46.1,24.3,62.1c12,22.7,24.9,36.2,39.3,40.9c8.1,2.7,22.8,4.5,38.3-8.4		c5.6,6.7,14.4,11.1,23.1,13.3h0.1c19.4,4.8,37.6,3.6,53-3.1c0.1,3.1,0.2,6.1,0.2,8.4c0.1,3.4,0.2,6.8,0.3,9.9v0.1		c1,23.6,2.5,40.8,7.1,53c0.3,0.8,0.6,1.7,0.9,2.7c2.3,7.1,6.1,18.8,15.9,28.1c6.5,6.2,17.2,12.5,33.6,12.5c4.7,0,10-0.5,15.8-1.7		c16.8-3.6,35.8-9.2,49.5-28.8c13-18.6,19.4-46.6,20.5-90.6c0.1-1.2,0.3-2.3,0.4-3.4c0.1-0.8,0.2-1.6,0.3-2.4l3.1,0.3l0.8,0.1		c17.1,0.7,37.9-2.8,50.8-8.8C442.2,335,474.8,317.8,467.1,294.7z"/>
    <path class="st0" d="M437.9,299.1c-50.8,10.5-54.4-6.8-54.4-6.8c53.6-79.6,76.1-180.6,56.8-205.4C387.5,19.6,296,51.4,294.5,52.3		l-0.5,0.1c-10-2.1-21.3-3.3-33.9-3.5c-23-0.4-40.4,6.1-53.6,16.1c0,0-163.1-67.2-155.5,84.5c1.6,32.2,46.3,244.2,99.5,180.1		c19.5-23.4,38.3-43.1,38.3-43.1c9.3,6.2,20.5,9.4,32.2,8.2l0.9-0.8c-0.3,2.9-0.2,5.8,0.4,9.1c-13.7,15.4-9.7,18-37.1,23.6		c-27.8,5.8-11.4,15.9-0.8,18.6c12.9,3.2,42.7,7.8,62.9-20.4l-0.8,3.2c5.4,4.3,9.2,28,8.5,49.5c-0.6,21.5-1,36.3,3.1,47.8		c4.2,11.5,8.5,37.4,44.5,29.7c30.1-6.5,45.8-23.1,47.9-51.1c1.5-19.8,5.1-16.9,5.3-34.7l2.8-8.4c3.2-26.9,0.5-35.6,19.1-31.5		l4.5,0.4c13.6,0.6,31.5-2.2,42-7.1C446.8,312,460.1,294.6,437.9,299.1L437.9,299.1z"/>
    <g>
      <path class="st1" d="M227.1,171.2c0.5-3.9-5.3-6.7-10.9-7.4c-4.5-0.6-8.7,0-10.8,1.5c-1.2,0.9-1.5,1.9-1.6,2.6			c-0.3,1.9,1,3.9,1.9,5.1c2.3,3,5.7,5.2,9,5.6c0.5,0.1,1,0.1,1.4,0.1C221.7,178.7,226.7,174.3,227.1,171.2z"/>
      <path class="st1" d="M356.7,160.6c-5.3,0.7-10.4,3.1-10,6.3c0.3,2.4,4.7,6.6,10,6.6c0.4,0,0.9,0,1.3-0.1c3.4-0.5,6.1-2.7,7.3-3.9			c1.8-1.9,2.9-4,2.7-5.5C367.6,160.8,362,159.9,356.7,160.6z"/>
      <path class="st1"
            d="M455.1,298c-1.9-5.9-8.2-7.8-18.5-5.6c-30.6,6.4-41.7,2-45.3-0.7c-0.2-0.2-0.2-0.2-0.2-0.2			C415,255.1,434.6,211,445.4,170c5.2-19.8,15.3-67.8-0.2-87.6c-22.9-29.3-56.5-45-97.2-45.4c-28-0.3-51.6,6.9-56.2,8.9			c-0.1,0-0.2,0.1-0.3,0.1c-9.6-2.3-20-3.7-31.2-3.9c-20.9-0.3-54.3,14.6-54.2,14.6c-15.3-5.8-85.1-29.2-128.3,1.4			C53.7,75.2,42.6,105.8,44.7,149c0.7,14.5,9,59.2,22,102c17.2,56.4,35.9,88.2,55.6,94.8c2.3,0.8,5,1.3,7.9,1.3			c7.2,0,16-3.2,25.2-14.2c15.1-18.2,29.2-33.4,34.6-39.1c7.8,4.1,16.3,6.5,24.9,6.7c0,0.1,0,0.6,0,0.8c-1.7,2-3.1,3.8-4.3,5.5			c-6.1,7.7-7.3,9.2-26.7,13.2c-5.6,1.1-20.1,4.1-20.4,14.4c-0.2,11.2,17.3,16,19.3,16.5c7,1.7,13.6,2.6,20.1,2.6			c15.6,0,29.3-5.3,40.3-15.2l0.1-0.1c-0.3,40,1.3,79.2,6.2,91.2c3.9,9.8,13.5,33.8,43.8,33.8c4.4,0,9.4-0.5,14.8-1.7			c31.6-6.8,45.4-20.8,50.7-51.6c2.8-16.5,7.8-55.5,10.1-76.6c4.8,1.5,11.1,2.2,17.8,2.2c14,0,30.3-3,40.5-7.7			C438.2,322.3,458.8,309.3,455.1,298z M349.6,49.7c36.5,0.8,65.3,14.4,85.7,40.5c15.7,20-1.6,111-51.5,189.6c0,0-1-1.1-1.5-1.8			c-0.2-0.3-0.4-0.5-0.6-0.8c12.9-21.4,10.4-42.5,8.2-61.1c-0.9-7.7-1.8-15-1.6-21.7c0.2-7.2,1.2-13.4,2.1-19.4			c1.1-7.4,1.9-24.3,2-23.8c0.2-0.9,0.3-2,0.2-3.3c-0.8-8.6-10.6-34.5-30.7-57.8c-11-12.7-27-27.1-48.8-36.7			C313,53.3,335.1,49.4,349.6,49.7z M377.2,217.7c1.9,15.8,3.8,31.8-3.6,47.9v-0.1c0,0,0,0.1-0.1,0.1c-1.2-2.1-2.3-4.2-3.2-6.8			c-0.9-2.2-2.9-5.9-5.8-10.9c-10.9-19.6-36.6-65.6-23.4-84.3c6.8-9.6,23.8-10,38.7-8.2c-0.1,6.3-1,11.8-1.9,17.7			c-1,6.4-2,12.9-2.2,20.9C375.3,201.8,376.3,209.9,377.2,217.7z M145.6,324.9c-10.1,12.1-17.1,9.8-19.3,9			c-15-5-32.2-36.5-47.5-86.5c-13.2-43.2-20.9-86.8-21.5-99c-1.9-38.6,7.4-65.5,27.8-79.9c33.1-23.5,87.6-9.4,109.5-2.3			c0,0-0.5,0.8-0.8,1.1c-33.5,33.8-35.1,90.1-35,100.6c-0.1,0.5-0.1,0.9-0.1,1.2v0.1v0.1c0,3.5-0.1,3.6,0.1,6.4			c0.6,10.4,1.8,29.8-1.3,51.8c-2.8,20.4,3.4,40.4,17.3,54.9c1.4,1.5,2.9,2.9,4.4,4.2C179.2,286.6,159.8,307.7,145.6,324.9z			 M184,273.6c-11.1-11.6-16.3-27.8-13.9-44.5c3.2-23.2,2-43.4,1.4-54.4c-0.1-1.5-0.2-2.8-0.2-3.9c5.3-4.6,29.6-17.7,47-13.7			c7.9,1.8,12.7,7.2,14.8,16.5c10.4,48,1.4,68-5.9,84.2c-1.5,3.3-2.9,6.5-4.1,9.7l-0.9,2.5c-2.3,6.4-4.5,12.2-6,17.8			C204.3,287.8,192.8,282.7,184,273.6z M243.2,317.7L243.2,317.7c-0.2,0.9-0.5,1.8-1.1,2.7c-16.1,22.5-39.5,22.2-56.3,18			c-3.4-0.9-6.6-2.3-8.4-3.6c1.5-0.7,4.2-1.7,9-2.6c22.8-4.6,26.3-8,34-17.8c1.7-2.2,3.7-4.7,6.6-7.9c4.1-4.6,6-3.8,9.4-2.4			c2.7,1.1,5.5,4.6,6.6,8.5c0.1,0.5,0.2,1.1,0.3,1.8C243.3,314.5,243.2,316.7,243.2,317.7z M357.3,319c-0.1,0.4-0.2,0.8-0.2,1.2			c0,0.1,0,0.2,0,0.3c-0.9,11.9-7.6,67.6-11,87.3c-4.4,26-14,35.7-40.9,41.4c-27.9,6-37.8-8.3-44.3-24.6			c-4.2-10.5-6.3-57.9-4.7-110.1c0-0.7-0.1-1.4-0.3-2c0,0-0.5-2.3-0.9-3.6c-2.2-7.6-7.5-13.9-13.8-16.6c-2.5-1-7.2-2.9-12.6-1.5			v-0.1h-0.1c1.2-5,3.2-10.4,5.5-16.4l0.9-2.5c1-2.8,2.4-5.8,3.7-8.9c7.6-16.9,18-39.9,6.7-91.9c-4.2-19.5-18.3-29-39.6-26.8			c-12.8,1.3-24.6,6.5-30.3,9.5c-1.1,0.6-2.2,1.1-3.2,1.7c1.6-19.8,7.9-56.3,30.8-79.4c14.5-14.6,33.8-21.8,57.4-21.4			c46.4,0.8,76.1,24.6,92.9,44.4c14.4,17.1,22.3,34.4,25.5,43.5c-23.5-2.4-39.5,2.2-47.6,13.8c-17.7,25.2,9.6,74.2,22.7,97.6			c2.4,4.3,4.4,8.1,5.2,9.6c4.2,10.3,9.8,17.3,13.8,22.3c1.2,1.5,2.4,3,3.3,4.3C369.2,292.2,356.9,296.8,357.3,319z M421.4,316.2			c-7.3,3.3-19.5,6-31,6.5c-12.2,0.6-18.7-1.2-20.5-2.5c-0.1-0.4-0.3-1.2-0.3-1.2c-0.4-13.8,5-15.3,10.6-17c0.9-0.3,1.8-0.5,2.6-0.8			c0.5,0.4,1.1,0.9,1.7,1.3c10.3,6.8,28.6,7.5,54.5,2.2c0.1,0,0.2,0,0.3-0.1C435.9,307.9,429.9,312.2,421.4,316.2z"/>
    </g>
  </g>
</svg>
