<?xml version="1.0" encoding="utf-8"?>
<!-- Generator: Adobe Illustrator 23.1.0, SVG Export Plug-In . SVG Version: 6.00 Build 0)  -->
<svg version="1.1" id="Слой_1" xmlns="http://www.w3.org/2000/svg" xmlns:xlink="http://www.w3.org/1999/xlink" x="0px" y="0px"
	 viewBox="0 0 432.1 445.4" style="enable-background:new 0 0 432.1 445.4;" xml:space="preserve">
<style type="text/css">
	.st0{stroke:#000000;stroke-width:37.3953;}
	.st1{fill:#336791;}
	.st2{fill:none;}
	.st3{fill:#FFFFFF;}
	.st4{fill:none;stroke:#FFFFFF;stroke-width:3;stroke-linecap:round;stroke-linejoin:round;}
</style>
<g id="orginal">
</g>
<path class="st0" d="M323.2,324.2c2.8-23.6,2-27.1,19.6-23.2l4.5,0.4c13.5,0.6,31.2-2.2,41.6-7c22.4-10.4,35.6-27.7,13.6-23.1
	c-50.3,10.4-53.8-6.7-53.8-6.7c53.1-78.8,75.3-178.8,56.1-203.3C352.5-5.5,262,26,260.5,26.9L260,27c-9.9-2.1-21.1-3.3-33.6-3.5
	c-22.8-0.4-40,6-53.1,15.9c0,0-161.4-66.5-153.9,83.6c1.6,31.9,45.8,241.7,98.5,178.3c19.3-23.2,37.9-42.7,37.9-42.7
	c9.2,6.1,20.3,9.3,31.9,8.1l0.9-0.8c-0.3,2.9-0.2,5.7,0.4,9c-13.6,15.2-9.6,17.8-36.7,23.4c-27.5,5.7-11.3,15.7-0.8,18.4
	c12.8,3.2,42.3,7.7,62.3-20.2l-0.8,3.2c5.3,4.3,5,30.6,5.7,49.5c0.8,18.8,2,36.4,5.9,46.8c3.8,10.4,8.4,37,44,29.4
	C298.3,418.9,321.1,409.8,323.2,324.2"/>
<path class="st1" d="M402.4,271.2c-50.3,10.4-53.8-6.7-53.8-6.7c53.1-78.8,75.3-178.8,56.2-203.3C352.5-5.5,262,26,260.5,26.9
	L260,27c-9.9-2.1-21.1-3.3-33.6-3.5c-22.8-0.4-40,6-53.1,15.9c0,0-161.4-66.5-153.9,83.6c1.6,31.9,45.8,241.7,98.5,178.3
	c19.3-23.2,37.9-42.7,37.9-42.7c9.2,6.1,20.3,9.3,31.9,8.1l0.9-0.8c-0.3,2.9-0.2,5.7,0.4,9c-13.6,15.2-9.6,17.8-36.7,23.4
	c-27.5,5.7-11.3,15.7-0.8,18.4c12.8,3.2,42.3,7.7,62.3-20.2l-0.8,3.2c5.3,4.3,9.1,27.7,8.4,49c-0.6,21.3-1,35.9,3.1,47.3
	c4.2,11.4,8.4,37,44,29.4c29.8-6.4,45.3-22.9,47.4-50.6c1.5-19.6,5-16.7,5.2-34.3l2.8-8.3c3.2-26.6,0.5-35.2,18.9-31.2l4.5,0.4
	c13.5,0.6,31.2-2.2,41.6-7C411.2,284,424.4,266.7,402.4,271.2L402.4,271.2z"/>
<g>
	<path class="st2" d="M52.8,42.9c-20.2,14.3-29.4,40.9-27.5,79.1c0.6,12.1,8.2,55.1,21.3,98c15.1,49.5,32.2,80.7,47,85.6
		c2.3,0.8,9.2,3.1,19.1-8.9c14.1-17,27.4-31.4,33.4-37.9c-1.5-1.3-3-2.7-4.4-4.2c-13.7-14.3-19.9-34.1-17.1-54.3
		c3-21.8,1.9-41,1.3-51.3c-0.2-2.8-0.3-4.9-0.3-6.3c-0.1-3.8-0.9-65.1,34.6-101.1c0.3-0.3,0.6-0.6,0.9-0.9
		C139.6,33.6,85.7,19.7,52.8,42.9z"/>
	<path class="st2" d="M172.2,117.9c21.1-2.2,35.1,7.2,39.2,26.5c11.1,51.5,0.9,74.4-6.6,91c-1.4,3.1-2.7,6-3.7,8.8l-0.9,2.5
		c-2.2,5.9-4.3,11.4-5.4,16.3c5.5-1.4,10.1,0.5,12.6,1.5c6.3,2.6,11.6,8.9,13.7,16.4c0.4,1.2,0.6,2.4,0.8,3.7c0.2,0.6,0.3,1.3,0.3,2
		c-1.4,51.8,0.6,98.6,4.7,109c6.4,16.1,16.2,30.2,43.8,24.3c26.6-5.7,36.1-15.3,40.5-41c3.4-19.5,10-74.6,10.9-86.4
		c-1.2-23.5,11.5-28.2,18.5-30.2c-0.9-1.3-2.1-2.8-3.3-4.3c-4-5-9.5-11.8-13.7-22.1c-0.6-1.6-2.7-5.3-5.1-9.5
		c-13-23.3-40-71.7-22.5-96.6c8-11.5,23.8-16.1,47.1-13.7C340,107,332.3,89.9,318,73c-16.6-19.6-46-43.2-92-43.9
		c-23.3-0.4-42.4,6.8-56.8,21.2c-22.8,23-28.9,59.3-30.5,78.8c1.1-0.6,2.2-1.2,3.4-1.8C148,124.4,159.5,119.2,172.2,117.9z"/>
	<path class="st2" d="M202.6,276.1c-3.4-1.4-5.2-2.2-9.3,2.4c0,0,0,0,0,0c-2.7,3.1-4.7,5.6-6.5,7.8c-7.6,9.7-11.1,12.9-33.7,17.6
		c-4.7,1-7.3,1.9-8.9,2.6c1.8,1.2,4.9,2.7,8.3,3.6c16.6,4.2,39.8,4.4,55.7-17.8c1.9-2.6,1.3-6,0.8-7.8
		C208,280.7,205.3,277.2,202.6,276.1z"/>
	<path class="st2" d="M189.4,240c1.2-3.2,2.6-6.3,4.1-9.6c7.2-15.9,16.1-35.7,5.8-83.3c-2-9.2-6.8-14.5-14.6-16.3
		c-17.2-3.9-41.3,9-46.5,13.6c0,1,0.1,2.4,0.2,3.9c0.6,10.8,1.8,30.8-1.4,53.8c-2.3,16.4,2.7,32.4,13.8,44
		c8.7,9.1,20.1,14.1,31.8,14.1c1.3-5.5,3.5-11.4,5.9-17.6L189.4,240z M181.2,152c-3.3-0.5-6.6-2.5-8.9-5.5c-0.8-1.1-2.1-3.1-1.9-5
		c0.1-0.7,0.5-1.7,1.6-2.6c2.1-1.6,6.2-2.2,10.7-1.5c5.6,0.8,11.3,3.4,10.7,7.4c-0.4,3.2-5.4,7.4-10.9,7.4
		C182.2,152.1,181.7,152,181.2,152z"/>
	<path class="st2" d="M342.1,190.5c-0.9-7.7-1.9-15.7-1.6-23.4c0.3-7.9,1.3-14.4,2.2-20.7c0.9-5.8,1.7-11.4,1.9-17.6
		c-14.7-1.8-31.6-1.4-38.3,8.1c-13,18.5,12.4,64,23.2,83.4c2.8,5,4.8,8.6,5.7,10.8c1,2.5,2.1,4.7,3.3,6.8
		C345.9,222.2,344,206.1,342.1,190.5z M330.3,142.9c-1.2,1.3-3.7,3.4-7.2,3.9c-0.4,0.1-0.9,0.1-1.3,0.1c-5.2,0-9.5-4.1-9.9-6.5
		c-0.4-3.1,4.6-5.5,9.9-6.2c5.2-0.7,10.7,0.2,11.2,3.3l0,0C333.2,138.8,332.1,140.9,330.3,142.9z"/>
	<path class="st2" d="M349.4,274.6c-0.6-0.4-1.2-0.8-1.7-1.3c-0.9,0.3-1.7,0.5-2.6,0.8c-5.8,1.6-11.2,3.1-10.5,17.8
		c1.5,1.2,7.9,3.3,20.6,2.7c11.5-0.5,23.5-3,30.7-6.4c8.4-3.9,14.3-8.2,17.7-11.5c-0.1,0-0.2,0-0.3,0.1
		C377.7,282,359.6,281.3,349.4,274.6z"/>
	<path class="st2" d="M399.5,64.5c-20.2-25.8-48.8-39.3-84.8-40.1c-14.2-0.3-27,1.5-36.3,3.4c21.6,9.5,37.5,23.7,48.3,36.3
		c19.9,23.1,29.6,48.7,30.4,57.2c0.1,1.3,0,2.4-0.2,3.3c0.3,8.9-0.8,16.4-1.9,23.7c-0.9,5.9-1.9,12-2.1,19.2
		c-0.2,6.7,0.6,13.9,1.6,21.5c2.2,18.5,4.7,39.4-8,60.4c0.2,0.3,0.4,0.5,0.6,0.8c0.5,0.6,1,1.3,1.5,1.9
		C398,174.4,415,84.3,399.5,64.5z"/>
	<path class="st3" d="M182.8,137.3c-4.5-0.6-8.6,0-10.7,1.5c-1.2,0.9-1.5,1.9-1.6,2.6c-0.3,1.9,1,3.9,1.9,5c2.3,3,5.6,5.1,8.9,5.5
		c0.5,0.1,1,0.1,1.4,0.1c5.5,0,10.5-4.3,10.9-7.4C194.1,140.7,188.4,138,182.8,137.3z"/>
	<path class="st3" d="M182.5,139.3c-5.2-0.7-9.7,0.3-10,2.4h0c-0.3,2,3.7,7.5,9,8.2c5.2,0.7,9.7-3.5,10-5.6
		C191.8,142.3,187.8,140.1,182.5,139.3z M181.8,147.8c-3.9-0.5-6.9-4.4-7.2-5.8c0.7-0.5,3.4-1.3,7.6-0.7c4.3,0.6,6.7,2.1,7.2,2.8
		C188.9,145.3,185.7,148.4,181.8,147.8z"/>
	<path class="st3" d="M333,137.4L333,137.4c-0.4-3.1-5.9-4-11.2-3.3c-5.2,0.7-10.3,3.1-9.9,6.2c0.3,2.4,4.7,6.5,9.9,6.5
		c0.4,0,0.9,0,1.3-0.1c3.4-0.5,6-2.7,7.2-3.9C332.1,140.9,333.2,138.8,333,137.4z"/>
	<path class="st3" d="M331.9,137.5c-0.3-2-4.8-3.1-10-2.4c-5.2,0.7-9.3,3-9,5c0.3,2,4.8,6.3,10,5.6
		C328.2,145,332.2,139.6,331.9,137.5L331.9,137.5z M328.8,141.4c-1,1.1-3.1,2.9-6,3.3c-4.7,0.7-8.6-3.3-8.8-4.7
		c-0.1-0.9,2.6-3.1,8.1-3.8c1.1-0.2,2.2-0.2,3.1-0.2c3.6,0,5.6,1,5.7,1.7C331,138.2,330.4,139.8,328.8,141.4z"/>
	<path class="st3" d="M322.1,293c0-0.2,0-0.3,0-0.5c-0.9,11.8-7.5,66.9-10.9,86.4c-4.4,25.7-13.9,35.3-40.5,41
		c-27.6,5.9-37.4-8.2-43.8-24.3c-4.2-10.4-6.2-57.3-4.7-109c0-0.7-0.1-1.4-0.3-2c0.7,5.5-0.4,10.6-3.4,14.8
		c-2.8,3.9-5.9,7.4-9.2,10.4c-0.3,39.6,1.3,78.5,6.1,90.4c3.9,9.7,13.4,33.5,43.4,33.5c4.4,0,9.3-0.5,14.6-1.7
		c31.3-6.7,44.9-20.6,50.2-51.1c2.8-16.3,7.6-55.3,9.9-76.2c-1.9-0.6-3.5-1.3-4.9-2.1C323.2,299.6,322.2,295.3,322.1,293z"/>
	<path class="st3" d="M112.8,296.7c-10,12-16.9,9.7-19.1,8.9c-14.8-4.9-31.9-36.1-47-85.6c-13.1-42.8-20.7-85.9-21.3-98
		c-1.9-38.2,7.3-64.8,27.5-79.1c32.8-23.3,86.8-9.3,108.5-2.3c3.5-3.5,7.3-6.6,11.3-9.3c-15.1-5.7-84.2-28.9-127,1.4
		c-23.9,16.9-34.9,47.2-32.8,89.9c0.7,14.4,8.9,58.6,21.8,101c17,55.8,35.5,87.3,55,93.8c2.3,0.8,4.9,1.3,7.8,1.3
		c7.1,0,15.8-3.2,24.9-14.1c15-18.1,29.1-33.3,34.3-38.8c-3.7-2-7.2-4.3-10.4-7.1C140.1,265.3,126.9,279.7,112.8,296.7z"/>
	<path class="st3" d="M314.7,24.3c36.1,0.8,64.6,14.3,84.8,40.1c15.5,19.8-1.6,109.9-51,187.7c2.7,3.4,4.8,6.5,5.7,10.1
		c0.1,0.2,0.5,0.8,1.6,1.5c23.7-36.1,43.1-79.7,53.7-120.3c5.1-19.6,15.1-67.1-0.2-86.7c-22.7-29-55.9-44.5-96.2-44.9
		c-27.7-0.3-51.1,6.8-55.6,8.8c7.5,1.9,14.5,4.3,20.9,7.1C287.7,25.8,300.4,24,314.7,24.3z"/>
	<path class="st3" d="M419.1,270.1c-1.9-5.8-8.1-7.7-18.3-5.5c-30.5,6.3-41.4,1.9-44.9-0.7c-0.8,1.2-1.6,2.4-2.4,3.6
		c-1.2,1.8-3.2,2.8-5.2,2.8c-1.2,0-2.4-0.3-3.5-1.1c-2.9-1.9-3.6-5.8-1.7-8.7c1.9-2.8,3.7-5.5,5.4-8.3c-0.5-0.6-1-1.2-1.5-1.9
		c-0.2-0.3-0.4-0.5-0.6-0.8c-0.6,0.9-1.1,1.8-1.7,2.8c-1.2,1.8-3.2,2.8-5.2,2.8c-1.2,0-2.4-0.3-3.5-1.1c-2.9-1.9-3.6-5.8-1.7-8.6
		c1.6-2.4,3-4.9,4.1-7.3c-1.2-2.1-2.3-4.3-3.3-6.8c-0.9-2.2-2.9-5.8-5.7-10.8c-10.8-19.4-36.2-64.9-23.2-83.4
		c6.7-9.5,23.6-9.9,38.3-8.1c0-1.7,0-3.3-0.1-5.1c-0.2-3.4,2.5-6.4,5.9-6.6c3.4-0.2,6.4,2.5,6.6,5.9c0,0.5,0,1,0.1,1.5
		c0.2-0.9,0.3-2,0.2-3.3c-0.8-8.5-10.5-34.1-30.4-57.2c-10.9-12.6-26.7-26.8-48.3-36.3c-8.1,1.7-13.7,3.5-15.3,4
		c-0.3,0.1-0.6,0.3-0.9,0.4c-3.8,1.2-6.7-0.9-7.8-3.3c-1.3-2.9-0.2-6.3,2.5-7.9c0.1-0.1,0.3-0.2,0.6-0.3c-9.6-2.4-20-3.8-31.3-4
		c-20.8-0.3-38.8,4.6-53.6,14.8c1.6,0.6,2.5,1,2.9,1.1c3.2,1.3,4.7,4.9,3.4,8.1s-4.9,4.7-8.1,3.4c-0.2-0.1-3.7-1.5-9.5-3.4
		c-0.3,0.3-0.6,0.6-0.9,0.9c-35.6,35.9-34.7,97.3-34.6,101.1c0,0,0-0.1,0-0.1c0-1.8,0.1-6.2,13-13.4c1.6-19.5,7.7-55.8,30.5-78.8
		c14.4-14.5,33.5-21.6,56.8-21.2c45.9,0.8,75.3,24.3,92,43.9c14.3,16.9,22.1,34,25.2,43.1c-23.3-2.4-39.1,2.2-47.1,13.7
		c-17.5,24.9,9.5,73.4,22.5,96.6c2.4,4.3,4.4,8,5.1,9.5c4.2,10.2,9.7,17.1,13.7,22.1c1.2,1.5,2.4,3,3.3,4.3c-7,2-19.7,6.7-18.5,30.2
		c0-0.1,0-0.2,0-0.3c0.3-3.4,3.3-6,6.7-5.7c3.4,0.3,6,3.2,5.7,6.7c-0.2,2.3-0.6,6.4-1.2,11.7c4.8,1.5,11,2.2,17.6,2.2
		c13.9,0,30-3,40.1-7.6C402.4,294.2,422.8,281.3,419.1,270.1z M385.8,288.1c-7.2,3.3-19.3,5.9-30.7,6.4c-12.7,0.6-19.1-1.4-20.6-2.7
		c-0.7-14.6,4.7-16.1,10.5-17.8c0.9-0.3,1.8-0.5,2.6-0.8c0.5,0.4,1.1,0.9,1.7,1.3c10.2,6.7,28.3,7.4,53.9,2.2c0.1,0,0.2,0,0.3-0.1
		C400.1,279.9,394.2,284.2,385.8,288.1z"/>
	<path class="st3" d="M328.8,286.5c-3.4-0.2-6.4,2.3-6.7,5.7c0,0.1,0,0.2,0,0.3c0,0.2,0,0.3,0,0.5c0.1,2.3,1.1,6.6,6.4,9.7
		c1.4,0.8,3,1.5,4.9,2.1c0.6-5.3,1-9.4,1.2-11.7C334.8,289.7,332.2,286.7,328.8,286.5z"/>
	<path class="st3" d="M170.7,44c3.2,1.3,6.8-0.2,8.1-3.4s-0.2-6.8-3.4-8.1c-0.3-0.1-1.3-0.5-2.9-1.1c-4,2.7-7.8,5.8-11.3,9.3
		C167.1,42.6,170.6,43.9,170.7,44z"/>
	<path class="st3" d="M354.3,262.3c-0.9-3.6-3.1-6.7-5.7-10.1c-1.8,2.8-3.6,5.6-5.4,8.3c-1.9,2.9-1.2,6.7,1.7,8.7
		c1.1,0.7,2.3,1.1,3.5,1.1c2,0,4-1,5.2-2.8c0.8-1.2,1.6-2.4,2.4-3.6C354.8,263.1,354.4,262.4,354.3,262.3z"/>
	<path class="st3" d="M254.4,28.8c1.1,2.4,4,4.5,7.8,3.3c0.3-0.1,0.6-0.2,0.9-0.4c1.6-0.6,7.2-2.3,15.3-4
		c-6.4-2.8-13.4-5.3-20.9-7.1c-0.3,0.1-0.5,0.2-0.6,0.3C254.2,22.6,253.1,26,254.4,28.8z"/>
	<path class="st3" d="M216,280.3c2.8,0.1,5,1.9,5.8,4.4c-0.2-1.2-0.4-2.4-0.8-3.7c-2.2-7.5-7.4-13.8-13.7-16.4
		c-2.5-1-7.1-2.9-12.6-1.5c-0.9,3.8-1.3,7.1-0.9,10.1c0.5,3.4-1.8,6.6-5.2,7.1c-0.3,0-0.6,0.1-1,0.1c-3,0-5.7-2.2-6.2-5.3
		c-0.1-0.6-0.2-1.2-0.2-1.8c-1.7,2-3.1,3.8-4.3,5.4c-6,7.6-7.2,9.1-26.4,13.1c-5.5,1.1-19.9,4.1-20.2,14.3
		c-0.2,11.1,17.1,15.8,19.1,16.3c6.9,1.7,13.5,2.6,19.9,2.6c15.4,0,28.9-5.1,39.8-14.9c0.1-7.9,0.2-15.8,0.4-23.6
		C209.7,282.9,212.6,280.2,216,280.3z M208.3,292.3c-15.9,22.3-39.1,22-55.7,17.8c-3.4-0.9-6.5-2.3-8.3-3.6c1.5-0.7,4.2-1.7,8.9-2.6
		c22.6-4.6,26-7.9,33.7-17.6c1.7-2.2,3.7-4.7,6.5-7.8c0,0,0,0,0,0c4.1-4.6,5.9-3.8,9.3-2.4c2.7,1.1,5.4,4.6,6.5,8.4
		C209.6,286.2,210.2,289.6,208.3,292.3z"/>
	<path class="st3" d="M218.4,299.5c3-4.2,4.2-9.4,3.4-14.8c-0.8-2.5-3-4.3-5.8-4.4c-3.4-0.1-6.3,2.6-6.4,6.1
		c-0.2,7.7-0.4,15.7-0.4,23.6C212.5,306.9,215.6,303.4,218.4,299.5z"/>
	<path class="st3" d="M194.7,263.1c1.2-4.9,3.2-10.3,5.4-16.3l0.9-2.5c1-2.8,2.4-5.7,3.7-8.8c7.5-16.7,17.8-39.5,6.6-91
		c-4.2-19.3-18.1-28.7-39.2-26.5c-12.7,1.3-24.3,6.4-30,9.4c-1.2,0.6-2.4,1.2-3.4,1.8c-0.7,8-0.6,13.1-0.6,13.3
		c0.1,3.4-2.6,6.3-6.1,6.4c-3.4,0.1-6.3-2.6-6.4-6.1c0,0,0-0.1,0-0.1c0,1.4,0.1,3.5,0.3,6.3c0.6,10.3,1.8,29.5-1.3,51.3
		c-2.8,20.2,3.4,40,17.1,54.3c1.4,1.5,2.9,2.9,4.4,4.2c2.2-2.3,3.5-3.7,3.5-3.7c2.4-2.5,6.3-2.6,8.8-0.2c2.5,2.4,2.6,6.3,0.2,8.8
		c0,0-0.8,0.8-2.1,2.2c7.7,4.1,16.1,6.4,24.7,6.6c0,0.2,0,0.4,0.1,0.7c0.8-1,1.7-2,2.6-3C187.7,266,191.4,263.9,194.7,263.1z
		 M150.8,246c-11-11.5-16.1-27.5-13.8-44c3.2-23,2-43,1.4-53.8c-0.1-1.5-0.2-2.8-0.2-3.9c5.2-4.6,29.3-17.5,46.5-13.6
		c7.8,1.8,12.6,7.1,14.6,16.3c10.3,47.5,1.4,67.3-5.8,83.3c-1.5,3.3-2.9,6.4-4.1,9.6l-0.9,2.5c-2.3,6.3-4.5,12.1-5.9,17.6
		C170.9,260,159.5,255,150.8,246z"/>
	<path class="st3" d="M158.5,254.8c-2.5-2.4-6.4-2.3-8.8,0.2c0,0-1.3,1.4-3.5,3.7c3.3,2.8,6.7,5.2,10.4,7.1c1.3-1.4,2.1-2.2,2.1-2.2
		C161.1,261.2,161,257.2,158.5,254.8z"/>
	<path class="st3" d="M132.1,148.8c3.4-0.1,6.2-2.9,6.1-6.4c0-0.2-0.1-5.3,0.6-13.3c-13,7.2-13,11.7-13,13.4c0,0,0,0.1,0,0.1
		c0,0,0,0.1,0,0.1C125.8,146.2,128.7,148.9,132.1,148.8z"/>
	<path class="st3" d="M187.7,280.3c0.3,0,0.6,0,1-0.1c3.4-0.5,5.7-3.7,5.2-7.1c-0.4-2.9-0.1-6.3,0.9-10.1c-3.3,0.9-7,2.9-10.8,7.1
		c-1,1.1-1.8,2.1-2.6,3c0.1,0.6,0.1,1.2,0.2,1.8C182,278.1,184.7,280.3,187.7,280.3z"/>
	<path class="st3" d="M354.5,189c-0.9-7.6-1.8-14.8-1.6-21.5c0.2-7.1,1.2-13.3,2.1-19.2c1.1-7.3,2.3-14.8,1.9-23.7
		c-1,3.9-4.5,4.8-5,4.9l-2.2,0.1c-1.7-0.3-3.4-0.5-5.2-0.7c-0.1,6.2-1,11.8-1.9,17.6c-1,6.3-2,12.8-2.2,20.7
		c-0.2,7.7,0.7,15.7,1.6,23.4c1.9,15.6,3.8,31.6-3.6,47.5c2.6,4.7,5.5,8.3,8,11.5C359.2,228.4,356.7,207.5,354.5,189z"/>
	<path class="st3" d="M334.3,245.3c-1.9,2.9-1.1,6.7,1.7,8.6c1.1,0.7,2.3,1.1,3.5,1.1c2,0,4-1,5.2-2.8c0.6-0.9,1.2-1.8,1.7-2.8
		c-2.5-3.1-5.3-6.8-8-11.5C337.3,240.5,335.9,242.9,334.3,245.3z"/>
	<path class="st3" d="M351.9,129.5c0.5-0.1,4-1,5-4.9c0-0.5,0-1-0.1-1.5c-0.2-3.4-3.1-6.1-6.6-5.9c-3.4,0.2-6.1,3.1-5.9,6.6
		c0.1,1.8,0.1,3.4,0.1,5.1c1.8,0.2,3.5,0.5,5.2,0.7L351.9,129.5z"/>
</g>
<path class="st4" d="M0,60.2"/>
</svg>
