<svg xmlns="http://www.w3.org/2000/svg" width="500" height="500" viewBox="0 0 500 500">
  <style type="text/css">
    .st0{fill:#087EA4;}
  </style>
  <g>
    <circle class="st0" cx="250" cy="250" r="40.1"/>
    <path class="st0" d="M250,342c-126.2,0-225-40.4-225-92s98.8-92,225-92s225,40.4,225,92C475,301.7,376.2,342,250,342z M250,177.7			c-121,0-205.5,38.2-205.5,72.4s84.3,72.4,205.5,72.4c121,0,205.5-38.2,205.5-72.4S371,177.7,250,177.7z"/>
    <path class="st0" d="M339.8,450.7c-19.9,0-44-10.9-70.2-32.2c-34.7-28.2-69.9-71.6-99.3-122.5c-29.3-50.7-49.4-103.1-56.5-147.2			c-7.5-47.3,0.8-80.5,23.6-93.6s55.8-3.8,92.9,26.4c34.7,28.2,69.9,71.6,99.3,122.5l0,0c63.1,109.2,77.5,215,32.9,240.8			C355.8,448.8,348.1,450.7,339.8,450.7z M160.4,68.9c-4.9,0-9.4,1.1-13.1,3.3c-15,8.6-20.1,35.5-14,73.7			c6.7,41.8,25.9,91.7,54,140.5s61.8,90.3,94.6,117c30,24.4,55.8,33.3,70.7,24.7c29.6-17.2,20.5-109.2-40-214.1l0,0			c-28.2-48.7-61.8-90.4-94.6-117C195.5,78.6,175.4,68.9,160.4,68.9z"/>
    <path class="st0" d="M160.2,450.7c-8.3,0-15.9-1.9-22.7-5.8C92.8,419,107.3,313.2,170.4,204c29.3-50.7,64.6-94.3,99.3-122.5			c37.2-30.2,70.1-39.5,92.9-26.4C407.2,81,392.7,186.7,329.6,296l0,0c-29.3,50.7-64.6,94.3-99.3,122.5			C204.2,439.8,180.2,450.7,160.2,450.7z M339.6,68.9c-15,0-35.1,9.7-57.6,27.8c-32.9,26.7-66.5,68.3-94.6,117			c-60.5,104.9-69.7,196.9-40,214.1c15,8.6,40.9-0.3,70.7-24.7c32.9-26.7,66.5-68.3,94.6-117c60.5-104.9,69.6-196.9,40-214.1			C348.9,70.1,344.5,68.9,339.6,68.9z"/>
  </g>
</svg>
