<svg xmlns="http://www.w3.org/2000/svg" width="500" height="500" viewBox="0 0 500 500">
  <style type="text/css">
    .st0{fill:#CD6799;}
  </style>
  <path class="st0" d="M430.3,278c-17.5,0.1-32.6,4.3-45.3,10.5c-4.6-9.3-9.3-17.4-10.1-23.5c-0.9-7.1-2-11.3-0.9-19.7
	c1.1-8.4,6-20.4,5.9-21.2s-1.1-5.2-11.2-5.3c-10.1-0.1-18.7,1.9-19.7,4.6c-1,2.7-3,8.7-4.2,14.9c-1.8,9.1-20.1,41.7-30.5,58.8
	c-3.4-6.7-6.3-12.5-6.9-17.2c-0.9-7.1-2-11.3-0.9-19.7c1.1-8.4,6-20.4,5.9-21.2c-0.1-0.9-1.1-5.2-11.2-5.3
	c-10.1-0.1-18.7,1.9-19.7,4.6c-1,2.7-2.1,8.9-4.2,14.9c-2.1,6-26.5,60.4-32.9,74.5c-3.3,7.2-6.1,12.9-8.1,16.9c0,0,0,0,0,0
	s-0.1,0.3-0.3,0.7c-1.7,3.4-2.7,5.2-2.7,5.2s0,0,0,0.1c-1.4,2.5-2.8,4.8-3.5,4.8c-0.5,0-1.5-6.6,0.2-15.6
	c3.6-18.9,12.4-48.3,12.3-49.3c0-0.5,1.6-5.6-5.7-8.3c-7.1-2.6-9.6,1.7-10.3,1.8c-0.6,0-1.1,1.5-1.1,1.5s7.9-33.1-15.1-33.1
	c-14.4,0-34.4,15.8-44.2,30c-6.2,3.4-19.5,10.6-33.6,18.4c-5.4,3-10.9,6-16.2,8.9c-0.4-0.4-0.7-0.8-1.1-1.2
	c-27.9-29.8-79.6-50.9-77.4-91c0.8-14.6,5.9-52.9,99.2-99.5c76.5-38.1,137.7-27.6,148.3-4.4c15.1,33.2-32.7,94.9-112.2,103.8
	c-30.3,3.4-46.2-8.3-50.2-12.7c-4.2-4.6-4.8-4.8-6.4-3.9c-2.5,1.4-0.9,5.5,0,7.9c2.4,6.2,12.1,17.1,28.7,22.6
	c14.6,4.8,50.1,7.4,93.1-9.2c48.1-18.6,85.7-70.4,74.7-113.7c-11.2-44-84.2-58.5-153.3-34C118.6,89.1,74.1,112,42.1,142
	C4.1,177.6-2,208.6,0.5,221.5c8.9,46,72.3,75.9,97.7,98.1c-1.3,0.7-2.4,1.3-3.5,1.9c-12.7,6.3-61.1,31.6-73.1,58.3
	c-13.7,30.3,2.2,52.1,12.7,55c32.6,9.1,66.1-7.2,84-34.1c18-26.8,15.8-61.7,7.5-77.7c-0.1-0.2-0.2-0.4-0.3-0.6
	c3.3-1.9,6.6-3.9,10-5.9c6.5-3.8,12.8-7.4,18.4-10.4c-3.1,8.5-5.3,18.6-6.5,33.2c-1.4,17.2,5.7,39.4,14.9,48.2c4.1,3.9,9,3.9,12,3.9
	c10.7,0,15.6-8.9,21-19.5c6.6-13,12.5-28,12.5-28s-7.4,40.7,12.7,40.7c7.3,0,14.7-9.5,17.9-14.3c0,0.1,0,0.1,0,0.1s0.2-0.3,0.6-0.9
	c0.8-1.2,1.2-1.9,1.2-1.9s0-0.1,0-0.2c2.9-5.1,9.5-16.7,19.2-35.9c12.6-24.8,24.8-55.9,24.8-55.9s1.1,7.6,4.8,20.2
	c2.2,7.4,6.8,15.6,10.4,23.4c-2.9,4.1-4.7,6.4-4.7,6.4s0,0,0,0.1c-2.3,3.1-5,6.5-7.7,9.7c-10,11.9-21.8,25.4-23.4,29.4
	c-1.9,4.6-1.4,8,2.2,10.7c2.6,2,7.4,2.3,12.3,2c9-0.6,15.3-2.8,18.4-4.2c4.9-1.7,10.5-4.4,15.8-8.3c9.8-7.2,15.7-17.5,15.1-31.1
	c-0.3-7.5-2.7-15-5.7-22c0.9-1.3,1.8-2.6,2.7-3.9c15.4-22.5,27.4-47.3,27.4-47.3s1.1,7.6,4.8,20.2c1.9,6.4,5.6,13.3,8.9,20.1
	c-14.5,11.8-23.5,25.5-26.6,34.5c-5.8,16.6-1.3,24.1,7.2,25.9c3.8,0.8,9.3-1,13.3-2.7c5.1-1.7,11.2-4.5,16.9-8.7
	c9.8-7.2,19.2-17.3,18.6-30.9c-0.3-6.2-1.9-12.4-4.2-18.3c12.3-5.1,28.2-8,48.5-5.6c43.5,5.1,52,32.2,50.4,43.6
	c-1.6,11.4-10.8,17.6-13.8,19.5c-3,1.9-4,2.5-3.7,3.9c0.4,2,1.8,2,4.4,1.5c3.6-0.6,22.8-9.2,23.7-30.2
	C501,307,475.5,277.8,430.3,278z M95.1,391c-14.4,15.7-34.5,21.7-43.2,16.6c-9.3-5.4-5.6-28.5,12-45.2
	c10.8-10.2,24.7-19.5,33.9-25.3c2.1-1.3,5.2-3.1,8.9-5.4c0.6-0.4,1-0.6,1-0.6l0,0c0.7-0.4,1.5-0.9,2.2-1.3
	C116.5,353.6,110.2,374.5,95.1,391z M200.1,319.7c-5,12.2-15.5,43.5-21.9,41.8c-5.5-1.4-8.8-25.2-1.1-48.6
	c3.9-11.8,12.2-25.9,17.1-31.3c7.9-8.8,16.5-11.7,18.6-8.1C215.4,278,203.2,312,200.1,319.7z M286.7,361c-2.1,1.1-4.1,1.8-5,1.3
	c-0.7-0.4,0.9-1.9,0.9-1.9s10.8-11.7,15.1-17c2.5-3.1,5.4-6.8,8.5-10.9c0,0.4,0,0.8,0,1.2C306.3,347.8,292.8,357.3,286.7,361z
	 M353.5,345.8c-1.6-1.1-1.3-4.8,3.9-16.1c2-4.5,6.7-12,14.8-19.2c0.9,3,1.5,5.8,1.5,8.4C373.7,336.5,361.1,343.1,353.5,345.8z"/>
</svg>
