<svg xmlns="http://www.w3.org/2000/svg" width="500" height="500" viewBox="0 0 500 500">
  <style type="text/css">
    .st0{fill:#3178C6;}
    .st1{fill:#FFFFFF;}
  </style>
  <path class="st0" d="M44,25h412c10.5,0,19,8.5,19,19v412c0,10.5-8.5,19-19,19H44c-10.5,0-19-8.5-19-19V44C25,33.5,33.5,25,44,25z"/>
  <g>
    <polygon class="st1" points="275.1,264.4 275.1,227.5 115,227.5 115,264.4 172.1,264.4 172.1,428.7 217.7,428.7 217.7,264.4 	"/>
    <path class="st1"
          d="M293.3,424.4c7.4,3.8,16,6.6,26,8.5s20.6,2.8,31.7,2.8c10.8,0,21.1-1,30.9-3.1c9.7-2.1,18.3-5.5,25.6-10.2		c7.4-4.8,13.1-10.9,17.5-18.5s6.4-17,6.4-28.3c0-8.1-1.3-15.3-3.7-21.4c-2.4-6.1-5.9-11.6-10.6-16.4c-4.6-4.8-10.2-9.1-16.6-12.9		c-6.5-3.8-13.7-7.4-21.8-10.7c-5.9-2.4-11.3-4.8-15.9-7.1c-4.7-2.3-8.7-4.6-12-7s-5.8-5-7.6-7.6c-1.8-2.7-2.7-5.7-2.7-9.1		c0-3.1,0.8-5.9,2.4-8.4s3.9-4.6,6.8-6.4s6.5-3.1,10.7-4.1s8.9-1.4,14.1-1.4c3.8,0,7.7,0.3,12,0.8c4.2,0.5,8.4,1.4,12.6,2.6		s8.4,2.6,12.3,4.4c4,1.8,7.6,3.9,11.1,6.2v-41.9c-6.8-2.6-14.4-4.6-22.5-5.9s-17.5-1.9-28-1.9c-10.7,0-20.9,1.2-30.5,3.4		c-9.6,2.3-18,5.8-25.4,10.7s-13,11.1-17.3,18.6c-4.2,7.6-6.4,16.6-6.4,27c0,13.4,3.9,24.8,11.6,34.2c7.7,9.4,19.5,17.5,35.4,24		c6.2,2.5,12,5,17.4,7.5c5.4,2.4,10,4.9,13.9,7.6c3.9,2.6,7,5.5,9.3,8.5s3.4,6.6,3.4,10.5c0,2.9-0.7,5.6-2.2,8.1		c-1.4,2.5-3.5,4.6-6.4,6.5c-2.9,1.8-6.5,3.2-10.7,4.3c-4.3,1-9.3,1.5-15,1.5c-9.8,0-19.4-1.7-29.1-5.1c-9.6-3.4-18.5-8.5-26.6-15.4		L293.3,424.4z"/>
  </g>
</svg>
