<svg xmlns="http://www.w3.org/2000/svg" width="500" height="500" viewBox="0 0 500 500">
  <style type="text/css">
    .st0{fill:url(#SVGID_1_);}
    .st1{fill:url(#SVGID_2_);}
  </style>
  <linearGradient id="SVGID_1_" gradientUnits="userSpaceOnUse" x1="137.5085" y1="120.097" x2="400.2662" y2="-236.749" gradientTransform="matrix(1 0 0 -1 0 95.8898)">
    <stop offset="0" style="stop-color:#41D1FF"/>
    <stop offset="1" style="stop-color:#BD34FE"/>
  </linearGradient>
  <linearGradient id="SVGID_2_" gradientUnits="userSpaceOnUse" x1="261.4126" y1="65.8772" x2="308.9442" y2="-260.1845" gradientTransform="matrix(1 0 0 -1 0 95.8898)">
    <stop offset="0" style="stop-color:#FFEA83"/>
    <stop offset="8.333330e-02" style="stop-color:#FFDD35"/>
    <stop offset="1" style="stop-color:#FFA800"/>
  </linearGradient>
  <g>
    <path class="st0" d="M473.2,91.6L262.1,469.1c-4.4,7.8-15.6,7.8-20,0.1L26.8,91.6c-4.8-8.5,2.4-18.7,12-17l211.3,37.8		c1.3,0.2,2.7,0.2,4.1,0l206.9-37.7C470.7,73,478,83.1,473.2,91.6z"/>
    <path class="st1" d="M350.8,25.1L194.6,55.7c-2.6,0.5-4.5,2.7-4.6,5.3l-9.6,162.3c-0.2,3.8,3.3,6.8,7,5.9l43.5-10		c4.1-0.9,7.7,2.6,6.9,6.7l-12.9,63.3c-0.9,4.3,3.1,7.9,7.3,6.6l26.9-8.2c4.2-1.3,8.2,2.4,7.3,6.7l-20.5,99.4		c-1.3,6.2,7,9.6,10.4,4.3l2.3-3.6l127.3-254.1c2.1-4.3-1.5-9.1-6.2-8.2l-44.8,8.6c-4.2,0.8-7.8-3.1-6.6-7.2l29.2-101.3		C358.6,28.2,355,24.3,350.8,25.1z"/>
  </g>
</svg>
