<svg xmlns="http://www.w3.org/2000/svg" width="500" height="500" viewBox="0 0 500 500">
  <style type="text/css">
    .st0{fill:#FFFFFF;filter:url(#Adobe_OpacityMaskFilter);}
    .st1{mask:url(#mask0_1_);}
    .st2{fill:#0065A9;}
    .st3{fill:#007ACC;}
    .st4{fill:#1F9CF0;}
    .st5{opacity:0.25;}
    .st6{fill:url(#SVGID_1_);}
  </style>
  <defs>
    <filter id="Adobe_OpacityMaskFilter" filterUnits="userSpaceOnUse" x="25" y="26.3" width="450" height="447.4">
      <feColorMatrix type="matrix" values="1 0 0 0 0  0 1 0 0 0  0 0 1 0 0  0 0 0 1 0"/>
    </filter>
  </defs>
  <mask maskUnits="userSpaceOnUse" x="25" y="26.3" width="450" height="447.4" id="mask0_1_">
    <path class="st0" d="M344.2,471.8c7.1,2.8,15.2,2.6,22.3-0.9l92.6-44.6c9.7-4.7,15.9-14.5,15.9-25.3V99c0-10.8-6.2-20.6-15.9-25.3		l-92.6-44.6c-9.4-4.5-20.4-3.4-28.6,2.6c-1.2,0.9-2.3,1.8-3.3,2.9L157.3,196.2l-77.2-58.6c-7.2-5.5-17.2-5-23.9,1.1l-24.8,22.5		c-8.2,7.4-8.2,20.3,0,27.7l67,61.1l-67,61.1c-8.2,7.4-8.1,20.3,0,27.7l24.8,22.5c6.7,6.1,16.7,6.5,23.9,1.1l77.2-58.6l177.3,161.7		C337.3,468.3,340.6,470.4,344.2,471.8z M362.6,147.9L228.1,250l134.5,102.1V147.9z"/>
  </mask>
  <g class="st1">
    <path class="st2" d="M459.1,73.7l-92.7-44.6c-10.7-5.2-23.5-3-32,5.4L31.1,311.1c-8.2,7.4-8.1,20.3,0,27.7l24.8,22.5		c6.7,6.1,16.7,6.5,23.9,1.1L445.1,85.3c12.3-9.3,29.9-0.6,29.9,14.8V99C475,88.2,468.8,78.4,459.1,73.7z"/>
    <path class="st3" d="M459.1,426.3l-92.7,44.6c-10.7,5.2-23.5,3-32-5.4L31.1,188.9c-8.2-7.4-8.1-20.3,0-27.7l24.8-22.5			c6.7-6.1,16.7-6.5,23.9-1.1l365.3,277.1c12.3,9.3,29.9,0.6,29.9-14.8v1.1C475,411.8,468.8,421.6,459.1,426.3z"/>
    <path class="st4" d="M366.4,470.9c-10.7,5.2-23.5,3-32-5.4c10.4,10.4,28.1,3,28.1-11.6V46.1c0-14.7-17.7-22-28.1-11.6			c8.4-8.4,21.2-10.6,32-5.4l92.6,44.6C468.8,78.3,475,88.1,475,99V401c0,10.8-6.2,20.6-15.9,25.3L366.4,470.9z"/>
    <g class="st5">
      <linearGradient id="SVGID_1_" gradientUnits="userSpaceOnUse" x1="249.8633" y1="373.5938" x2="249.8633" y2="-73.8142" gradientTransform="matrix(1 0 0 -1 0 399.8898)">
        <stop offset="0" style="stop-color:#FFFFFF"/>
        <stop offset="1" style="stop-color:#FFFFFF;stop-opacity:0"/>
      </linearGradient>
      <path class="st6" d="M343.9,471.8c7.1,2.8,15.2,2.6,22.3-0.9l92.6-44.6c9.7-4.7,15.9-14.5,15.9-25.3V99c0-10.8-6.2-20.6-15.9-25.3			l-92.6-44.6c-9.4-4.5-20.4-3.4-28.6,2.6c-1.2,0.9-2.3,1.8-3.3,2.9L157,196.2l-77.2-58.6c-7.2-5.5-17.2-5-23.9,1.1l-24.8,22.5			c-8.2,7.4-8.2,20.3,0,27.7l67,61.1l-67,61.1c-8.2,7.4-8.1,20.3,0,27.7l24.8,22.5c6.7,6.1,16.7,6.5,23.9,1.1l77.2-58.6l177.3,161.7			C337.1,468.3,340.4,470.4,343.9,471.8z M362.4,147.9L227.9,250l134.5,102.1V147.9z"/>
    </g>
  </g>
</svg>
