<svg xmlns="http://www.w3.org/2000/svg" width="500" height="500" viewBox="0 0 500 500">
  <style type="text/css">
    .st0{fill:#FFFFFF;}
    .st1{fill:#8ED6FB;}
    .st2{fill:#1C78C0;}
  </style>
  <g>
    <path class="st0" d="M250,25l198.9,112.5v225L250,475L51.1,362.5v-225L250,25z"/>
    <path class="st1" d="M413.4,354.8l-156.8,88.7v-69.1l97.7-53.8L413.4,354.8z M424.1,345V159.6l-57.3,33.1v119.2		L424.1,345z M86,354.8l156.8,88.7v-69.1l-97.7-53.8L86,354.8z M75.3,345V159.6l57.3,33.1v119.2L75.3,345z M82,147.6l160.8-91v66.8		l-103,56.7l-0.8,0.5L82,147.6z M417.4,147.6l-160.8-91v66.8l103,56.6l0.8,0.5L417.4,147.6z"/>
    <path class="st2" d="M242.8,358.7l-96.4-53v-105l96.4,55.7V358.7z M256.6,358.7l96.4-53v-105l-96.4,55.7L256.6,358.7z		 M152.9,188.5l96.8-53.2l96.8,53.2l-96.8,55.9L152.9,188.5z"/>
  </g>
</svg>
