<svg xmlns="http://www.w3.org/2000/svg" width="500" height="500" viewBox="0 0 500 500">
  <path d="M427.1,361.4c-2.6-5.7-8-9.5-14.3-9.7c-81.5-3-145.4-69.2-145.4-150.7c0-45.7,20.4-88.4,55.9-117.2c4.9-4,7-10.2,5.6-16.4	c-1.4-6.1-6.1-10.8-12.2-12.2c-14.9-3.4-30.1-5.2-45.2-5.2c-110.3,0-200,89.7-200,200s89.7,200,200,200c59.2,0,115-26,153.2-71.4	C428.7,373.7,429.6,367.2,427.1,361.4z M271.5,82.7c2.2,0,4.3,0,6.4,0.1c-27.9,33.1-43.2,74.7-43.2,118.2	c0,85.4,59.5,159.8,142.3,178.8c-29.8,24.3-66.9,37.5-105.6,37.5c-92.3,0-167.3-75.1-167.3-167.3S179.2,82.7,271.5,82.7z"/>
</svg>
