<svg xmlns="http://www.w3.org/2000/svg" width="500" height="500" viewBox="0 0 500 500">
  <g>
    <path d="M111.3,313.4l-29.2,16.9c-3.3,1.9-5.7,5-6.7,8.8c-1,3.7-0.5,7.6,1.4,11c2.7,4.6,7.5,7.2,12.5,7.2		c2.4,0,4.9-0.6,7.2-1.9l29.2-16.9c6.9-4,9.3-12.8,5.3-19.7C127,311.8,118.2,309.4,111.3,313.4z"/>
    <path d="M111.9,254.1c0-8-6.5-14.4-14.4-14.4h-33c-8,0-14.4,6.5-14.4,14.4c0,8,6.5,14.4,14.4,14.4h33		C105.4,268.6,111.9,262.1,111.9,254.1z"/>
    <path d="M181.3,369c-6.9-4-15.7-1.6-19.7,5.3l-16.9,29.2c-4,6.9-1.6,15.7,5.3,19.7c2.2,1.3,4.7,1.9,7.2,1.9		c1.2,0,2.5-0.2,3.7-0.5c3.7-1,6.8-3.4,8.8-6.7l16.9-29.2c1.9-3.3,2.4-7.2,1.4-11C187,374,184.6,370.9,181.3,369z"/>
    <path d="M245.9,111.9c8,0,14.4-6.5,14.4-14.4v-33c0-8-6.5-14.4-14.4-14.4s-14.4,6.5-14.4,14.4v33		C231.4,105.4,237.9,111.9,245.9,111.9z"/>
    <path d="M161.6,125.7c2.7,4.6,7.5,7.2,12.5,7.2c2.4,0,4.9-0.6,7.2-1.9c3.3-1.9,5.7-5,6.7-8.8c1-3.7,0.5-7.6-1.4-10.9		l-16.9-29.2c-1.9-3.3-5-5.7-8.8-6.7c-3.7-1-7.6-0.5-10.9,1.4c-6.9,4-9.3,12.8-5.3,19.7L161.6,125.7z"/>
    <path d="M82.1,169.7l29.2,16.9c2.2,1.3,4.7,1.9,7.2,1.9c1.3,0,2.5-0.2,3.8-0.5c3.7-1,6.8-3.4,8.8-6.7		c1.9-3.3,2.4-7.2,1.4-11c-1-3.7-3.4-6.8-6.7-8.8l-29.2-16.9c-3.3-1.9-7.2-2.5-11-1.4c-3.7,1-6.8,3.4-8.8,6.7		c-1.9,3.3-2.4,7.2-1.4,10.9C76.4,164.7,78.7,167.8,82.1,169.7z"/>
    <path d="M250,140.7c-60.3,0-109.3,49-109.3,109.3c0,60.3,49,109.3,109.3,109.3c60.3,0,109.3-49,109.3-109.3		C359.3,189.7,310.3,140.7,250,140.7z M250,330.4c-44.3,0-80.4-36.1-80.4-80.4c0-44.3,36.1-80.4,80.4-80.4		c44.3,0,80.4,36.1,80.4,80.4C330.4,294.3,294.3,330.4,250,330.4z"/>
    <path d="M381.5,188.5c2.4,0,4.9-0.6,7.2-1.9l29.2-16.9c3.3-1.9,5.7-5,6.7-8.8c1-3.7,0.5-7.6-1.4-11		c-4-6.9-12.8-9.2-19.7-5.3l-29.2,16.9c-6.9,4-9.3,12.8-5.3,19.7C371.6,185.9,376.5,188.5,381.5,188.5z"/>
    <path d="M417.9,330.3l-29.2-16.9c-6.9-4-15.7-1.6-19.7,5.3c-4,6.9-1.6,15.7,5.3,19.7l29.2,16.9		c2.3,1.3,4.7,1.9,7.2,1.9c5,0,9.9-2.6,12.5-7.2c1.9-3.3,2.4-7.2,1.4-11C423.6,335.3,421.3,332.2,417.9,330.3z"/>
    <path d="M435.6,231.4h-33c-8,0-14.4,6.5-14.4,14.4s6.5,14.4,14.4,14.4h33c8,0,14.4-6.5,14.4-14.4		S443.5,231.4,435.6,231.4z"/>
    <path d="M338.4,374.3c-4-6.9-12.8-9.2-19.7-5.3c-6.9,4-9.3,12.8-5.3,19.7l16.9,29.2c1.9,3.4,5,5.7,8.8,6.7		c1.2,0.3,2.5,0.5,3.7,0.5c2.5,0,5-0.7,7.2-1.9c6.9-4,9.2-12.8,5.3-19.7L338.4,374.3z"/>
    <path d="M318.7,131c2.3,1.3,4.7,1.9,7.2,1.9c5,0,9.9-2.6,12.5-7.2l16.9-29.2c4-6.9,1.6-15.7-5.3-19.7		c-3.3-1.9-7.2-2.5-10.9-1.4c-3.7,1-6.8,3.4-8.8,6.7l-16.9,29.2C309.4,118.2,311.8,127,318.7,131z"/>
    <path d="M254.1,388.1c-8,0-14.4,6.5-14.4,14.4v33c0,8,6.5,14.4,14.4,14.4c8,0,14.4-6.5,14.4-14.4v-33		C268.6,394.6,262.1,388.1,254.1,388.1z"/>
    <path d="M282.1,286.1c-22.4-5.7-38.5-26.1-38.5-50.4c0-12.9,4.3-24.7,12-33.7c3.2-3.8,0.9-9.6-4-9.8		c-0.2,0-0.5,0-0.8,0c-31.2-0.4-57.8,25.2-58.5,56.4c-0.7,32.5,25.4,59,57.7,59c12.9,0,24.7-4.2,34.3-11.3		C288.2,293.5,286.9,287.3,282.1,286.1z"/>
  </g>
</svg>
