<svg xmlns="http://www.w3.org/2000/svg" width="500" height="500" viewBox="0 0 500 500">
  <style type="text/css">
    .st0{fill:#DD2626;}
  </style>
  <path class="st0" d="M250,0C111.9,0,0,111.9,0,250s111.9,250,250,250s250-111.9,250-250S388.1,0,250,0z M105.6,131.3l288.4-0.6
	c10.3,0,11,8.3,8.4,13.5L256.6,279.7c-3.8,3.9-9.6,3.9-13.5,0L97.2,144.8C91.4,138.4,97.9,131.3,105.6,131.3z M379.3,369.3H121.2
	c-14.2,0-25.8-11.6-25.8-25.8c0,0,0-148.3,0.6-146.4c0-7.1,7.7-10.3,12.9-5.8l113.6,105.8c7.7,6.4,17.4,10.3,27.7,10.3
	s20-3.9,27.7-11l114.2-105.1c5.2-4.5,12.9-0.7,12.9,5.8c0,29,0,107.7,0.1,146.4C405.1,357.7,393.5,369.3,379.3,369.3z"/>
</svg>
