<svg xmlns="http://www.w3.org/2000/svg" width="500" height="500" viewBox="0 0 500 500">
  <path d="M250,0C111.9,0,0,111.9,0,250s111.9,250,250,250s250-111.9,250-250S388.1,0,250,0z M365.9,170
	c-3.8,39.5-20,135.5-28.3,179.7c-3.5,18.7-10.4,25-17.1,25.6c-14.5,1.3-25.5-9.6-39.6-18.8c-22-14.4-34.4-23.4-55.8-37.5
	c-24.7-16.3-8.7-25.2,5.4-39.8c3.7-3.8,67.6-62,68.9-67.3c0.2-0.7,0.3-3.1-1.2-4.4c-1.5-1.3-3.6-0.9-5.2-0.5
	c-2.2,0.5-37.4,23.7-105.5,69.7c-10,6.9-19,10.2-27.1,10c-8.9-0.2-26.1-5-38.9-9.2c-15.7-5.1-28.1-7.8-27-16.4
	c0.6-4.5,6.8-9.1,18.6-13.8c72.9-31.8,121.5-52.7,145.8-62.8c69.4-28.9,83.9-33.9,93.3-34.1c2.1,0,6.7,0.5,9.7,2.9
	c2.5,2.1,3.2,4.8,3.6,6.8C365.8,162.1,366.2,166.6,365.9,170z"/>
</svg>
