<svg xmlns="http://www.w3.org/2000/svg"><style>:root svg:not(:target){display:none}</style><svg id="404" viewBox="0 0 500 250"><path d="m0 153.4 85.6-131H132v131.1h23.5v31.1H132v43.1H96.8v-43.1H0v-31.2zm96.8 0v-92l-58.9 92.1h58.9zM250.7 230.3c-11.3 0-21.6-1.8-30.6-5.4-9.1-3.6-16.8-9.3-23-17.2-6.3-7.8-11.1-17.9-14.5-30.2-3.4-12.3-5.1-27.3-5.1-44.9v-15.3c0-17.4 1.7-32.3 5.1-44.6 3.4-12.3 8.3-22.4 14.7-30.4 6.4-7.9 14-13.7 23-17.3 9-3.6 19.2-5.4 30.5-5.4s21.6 1.8 30.6 5.4c9.1 3.6 16.8 9.3 23.2 17.2 6.4 7.8 11.2 17.9 14.5 30.2 3.3 12.3 5 27.3 5 44.9v15.3c0 17.4-1.7 32.3-5.1 44.6-3.4 12.3-8.3 22.4-14.7 30.4-6.4 7.9-14 13.7-23 17.3-9.1 3.6-19.2 5.4-30.6 5.4zm0-32.9c5.7 0 10.7-1 15.2-2.9 4.5-2 8.3-5.4 11.4-10.3 3.1-4.9 5.5-11.5 7.2-19.8 1.7-8.3 2.5-18.9 2.5-31.8v-15.3c0-12.7-.9-23.2-2.6-31.5-1.8-8.3-4.2-15-7.3-19.9-3.1-5-6.9-8.5-11.4-10.4-4.5-2-9.5-2.9-15-2.9-5.7 0-10.8 1-15.2 2.9-4.5 2-8.3 5.4-11.4 10.3-3.1 4.9-5.5 11.5-7.2 19.8-1.7 8.3-2.5 18.9-2.5 31.8v15.3c0 12.7.8 23.2 2.5 31.5s4.1 15 7.3 19.9c3.2 5 7 8.5 11.4 10.4 4.4 2 9.5 2.9 15.1 2.9zM344.6 153.4l85.6-131.1h46.3v131.1H500v31.1h-23.5v43.1h-35.2v-43.1h-96.8v-31.1zm96.7 0v-92l-58.9 92.1h58.9z"></path></svg><svg id="close" viewBox="0 0 500 500"><path d="M484.4 439.8 294.5 250 484.4 60.2l-44.6-44.6L250 205.4 60.1 15.6 15.6 60.1 205.5 250 15.6 439.9l44.5 44.5L250 294.5l189.8 189.9z"></path></svg><svg id="dark" viewBox="0 0 500 500"><path d="M427.1 361.4c-2.6-5.7-8-9.5-14.3-9.7-81.5-3-145.4-69.2-145.4-150.7 0-45.7 20.4-88.4 55.9-117.2 4.9-4 7-10.2 5.6-16.4-1.4-6.1-6.1-10.8-12.2-12.2-14.9-3.4-30.1-5.2-45.2-5.2-110.3 0-200 89.7-200 200s89.7 200 200 200c59.2 0 115-26 153.2-71.4 4-4.9 4.9-11.4 2.4-17.2zM271.5 82.7c2.2 0 4.3 0 6.4.1-27.9 33.1-43.2 74.7-43.2 118.2 0 85.4 59.5 159.8 142.3 178.8-29.8 24.3-66.9 37.5-105.6 37.5-92.3 0-167.3-75.1-167.3-167.3S179.2 82.7 271.5 82.7z"></path></svg><svg id="github" viewBox="0 0 500 500"><path d="M250.2 4.2C111.8 4.2 0 116.8 0 256.2 0 367.7 71.7 462 171.1 495.4c12.4 2.5 17-5.4 17-12.1 0-5.8-.4-25.9-.4-46.7-69.6 15-84.1-30-84.1-30-11.2-29.2-27.8-36.7-27.8-36.7-22.8-15.4 1.7-15.4 1.7-15.4 25.3 1.7 38.5 25.9 38.5 25.9 22.4 38.4 58.4 27.5 72.9 20.9 2.1-16.3 8.7-27.5 15.7-33.8-55.5-5.8-113.9-27.5-113.9-124.4 0-27.5 9.9-50.1 25.7-67.6-2.5-6.3-11.2-32.1 2.5-66.8 0 0 21.1-6.7 68.8 25.9 20.4-5.5 41.4-8.3 62.6-8.3 21.1 0 42.7 2.9 62.5 8.3 47.6-32.6 68.8-25.9 68.8-25.9 13.7 34.6 5 60.5 2.5 66.8 16.2 17.5 25.7 40.1 25.7 67.6 0 96.8-58.4 118.1-114.3 124.4 9.1 7.9 17 22.9 17 46.7 0 33.8-.4 60.9-.4 69.3 0 6.7 4.6 14.6 17 12.1C428.3 462 500 367.7 500 256.2c.4-139.4-111.9-252-249.8-252z"></path></svg><svg id="light" viewBox="0 0 500 500"><path d="m111.3 313.4-29.2 16.9c-3.3 1.9-5.7 5-6.7 8.8-1 3.7-.5 7.6 1.4 11 2.7 4.6 7.5 7.2 12.5 7.2 2.4 0 4.9-.6 7.2-1.9l29.2-16.9c6.9-4 9.3-12.8 5.3-19.7-4-7-12.8-9.4-19.7-5.4zM111.9 254.1c0-8-6.5-14.4-14.4-14.4h-33c-8 0-14.4 6.5-14.4 14.4 0 8 6.5 14.4 14.4 14.4h33c7.9.1 14.4-6.4 14.4-14.4zM181.3 369c-6.9-4-15.7-1.6-19.7 5.3l-16.9 29.2c-4 6.9-1.6 15.7 5.3 19.7 2.2 1.3 4.7 1.9 7.2 1.9 1.2 0 2.5-.2 3.7-.5 3.7-1 6.8-3.4 8.8-6.7l16.9-29.2c1.9-3.3 2.4-7.2 1.4-11-1-3.7-3.4-6.8-6.7-8.7zM245.9 111.9c8 0 14.4-6.5 14.4-14.4v-33c0-8-6.5-14.4-14.4-14.4s-14.4 6.5-14.4 14.4v33c-.1 7.9 6.4 14.4 14.4 14.4zM161.6 125.7c2.7 4.6 7.5 7.2 12.5 7.2 2.4 0 4.9-.6 7.2-1.9 3.3-1.9 5.7-5 6.7-8.8 1-3.7.5-7.6-1.4-10.9l-16.9-29.2c-1.9-3.3-5-5.7-8.8-6.7-3.7-1-7.6-.5-10.9 1.4-6.9 4-9.3 12.8-5.3 19.7l16.9 29.2zM82.1 169.7l29.2 16.9c2.2 1.3 4.7 1.9 7.2 1.9 1.3 0 2.5-.2 3.8-.5 3.7-1 6.8-3.4 8.8-6.7 1.9-3.3 2.4-7.2 1.4-11-1-3.7-3.4-6.8-6.7-8.8l-29.2-16.9c-3.3-1.9-7.2-2.5-11-1.4-3.7 1-6.8 3.4-8.8 6.7a14.3 14.3 0 0 0-1.4 10.9c1 3.9 3.3 7 6.7 8.9zM250 140.7c-60.3 0-109.3 49-109.3 109.3s49 109.3 109.3 109.3 109.3-49 109.3-109.3-49-109.3-109.3-109.3zm0 189.7c-44.3 0-80.4-36.1-80.4-80.4 0-44.3 36.1-80.4 80.4-80.4 44.3 0 80.4 36.1 80.4 80.4 0 44.3-36.1 80.4-80.4 80.4zM381.5 188.5c2.4 0 4.9-.6 7.2-1.9l29.2-16.9c3.3-1.9 5.7-5 6.7-8.8 1-3.7.5-7.6-1.4-11-4-6.9-12.8-9.2-19.7-5.3l-29.2 16.9c-6.9 4-9.3 12.8-5.3 19.7 2.6 4.7 7.5 7.3 12.5 7.3zM417.9 330.3l-29.2-16.9c-6.9-4-15.7-1.6-19.7 5.3s-1.6 15.7 5.3 19.7l29.2 16.9c2.3 1.3 4.7 1.9 7.2 1.9 5 0 9.9-2.6 12.5-7.2 1.9-3.3 2.4-7.2 1.4-11-1-3.7-3.3-6.8-6.7-8.7zM435.6 231.4h-33c-8 0-14.4 6.5-14.4 14.4s6.5 14.4 14.4 14.4h33c8 0 14.4-6.5 14.4-14.4s-6.5-14.4-14.4-14.4zM338.4 374.3c-4-6.9-12.8-9.2-19.7-5.3-6.9 4-9.3 12.8-5.3 19.7l16.9 29.2c1.9 3.4 5 5.7 8.8 6.7 1.2.3 2.5.5 3.7.5 2.5 0 5-.7 7.2-1.9 6.9-4 9.2-12.8 5.3-19.7l-16.9-29.2zM318.7 131c2.3 1.3 4.7 1.9 7.2 1.9 5 0 9.9-2.6 12.5-7.2l16.9-29.2c4-6.9 1.6-15.7-5.3-19.7-3.3-1.9-7.2-2.5-10.9-1.4-3.7 1-6.8 3.4-8.8 6.7l-16.9 29.2c-4 6.9-1.6 15.7 5.3 19.7zM254.1 388.1c-8 0-14.4 6.5-14.4 14.4v33c0 8 6.5 14.4 14.4 14.4 8 0 14.4-6.5 14.4-14.4v-33c.1-7.9-6.4-14.4-14.4-14.4z"></path><path d="M282.1 286.1c-22.4-5.7-38.5-26.1-38.5-50.4 0-12.9 4.3-24.7 12-33.7 3.2-3.8.9-9.6-4-9.8h-.8c-31.2-.4-57.8 25.2-58.5 56.4-.7 32.5 25.4 59 57.7 59 12.9 0 24.7-4.2 34.3-11.3 3.9-2.8 2.6-9-2.2-10.2z"></path></svg><svg id="logo" viewBox="0 0 500 500"><path d="M250 0C111.9 0 0 111.9 0 250s111.9 250 250 250 250-111.9 250-250S388.1 0 250 0zm128 334.1-56.1 56.1-100.6-100.5v87.2H142V123.1h79.3v87.2l16.5-16.4 84.1-84.1 56.1 56.1-84.1 84.1 84.1 84.1z"></path></svg><svg id="mail" viewBox="0 0 500 500"><path d="M250 0C111.9 0 0 111.9 0 250s111.9 250 250 250 250-111.9 250-250S388.1 0 250 0zM105.6 131.3l288.4-.6c10.3 0 11 8.3 8.4 13.5L256.6 279.7c-3.8 3.9-9.6 3.9-13.5 0L97.2 144.8c-5.8-6.4.7-13.5 8.4-13.5zm273.7 238H121.2c-14.2 0-25.8-11.6-25.8-25.8 0 0 0-148.3.6-146.4 0-7.1 7.7-10.3 12.9-5.8l113.6 105.8c7.7 6.4 17.4 10.3 27.7 10.3s20-3.9 27.7-11l114.2-105.1c5.2-4.5 12.9-.7 12.9 5.8 0 29 0 107.7.1 146.4 0 14.2-11.6 25.8-25.8 25.8z"></path></svg><svg id="telegram" viewBox="0 0 500 500"><path d="M250 0C111.9 0 0 111.9 0 250s111.9 250 250 250 250-111.9 250-250S388.1 0 250 0zm115.9 170c-3.8 39.5-20 135.5-28.3 179.7-3.5 18.7-10.4 25-17.1 25.6-14.5 1.3-25.5-9.6-39.6-18.8-22-14.4-34.4-23.4-55.8-37.5-24.7-16.3-8.7-25.2 5.4-39.8 3.7-3.8 67.6-62 68.9-67.3.2-.7.3-3.1-1.2-4.4-1.5-1.3-3.6-.9-5.2-.5-2.2.5-37.4 23.7-105.5 69.7-10 6.9-19 10.2-27.1 10-8.9-.2-26.1-5-38.9-9.2-15.7-5.1-28.1-7.8-27-16.4.6-4.5 6.8-9.1 18.6-13.8 72.9-31.8 121.5-52.7 145.8-62.8 69.4-28.9 83.9-33.9 93.3-34.1 2.1 0 6.7.5 9.7 2.9 2.5 2.1 3.2 4.8 3.6 6.8.3 2 .7 6.5.4 9.9z"></path></svg><svg id="web-site" viewBox="0 0 500 500"><path d="M394 10H106c-52.9 0-96 43.1-96 96v288c0 52.9 43.1 96 96 96h288c52.9 0 96-43.1 96-96V106c0-52.9-43.1-96-96-96zM58 106c0-26.5 21.5-48 48-48h288c26.5 0 48 21.5 48 48v48H58v-48zm48 336c-26.5 0-48-21.5-48-48V202h96v240h-48zm336-48c0 26.5-21.5 48-48 48H202V202h240v192z"></path></svg></svg>